<!--Generated by EdrawMax, SVG Export angle_of_view.svg 页-2-->
<svg xmlns="http://www.w3.org/2000/svg" xmlns:xlink="http://www.w3.org/1999/xlink" viewBox="0 0 664 285" xmlns:ed="urn:edrawmax" height="285" width="664"><defs><marker refY="5.8989826245861199" refX="10.79796524917224" id="edrawArrow_end_4_2.66667_#a284dd" orient="auto" markerUnits="userSpaceOnUse" markerHeight="13.79796524917224" ed:arrow="4" markerWidth="13.79796524917224"><path fill="#a284dd" stroke="#a284dd" stroke-width="1" d="M1.0,1.0L10.8,5.9L1.0,10.8L1.0,1.0" stroke-linecap="round"/></marker></defs><g transform="translate(-83.83,-2422.29)"><g transform="translate(85.161381,2584.251969)" id="shape1"><path fill="#232322" stroke="#b7b6b4" fill-rule="nonzero" stroke-width="2.6666700839996338" d="M657.5,118.1C659.8,115.9,661.3,112.8,661.3,109.4L661.3,21.0C661.3,16.0,662.2,8.2,658.1,3.8C655.9,1.5,652.8,.0,649.3,.0L21.0,.0C16.0,.0,8.2,-0.9,3.8,3.2C1.5,5.4,.0,8.5,.0,12.0L.0,100.4C.0,105.3,-0.9,113.1,3.2,117.5C5.4,119.9,8.5,121.4,12.0,121.4L640.3,121.4C645.3,121.4,653.0,122.3,657.5,118.1z"/><text style="fill:#ffffff;font-family:Microsoft YaHei,PingFang SC,Microsoft YaHei,Arial;font-size:13px" xml:space="preserve"><tspan x="8.1" y="66.7" textLength="78.0">工程编译视角</tspan></text></g><g transform="translate(85.161381,2423.622047)" id="shape2"><path fill="#232322" stroke="#b7b6b4" fill-rule="nonzero" stroke-width="2.6666700839996338" d="M657.5,118.1C659.8,115.9,661.3,112.8,661.3,109.4L661.3,21.0C661.3,16.0,662.2,8.2,658.1,3.8C655.9,1.5,652.8,.0,649.3,.0L21.0,.0C16.0,.0,8.2,-0.9,3.8,3.2C1.5,5.4,.0,8.5,.0,12.0L.0,100.4C.0,105.3,-0.9,113.1,3.2,117.5C5.4,119.9,8.5,121.4,12.0,121.4L640.3,121.4C645.3,121.4,653.0,122.3,657.5,118.1z"/><text style="fill:#ffffff;font-family:Microsoft YaHei,PingFang SC,Microsoft YaHei,Arial;font-size:13px" xml:space="preserve"><tspan x="8.1" y="66.7" textLength="78.0">项目管理视角</tspan></text></g><path transform="translate(286.178181,2449.959063)" fill="#ffcd55" id="shape3" fill-rule="nonzero" d="M26.3,21.4L26.3,22.9C26.3,23.1,26.1,23.2,25.9,23.2L22.1,23.2C21.9,23.2,21.8,23.1,21.8,22.9L21.8,21.4C21.8,21.2,21.9,21.0,22.1,21.0L25.9,21.0C26.1,21.0,26.3,21.2,26.3,21.4zM48.0,21.4L48.0,40.5C48.0,42.2,46.7,43.5,45.0,43.5L3.0,43.5C1.3,43.5,.0,42.2,.0,40.5L.0,21.4C.0,21.2,.2,21.0,.4,21.0L18.4,21.0C18.6,21.0,18.8,21.2,18.8,21.4L18.8,23.2C18.8,24.9,20.1,26.2,21.8,26.2L26.3,26.2C27.9,26.2,29.3,24.9,29.3,23.2L29.3,21.4C29.3,21.2,29.4,21.0,29.6,21.0L47.6,21.0C47.8,21.0,48.0,21.2,48.0,21.4zM42.0,6.0L34.9,6.0C34.7,6.0,34.5,5.9,34.5,5.7L34.5,4.5C34.5,2.0,32.5,.0,30.0,.0L18.0,.0C15.5,.0,13.5,2.0,13.5,4.5L13.5,5.7C13.5,5.9,13.3,6.0,13.1,6.0L6.0,6.0C2.7,6.0,.0,8.7,.0,12.0L.0,17.6C.0,17.8,.2,18.0,.4,18.0L47.6,18.0C47.8,18.0,48.0,17.8,48.0,17.6L48.0,12.0C48.0,8.7,45.3,6.0,42.0,6.0zM16.5,4.5C16.5,3.7,17.2,3.0,18.0,3.0L30.0,3.0C30.8,3.0,31.5,3.7,31.5,4.5L31.5,5.6C31.5,5.8,31.3,6.0,31.1,6.0L16.9,6.0C16.7,6.0,16.5,5.8,16.5,5.6L16.5,4.5z"/><g transform="translate(250.178181,2493.498763)" id="shape4"><text style="fill:#b3cc80;font-family:Microsoft YaHei,PingFang SC,Microsoft YaHei,Arial;font-size:13px" xml:space="preserve"><tspan x="14.9" y="19.0" textLength="90.1">包（Package）</tspan></text></g><path transform="translate(203.240912,2609.379385)" fill="#ffcd55" id="shape5" fill-rule="nonzero" d="M37.3,38.7L36.1,36.9L39.7,34.8L39.7,13.1L28.9,6.8L29.9,5.0L41.8,11.9L41.8,36.0L37.3,38.7zM2.1,26.2L.0,26.2L.0,12.0L21.4,.0L26.2,2.7L25.1,4.7L21.3,2.4L2.1,13.2L2.1,26.2zM20.9,48.0L.0,36.1L.0,30.2L2.1,30.2L2.1,34.9L20.9,45.6L33.1,38.7L34.2,40.5L20.9,48.0zM19.6,14.0L14.9,11.3L14.9,9.6L21.1,6.0L27.1,9.6L27.1,11.3L22.6,14.0L22.4,15.6L21.1,14.7L19.6,15.6L19.6,14.0zM29.1,24.8L29.1,19.4L24.4,16.7L24.4,15.1L30.4,11.6L36.6,15.1L36.6,22.1L30.4,25.6L29.1,24.8zM14.9,38.4L14.9,31.4L16.2,30.5L20.9,33.2L25.7,30.5L27.1,31.3L27.1,38.4L20.9,42.0L14.9,38.4zM29.1,35.7L29.1,30.2L27.5,29.3L29.1,28.6L29.1,26.9L30.4,27.8L35.1,25.1L36.6,25.9L36.6,33.0L30.4,36.4L29.1,35.7zM14.9,27.5L14.9,20.5L21.1,17.0L27.1,20.5L27.1,27.5L20.9,31.0L14.9,27.5zM5.3,32.9L5.4,25.9L6.7,25.1L11.4,27.8L12.9,26.9L12.9,28.6L14.4,29.5L12.9,30.2L12.9,35.6L11.4,36.4L5.3,32.9zM5.3,22.1L5.4,15.0L11.6,11.6L17.6,15.0L17.6,16.7L12.9,19.4L12.9,24.6L11.4,25.5L5.3,22.1z"/><g transform="translate(164.160912,2657.379085)" id="shape6"><text style="fill:#b3cc80;font-family:Microsoft YaHei,PingFang SC,Microsoft YaHei,Arial;font-size:13px" xml:space="preserve"><tspan x="37.0" y="19.0" textLength="45.9">库Crate</tspan></text></g><path transform="translate(406.178181,2449.959063)" fill="#ffcd55" id="shape7" fill-rule="nonzero" d="M26.3,21.4L26.3,22.9C26.3,23.1,26.1,23.2,25.9,23.2L22.1,23.2C21.9,23.2,21.8,23.1,21.8,22.9L21.8,21.4C21.8,21.2,21.9,21.0,22.1,21.0L25.9,21.0C26.1,21.0,26.3,21.2,26.3,21.4zM48.0,21.4L48.0,40.5C48.0,42.2,46.7,43.5,45.0,43.5L3.0,43.5C1.3,43.5,.0,42.2,.0,40.5L.0,21.4C.0,21.2,.2,21.0,.4,21.0L18.4,21.0C18.6,21.0,18.8,21.2,18.8,21.4L18.8,23.2C18.8,24.9,20.1,26.2,21.8,26.2L26.3,26.2C27.9,26.2,29.3,24.9,29.3,23.2L29.3,21.4C29.3,21.2,29.4,21.0,29.6,21.0L47.6,21.0C47.8,21.0,48.0,21.2,48.0,21.4zM42.0,6.0L34.9,6.0C34.7,6.0,34.5,5.9,34.5,5.7L34.5,4.5C34.5,2.0,32.5,.0,30.0,.0L18.0,.0C15.5,.0,13.5,2.0,13.5,4.5L13.5,5.7C13.5,5.9,13.3,6.0,13.1,6.0L6.0,6.0C2.7,6.0,.0,8.7,.0,12.0L.0,17.6C.0,17.8,.2,18.0,.4,18.0L47.6,18.0C47.8,18.0,48.0,17.8,48.0,17.6L48.0,12.0C48.0,8.7,45.3,6.0,42.0,6.0zM16.5,4.5C16.5,3.7,17.2,3.0,18.0,3.0L30.0,3.0C30.8,3.0,31.5,3.7,31.5,4.5L31.5,5.6C31.5,5.8,31.3,6.0,31.1,6.0L16.9,6.0C16.7,6.0,16.5,5.8,16.5,5.6L16.5,4.5z"/><g transform="translate(370.178181,2493.498763)" id="shape8"><text style="fill:#b3cc80;font-family:Microsoft YaHei,PingFang SC,Microsoft YaHei,Arial;font-size:13px" xml:space="preserve"><tspan x="14.9" y="19.0" textLength="90.1">包（Package）</tspan></text></g><path transform="translate(526.178181,2449.959063)" fill="#ffcd55" id="shape9" fill-rule="nonzero" d="M26.3,21.4L26.3,22.9C26.3,23.1,26.1,23.2,25.9,23.2L22.1,23.2C21.9,23.2,21.8,23.1,21.8,22.9L21.8,21.4C21.8,21.2,21.9,21.0,22.1,21.0L25.9,21.0C26.1,21.0,26.3,21.2,26.3,21.4zM48.0,21.4L48.0,40.5C48.0,42.2,46.7,43.5,45.0,43.5L3.0,43.5C1.3,43.5,.0,42.2,.0,40.5L.0,21.4C.0,21.2,.2,21.0,.4,21.0L18.4,21.0C18.6,21.0,18.8,21.2,18.8,21.4L18.8,23.2C18.8,24.9,20.1,26.2,21.8,26.2L26.3,26.2C27.9,26.2,29.3,24.9,29.3,23.2L29.3,21.4C29.3,21.2,29.4,21.0,29.6,21.0L47.6,21.0C47.8,21.0,48.0,21.2,48.0,21.4zM42.0,6.0L34.9,6.0C34.7,6.0,34.5,5.9,34.5,5.7L34.5,4.5C34.5,2.0,32.5,.0,30.0,.0L18.0,.0C15.5,.0,13.5,2.0,13.5,4.5L13.5,5.7C13.5,5.9,13.3,6.0,13.1,6.0L6.0,6.0C2.7,6.0,.0,8.7,.0,12.0L.0,17.6C.0,17.8,.2,18.0,.4,18.0L47.6,18.0C47.8,18.0,48.0,17.8,48.0,17.6L48.0,12.0C48.0,8.7,45.3,6.0,42.0,6.0zM16.5,4.5C16.5,3.7,17.2,3.0,18.0,3.0L30.0,3.0C30.8,3.0,31.5,3.7,31.5,4.5L31.5,5.6C31.5,5.8,31.3,6.0,31.1,6.0L16.9,6.0C16.7,6.0,16.5,5.8,16.5,5.6L16.5,4.5z"/><g transform="translate(490.178181,2493.498763)" id="shape10"><text style="fill:#b3cc80;font-family:Microsoft YaHei,PingFang SC,Microsoft YaHei,Arial;font-size:13px" xml:space="preserve"><tspan x="14.9" y="19.0" textLength="90.1">包（Package）</tspan></text></g><path transform="translate(271.380167,2609.379385)" fill="#5fb7f1" id="shape11" fill-rule="nonzero" d="M37.3,38.7L36.1,36.9L39.7,34.8L39.7,13.1L28.9,6.8L29.9,5.0L41.8,11.9L41.8,36.0L37.3,38.7zM2.1,26.2L.0,26.2L.0,12.0L21.4,.0L26.2,2.7L25.1,4.7L21.3,2.4L2.1,13.2L2.1,26.2zM20.9,48.0L.0,36.1L.0,30.2L2.1,30.2L2.1,34.9L20.9,45.6L33.1,38.7L34.2,40.5L20.9,48.0zM19.6,14.0L14.9,11.3L14.9,9.6L21.1,6.0L27.1,9.6L27.1,11.3L22.6,14.0L22.4,15.6L21.1,14.7L19.6,15.6L19.6,14.0zM29.1,24.8L29.1,19.4L24.4,16.7L24.4,15.1L30.4,11.6L36.6,15.1L36.6,22.1L30.4,25.6L29.1,24.8zM14.9,38.4L14.9,31.4L16.2,30.5L20.9,33.2L25.7,30.5L27.1,31.3L27.1,38.4L20.9,42.0L14.9,38.4zM29.1,35.7L29.1,30.2L27.5,29.3L29.1,28.6L29.1,26.9L30.4,27.8L35.1,25.1L36.6,25.9L36.6,33.0L30.4,36.4L29.1,35.7zM14.9,27.5L14.9,20.5L21.1,17.0L27.1,20.5L27.1,27.5L20.9,31.0L14.9,27.5zM5.3,32.9L5.4,25.9L6.7,25.1L11.4,27.8L12.9,26.9L12.9,28.6L14.4,29.5L12.9,30.2L12.9,35.6L11.4,36.4L5.3,32.9zM5.3,22.1L5.4,15.0L11.6,11.6L17.6,15.0L17.6,16.7L12.9,19.4L12.9,24.6L11.4,25.5L5.3,22.1z"/><g transform="translate(232.300167,2657.379085)" id="shape12"><text style="fill:#b3cc80;font-family:Microsoft YaHei,PingFang SC,Microsoft YaHei,Arial;font-size:13px" xml:space="preserve"><tspan x="40.5" y="19.0" textLength="39.0">二进制</tspan><tspan x="43.5" y="37.0" textLength="32.9">Crate</tspan></text></g><path transform="translate(339.519423,2609.379385)" fill="#5fb7f1" id="shape13" fill-rule="nonzero" d="M37.3,38.7L36.1,36.9L39.7,34.8L39.7,13.1L28.9,6.8L29.9,5.0L41.8,11.9L41.8,36.0L37.3,38.7zM2.1,26.2L.0,26.2L.0,12.0L21.4,.0L26.2,2.7L25.1,4.7L21.3,2.4L2.1,13.2L2.1,26.2zM20.9,48.0L.0,36.1L.0,30.2L2.1,30.2L2.1,34.9L20.9,45.6L33.1,38.7L34.2,40.5L20.9,48.0zM19.6,14.0L14.9,11.3L14.9,9.6L21.1,6.0L27.1,9.6L27.1,11.3L22.6,14.0L22.4,15.6L21.1,14.7L19.6,15.6L19.6,14.0zM29.1,24.8L29.1,19.4L24.4,16.7L24.4,15.1L30.4,11.6L36.6,15.1L36.6,22.1L30.4,25.6L29.1,24.8zM14.9,38.4L14.9,31.4L16.2,30.5L20.9,33.2L25.7,30.5L27.1,31.3L27.1,38.4L20.9,42.0L14.9,38.4zM29.1,35.7L29.1,30.2L27.5,29.3L29.1,28.6L29.1,26.9L30.4,27.8L35.1,25.1L36.6,25.9L36.6,33.0L30.4,36.4L29.1,35.7zM14.9,27.5L14.9,20.5L21.1,17.0L27.1,20.5L27.1,27.5L20.9,31.0L14.9,27.5zM5.3,32.9L5.4,25.9L6.7,25.1L11.4,27.8L12.9,26.9L12.9,28.6L14.4,29.5L12.9,30.2L12.9,35.6L11.4,36.4L5.3,32.9zM5.3,22.1L5.4,15.0L11.6,11.6L17.6,15.0L17.6,16.7L12.9,19.4L12.9,24.6L11.4,25.5L5.3,22.1z"/><g transform="translate(300.439423,2657.379085)" id="shape14"><text style="fill:#b3cc80;font-family:Microsoft YaHei,PingFang SC,Microsoft YaHei,Arial;font-size:13px" xml:space="preserve"><tspan x="40.5" y="19.0" textLength="39.0">二进制</tspan><tspan x="43.5" y="37.0" textLength="32.9">Crate</tspan></text></g><path transform="translate(407.658679,2609.379385)" fill="#ffcd55" id="shape15" fill-rule="nonzero" d="M37.3,38.7L36.1,36.9L39.7,34.8L39.7,13.1L28.9,6.8L29.9,5.0L41.8,11.9L41.8,36.0L37.3,38.7zM2.1,26.2L.0,26.2L.0,12.0L21.4,.0L26.2,2.7L25.1,4.7L21.3,2.4L2.1,13.2L2.1,26.2zM20.9,48.0L.0,36.1L.0,30.2L2.1,30.2L2.1,34.9L20.9,45.6L33.1,38.7L34.2,40.5L20.9,48.0zM19.6,14.0L14.9,11.3L14.9,9.6L21.1,6.0L27.1,9.6L27.1,11.3L22.6,14.0L22.4,15.6L21.1,14.7L19.6,15.6L19.6,14.0zM29.1,24.8L29.1,19.4L24.4,16.7L24.4,15.1L30.4,11.6L36.6,15.1L36.6,22.1L30.4,25.6L29.1,24.8zM14.9,38.4L14.9,31.4L16.2,30.5L20.9,33.2L25.7,30.5L27.1,31.3L27.1,38.4L20.9,42.0L14.9,38.4zM29.1,35.7L29.1,30.2L27.5,29.3L29.1,28.6L29.1,26.9L30.4,27.8L35.1,25.1L36.6,25.9L36.6,33.0L30.4,36.4L29.1,35.7zM14.9,27.5L14.9,20.5L21.1,17.0L27.1,20.5L27.1,27.5L20.9,31.0L14.9,27.5zM5.3,32.9L5.4,25.9L6.7,25.1L11.4,27.8L12.9,26.9L12.9,28.6L14.4,29.5L12.9,30.2L12.9,35.6L11.4,36.4L5.3,32.9zM5.3,22.1L5.4,15.0L11.6,11.6L17.6,15.0L17.6,16.7L12.9,19.4L12.9,24.6L11.4,25.5L5.3,22.1z"/><g transform="translate(368.578679,2657.379085)" id="shape16"><text style="fill:#b3cc80;font-family:Microsoft YaHei,PingFang SC,Microsoft YaHei,Arial;font-size:13px" xml:space="preserve"><tspan x="37.0" y="19.0" textLength="45.9">库Crate</tspan></text></g><path transform="translate(475.797935,2609.379385)" fill="#5fb7f1" id="shape17" fill-rule="nonzero" d="M37.3,38.7L36.1,36.9L39.7,34.8L39.7,13.1L28.9,6.8L29.9,5.0L41.8,11.9L41.8,36.0L37.3,38.7zM2.1,26.2L.0,26.2L.0,12.0L21.4,.0L26.2,2.7L25.1,4.7L21.3,2.4L2.1,13.2L2.1,26.2zM20.9,48.0L.0,36.1L.0,30.2L2.1,30.2L2.1,34.9L20.9,45.6L33.1,38.7L34.2,40.5L20.9,48.0zM19.6,14.0L14.9,11.3L14.9,9.6L21.1,6.0L27.1,9.6L27.1,11.3L22.6,14.0L22.4,15.6L21.1,14.7L19.6,15.6L19.6,14.0zM29.1,24.8L29.1,19.4L24.4,16.7L24.4,15.1L30.4,11.6L36.6,15.1L36.6,22.1L30.4,25.6L29.1,24.8zM14.9,38.4L14.9,31.4L16.2,30.5L20.9,33.2L25.7,30.5L27.1,31.3L27.1,38.4L20.9,42.0L14.9,38.4zM29.1,35.7L29.1,30.2L27.5,29.3L29.1,28.6L29.1,26.9L30.4,27.8L35.1,25.1L36.6,25.9L36.6,33.0L30.4,36.4L29.1,35.7zM14.9,27.5L14.9,20.5L21.1,17.0L27.1,20.5L27.1,27.5L20.9,31.0L14.9,27.5zM5.3,32.9L5.4,25.9L6.7,25.1L11.4,27.8L12.9,26.9L12.9,28.6L14.4,29.5L12.9,30.2L12.9,35.6L11.4,36.4L5.3,32.9zM5.3,22.1L5.4,15.0L11.6,11.6L17.6,15.0L17.6,16.7L12.9,19.4L12.9,24.6L11.4,25.5L5.3,22.1z"/><g transform="translate(436.717935,2657.379085)" id="shape18"><text style="fill:#b3cc80;font-family:Microsoft YaHei,PingFang SC,Microsoft YaHei,Arial;font-size:13px" xml:space="preserve"><tspan x="40.5" y="19.0" textLength="39.0">二进制</tspan><tspan x="43.5" y="37.0" textLength="32.9">Crate</tspan></text></g><path transform="translate(543.937191,2609.379385)" fill="#ffcd55" id="shape19" fill-rule="nonzero" d="M37.3,38.7L36.1,36.9L39.7,34.8L39.7,13.1L28.9,6.8L29.9,5.0L41.8,11.9L41.8,36.0L37.3,38.7zM2.1,26.2L.0,26.2L.0,12.0L21.4,.0L26.2,2.7L25.1,4.7L21.3,2.4L2.1,13.2L2.1,26.2zM20.9,48.0L.0,36.1L.0,30.2L2.1,30.2L2.1,34.9L20.9,45.6L33.1,38.7L34.2,40.5L20.9,48.0zM19.6,14.0L14.9,11.3L14.9,9.6L21.1,6.0L27.1,9.6L27.1,11.3L22.6,14.0L22.4,15.6L21.1,14.7L19.6,15.6L19.6,14.0zM29.1,24.8L29.1,19.4L24.4,16.7L24.4,15.1L30.4,11.6L36.6,15.1L36.6,22.1L30.4,25.6L29.1,24.8zM14.9,38.4L14.9,31.4L16.2,30.5L20.9,33.2L25.7,30.5L27.1,31.3L27.1,38.4L20.9,42.0L14.9,38.4zM29.1,35.7L29.1,30.2L27.5,29.3L29.1,28.6L29.1,26.9L30.4,27.8L35.1,25.1L36.6,25.9L36.6,33.0L30.4,36.4L29.1,35.7zM14.9,27.5L14.9,20.5L21.1,17.0L27.1,20.5L27.1,27.5L20.9,31.0L14.9,27.5zM5.3,32.9L5.4,25.9L6.7,25.1L11.4,27.8L12.9,26.9L12.9,28.6L14.4,29.5L12.9,30.2L12.9,35.6L11.4,36.4L5.3,32.9zM5.3,22.1L5.4,15.0L11.6,11.6L17.6,15.0L17.6,16.7L12.9,19.4L12.9,24.6L11.4,25.5L5.3,22.1z"/><g transform="translate(504.857191,2657.379085)" id="shape20"><text style="fill:#b3cc80;font-family:Microsoft YaHei,PingFang SC,Microsoft YaHei,Arial;font-size:13px" xml:space="preserve"><tspan x="37.0" y="19.0" textLength="45.9">库Crate</tspan></text></g><path transform="translate(612.076447,2609.379385)" fill="#5fb7f1" id="shape21" fill-rule="nonzero" d="M37.3,38.7L36.1,36.9L39.7,34.8L39.7,13.1L28.9,6.8L29.9,5.0L41.8,11.9L41.8,36.0L37.3,38.7zM2.1,26.2L.0,26.2L.0,12.0L21.4,.0L26.2,2.7L25.1,4.7L21.3,2.4L2.1,13.2L2.1,26.2zM20.9,48.0L.0,36.1L.0,30.2L2.1,30.2L2.1,34.9L20.9,45.6L33.1,38.7L34.2,40.5L20.9,48.0zM19.6,14.0L14.9,11.3L14.9,9.6L21.1,6.0L27.1,9.6L27.1,11.3L22.6,14.0L22.4,15.6L21.1,14.7L19.6,15.6L19.6,14.0zM29.1,24.8L29.1,19.4L24.4,16.7L24.4,15.1L30.4,11.6L36.6,15.1L36.6,22.1L30.4,25.6L29.1,24.8zM14.9,38.4L14.9,31.4L16.2,30.5L20.9,33.2L25.7,30.5L27.1,31.3L27.1,38.4L20.9,42.0L14.9,38.4zM29.1,35.7L29.1,30.2L27.5,29.3L29.1,28.6L29.1,26.9L30.4,27.8L35.1,25.1L36.6,25.9L36.6,33.0L30.4,36.4L29.1,35.7zM14.9,27.5L14.9,20.5L21.1,17.0L27.1,20.5L27.1,27.5L20.9,31.0L14.9,27.5zM5.3,32.9L5.4,25.9L6.7,25.1L11.4,27.8L12.9,26.9L12.9,28.6L14.4,29.5L12.9,30.2L12.9,35.6L11.4,36.4L5.3,32.9zM5.3,22.1L5.4,15.0L11.6,11.6L17.6,15.0L17.6,16.7L12.9,19.4L12.9,24.6L11.4,25.5L5.3,22.1z"/><g transform="translate(572.996447,2657.379085)" id="shape22"><text style="fill:#b3cc80;font-family:Microsoft YaHei,PingFang SC,Microsoft YaHei,Arial;font-size:13px" xml:space="preserve"><tspan x="40.5" y="19.0" textLength="39.0">二进制</tspan><tspan x="43.5" y="37.0" textLength="32.9">Crate</tspan></text></g><path transform="translate(680.215703,2609.379385)" fill="#5fb7f1" id="shape23" fill-rule="nonzero" d="M37.3,38.7L36.1,36.9L39.7,34.8L39.7,13.1L28.9,6.8L29.9,5.0L41.8,11.9L41.8,36.0L37.3,38.7zM2.1,26.2L.0,26.2L.0,12.0L21.4,.0L26.2,2.7L25.1,4.7L21.3,2.4L2.1,13.2L2.1,26.2zM20.9,48.0L.0,36.1L.0,30.2L2.1,30.2L2.1,34.9L20.9,45.6L33.1,38.7L34.2,40.5L20.9,48.0zM19.6,14.0L14.9,11.3L14.9,9.6L21.1,6.0L27.1,9.6L27.1,11.3L22.6,14.0L22.4,15.6L21.1,14.7L19.6,15.6L19.6,14.0zM29.1,24.8L29.1,19.4L24.4,16.7L24.4,15.1L30.4,11.6L36.6,15.1L36.6,22.1L30.4,25.6L29.1,24.8zM14.9,38.4L14.9,31.4L16.2,30.5L20.9,33.2L25.7,30.5L27.1,31.3L27.1,38.4L20.9,42.0L14.9,38.4zM29.1,35.7L29.1,30.2L27.5,29.3L29.1,28.6L29.1,26.9L30.4,27.8L35.1,25.1L36.6,25.9L36.6,33.0L30.4,36.4L29.1,35.7zM14.9,27.5L14.9,20.5L21.1,17.0L27.1,20.5L27.1,27.5L20.9,31.0L14.9,27.5zM5.3,32.9L5.4,25.9L6.7,25.1L11.4,27.8L12.9,26.9L12.9,28.6L14.4,29.5L12.9,30.2L12.9,35.6L11.4,36.4L5.3,32.9zM5.3,22.1L5.4,15.0L11.6,11.6L17.6,15.0L17.6,16.7L12.9,19.4L12.9,24.6L11.4,25.5L5.3,22.1z"/><g transform="translate(668.987433,2657.379385)" id="shape24"><text style="fill:#b3cc80;font-family:Microsoft YaHei,PingFang SC,Microsoft YaHei,Arial;font-size:13px" xml:space="preserve"><tspan x="12.6" y="19.0" textLength="39.0">二进制</tspan><tspan x="15.7" y="37.0" textLength="32.9">Crate</tspan></text></g><g transform="translate(310.178181,2518.639363)" id="shape25"><path fill="none" marker-end="url(#edrawArrow_end_4_2.66667_#a284dd)" stroke="#a284dd" stroke-width="2.6666700839996338" d="M.0,.0L-86.0,90.7"/></g><g transform="translate(310.178181,2518.639363)" id="shape26"><path fill="none" marker-end="url(#edrawArrow_end_4_2.66667_#a284dd)" stroke="#a284dd" stroke-width="2.6666700839996338" d="M.0,.0L-17.4,90.7"/></g><g transform="translate(310.178181,2518.639363)" id="shape27"><path fill="none" marker-end="url(#edrawArrow_end_4_2.66667_#a284dd)" stroke="#a284dd" stroke-width="2.6666700839996338" d="M.0,.0L50.3,90.7"/></g><g transform="translate(430.178181,2518.639363)" id="shape28"><path fill="none" marker-end="url(#edrawArrow_end_4_2.66667_#a284dd)" stroke="#a284dd" stroke-width="2.6666700839996338" d="M.0,.0L.0,93.0"/></g><g transform="translate(430.178181,2518.639363)" id="shape29"><path fill="none" marker-end="url(#edrawArrow_end_4_2.66667_#a284dd)" stroke="#a284dd" stroke-width="2.6666700839996338" d="M.0,.0L66.5,90.7"/></g><g transform="translate(550.178181,2518.639363)" id="shape30"><path fill="none" marker-end="url(#edrawArrow_end_4_2.66667_#a284dd)" stroke="#a284dd" stroke-width="2.6666700839996338" d="M.0,.0L14.7,90.7"/></g><g transform="translate(550.178181,2518.639363)" id="shape31"><path fill="none" marker-end="url(#edrawArrow_end_4_2.66667_#a284dd)" stroke="#a284dd" stroke-width="2.6666700839996338" d="M.0,.0L82.8,90.7"/></g><g transform="translate(550.178181,2518.639363)" id="shape32"><path fill="none" marker-end="url(#edrawArrow_end_4_2.66667_#a284dd)" stroke="#a284dd" stroke-width="2.6666700839996338" d="M.0,.0L151.4,90.7"/></g></g></svg>