<!--Generated by EdrawMax, SVG Export box.svg 页-7-->
<svg viewBox="0 0 823 439" height="439" width="823" xmlns:xlink="http://www.w3.org/1999/xlink" xmlns:ed="urn:edrawmax" xmlns="http://www.w3.org/2000/svg"><defs><linearGradient x1="0%" x2="100%" id="lg1" y1="0%" y2="0%"><stop stop-color="#fdeded" offset="0.00" stop-opacity="0.20"/><stop stop-color="#f78181" offset="1.00"/></linearGradient><marker refY="5.8989826245861199" markerHeight="13.79796524917224" markerUnits="userSpaceOnUse" markerWidth="13.79796524917224" id="edrawArrow_end_4_2.66667_#b7b6b4" ed:arrow="4" refX="10.79796524917224" orient="auto"><path fill="#b7b6b4" stroke-linecap="round" d="M1.0,1.0L10.8,5.9L1.0,10.8L1.0,1.0" stroke-width="1" stroke="#b7b6b4"/></marker></defs><g transform="translate(-56.61,-138.04)"><g transform="translate(123.118000,139.370100)" id="shape1"><path fill="#232322" d="M279.4,86.5C281.7,84.4,283.2,81.2,283.2,77.8L283.2,21.0C283.2,16.0,284.1,8.2,280.0,3.8C277.8,1.5,274.6,.0,271.2,.0L21.0,.0C16.0,.0,8.2,-0.9,3.8,3.2C1.5,5.4,.0,8.5,.0,12.0L.0,68.8C.0,73.7,-0.9,81.5,3.2,85.9C5.4,88.3,8.5,89.8,12.0,89.8L262.2,89.8C267.1,89.8,274.9,90.7,279.4,86.5z" stroke-width="2.6666700839996338" fill-rule="nonzero" stroke="#b7b6b4"/><text xml:space="preserve" style="fill:#ffffff;font-family:Microsoft YaHei,PingFang SC,Microsoft YaHei,Arial;font-size:13px"><tspan textLength="21.0" x="131.1" y="19.0">List</tspan></text></g><g transform="translate(154.696900,167.512000)" id="shape2"><path fill="#232322" d="M87.2,49.2C89.5,47.0,91.0,43.8,91.0,40.4L91.0,21.0C91.0,16.0,91.9,8.2,87.8,3.8C85.6,1.5,82.4,.0,79.0,.0L21.0,.0C16.0,.0,8.2,-0.9,3.8,3.2C1.5,5.4,.0,8.5,.0,12.0L.0,31.4C.0,36.3,-0.9,44.1,3.2,48.6C5.4,50.9,8.5,52.4,12.0,52.4L70.0,52.4C74.9,52.4,82.7,53.3,87.2,49.2z" stroke-width="2.6666700839996338" fill-rule="nonzero" stroke="#b7b6b4"/><text xml:space="preserve" style="fill:#ffffff;font-family:Microsoft YaHei,PingFang SC,Microsoft YaHei,Arial;font-size:13px"><tspan textLength="18.7" x="36.1" y="32.2">i32</tspan></text></g><g transform="translate(275.773900,167.512000)" id="shape3"><path fill="#232322" d="M87.2,49.2C89.5,47.0,91.0,43.8,91.0,40.4L91.0,21.0C91.0,16.0,91.9,8.2,87.8,3.8C85.6,1.5,82.4,.0,79.0,.0L21.0,.0C16.0,.0,8.2,-0.9,3.8,3.2C1.5,5.4,.0,8.5,.0,12.0L.0,31.4C.0,36.3,-0.9,44.1,3.2,48.6C5.4,50.9,8.5,52.4,12.0,52.4L70.0,52.4C74.9,52.4,82.7,53.3,87.2,49.2z" stroke-dasharray="16,10.6667" stroke-width="2.6666700839996338" fill-rule="nonzero" stroke="#b7b6b4"/><text xml:space="preserve" style="fill:#ffffff;font-family:Microsoft YaHei,PingFang SC,Microsoft YaHei,Arial;font-size:13px"><tspan textLength="21.0" x="35.0" y="32.2">List</tspan></text></g><g transform="translate(123.119000,270.858100)" id="shape4"><path fill="#232322" d="M279.4,86.5C281.7,84.4,283.2,81.2,283.2,77.8L283.2,21.0C283.2,16.0,284.1,8.2,280.0,3.8C277.8,1.5,274.6,.0,271.2,.0L21.0,.0C16.0,.0,8.2,-0.9,3.8,3.2C1.5,5.4,.0,8.5,.0,12.0L.0,68.8C.0,73.7,-0.9,81.5,3.2,85.9C5.4,88.3,8.5,89.8,12.0,89.8L262.2,89.8C267.1,89.8,274.9,90.7,279.4,86.5z" stroke-width="2.6666700839996338" fill-rule="nonzero" stroke="#b7b6b4"/><text xml:space="preserve" style="fill:#ffffff;font-family:Microsoft YaHei,PingFang SC,Microsoft YaHei,Arial;font-size:13px"><tspan textLength="21.0" x="131.1" y="19.0">List</tspan></text></g><g transform="translate(158.683900,297.638000)" id="shape5"><path fill="#232322" d="M87.2,49.2C89.5,47.0,91.0,43.8,91.0,40.4L91.0,21.0C91.0,16.0,91.9,8.2,87.8,3.8C85.6,1.5,82.4,.0,79.0,.0L21.0,.0C16.0,.0,8.2,-0.9,3.8,3.2C1.5,5.4,.0,8.5,.0,12.0L.0,31.4C.0,36.3,-0.9,44.1,3.2,48.6C5.4,50.9,8.5,52.4,12.0,52.4L70.0,52.4C74.9,52.4,82.7,53.3,87.2,49.2z" stroke-width="2.6666700839996338" fill-rule="nonzero" stroke="#b7b6b4"/><text xml:space="preserve" style="fill:#ffffff;font-family:Microsoft YaHei,PingFang SC,Microsoft YaHei,Arial;font-size:13px"><tspan textLength="18.7" x="36.1" y="32.2">i32</tspan></text></g><g transform="translate(279.760900,297.638000)" id="shape6"><path fill="#232322" d="M87.2,49.2C89.5,47.0,91.0,43.8,91.0,40.4L91.0,21.0C91.0,16.0,91.9,8.2,87.8,3.8C85.6,1.5,82.4,.0,79.0,.0L21.0,.0C16.0,.0,8.2,-0.9,3.8,3.2C1.5,5.4,.0,8.5,.0,12.0L.0,31.4C.0,36.3,-0.9,44.1,3.2,48.6C5.4,50.9,8.5,52.4,12.0,52.4L70.0,52.4C74.9,52.4,82.7,53.3,87.2,49.2z" stroke-dasharray="16,10.6667" stroke-width="2.6666700839996338" fill-rule="nonzero" stroke="#b7b6b4"/><text xml:space="preserve" style="fill:#ffffff;font-family:Microsoft YaHei,PingFang SC,Microsoft YaHei,Arial;font-size:13px"><tspan textLength="21.0" x="35.0" y="32.2">List</tspan></text></g><path transform="translate(279.559000,216.638000)" fill="none" d="M.0,.0L-152.9,57.7" id="shape7" stroke-width="2.6666700839996338" stroke="#b7b6b4"/><path transform="translate(361.955000,217.460000)" fill="none" d="M.0,.0L36.8,54.2" id="shape8" stroke-width="2.6666700839996338" stroke="#b7b6b4"/><g transform="translate(123.118000,403.937100)" id="shape9"><path fill="#232322" d="M279.4,86.5C281.7,84.4,283.2,81.2,283.2,77.8L283.2,21.0C283.2,16.0,284.1,8.2,280.0,3.8C277.8,1.5,274.6,.0,271.2,.0L21.0,.0C16.0,.0,8.2,-0.9,3.8,3.2C1.5,5.4,.0,8.5,.0,12.0L.0,68.8C.0,73.7,-0.9,81.5,3.2,85.9C5.4,88.3,8.5,89.8,12.0,89.8L262.2,89.8C267.1,89.8,274.9,90.7,279.4,86.5z" stroke-width="2.6666700839996338" fill-rule="nonzero" stroke="#b7b6b4"/><text xml:space="preserve" style="fill:#ffffff;font-family:Microsoft YaHei,PingFang SC,Microsoft YaHei,Arial;font-size:13px"><tspan textLength="21.0" x="131.1" y="19.0">List</tspan></text></g><g transform="translate(158.682900,430.717000)" id="shape10"><path fill="#232322" d="M87.2,49.2C89.5,47.0,91.0,43.8,91.0,40.4L91.0,21.0C91.0,16.0,91.9,8.2,87.8,3.8C85.6,1.5,82.4,.0,79.0,.0L21.0,.0C16.0,.0,8.2,-0.9,3.8,3.2C1.5,5.4,.0,8.5,.0,12.0L.0,31.4C.0,36.3,-0.9,44.1,3.2,48.6C5.4,50.9,8.5,52.4,12.0,52.4L70.0,52.4C74.9,52.4,82.7,53.3,87.2,49.2z" stroke-width="2.6666700839996338" fill-rule="nonzero" stroke="#b7b6b4"/><text xml:space="preserve" style="fill:#ffffff;font-family:Microsoft YaHei,PingFang SC,Microsoft YaHei,Arial;font-size:13px"><tspan textLength="18.7" x="36.1" y="32.2">i32</tspan></text></g><g transform="translate(279.759900,430.717000)" id="shape11"><path fill="#232322" d="M87.2,49.2C89.5,47.0,91.0,43.8,91.0,40.4L91.0,21.0C91.0,16.0,91.9,8.2,87.8,3.8C85.6,1.5,82.4,.0,79.0,.0L21.0,.0C16.0,.0,8.2,-0.9,3.8,3.2C1.5,5.4,.0,8.5,.0,12.0L.0,31.4C.0,36.3,-0.9,44.1,3.2,48.6C5.4,50.9,8.5,52.4,12.0,52.4L70.0,52.4C74.9,52.4,82.7,53.3,87.2,49.2z" stroke-dasharray="16,10.6667" stroke-width="2.6666700839996338" fill-rule="nonzero" stroke="#b7b6b4"/><text xml:space="preserve" style="fill:#ffffff;font-family:Microsoft YaHei,PingFang SC,Microsoft YaHei,Arial;font-size:13px"><tspan textLength="21.0" x="35.0" y="32.2">List</tspan></text></g><path transform="translate(282.031000,344.993000)" fill="none" d="M.0,.0L-153.2,60.8" id="shape12" stroke-width="2.6666700839996338" stroke="#b7b6b4"/><path transform="translate(366.065000,347.498000)" fill="none" d="M.0,.0L36.1,59.4" id="shape13" stroke-width="2.6666700839996338" stroke="#b7b6b4"/><path transform="matrix(0.000000,1.000000,-1.000000,0.000000,376.758990,510.546568)" fill="url(#lg1)" d="M.0,26.1L43.0,26.1L43.0,.0L66.1,36.3L43.0,72.5L43.0,46.4L.0,46.4L.0,26.1z" id="shape14" fill-rule="nonzero"/><g transform="translate(184.251969,519.685039)" id="shape15"><text xml:space="preserve" style="fill:#f78181;font-family:Microsoft YaHei,PingFang SC,Microsoft YaHei,Arial;font-size:24px"><tspan textLength="96.0" x="12.0" y="30.0">无限套娃</tspan></text></g><g transform="translate(595.275591,139.370100)" id="shape16"><path fill="#232322" d="M279.4,86.5C281.7,84.4,283.2,81.2,283.2,77.8L283.2,21.0C283.2,16.0,284.1,8.2,280.0,3.8C277.8,1.5,274.6,.0,271.2,.0L21.0,.0C16.0,.0,8.2,-0.9,3.8,3.2C1.5,5.4,.0,8.5,.0,12.0L.0,68.8C.0,73.7,-0.9,81.5,3.2,85.9C5.4,88.3,8.5,89.8,12.0,89.8L262.2,89.8C267.1,89.8,274.9,90.7,279.4,86.5z" stroke-width="2.6666700839996338" fill-rule="nonzero" stroke="#b7b6b4"/><text xml:space="preserve" style="fill:#ffffff;font-family:Microsoft YaHei,PingFang SC,Microsoft YaHei,Arial;font-size:13px"><tspan textLength="21.0" x="131.1" y="19.0">List</tspan></text></g><g transform="translate(626.854491,167.512000)" id="shape17"><path fill="#232322" d="M87.2,49.2C89.5,47.0,91.0,43.8,91.0,40.4L91.0,21.0C91.0,16.0,91.9,8.2,87.8,3.8C85.6,1.5,82.4,.0,79.0,.0L21.0,.0C16.0,.0,8.2,-0.9,3.8,3.2C1.5,5.4,.0,8.5,.0,12.0L.0,31.4C.0,36.3,-0.9,44.1,3.2,48.6C5.4,50.9,8.5,52.4,12.0,52.4L70.0,52.4C74.9,52.4,82.7,53.3,87.2,49.2z" stroke-width="2.6666700839996338" fill-rule="nonzero" stroke="#b7b6b4"/><text xml:space="preserve" style="fill:#ffffff;font-family:Microsoft YaHei,PingFang SC,Microsoft YaHei,Arial;font-size:13px"><tspan textLength="18.7" x="36.1" y="32.2">i32</tspan></text></g><g transform="translate(747.931491,167.512000)" id="shape18"><path fill="#232322" d="M87.2,49.2C89.5,47.0,91.0,43.8,91.0,40.4L91.0,21.0C91.0,16.0,91.9,8.2,87.8,3.8C85.6,1.5,82.4,.0,79.0,.0L21.0,.0C16.0,.0,8.2,-0.9,3.8,3.2C1.5,5.4,.0,8.5,.0,12.0L.0,31.4C.0,36.3,-0.9,44.1,3.2,48.6C5.4,50.9,8.5,52.4,12.0,52.4L70.0,52.4C74.9,52.4,82.7,53.3,87.2,49.2z" stroke-width="2.6666700839996338" fill-rule="nonzero" stroke="#b7b6b4"/><text xml:space="preserve" style="fill:#ffffff;font-family:Microsoft YaHei,PingFang SC,Microsoft YaHei,Arial;font-size:13px"><tspan textLength="22.8" x="34.1" y="32.2">Box</tspan></text></g><g transform="translate(595.275591,270.858100)" id="shape19"><path fill="#232322" d="M279.4,86.5C281.7,84.4,283.2,81.2,283.2,77.8L283.2,21.0C283.2,16.0,284.1,8.2,280.0,3.8C277.8,1.5,274.6,.0,271.2,.0L21.0,.0C16.0,.0,8.2,-0.9,3.8,3.2C1.5,5.4,.0,8.5,.0,12.0L.0,68.8C.0,73.7,-0.9,81.5,3.2,85.9C5.4,88.3,8.5,89.8,12.0,89.8L262.2,89.8C267.1,89.8,274.9,90.7,279.4,86.5z" stroke-width="2.6666700839996338" fill-rule="nonzero" stroke="#b7b6b4"/><text xml:space="preserve" style="fill:#ffffff;font-family:Microsoft YaHei,PingFang SC,Microsoft YaHei,Arial;font-size:13px"><tspan textLength="21.0" x="131.1" y="19.0">List</tspan></text></g><g transform="translate(626.854491,299.000000)" id="shape20"><path fill="#232322" d="M87.2,49.2C89.5,47.0,91.0,43.8,91.0,40.4L91.0,21.0C91.0,16.0,91.9,8.2,87.8,3.8C85.6,1.5,82.4,.0,79.0,.0L21.0,.0C16.0,.0,8.2,-0.9,3.8,3.2C1.5,5.4,.0,8.5,.0,12.0L.0,31.4C.0,36.3,-0.9,44.1,3.2,48.6C5.4,50.9,8.5,52.4,12.0,52.4L70.0,52.4C74.9,52.4,82.7,53.3,87.2,49.2z" stroke-width="2.6666700839996338" fill-rule="nonzero" stroke="#b7b6b4"/><text xml:space="preserve" style="fill:#ffffff;font-family:Microsoft YaHei,PingFang SC,Microsoft YaHei,Arial;font-size:13px"><tspan textLength="18.7" x="36.1" y="32.2">i32</tspan></text></g><g transform="translate(747.931491,299.000000)" id="shape21"><path fill="#232322" d="M87.2,49.2C89.5,47.0,91.0,43.8,91.0,40.4L91.0,21.0C91.0,16.0,91.9,8.2,87.8,3.8C85.6,1.5,82.4,.0,79.0,.0L21.0,.0C16.0,.0,8.2,-0.9,3.8,3.2C1.5,5.4,.0,8.5,.0,12.0L.0,31.4C.0,36.3,-0.9,44.1,3.2,48.6C5.4,50.9,8.5,52.4,12.0,52.4L70.0,52.4C74.9,52.4,82.7,53.3,87.2,49.2z" stroke-width="2.6666700839996338" fill-rule="nonzero" stroke="#b7b6b4"/><text xml:space="preserve" style="fill:#ffffff;font-family:Microsoft YaHei,PingFang SC,Microsoft YaHei,Arial;font-size:13px"><tspan textLength="22.8" x="34.1" y="32.2">Box</tspan></text></g><g transform="translate(793.417591,219.890000)" id="shape22"><path fill="none" d="M.0,.0L-56.6,51.0" stroke-width="2.6666700839996338" marker-end="url(#edrawArrow_end_4_2.66667_#b7b6b4)" stroke="#b7b6b4"/></g><g transform="translate(747.931491,229.133900)" id="shape23"><text xml:space="preserve" style="fill:#b3cc80;font-family:Microsoft YaHei,PingFang SC,Microsoft YaHei,Arial;font-size:13px"><tspan textLength="52.0" x="34.0" y="19.0">指针指向</tspan></text></g><g transform="translate(733.417591,436.248687)" id="shape24"><text xml:space="preserve" style="fill:#b3cc80;font-family:Microsoft YaHei,PingFang SC,Microsoft YaHei,Arial;font-size:13px"><tspan textLength="34.2" x="42.9" y="19.0">None</tspan></text></g><g transform="translate(595.275591,403.937100)" id="shape25"><path fill="#232322" d="M279.4,86.5C281.7,84.4,283.2,81.2,283.2,77.8L283.2,21.0C283.2,16.0,284.1,8.2,280.0,3.8C277.8,1.5,274.6,.0,271.2,.0L21.0,.0C16.0,.0,8.2,-0.9,3.8,3.2C1.5,5.4,.0,8.5,.0,12.0L.0,68.8C.0,73.7,-0.9,81.5,3.2,85.9C5.4,88.3,8.5,89.8,12.0,89.8L262.2,89.8C267.1,89.8,274.9,90.7,279.4,86.5z" stroke-width="2.6666700839996338" fill-rule="nonzero" stroke="#b7b6b4"/><text xml:space="preserve" style="fill:#ffffff;font-family:Microsoft YaHei,PingFang SC,Microsoft YaHei,Arial;font-size:13px"><tspan textLength="21.0" x="131.1" y="19.0">List</tspan></text></g><g transform="translate(626.854491,432.079000)" id="shape26"><path fill="#232322" d="M87.2,49.2C89.5,47.0,91.0,43.8,91.0,40.4L91.0,21.0C91.0,16.0,91.9,8.2,87.8,3.8C85.6,1.5,82.4,.0,79.0,.0L21.0,.0C16.0,.0,8.2,-0.9,3.8,3.2C1.5,5.4,.0,8.5,.0,12.0L.0,31.4C.0,36.3,-0.9,44.1,3.2,48.6C5.4,50.9,8.5,52.4,12.0,52.4L70.0,52.4C74.9,52.4,82.7,53.3,87.2,49.2z" stroke-width="2.6666700839996338" fill-rule="nonzero" stroke="#b7b6b4"/><text xml:space="preserve" style="fill:#ffffff;font-family:Microsoft YaHei,PingFang SC,Microsoft YaHei,Arial;font-size:13px"><tspan textLength="18.7" x="36.1" y="32.2">i32</tspan></text></g><g transform="translate(747.931491,432.079000)" id="shape27"><path fill="#232322" d="M87.2,49.2C89.5,47.0,91.0,43.8,91.0,40.4L91.0,21.0C91.0,16.0,91.9,8.2,87.8,3.8C85.6,1.5,82.4,.0,79.0,.0L21.0,.0C16.0,.0,8.2,-0.9,3.8,3.2C1.5,5.4,.0,8.5,.0,12.0L.0,31.4C.0,36.3,-0.9,44.1,3.2,48.6C5.4,50.9,8.5,52.4,12.0,52.4L70.0,52.4C74.9,52.4,82.7,53.3,87.2,49.2z" stroke-width="2.6666700839996338" fill-rule="nonzero" stroke="#b7b6b4"/><text xml:space="preserve" style="fill:#ffffff;font-family:Microsoft YaHei,PingFang SC,Microsoft YaHei,Arial;font-size:13px"><tspan textLength="22.8" x="34.1" y="32.2">Box</tspan></text></g><g transform="translate(733.417591,542.547700)" id="shape28"><text xml:space="preserve" style="fill:#b3cc80;font-family:Microsoft YaHei,PingFang SC,Microsoft YaHei,Arial;font-size:19px"><tspan textLength="50.0" x="35.0" y="26.0">None</tspan></text></g><g transform="translate(793.417591,484.457000)" id="shape29"><path fill="none" d="M.0,.0L.0,58.1" stroke-width="2.6666700839996338" marker-end="url(#edrawArrow_end_4_2.66667_#b7b6b4)" stroke="#b7b6b4"/></g><g transform="translate(793.417591,351.378000)" id="shape30"><path fill="none" d="M.0,.0L-56.6,52.6" stroke-width="2.6666700839996338" marker-end="url(#edrawArrow_end_4_2.66667_#b7b6b4)" stroke="#b7b6b4"/></g><g transform="translate(747.931491,360.621900)" id="shape31"><text xml:space="preserve" style="fill:#b3cc80;font-family:Microsoft YaHei,PingFang SC,Microsoft YaHei,Arial;font-size:13px"><tspan textLength="52.0" x="34.0" y="19.0">指针指向</tspan></text></g><g transform="translate(56.692913,139.370100)" id="shape32"><text xml:space="preserve" style="fill:#b3cc80;font-family:Microsoft YaHei,PingFang SC,Microsoft YaHei,Arial;font-size:13px"><tspan textLength="26.0" x="7.2" y="19.0">栈：</tspan></text></g><g transform="translate(531.586974,139.370100)" id="shape33"><text xml:space="preserve" style="fill:#b3cc80;font-family:Microsoft YaHei,PingFang SC,Microsoft YaHei,Arial;font-size:13px"><tspan textLength="26.0" x="7.2" y="19.0">栈：</tspan></text></g><g transform="translate(531.586974,270.858100)" id="shape34"><text xml:space="preserve" style="fill:#5fb7f1;font-family:Microsoft YaHei,PingFang SC,Microsoft YaHei,Arial;font-size:13px"><tspan textLength="26.0" x="7.2" y="19.0">堆：</tspan></text></g><g transform="translate(531.586974,403.937100)" id="shape35"><text xml:space="preserve" style="fill:#5fb7f1;font-family:Microsoft YaHei,PingFang SC,Microsoft YaHei,Arial;font-size:13px"><tspan textLength="26.0" x="7.2" y="19.0">堆：</tspan></text></g><g transform="translate(56.692913,270.858100)" id="shape36"><text xml:space="preserve" style="fill:#98bc25;font-family:Microsoft YaHei,PingFang SC,Microsoft YaHei,Arial;font-size:13px"><tspan textLength="26.0" x="7.2" y="19.0">栈：</tspan></text></g><g transform="translate(56.692913,403.937100)" id="shape37"><text xml:space="preserve" style="fill:#98bc25;font-family:Microsoft YaHei,PingFang SC,Microsoft YaHei,Arial;font-size:13px"><tspan textLength="26.0" x="7.2" y="19.0">栈：</tspan></text></g><path transform="translate(281.273500,483.095000)" fill="none" d="M.0,.0L-153.2,60.8" id="shape38" stroke-width="2.6666700839996338" stroke="#b7b6b4"/><path transform="translate(365.307500,485.600000)" fill="none" d="M.0,.0L36.1,59.4" id="shape39" stroke-width="2.6666700839996338" stroke="#b7b6b4"/></g></svg>