<!--Generated by EdrawMax, SVG Export clone.svg String-->
<svg viewBox="0 0 948 492" xmlns:xlink="http://www.w3.org/1999/xlink" width="948" height="492" xmlns="http://www.w3.org/2000/svg" xmlns:ed="https://www.edrawsoft.cn/xml/2017/SVGExtensions/"><defs><marker markerWidth="13.79796524917224" markerUnits="userSpaceOnUse" markerHeight="13.79796524917224" refY="5.89898262458612" id="edrawArrow_4_2.66667" refX="1" orient="auto-start-reverse" ed:arrow="4"><path fill="context-stroke" d="M1.0,1.0L10.8,5.9L1.0,10.8L1.0,1.0" stroke-linecap="round" stroke="context-stroke" stroke-width="1"/></marker><linearGradient x1="0%" y2="0%" id="lg1" x2="100%" y1="0%"><stop stop-color="#d7e9d0" offset="0.00" stop-opacity="0.20"/><stop stop-color="#80c150" offset="1.00"/></linearGradient></defs><g transform="translate(-64.45,-2453.85)"><g id="shape1" transform="translate(143.633622,2742.003050)"><path fill-rule="nonzero" fill="#232322" d="M57.3,54.0C59.7,51.8,61.2,48.7,61.2,45.2L61.2,21.0C61.2,16.0,62.1,8.2,57.9,3.8C55.8,1.5,52.6,.0,49.2,.0L21.0,.0C16.0,.0,8.2,-0.9,3.8,3.2C1.5,5.4,.0,8.5,.0,12.0L.0,36.2C.0,41.2,-0.9,49.0,3.2,53.4C5.4,55.8,8.5,57.2,12.0,57.2L40.2,57.2C45.1,57.2,52.9,58.2,57.3,54.0z" stroke="#b7b6b4" stroke-width="2.666670083999634"/><text xml:space="preserve" style="fill:#ffffff;font-family:Microsoft YaHei,PingFang SC,Microsoft YaHei,Arial;font-size:32px"><tspan x="18.2" textLength="24.8" y="42.1">H</tspan></text></g><g id="shape2" transform="translate(227.043622,2742.003050)"><path fill-rule="nonzero" fill="#232322" d="M57.3,54.0C59.7,51.8,61.2,48.7,61.2,45.2L61.2,21.0C61.2,16.0,62.1,8.2,57.9,3.8C55.8,1.5,52.6,.0,49.2,.0L21.0,.0C16.0,.0,8.2,-0.9,3.8,3.2C1.5,5.4,.0,8.5,.0,12.0L.0,36.2C.0,41.2,-0.9,49.0,3.2,53.4C5.4,55.8,8.5,57.2,12.0,57.2L40.2,57.2C45.1,57.2,52.9,58.2,57.3,54.0z" stroke="#afafaf" stroke-width="2.666670083999634"/><text xml:space="preserve" style="fill:#ffffff;font-family:Microsoft YaHei,PingFang SC,Microsoft YaHei,Arial;font-size:32px"><tspan x="21.5" textLength="18.2" y="42.1">e</tspan></text></g><g id="shape3" transform="translate(310.453622,2742.003050)"><path fill-rule="nonzero" fill="#232322" d="M57.3,54.0C59.7,51.8,61.2,48.7,61.2,45.2L61.2,21.0C61.2,16.0,62.1,8.2,57.9,3.8C55.8,1.5,52.6,.0,49.2,.0L21.0,.0C16.0,.0,8.2,-0.9,3.8,3.2C1.5,5.4,.0,8.5,.0,12.0L.0,36.2C.0,41.2,-0.9,49.0,3.2,53.4C5.4,55.8,8.5,57.2,12.0,57.2L40.2,57.2C45.1,57.2,52.9,58.2,57.3,54.0z" stroke="#afafaf" stroke-width="2.666670083999634"/><text xml:space="preserve" style="fill:#ffffff;font-family:Microsoft YaHei,PingFang SC,Microsoft YaHei,Arial;font-size:32px"><tspan x="26.3" textLength="8.5" y="42.1">l</tspan></text></g><g id="shape4" transform="translate(393.863622,2742.003050)"><path fill-rule="nonzero" fill="#232322" d="M57.3,54.0C59.7,51.8,61.2,48.7,61.2,45.2L61.2,21.0C61.2,16.0,62.1,8.2,57.9,3.8C55.8,1.5,52.6,.0,49.2,.0L21.0,.0C16.0,.0,8.2,-0.9,3.8,3.2C1.5,5.4,.0,8.5,.0,12.0L.0,36.2C.0,41.2,-0.9,49.0,3.2,53.4C5.4,55.8,8.5,57.2,12.0,57.2L40.2,57.2C45.1,57.2,52.9,58.2,57.3,54.0z" stroke="#afafaf" stroke-width="2.666670083999634"/><text xml:space="preserve" style="fill:#ffffff;font-family:Microsoft YaHei,PingFang SC,Microsoft YaHei,Arial;font-size:32px"><tspan x="26.3" textLength="8.5" y="42.1">l</tspan></text></g><g id="shape5" transform="translate(477.273622,2742.003050)"><path fill-rule="nonzero" fill="#232322" d="M57.3,54.0C59.7,51.8,61.2,48.7,61.2,45.2L61.2,21.0C61.2,16.0,62.1,8.2,57.9,3.8C55.8,1.5,52.6,.0,49.2,.0L21.0,.0C16.0,.0,8.2,-0.9,3.8,3.2C1.5,5.4,.0,8.5,.0,12.0L.0,36.2C.0,41.2,-0.9,49.0,3.2,53.4C5.4,55.8,8.5,57.2,12.0,57.2L40.2,57.2C45.1,57.2,52.9,58.2,57.3,54.0z" stroke="#b7b6b4" stroke-width="2.666670083999634"/><text xml:space="preserve" style="fill:#ffffff;font-family:Microsoft YaHei,PingFang SC,Microsoft YaHei,Arial;font-size:32px"><tspan x="20.4" textLength="20.3" y="42.1">o</tspan></text></g><g id="shape6" transform="translate(560.683622,2742.003050)"><path fill-rule="nonzero" fill="#232322" d="M57.3,54.0C59.7,51.8,61.2,48.7,61.2,45.2L61.2,21.0C61.2,16.0,62.1,8.2,57.9,3.8C55.8,1.5,52.6,.0,49.2,.0L21.0,.0C16.0,.0,8.2,-0.9,3.8,3.2C1.5,5.4,.0,8.5,.0,12.0L.0,36.2C.0,41.2,-0.9,49.0,3.2,53.4C5.4,55.8,8.5,57.2,12.0,57.2L40.2,57.2C45.1,57.2,52.9,58.2,57.3,54.0z" stroke="#b7b6b4" stroke-width="2.666670083999634"/><text xml:space="preserve" style="fill:#ffffff;font-family:Microsoft YaHei,PingFang SC,Microsoft YaHei,Arial;font-size:32px"><tspan x="14.3" textLength="32.6" y="42.1">W</tspan></text></g><g id="shape7" transform="translate(139.228522,2599.583050)"><path fill-rule="nonzero" fill="#232322" d="M119.8,54.0C122.2,51.8,123.6,48.7,123.6,45.2L123.6,21.0C123.6,16.0,124.5,8.2,120.4,3.8C118.2,1.5,115.1,.0,111.6,.0L21.0,.0C16.0,.0,8.2,-0.9,3.8,3.2C1.5,5.4,.0,8.5,.0,12.0L.0,36.2C.0,41.2,-0.9,49.0,3.2,53.4C5.4,55.8,8.5,57.2,12.0,57.2L102.6,57.2C107.6,57.2,115.4,58.2,119.8,54.0z" stroke="#b3cc80" stroke-width="2.666670083999634"/><text xml:space="preserve" style="fill:#ffffff;font-family:Microsoft YaHei,PingFang SC,Microsoft YaHei,Arial;font-size:19px"><tspan x="33.3" textLength="57.0" y="24.6">指针：</tspan><tspan x="29.1" textLength="65.3" y="50.6">0x1000</tspan></text></g><g id="shape8" transform="translate(262.867622,2599.583050)"><path fill-rule="nonzero" fill="#232322" d="M124.7,54.0C127.1,51.8,128.5,48.7,128.5,45.2L128.5,21.0C128.5,16.0,129.5,8.2,125.3,3.8C123.1,1.5,120.0,.0,116.5,.0L21.0,.0C16.0,.0,8.2,-0.9,3.8,3.2C1.5,5.4,.0,8.5,.0,12.0L.0,36.2C.0,41.2,-0.9,49.0,3.2,53.4C5.4,55.8,8.5,57.2,12.0,57.2L107.5,57.2C112.5,57.2,120.3,58.2,124.7,54.0z" stroke="#b3cc80" stroke-width="2.666670083999634"/><text xml:space="preserve" style="fill:#ffffff;font-family:Microsoft YaHei,PingFang SC,Microsoft YaHei,Arial;font-size:19px"><tspan x="24.6" textLength="79.3" y="37.6">长度：10</tspan></text></g><g id="shape9" transform="translate(201.048222,2656.832650)"><path marker-end="url(#edrawArrow_4_2.66667)" fill="none" d="M.0,.0L-53.0,105.0" stroke="#b3cc80" stroke-width="2.666670083999634"/></g><path fill="none" d="M.0,.0L4.8,.0C5.9,.0,7.5,-0.2,8.8,.0C9.9,.3,11.0,.8,11.9,1.7C12.7,2.6,13.3,3.6,13.5,4.8C13.8,6.1,13.6,7.7,13.6,8.8L13.6,399.4C13.6,400.5,13.4,402.1,13.6,403.4C13.8,404.6,14.4,405.6,15.3,406.5C16.6,407.8,18.5,408.5,20.3,408.2C18.5,407.9,16.6,408.6,15.3,409.9C14.4,410.7,13.8,411.8,13.6,413.0C13.4,414.3,13.6,415.9,13.6,417.0L13.6,807.6C13.6,808.7,13.8,810.3,13.5,811.6C13.3,812.7,12.7,813.8,11.9,814.7C11.0,815.5,9.9,816.1,8.8,816.3C7.5,816.6,5.9,816.4,4.8,816.4L.0,816.4" id="shape10" transform="matrix(0.000000,-1.000000,-1.000000,0.000000,957.945222,2736.877400)" stroke="#ffd88f" stroke-width="2.666670083999634"/><g id="shape11" transform="translate(327.141222,2656.832650)"><path marker-end="url(#edrawArrow_4_2.66667)" fill="none" d="M.0,.0L213.2,57.2" stroke="#b3cc80" stroke-width="2.666670083999634"/></g><g id="shape12" transform="translate(484.282722,2453.845150)"><text xml:space="preserve" style="fill:#b3cc80;font-family:Microsoft YaHei,PingFang SC,Microsoft YaHei,Arial;font-size:32px"><tspan x="60.4" textLength="64.0" y="39.0">克隆</tspan><tspan x="16.3" textLength="152.1" y="82.0">（Clone）</tspan></text></g><g id="shape13" transform="translate(644.093622,2742.003050)"><path fill-rule="nonzero" fill="#232322" d="M57.3,54.0C59.7,51.8,61.2,48.7,61.2,45.2L61.2,21.0C61.2,16.0,62.1,8.2,57.9,3.8C55.8,1.5,52.6,.0,49.2,.0L21.0,.0C16.0,.0,8.2,-0.9,3.8,3.2C1.5,5.4,.0,8.5,.0,12.0L.0,36.2C.0,41.2,-0.9,49.0,3.2,53.4C5.4,55.8,8.5,57.2,12.0,57.2L40.2,57.2C45.1,57.2,52.9,58.2,57.3,54.0z" stroke="#b7b6b4" stroke-width="2.666670083999634"/><text xml:space="preserve" style="fill:#ffffff;font-family:Microsoft YaHei,PingFang SC,Microsoft YaHei,Arial;font-size:32px"><tspan x="20.4" textLength="20.3" y="42.1">o</tspan></text></g><g id="shape14" transform="translate(129.020222,2799.258840)"><text xml:space="preserve" style="fill:#5fb7f1;font-family:Microsoft YaHei,PingFang SC,Microsoft YaHei,Arial;font-size:13px"><tspan x="22.9" textLength="44.6" y="19.0">0x1000</tspan></text></g><g id="shape15" transform="translate(212.430222,2799.258850)"><text xml:space="preserve" style="fill:#5fb7f1;font-family:Microsoft YaHei,PingFang SC,Microsoft YaHei,Arial;font-size:13px"><tspan x="22.9" textLength="44.6" y="19.0">0x1004</tspan></text></g><g id="shape16" transform="translate(295.654222,2799.258850)"><text xml:space="preserve" style="fill:#5fb7f1;font-family:Microsoft YaHei,PingFang SC,Microsoft YaHei,Arial;font-size:13px"><tspan x="22.9" textLength="44.6" y="19.0">0x1008</tspan></text></g><g id="shape17" transform="translate(379.250222,2799.258850)"><text xml:space="preserve" style="fill:#5fb7f1;font-family:Microsoft YaHei,PingFang SC,Microsoft YaHei,Arial;font-size:13px"><tspan x="22.6" textLength="45.2" y="19.0">0x100B</tspan></text></g><g id="shape18" transform="translate(462.660222,2799.258850)"><text xml:space="preserve" style="fill:#5fb7f1;font-family:Microsoft YaHei,PingFang SC,Microsoft YaHei,Arial;font-size:13px"><tspan x="22.9" textLength="44.6" y="19.0">0x1010</tspan></text></g><g id="shape19" transform="translate(546.070222,2799.258850)"><text xml:space="preserve" style="fill:#5fb7f1;font-family:Microsoft YaHei,PingFang SC,Microsoft YaHei,Arial;font-size:13px"><tspan x="22.9" textLength="44.6" y="19.0">0x1014</tspan></text></g><g id="shape20" transform="translate(727.393622,2742.003050)"><path fill-rule="nonzero" fill="#232322" d="M57.3,54.0C59.7,51.8,61.2,48.7,61.2,45.2L61.2,21.0C61.2,16.0,62.1,8.2,57.9,3.8C55.8,1.5,52.6,.0,49.2,.0L21.0,.0C16.0,.0,8.2,-0.9,3.8,3.2C1.5,5.4,.0,8.5,.0,12.0L.0,36.2C.0,41.2,-0.9,49.0,3.2,53.4C5.4,55.8,8.5,57.2,12.0,57.2L40.2,57.2C45.1,57.2,52.9,58.2,57.3,54.0z" stroke="#b7b6b4" stroke-width="2.666670083999634"/><text xml:space="preserve" style="fill:#ffffff;font-family:Microsoft YaHei,PingFang SC,Microsoft YaHei,Arial;font-size:32px"><tspan x="24.5" textLength="12.2" y="42.1">r</tspan></text></g><g id="shape21" transform="translate(810.803622,2742.003050)"><path fill-rule="nonzero" fill="#232322" d="M57.3,54.0C59.7,51.8,61.2,48.7,61.2,45.2L61.2,21.0C61.2,16.0,62.1,8.2,57.9,3.8C55.8,1.5,52.6,.0,49.2,.0L21.0,.0C16.0,.0,8.2,-0.9,3.8,3.2C1.5,5.4,.0,8.5,.0,12.0L.0,36.2C.0,41.2,-0.9,49.0,3.2,53.4C5.4,55.8,8.5,57.2,12.0,57.2L40.2,57.2C45.1,57.2,52.9,58.2,57.3,54.0z" stroke="#b7b6b4" stroke-width="2.666670083999634"/><text xml:space="preserve" style="fill:#ffffff;font-family:Microsoft YaHei,PingFang SC,Microsoft YaHei,Arial;font-size:32px"><tspan x="26.3" textLength="8.5" y="42.1">l</tspan></text></g><g id="shape22" transform="translate(894.213622,2742.003050)"><path fill-rule="nonzero" fill="#232322" d="M57.3,54.0C59.7,51.8,61.2,48.7,61.2,45.2L61.2,21.0C61.2,16.0,62.1,8.2,57.9,3.8C55.8,1.5,52.6,.0,49.2,.0L21.0,.0C16.0,.0,8.2,-0.9,3.8,3.2C1.5,5.4,.0,8.5,.0,12.0L.0,36.2C.0,41.2,-0.9,49.0,3.2,53.4C5.4,55.8,8.5,57.2,12.0,57.2L40.2,57.2C45.1,57.2,52.9,58.2,57.3,54.0z" stroke="#b7b6b4" stroke-width="2.666670083999634"/><text xml:space="preserve" style="fill:#ffffff;font-family:Microsoft YaHei,PingFang SC,Microsoft YaHei,Arial;font-size:32px"><tspan x="20.3" textLength="20.5" y="42.1">d</tspan></text></g><g id="shape23" transform="translate(629.665222,2799.258850)"><text xml:space="preserve" style="fill:#5fb7f1;font-family:Microsoft YaHei,PingFang SC,Microsoft YaHei,Arial;font-size:13px"><tspan x="22.9" textLength="44.6" y="19.0">0x1018</tspan></text></g><g id="shape24" transform="translate(713.075222,2799.258850)"><text xml:space="preserve" style="fill:#5fb7f1;font-family:Microsoft YaHei,PingFang SC,Microsoft YaHei,Arial;font-size:13px"><tspan x="22.6" textLength="45.2" y="19.0">0x101B</tspan></text></g><g id="shape25" transform="translate(796.485222,2799.258850)"><text xml:space="preserve" style="fill:#5fb7f1;font-family:Microsoft YaHei,PingFang SC,Microsoft YaHei,Arial;font-size:13px"><tspan x="22.9" textLength="44.6" y="19.0">0x1020</tspan></text></g><g id="shape26" transform="translate(879.600222,2799.258850)"><text xml:space="preserve" style="fill:#5fb7f1;font-family:Microsoft YaHei,PingFang SC,Microsoft YaHei,Arial;font-size:13px"><tspan x="22.9" textLength="44.6" y="19.0">0x1024</tspan></text></g><g id="shape27" transform="translate(64.864122,2599.587550)"><text xml:space="preserve" style="fill:#b3cc80;font-family:Microsoft YaHei,PingFang SC,Microsoft YaHei,Arial;font-size:24px"><tspan x="9.6" textLength="48.0" y="30.0">栈：</tspan></text></g><g id="shape28" transform="translate(64.864122,2742.007550)"><text xml:space="preserve" style="fill:#b3cc80;font-family:Microsoft YaHei,PingFang SC,Microsoft YaHei,Arial;font-size:24px"><tspan x="9.6" textLength="48.0" y="30.0">堆：</tspan></text></g><g id="shape29" transform="translate(391.414622,2599.583050)"><path fill-rule="nonzero" fill="#232322" d="M124.7,54.0C127.1,51.8,128.5,48.7,128.5,45.2L128.5,21.0C128.5,16.0,129.5,8.2,125.3,3.8C123.1,1.5,120.0,.0,116.5,.0L21.0,.0C16.0,.0,8.2,-0.9,3.8,3.2C1.5,5.4,.0,8.5,.0,12.0L.0,36.2C.0,41.2,-0.9,49.0,3.2,53.4C5.4,55.8,8.5,57.2,12.0,57.2L107.5,57.2C112.5,57.2,120.3,58.2,124.7,54.0z" stroke="#b3cc80" stroke-width="2.666670083999634"/><text xml:space="preserve" style="fill:#ffffff;font-family:Microsoft YaHei,PingFang SC,Microsoft YaHei,Arial;font-size:19px"><tspan x="24.6" textLength="79.3" y="37.6">容量：50</tspan></text></g><g id="shape30" transform="translate(140.603222,2547.369550)"><text xml:space="preserve" style="fill:#b3cc80;font-family:Microsoft YaHei,PingFang SC,Microsoft YaHei,Arial;font-size:19px"><tspan x="20.3" textLength="231.1" y="26.0">S1：克隆后原数据仍然有效</tspan></text></g><g id="shape31" transform="translate(630.290522,2599.583050)"><path fill-rule="nonzero" fill="#232322" d="M119.8,54.0C122.2,51.8,123.6,48.7,123.6,45.2L123.6,21.0C123.6,16.0,124.5,8.2,120.4,3.8C118.2,1.5,115.1,.0,111.6,.0L21.0,.0C16.0,.0,8.2,-0.9,3.8,3.2C1.5,5.4,.0,8.5,.0,12.0L.0,36.2C.0,41.2,-0.9,49.0,3.2,53.4C5.4,55.8,8.5,57.2,12.0,57.2L102.6,57.2C107.6,57.2,115.4,58.2,119.8,54.0z" stroke="#b3cc80" stroke-width="2.666670083999634"/><text xml:space="preserve" style="fill:#ffffff;font-family:Microsoft YaHei,PingFang SC,Microsoft YaHei,Arial;font-size:19px"><tspan x="33.3" textLength="57.0" y="24.6">指针：</tspan><tspan x="29.1" textLength="65.3" y="50.6">0x2000</tspan></text></g><g id="shape32" transform="translate(753.929622,2599.583050)"><path fill-rule="nonzero" fill="#232322" d="M124.7,54.0C127.1,51.8,128.5,48.7,128.5,45.2L128.5,21.0C128.5,16.0,129.5,8.2,125.3,3.8C123.1,1.5,120.0,.0,116.5,.0L21.0,.0C16.0,.0,8.2,-0.9,3.8,3.2C1.5,5.4,.0,8.5,.0,12.0L.0,36.2C.0,41.2,-0.9,49.0,3.2,53.4C5.4,55.8,8.5,57.2,12.0,57.2L107.5,57.2C112.5,57.2,120.3,58.2,124.7,54.0z" stroke="#b3cc80" stroke-width="2.666670083999634"/><text xml:space="preserve" style="fill:#ffffff;font-family:Microsoft YaHei,PingFang SC,Microsoft YaHei,Arial;font-size:19px"><tspan x="24.6" textLength="79.3" y="37.6">长度：10</tspan></text></g><g id="shape33" transform="translate(882.476622,2599.583050)"><path fill-rule="nonzero" fill="#232322" d="M124.7,54.0C127.1,51.8,128.5,48.7,128.5,45.2L128.5,21.0C128.5,16.0,129.5,8.2,125.3,3.8C123.1,1.5,120.0,.0,116.5,.0L21.0,.0C16.0,.0,8.2,-0.9,3.8,3.2C1.5,5.4,.0,8.5,.0,12.0L.0,36.2C.0,41.2,-0.9,49.0,3.2,53.4C5.4,55.8,8.5,57.2,12.0,57.2L107.5,57.2C112.5,57.2,120.3,58.2,124.7,54.0z" stroke="#b3cc80" stroke-width="2.666670083999634"/><text xml:space="preserve" style="fill:#ffffff;font-family:Microsoft YaHei,PingFang SC,Microsoft YaHei,Arial;font-size:19px"><tspan x="24.6" textLength="79.3" y="37.6">容量：50</tspan></text></g><g id="shape34" transform="translate(631.665222,2547.368550)"><text xml:space="preserve" style="fill:#b3cc80;font-family:Microsoft YaHei,PingFang SC,Microsoft YaHei,Arial;font-size:19px"><tspan x="10.9" textLength="269.1" y="26.0">S2：克隆后使用新的堆里的数据</tspan></text></g><path fill-rule="nonzero" fill="url(#lg1)" d="M.0,17.3L39.8,17.3L39.8,.0L61.2,24.0L39.8,48.0L39.8,30.7L.0,30.7L.0,17.3z" id="shape35" transform="translate(546.070622,2604.207950)"/><path fill-rule="nonzero" fill="#98bc25" d="M46.8,.0C32.2,9.0,21.6,20.3,16.8,25.9L5.2,16.8L.0,20.9L20.1,41.4C23.6,32.5,34.6,15.2,48.0,2.9L46.8,.0zM46.8,.0z" id="shape36" transform="translate(617.238222,2581.507850)"/><path fill-rule="nonzero" fill="#98bc25" d="M46.8,.0C32.2,9.0,21.6,20.3,16.8,25.9L5.2,16.8L.0,20.9L20.1,41.4C23.6,32.5,34.6,15.2,48.0,2.9L46.8,.0zM46.8,.0z" id="shape37" transform="translate(129.020222,2581.510150)"/><g id="shape38" transform="translate(143.633622,2862.469550)"><path fill-rule="nonzero" fill="#232322" d="M57.3,54.0C59.7,51.8,61.2,48.7,61.2,45.2L61.2,21.0C61.2,16.0,62.1,8.2,57.9,3.8C55.8,1.5,52.6,.0,49.2,.0L21.0,.0C16.0,.0,8.2,-0.9,3.8,3.2C1.5,5.4,.0,8.5,.0,12.0L.0,36.2C.0,41.2,-0.9,49.0,3.2,53.4C5.4,55.8,8.5,57.2,12.0,57.2L40.2,57.2C45.1,57.2,52.9,58.2,57.3,54.0z" stroke="#b7b6b4" stroke-width="2.666670083999634"/><text xml:space="preserve" style="fill:#ffffff;font-family:Microsoft YaHei,PingFang SC,Microsoft YaHei,Arial;font-size:32px"><tspan x="18.2" textLength="24.8" y="42.1">H</tspan></text></g><g id="shape39" transform="translate(227.043622,2862.469550)"><path fill-rule="nonzero" fill="#232322" d="M57.3,54.0C59.7,51.8,61.2,48.7,61.2,45.2L61.2,21.0C61.2,16.0,62.1,8.2,57.9,3.8C55.8,1.5,52.6,.0,49.2,.0L21.0,.0C16.0,.0,8.2,-0.9,3.8,3.2C1.5,5.4,.0,8.5,.0,12.0L.0,36.2C.0,41.2,-0.9,49.0,3.2,53.4C5.4,55.8,8.5,57.2,12.0,57.2L40.2,57.2C45.1,57.2,52.9,58.2,57.3,54.0z" stroke="#afafaf" stroke-width="2.666670083999634"/><text xml:space="preserve" style="fill:#ffffff;font-family:Microsoft YaHei,PingFang SC,Microsoft YaHei,Arial;font-size:32px"><tspan x="21.5" textLength="18.2" y="42.1">e</tspan></text></g><g id="shape40" transform="translate(310.453622,2862.469550)"><path fill-rule="nonzero" fill="#232322" d="M57.3,54.0C59.7,51.8,61.2,48.7,61.2,45.2L61.2,21.0C61.2,16.0,62.1,8.2,57.9,3.8C55.8,1.5,52.6,.0,49.2,.0L21.0,.0C16.0,.0,8.2,-0.9,3.8,3.2C1.5,5.4,.0,8.5,.0,12.0L.0,36.2C.0,41.2,-0.9,49.0,3.2,53.4C5.4,55.8,8.5,57.2,12.0,57.2L40.2,57.2C45.1,57.2,52.9,58.2,57.3,54.0z" stroke="#afafaf" stroke-width="2.666670083999634"/><text xml:space="preserve" style="fill:#ffffff;font-family:Microsoft YaHei,PingFang SC,Microsoft YaHei,Arial;font-size:32px"><tspan x="26.3" textLength="8.5" y="42.1">l</tspan></text></g><g id="shape41" transform="translate(393.863622,2862.469550)"><path fill-rule="nonzero" fill="#232322" d="M57.3,54.0C59.7,51.8,61.2,48.7,61.2,45.2L61.2,21.0C61.2,16.0,62.1,8.2,57.9,3.8C55.8,1.5,52.6,.0,49.2,.0L21.0,.0C16.0,.0,8.2,-0.9,3.8,3.2C1.5,5.4,.0,8.5,.0,12.0L.0,36.2C.0,41.2,-0.9,49.0,3.2,53.4C5.4,55.8,8.5,57.2,12.0,57.2L40.2,57.2C45.1,57.2,52.9,58.2,57.3,54.0z" stroke="#afafaf" stroke-width="2.666670083999634"/><text xml:space="preserve" style="fill:#ffffff;font-family:Microsoft YaHei,PingFang SC,Microsoft YaHei,Arial;font-size:32px"><tspan x="26.3" textLength="8.5" y="42.1">l</tspan></text></g><g id="shape42" transform="translate(477.273622,2862.469550)"><path fill-rule="nonzero" fill="#232322" d="M57.3,54.0C59.7,51.8,61.2,48.7,61.2,45.2L61.2,21.0C61.2,16.0,62.1,8.2,57.9,3.8C55.8,1.5,52.6,.0,49.2,.0L21.0,.0C16.0,.0,8.2,-0.9,3.8,3.2C1.5,5.4,.0,8.5,.0,12.0L.0,36.2C.0,41.2,-0.9,49.0,3.2,53.4C5.4,55.8,8.5,57.2,12.0,57.2L40.2,57.2C45.1,57.2,52.9,58.2,57.3,54.0z" stroke="#b7b6b4" stroke-width="2.666670083999634"/><text xml:space="preserve" style="fill:#ffffff;font-family:Microsoft YaHei,PingFang SC,Microsoft YaHei,Arial;font-size:32px"><tspan x="20.4" textLength="20.3" y="42.1">o</tspan></text></g><g id="shape43" transform="translate(560.683622,2862.469550)"><path fill-rule="nonzero" fill="#232322" d="M57.3,54.0C59.7,51.8,61.2,48.7,61.2,45.2L61.2,21.0C61.2,16.0,62.1,8.2,57.9,3.8C55.8,1.5,52.6,.0,49.2,.0L21.0,.0C16.0,.0,8.2,-0.9,3.8,3.2C1.5,5.4,.0,8.5,.0,12.0L.0,36.2C.0,41.2,-0.9,49.0,3.2,53.4C5.4,55.8,8.5,57.2,12.0,57.2L40.2,57.2C45.1,57.2,52.9,58.2,57.3,54.0z" stroke="#b7b6b4" stroke-width="2.666670083999634"/><text xml:space="preserve" style="fill:#ffffff;font-family:Microsoft YaHei,PingFang SC,Microsoft YaHei,Arial;font-size:32px"><tspan x="14.3" textLength="32.6" y="42.1">W</tspan></text></g><path fill="none" d="M.0,.0L4.8,.0C5.9,.0,7.5,-0.2,8.8,.0C9.9,.3,11.0,.8,11.9,1.7C12.7,2.6,13.3,3.6,13.5,4.8C13.8,6.1,13.6,7.7,13.6,8.8L13.6,399.4C13.6,400.5,13.4,402.1,13.6,403.4C13.8,404.6,14.4,405.6,15.3,406.5C16.6,407.8,18.5,408.5,20.3,408.2C18.5,407.9,16.6,408.6,15.3,409.9C14.4,410.7,13.8,411.8,13.6,413.0C13.4,414.3,13.6,415.9,13.6,417.0L13.6,807.6C13.6,808.7,13.8,810.3,13.5,811.6C13.3,812.7,12.7,813.8,11.9,814.7C11.0,815.5,9.9,816.1,8.8,816.3C7.5,816.6,5.9,816.4,4.8,816.4L.0,816.4" id="shape44" transform="matrix(0.000000,-1.000000,-1.000000,0.000000,957.945222,2857.343900)" stroke="#ffd88f" stroke-width="2.666670083999634"/><g id="shape45" transform="translate(644.093622,2862.469550)"><path fill-rule="nonzero" fill="#232322" d="M57.3,54.0C59.7,51.8,61.2,48.7,61.2,45.2L61.2,21.0C61.2,16.0,62.1,8.2,57.9,3.8C55.8,1.5,52.6,.0,49.2,.0L21.0,.0C16.0,.0,8.2,-0.9,3.8,3.2C1.5,5.4,.0,8.5,.0,12.0L.0,36.2C.0,41.2,-0.9,49.0,3.2,53.4C5.4,55.8,8.5,57.2,12.0,57.2L40.2,57.2C45.1,57.2,52.9,58.2,57.3,54.0z" stroke="#b7b6b4" stroke-width="2.666670083999634"/><text xml:space="preserve" style="fill:#ffffff;font-family:Microsoft YaHei,PingFang SC,Microsoft YaHei,Arial;font-size:32px"><tspan x="20.4" textLength="20.3" y="42.1">o</tspan></text></g><g id="shape46" transform="translate(129.020222,2919.725340)"><text xml:space="preserve" style="fill:#5fb7f1;font-family:Microsoft YaHei,PingFang SC,Microsoft YaHei,Arial;font-size:13px"><tspan x="22.9" textLength="44.6" y="19.0">0x2000</tspan></text></g><g id="shape47" transform="translate(212.430222,2919.725350)"><text xml:space="preserve" style="fill:#5fb7f1;font-family:Microsoft YaHei,PingFang SC,Microsoft YaHei,Arial;font-size:13px"><tspan x="22.9" textLength="44.6" y="19.0">0x2004</tspan></text></g><g id="shape48" transform="translate(295.654222,2919.725350)"><text xml:space="preserve" style="fill:#5fb7f1;font-family:Microsoft YaHei,PingFang SC,Microsoft YaHei,Arial;font-size:13px"><tspan x="22.9" textLength="44.6" y="19.0">0x2008</tspan></text></g><g id="shape49" transform="translate(379.250222,2919.725350)"><text xml:space="preserve" style="fill:#5fb7f1;font-family:Microsoft YaHei,PingFang SC,Microsoft YaHei,Arial;font-size:13px"><tspan x="22.6" textLength="45.2" y="19.0">0x200B</tspan></text></g><g id="shape50" transform="translate(462.660222,2919.725350)"><text xml:space="preserve" style="fill:#5fb7f1;font-family:Microsoft YaHei,PingFang SC,Microsoft YaHei,Arial;font-size:13px"><tspan x="22.9" textLength="44.6" y="19.0">0x2010</tspan></text></g><g id="shape51" transform="translate(546.070222,2919.725350)"><text xml:space="preserve" style="fill:#5fb7f1;font-family:Microsoft YaHei,PingFang SC,Microsoft YaHei,Arial;font-size:13px"><tspan x="22.9" textLength="44.6" y="19.0">0x2014</tspan></text></g><g id="shape52" transform="translate(727.393622,2862.469550)"><path fill-rule="nonzero" fill="#232322" d="M57.3,54.0C59.7,51.8,61.2,48.7,61.2,45.2L61.2,21.0C61.2,16.0,62.1,8.2,57.9,3.8C55.8,1.5,52.6,.0,49.2,.0L21.0,.0C16.0,.0,8.2,-0.9,3.8,3.2C1.5,5.4,.0,8.5,.0,12.0L.0,36.2C.0,41.2,-0.9,49.0,3.2,53.4C5.4,55.8,8.5,57.2,12.0,57.2L40.2,57.2C45.1,57.2,52.9,58.2,57.3,54.0z" stroke="#b7b6b4" stroke-width="2.666670083999634"/><text xml:space="preserve" style="fill:#ffffff;font-family:Microsoft YaHei,PingFang SC,Microsoft YaHei,Arial;font-size:32px"><tspan x="24.5" textLength="12.2" y="42.1">r</tspan></text></g><g id="shape53" transform="translate(810.803622,2862.469550)"><path fill-rule="nonzero" fill="#232322" d="M57.3,54.0C59.7,51.8,61.2,48.7,61.2,45.2L61.2,21.0C61.2,16.0,62.1,8.2,57.9,3.8C55.8,1.5,52.6,.0,49.2,.0L21.0,.0C16.0,.0,8.2,-0.9,3.8,3.2C1.5,5.4,.0,8.5,.0,12.0L.0,36.2C.0,41.2,-0.9,49.0,3.2,53.4C5.4,55.8,8.5,57.2,12.0,57.2L40.2,57.2C45.1,57.2,52.9,58.2,57.3,54.0z" stroke="#b7b6b4" stroke-width="2.666670083999634"/><text xml:space="preserve" style="fill:#ffffff;font-family:Microsoft YaHei,PingFang SC,Microsoft YaHei,Arial;font-size:32px"><tspan x="26.3" textLength="8.5" y="42.1">l</tspan></text></g><g id="shape54" transform="translate(894.213622,2862.469550)"><path fill-rule="nonzero" fill="#232322" d="M57.3,54.0C59.7,51.8,61.2,48.7,61.2,45.2L61.2,21.0C61.2,16.0,62.1,8.2,57.9,3.8C55.8,1.5,52.6,.0,49.2,.0L21.0,.0C16.0,.0,8.2,-0.9,3.8,3.2C1.5,5.4,.0,8.5,.0,12.0L.0,36.2C.0,41.2,-0.9,49.0,3.2,53.4C5.4,55.8,8.5,57.2,12.0,57.2L40.2,57.2C45.1,57.2,52.9,58.2,57.3,54.0z" stroke="#b7b6b4" stroke-width="2.666670083999634"/><text xml:space="preserve" style="fill:#ffffff;font-family:Microsoft YaHei,PingFang SC,Microsoft YaHei,Arial;font-size:32px"><tspan x="20.3" textLength="20.5" y="42.1">d</tspan></text></g><g id="shape55" transform="translate(629.665222,2919.725350)"><text xml:space="preserve" style="fill:#5fb7f1;font-family:Microsoft YaHei,PingFang SC,Microsoft YaHei,Arial;font-size:13px"><tspan x="22.9" textLength="44.6" y="19.0">0x2018</tspan></text></g><g id="shape56" transform="translate(713.075222,2919.725350)"><text xml:space="preserve" style="fill:#5fb7f1;font-family:Microsoft YaHei,PingFang SC,Microsoft YaHei,Arial;font-size:13px"><tspan x="22.6" textLength="45.2" y="19.0">0x201B</tspan></text></g><g id="shape57" transform="translate(796.485222,2919.725350)"><text xml:space="preserve" style="fill:#5fb7f1;font-family:Microsoft YaHei,PingFang SC,Microsoft YaHei,Arial;font-size:13px"><tspan x="22.9" textLength="44.6" y="19.0">0x2020</tspan></text></g><g id="shape58" transform="translate(879.600222,2919.725350)"><text xml:space="preserve" style="fill:#5fb7f1;font-family:Microsoft YaHei,PingFang SC,Microsoft YaHei,Arial;font-size:13px"><tspan x="22.9" textLength="44.6" y="19.0">0x2024</tspan></text></g><g id="shape59" transform="translate(692.110222,2656.832650)"><path marker-end="url(#edrawArrow_4_2.66667)" fill="none" d="M.0,.0L-539.5,230.4" stroke="#b3cc80" stroke-width="2.666670083999634"/></g><g id="shape60" transform="translate(818.203222,2656.832650)"><path marker-end="url(#edrawArrow_4_2.66667)" fill="none" d="M.0,.0L-260.3,174.7" stroke="#b3cc80" stroke-width="2.666670083999634"/></g></g></svg>