<!--Generated by EdrawMax, SVG Export compiler_goalkeeper.svg rust核心思路-->
<svg viewBox="0 0 576 345" xmlns:xlink="http://www.w3.org/1999/xlink" width="576" height="345" xmlns="http://www.w3.org/2000/svg" xmlns:ed="https://www.edrawsoft.cn/xml/2017/SVGExtensions/"><defs><marker markerWidth="13.79796524917224" markerUnits="userSpaceOnUse" markerHeight="13.79796524917224" refY="5.89898262458612" id="edrawArrow_4_2.66667" refX="1" orient="auto-start-reverse" ed:arrow="4"><path fill="context-stroke" d="M1.0,1.0L10.8,5.9L1.0,10.8L1.0,1.0" stroke-linecap="round" stroke="context-stroke" stroke-width="1"/></marker><linearGradient x1="0%" y2="0%" id="lg1" x2="100%" y1="0%"><stop stop-color="#d7e9d0" offset="0.00" stop-opacity="0.20"/><stop stop-color="#80c150" offset="1.00"/></linearGradient></defs><g transform="translate(-161.94,-128.62)"><g id="shape1" transform="translate(163.275591,184.547244)"><path fill-rule="nonzero" fill="#232322" d="M128.2,72.8C130.5,70.6,132.0,67.5,132.0,64.0L132.0,21.0C132.0,16.0,132.9,8.2,128.8,3.8C126.6,1.5,123.5,.0,120.0,.0L21.0,.0C16.0,.0,8.2,-0.9,3.8,3.2C1.5,5.4,.0,8.5,.0,12.0L.0,55.0C.0,60.0,-0.9,67.8,3.2,72.2C5.4,74.5,8.5,76.0,12.0,76.0L111.0,76.0C116.0,76.0,123.8,76.9,128.2,72.8z" stroke="#f9a5a5" stroke-width="2.666670083999634"/><text xml:space="preserve" style="fill:#ffffff;font-family:Microsoft YaHei,PingFang SC,Microsoft YaHei,Arial;font-size:13px"><tspan x="31.9" textLength="68.2" y="44.0">C/C++编码</tspan></text></g><g id="shape2" transform="translate(383.858268,184.547244)"><path fill-rule="nonzero" fill="#232322" d="M128.2,72.8C130.5,70.6,132.0,67.5,132.0,64.0L132.0,21.0C132.0,16.0,132.9,8.2,128.8,3.8C126.6,1.5,123.5,.0,120.0,.0L21.0,.0C16.0,.0,8.2,-0.9,3.8,3.2C1.5,5.4,.0,8.5,.0,12.0L.0,55.0C.0,60.0,-0.9,67.8,3.2,72.2C5.4,74.5,8.5,76.0,12.0,76.0L111.0,76.0C116.0,76.0,123.8,76.9,128.2,72.8z" stroke="#f9a5a5" stroke-width="2.666670083999634"/><text xml:space="preserve" style="fill:#ffffff;font-family:Microsoft YaHei,PingFang SC,Microsoft YaHei,Arial;font-size:13px"><tspan x="53.0" textLength="26.0" y="44.0">编译</tspan></text></g><g id="shape3" transform="translate(604.440945,184.547244)"><path fill-rule="nonzero" fill="#232322" d="M128.2,72.8C130.5,70.6,132.0,67.5,132.0,64.0L132.0,21.0C132.0,16.0,132.9,8.2,128.8,3.8C126.6,1.5,123.5,.0,120.0,.0L21.0,.0C16.0,.0,8.2,-0.9,3.8,3.2C1.5,5.4,.0,8.5,.0,12.0L.0,55.0C.0,60.0,-0.9,67.8,3.2,72.2C5.4,74.5,8.5,76.0,12.0,76.0L111.0,76.0C116.0,76.0,123.8,76.9,128.2,72.8z" stroke="#f9a5a5" stroke-width="2.666670083999634"/><text xml:space="preserve" style="fill:#ffffff;font-family:Microsoft YaHei,PingFang SC,Microsoft YaHei,Arial;font-size:13px"><tspan x="53.0" textLength="26.0" y="44.0">运行</tspan></text></g><g id="shape4" transform="translate(295.275591,222.547244)"><path marker-end="url(#edrawArrow_4_2.66667)" fill="none" d="M.0,.0L78.8,-0.0" stroke="#f9a5a5" stroke-width="2.666670083999634"/></g><g id="shape5" transform="translate(515.858268,222.547244)"><path marker-end="url(#edrawArrow_4_2.66667)" fill="none" d="M.0,.0L78.8,.0" stroke="#f9a5a5" stroke-width="2.666670083999634"/></g><g id="shape6" transform="translate(670.440945,184.547244)"><path marker-end="url(#edrawArrow_4_2.66667)" fill="none" d="M.0,.0L.0,-14.0C.0,-21.7,-6.3,-28.0,-14.0,-28.0L-427.2,-28.0C-434.9,-28.0,-441.2,-21.7,-441.2,-14.0L-441.2,-9.8" stroke="#f9a5a5" stroke-width="2.666670083999634"/></g><g id="shape7" transform="translate(163.275945,396.440945)"><path fill-rule="nonzero" fill="#232322" d="M128.2,72.8C130.5,70.6,132.0,67.5,132.0,64.0L132.0,21.0C132.0,16.0,132.9,8.2,128.8,3.8C126.6,1.5,123.5,.0,120.0,.0L21.0,.0C16.0,.0,8.2,-0.9,3.8,3.2C1.5,5.4,.0,8.5,.0,12.0L.0,55.0C.0,60.0,-0.9,67.8,3.2,72.2C5.4,74.5,8.5,76.0,12.0,76.0L111.0,76.0C116.0,76.0,123.8,76.9,128.2,72.8z" stroke="#b3cc80" stroke-width="2.666670083999634"/><text xml:space="preserve" style="fill:#ffffff;font-family:Microsoft YaHei,PingFang SC,Microsoft YaHei,Arial;font-size:13px"><tspan x="39.3" textLength="53.3" y="44.0">Rust编码</tspan></text></g><g id="shape8" transform="translate(383.857945,396.440945)"><path fill-rule="nonzero" fill="#232322" d="M128.2,72.8C130.5,70.6,132.0,67.5,132.0,64.0L132.0,21.0C132.0,16.0,132.9,8.2,128.8,3.8C126.6,1.5,123.5,.0,120.0,.0L21.0,.0C16.0,.0,8.2,-0.9,3.8,3.2C1.5,5.4,.0,8.5,.0,12.0L.0,55.0C.0,60.0,-0.9,67.8,3.2,72.2C5.4,74.5,8.5,76.0,12.0,76.0L111.0,76.0C116.0,76.0,123.8,76.9,128.2,72.8z" stroke="#b3cc80" stroke-width="2.666670083999634"/><text xml:space="preserve" style="fill:#ffffff;font-family:Microsoft YaHei,PingFang SC,Microsoft YaHei,Arial;font-size:13px"><tspan x="53.0" textLength="26.0" y="44.0">编译</tspan></text></g><g id="shape9" transform="translate(604.440945,396.440945)"><path fill-rule="nonzero" fill="#232322" d="M128.2,72.8C130.5,70.6,132.0,67.5,132.0,64.0L132.0,21.0C132.0,16.0,132.9,8.2,128.8,3.8C126.6,1.5,123.5,.0,120.0,.0L21.0,.0C16.0,.0,8.2,-0.9,3.8,3.2C1.5,5.4,.0,8.5,.0,12.0L.0,55.0C.0,60.0,-0.9,67.8,3.2,72.2C5.4,74.5,8.5,76.0,12.0,76.0L111.0,76.0C116.0,76.0,123.8,76.9,128.2,72.8z" stroke="#b3cc80" stroke-width="2.666670083999634"/><text xml:space="preserve" style="fill:#ffffff;font-family:Microsoft YaHei,PingFang SC,Microsoft YaHei,Arial;font-size:13px"><tspan x="53.0" textLength="26.0" y="44.0">运行</tspan></text></g><g id="shape10" transform="translate(449.857945,396.440945)"><path marker-end="url(#edrawArrow_4_2.66667)" fill="none" d="M.0,.0L.0,-14.0C.0,-21.7,-6.3,-28.0,-14.0,-28.0L-206.6,-28.0C-214.3,-28.0,-220.6,-21.7,-220.6,-14.0L-220.6,-9.8" stroke="#b3cc80" stroke-width="2.666670083999634"/></g><g id="shape11" transform="translate(295.275945,434.440945)"><path marker-end="url(#edrawArrow_4_2.66667)" fill="none" d="M.0,.0L78.8,.0" stroke="#b3cc80" stroke-width="2.666670083999634"/></g><g id="shape12" transform="translate(515.857945,434.440945)"><path marker-end="url(#edrawArrow_4_2.66667)" fill="none" d="M.0,.0L78.8,.0" stroke="#b3cc80" stroke-width="2.666670083999634"/></g><path fill-rule="nonzero" fill="#98bc25" d="M18.5,29.0L46.5,.0L51.3,5.0L18.5,39.0L.0,19.8L4.8,14.8L18.5,29.0z" id="shape13" transform="translate(424.200868,377.350500)" stroke="#98bc25" stroke-width="0.3333329856395721"/><path fill-rule="nonzero" fill="url(#lg1)" d="M.0,17.3L67.8,17.3L67.8,.0L104.3,24.0L67.8,48.0L67.8,30.7L.0,30.7L.0,17.3z" id="shape14" transform="matrix(0.000000,1.000000,-1.000000,0.000000,600.377903,276.366594)"/><g id="shape15" transform="translate(251.515827,340.157480)"><text xml:space="preserve" style="fill:#98bc25;font-family:Microsoft YaHei,PingFang SC,Microsoft YaHei,Arial;font-size:13px"><tspan x="26.6" textLength="130.0" y="19.0">编译阶段确保内存安全</tspan></text></g><g id="shape16" transform="translate(290.308850,128.661983)"><text xml:space="preserve" style="fill:#f78181;font-family:Microsoft YaHei,PingFang SC,Microsoft YaHei,Arial;font-size:13px"><tspan x="10.0" textLength="299.0" y="19.0">常出现运行时才能发现内存安全问题（且及难定位）</tspan></text></g></g></svg>