<!--Generated by EdrawMax, SVG Export Copy.svg String-->
<svg viewBox="0 0 691 270" xmlns:xlink="http://www.w3.org/1999/xlink" width="691" height="270" xmlns="http://www.w3.org/2000/svg" xmlns:ed="https://www.edrawsoft.cn/xml/2017/SVGExtensions/"><defs><linearGradient x1="0%" y2="0%" id="lg1" x2="100%" y1="0%"><stop stop-color="#d7e9d0" offset="0.00" stop-opacity="0.20"/><stop stop-color="#80c150" offset="1.00"/></linearGradient></defs><g transform="translate(-168.65,-1660.00)"><g id="shape1" transform="translate(432.037949,1660.144363)"><text xml:space="preserve" style="fill:#b3cc80;font-family:Microsoft YaHei,PingFang SC,Microsoft YaHei,Arial;font-size:32px"><tspan x="60.4" textLength="64.0" y="39.0">拷贝</tspan><tspan x="20.8" textLength="143.1" y="82.0">（Copy）</tspan></text></g><g id="shape2" transform="translate(169.073572,1805.886763)"><text xml:space="preserve" style="fill:#b3cc80;font-family:Microsoft YaHei,PingFang SC,Microsoft YaHei,Arial;font-size:24px"><tspan x="9.6" textLength="48.0" y="30.0">栈：</tspan></text></g><g id="shape3" transform="translate(627.292308,1805.882263)"><path fill-rule="nonzero" fill="#232322" d="M119.8,54.0C122.2,51.8,123.6,48.7,123.6,45.2L123.6,21.0C123.6,16.0,124.5,8.2,120.4,3.8C118.2,1.5,115.1,.0,111.6,.0L21.0,.0C16.0,.0,8.2,-0.9,3.8,3.2C1.5,5.4,.0,8.5,.0,12.0L.0,36.2C.0,41.2,-0.9,49.0,3.2,53.4C5.4,55.8,8.5,57.2,12.0,57.2L102.6,57.2C107.6,57.2,115.4,58.2,119.8,54.0z" stroke="#b3cc80" stroke-width="2.666670083999634"/><text xml:space="preserve" style="fill:#ffffff;font-family:Microsoft YaHei,PingFang SC,Microsoft YaHei,Arial;font-size:19px"><tspan x="11.0" textLength="101.6" y="37.6">整数：1234</tspan></text></g><g id="shape4" transform="translate(568.976520,1753.667763)"><text xml:space="preserve" style="fill:#b3cc80;font-family:Microsoft YaHei,PingFang SC,Microsoft YaHei,Arial;font-size:19px"><tspan x="58.4" textLength="174.1" y="26.0">S2：拷贝后使用副本</tspan></text></g><path fill-rule="nonzero" fill="url(#lg1)" d="M.0,17.3L39.8,17.3L39.8,.0L61.2,24.0L39.8,48.0L39.8,30.7L.0,30.7L.0,17.3z" id="shape5" transform="translate(493.825799,1810.508113)"/><path fill-rule="nonzero" fill="#98bc25" d="M46.8,.0C32.2,9.0,21.6,20.3,16.8,25.9L5.2,16.8L.0,20.9L20.1,41.4C23.6,32.5,34.6,15.2,48.0,2.9L46.8,.0zM46.8,.0z" id="shape6" transform="translate(614.240008,1787.807063)"/><g id="shape7" transform="translate(284.137253,1805.883263)"><path fill-rule="nonzero" fill="#232322" d="M119.8,54.0C122.2,51.8,123.6,48.7,123.6,45.2L123.6,21.0C123.6,16.0,124.5,8.2,120.4,3.8C118.2,1.5,115.1,.0,111.6,.0L21.0,.0C16.0,.0,8.2,-0.9,3.8,3.2C1.5,5.4,.0,8.5,.0,12.0L.0,36.2C.0,41.2,-0.9,49.0,3.2,53.4C5.4,55.8,8.5,57.2,12.0,57.2L102.6,57.2C107.6,57.2,115.4,58.2,119.8,54.0z" stroke="#b3cc80" stroke-width="2.666670083999634"/><text xml:space="preserve" style="fill:#ffffff;font-family:Microsoft YaHei,PingFang SC,Microsoft YaHei,Arial;font-size:19px"><tspan x="11.0" textLength="101.6" y="37.6">整数：1234</tspan></text></g><g id="shape8" transform="translate(219.370220,1753.667763)"><text xml:space="preserve" style="fill:#b3cc80;font-family:Microsoft YaHei,PingFang SC,Microsoft YaHei,Arial;font-size:19px"><tspan x="58.4" textLength="174.1" y="26.0">S1：拷贝后仍然可用</tspan></text></g><path fill-rule="nonzero" fill="#98bc25" d="M46.8,.0C32.2,9.0,21.6,20.3,16.8,25.9L5.2,16.8L.0,20.9L20.1,41.4C23.6,32.5,34.6,15.2,48.0,2.9L46.8,.0zM46.8,.0z" id="shape9" transform="translate(271.084953,1787.808063)"/><path fill="none" d="M.0,.0L4.8,.0C6.5,.0,8.8,-0.4,10.8,.2C11.9,.5,12.8,1.1,13.7,2.0C14.5,2.8,15.1,3.8,15.4,4.8C16.0,6.8,15.6,9.2,15.6,10.8L15.6,222.7C15.6,224.3,15.3,226.7,15.8,228.6C16.2,229.7,16.7,230.7,17.6,231.5C19.1,233.1,21.3,233.8,23.4,233.5C21.3,233.2,19.1,233.9,17.6,235.4C16.7,236.3,16.2,237.3,15.8,238.3C15.3,240.3,15.6,242.6,15.6,244.3L15.6,456.2C15.6,457.8,16.0,460.2,15.4,462.1C15.1,463.2,14.5,464.2,13.7,465.0C12.8,465.8,11.9,466.4,10.8,466.8C8.8,467.3,6.5,467.0,4.8,467.0L.0,467.0" id="shape10" transform="matrix(0.000000,1.000000,1.000000,0.000000,284.206676,1880.314961)" stroke="#ffd88f" stroke-width="2.666670083999634"/><g id="shape11" transform="translate(457.693889,1903.736396)"><text xml:space="preserve" style="fill:#ffd88f;font-family:Microsoft YaHei,PingFang SC,Microsoft YaHei,Arial;font-size:13px"><tspan x="47.0" textLength="26.0" y="19.0">共存</tspan></text></g></g></svg>