<!--Generated by EdrawMax, SVG Export crate.svg 页-2-->
<svg xmlns="http://www.w3.org/2000/svg" xmlns:xlink="http://www.w3.org/1999/xlink" viewBox="0 0 278 169" xmlns:ed="urn:edrawmax" height="169" width="278"><defs><linearGradient id="lg1" y2="0%" y1="0%" x1="0%" x2="100%"><stop stop-color="#d7e9d0" stop-opacity="0.20" offset="0.00"/><stop stop-color="#80c150" offset="1.00"/></linearGradient></defs><g transform="translate(-38.67,-930.46)"><path transform="translate(81.732283,931.464267)" fill="#5fb7f1" id="shape1" fill-rule="nonzero" d="M37.3,38.7L36.1,36.9L39.7,34.8L39.7,13.1L28.9,6.8L29.9,5.0L41.8,11.9L41.8,36.0L37.3,38.7zM2.1,26.2L.0,26.2L.0,12.0L21.4,.0L26.2,2.7L25.1,4.7L21.3,2.4L2.1,13.2L2.1,26.2zM20.9,48.0L.0,36.1L.0,30.2L2.1,30.2L2.1,34.9L20.9,45.6L33.1,38.7L34.2,40.5L20.9,48.0zM19.6,14.0L14.9,11.3L14.9,9.6L21.1,6.0L27.1,9.6L27.1,11.3L22.6,14.0L22.4,15.6L21.1,14.7L19.6,15.6L19.6,14.0zM29.1,24.8L29.1,19.4L24.4,16.7L24.4,15.1L30.4,11.6L36.6,15.1L36.6,22.1L30.4,25.6L29.1,24.8zM14.9,38.4L14.9,31.4L16.2,30.5L20.9,33.2L25.7,30.5L27.1,31.3L27.1,38.4L20.9,42.0L14.9,38.4zM29.1,35.7L29.1,30.2L27.5,29.3L29.1,28.6L29.1,26.9L30.4,27.8L35.1,25.1L36.6,25.9L36.6,33.0L30.4,36.4L29.1,35.7zM14.9,27.5L14.9,20.5L21.1,17.0L27.1,20.5L27.1,27.5L20.9,31.0L14.9,27.5zM5.3,32.9L5.4,25.9L6.7,25.1L11.4,27.8L12.9,26.9L12.9,28.6L14.4,29.5L12.9,30.2L12.9,35.6L11.4,36.4L5.3,32.9zM5.3,22.1L5.4,15.0L11.6,11.6L17.6,15.0L17.6,16.7L12.9,19.4L12.9,24.6L11.4,25.5L5.3,22.1z"/><g transform="translate(42.652283,979.464267)" id="shape2"><text style="fill:#b3cc80;font-family:Microsoft YaHei,PingFang SC,Microsoft YaHei,Arial;font-size:13px" xml:space="preserve"><tspan x="22.1" y="19.0" textLength="75.8">二进制 Crate</tspan></text></g><path transform="translate(77.748358,1025.196850)" fill="#ffcd55" id="shape3" fill-rule="nonzero" d="M37.3,38.7L36.1,36.9L39.7,34.8L39.7,13.1L28.9,6.8L29.9,5.0L41.8,11.9L41.8,36.0L37.3,38.7zM2.1,26.2L.0,26.2L.0,12.0L21.4,.0L26.2,2.7L25.1,4.7L21.3,2.4L2.1,13.2L2.1,26.2zM20.9,48.0L.0,36.1L.0,30.2L2.1,30.2L2.1,34.9L20.9,45.6L33.1,38.7L34.2,40.5L20.9,48.0zM19.6,14.0L14.9,11.3L14.9,9.6L21.1,6.0L27.1,9.6L27.1,11.3L22.6,14.0L22.4,15.6L21.1,14.7L19.6,15.6L19.6,14.0zM29.1,24.8L29.1,19.4L24.4,16.7L24.4,15.1L30.4,11.6L36.6,15.1L36.6,22.1L30.4,25.6L29.1,24.8zM14.9,38.4L14.9,31.4L16.2,30.5L20.9,33.2L25.7,30.5L27.1,31.3L27.1,38.4L20.9,42.0L14.9,38.4zM29.1,35.7L29.1,30.2L27.5,29.3L29.1,28.6L29.1,26.9L30.4,27.8L35.1,25.1L36.6,25.9L36.6,33.0L30.4,36.4L29.1,35.7zM14.9,27.5L14.9,20.5L21.1,17.0L27.1,20.5L27.1,27.5L20.9,31.0L14.9,27.5zM5.3,32.9L5.4,25.9L6.7,25.1L11.4,27.8L12.9,26.9L12.9,28.6L14.4,29.5L12.9,30.2L12.9,35.6L11.4,36.4L5.3,32.9zM5.3,22.1L5.4,15.0L11.6,11.6L17.6,15.0L17.6,16.7L12.9,19.4L12.9,24.6L11.4,25.5L5.3,22.1z"/><g transform="translate(38.668358,1073.196850)" id="shape4"><text style="fill:#b3cc80;font-family:Microsoft YaHei,PingFang SC,Microsoft YaHei,Arial;font-size:13px" xml:space="preserve"><tspan x="35.1" y="19.0" textLength="49.8">库 Crate</tspan></text></g><path transform="translate(157.322835,946.464267)" fill="url(#lg1)" id="shape5" fill-rule="nonzero" d="M.0,6.5L24.7,6.5L24.7,.0L38.0,9.0L24.7,18.0L24.7,11.5L.0,11.5L.0,6.5z"/><path transform="translate(157.322835,1040.196850)" fill="url(#lg1)" id="shape6" fill-rule="nonzero" d="M.0,6.5L24.7,6.5L24.7,.0L38.0,9.0L24.7,18.0L24.7,11.5L.0,11.5L.0,6.5z"/><g transform="translate(233.470433,931.464267)" id="group7"><path fill="#5fb7f1" id="shape8" fill-rule="nonzero" d="M22.9,.0L23.2,.0L23.5,.0L23.7,.1L23.9,.2L45.0,10.8C46.0,11.3,46.4,12.4,46.0,13.3C45.5,14.3,44.5,14.8,43.5,14.4L43.3,14.3L23.1,4.2L2.9,14.3C2.0,14.8,.9,14.5,.3,13.6L.2,13.4C-0.2,12.5,.1,11.5,.9,10.9L1.1,10.8L22.3,.1L22.5,.1L22.7,.0L22.9,.0L22.9,.0z"/><path transform="translate(0.001952,10.853786)" fill="#5fb7f1" id="shape9" fill-rule="nonzero" d="M23.0,14.5L23.3,14.5L23.5,14.5L23.7,14.4L23.9,14.4L45.0,3.7C46.0,3.3,46.4,2.1,46.0,1.2C45.6,.2,44.5,-0.2,43.5,.1L43.3,.2L23.1,10.4L2.9,.2C2.0,-0.2,.9,.1,.3,.9L.2,1.1C-0.2,2.0,.1,3.1,.9,3.6L1.1,3.7L22.3,14.4L22.5,14.4L22.6,14.5L22.8,14.5L23.0,14.5L23.0,14.5z"/><path transform="translate(0.001970,21.672564)" fill="#5fb7f1" id="shape10" fill-rule="nonzero" d="M23.0,14.5L23.3,14.5L23.5,14.5L23.7,14.4L23.9,14.4L45.0,3.7C46.0,3.3,46.4,2.1,46.0,1.2C45.6,.2,44.5,-0.2,43.5,.1L43.3,.2L23.1,10.4L2.9,.2C2.0,-0.2,.9,.1,.3,.9L.2,1.1C-0.2,2.0,.1,3.1,.9,3.6L1.1,3.7L22.3,14.4L22.5,14.4L22.6,14.5L22.8,14.5L23.0,14.5L23.0,14.5z"/><path transform="translate(0.001970,33.474884)" fill="#5fb7f1" id="shape11" fill-rule="nonzero" d="M23.0,14.5L23.3,14.5L23.5,14.5L23.7,14.4L23.9,14.4L45.0,3.7C46.0,3.3,46.4,2.1,46.0,1.2C45.6,.2,44.5,-0.2,43.5,.1L43.3,.2L23.1,10.4L2.9,.2C2.0,-0.2,.9,.1,.3,.9L.2,1.1C-0.2,2.0,.1,3.1,.9,3.6L1.1,3.7L22.3,14.4L22.5,14.4L22.6,14.5L22.8,14.5L23.0,14.5L23.0,14.5z"/></g><g transform="translate(196.535433,979.464267)" id="shape12"><text style="fill:#b3cc80;font-family:Microsoft YaHei,PingFang SC,Microsoft YaHei,Arial;font-size:13px" xml:space="preserve"><tspan x="36.6" y="19.0" textLength="46.9">.bin/.elf</tspan></text></g><path transform="translate(228.746508,1025.196850)" fill="#ffcd55" id="shape13" fill-rule="nonzero" d="M46.8,11.2C46.8,7.8,44.2,4.9,39.3,2.8C35.0,1.0,29.4,.0,23.4,.0C17.5,.0,11.9,1.0,7.6,2.8C2.7,4.9,.0,7.9,.0,11.2C.0,11.3,.0,11.3,.0,11.4C.0,13.0,.0,26.9,.0,28.2L.0,36.8C.0,40.2,2.7,43.1,7.6,45.2C11.8,47.0,17.5,48.0,23.4,48.0C29.4,48.0,35.0,47.0,39.3,45.2C44.1,43.1,46.8,40.1,46.8,36.8C46.8,35.3,46.9,11.4,46.8,11.2zM9.3,6.9C13.1,5.3,18.1,4.4,23.4,4.4C28.8,4.4,33.8,5.3,37.6,6.9C40.6,8.1,42.4,9.8,42.4,11.2C42.4,11.6,42.2,12.1,41.9,12.6C41.2,13.6,39.8,14.6,37.8,15.4C37.7,15.5,37.7,15.5,37.6,15.5C33.8,17.1,28.8,18.0,23.4,18.0C18.1,18.0,13.0,17.1,9.3,15.5C9.2,15.5,9.1,15.5,9.0,15.4C7.1,14.6,5.7,13.6,5.0,12.6C4.6,12.1,4.4,11.6,4.4,11.2C4.4,9.8,6.3,8.1,9.3,6.9zM5.0,18.3C5.8,18.7,6.6,19.2,7.6,19.6C11.9,21.4,17.5,22.4,23.4,22.4C29.4,22.4,35.0,21.4,39.3,19.6C40.3,19.2,41.1,18.7,41.9,18.3C42.3,18.7,42.4,19.2,42.4,19.6C42.4,21.0,40.6,22.7,37.6,23.9C33.8,25.5,28.8,26.4,23.4,26.4C18.1,26.4,13.1,25.5,9.3,23.9C6.3,22.7,4.5,21.0,4.5,19.6C4.4,19.2,4.6,18.7,5.0,18.3zM42.4,28.2C42.4,29.6,40.6,31.3,37.6,32.6C33.8,34.2,28.8,35.0,23.4,35.0C18.1,35.0,13.0,34.2,9.3,32.6C6.3,31.3,4.4,29.6,4.4,28.2C4.4,27.8,4.7,27.2,5.1,26.7C5.8,27.2,6.7,27.6,7.6,28.0C11.9,29.8,17.5,30.8,23.4,30.8C29.4,30.8,35.0,29.8,39.3,28.0C40.2,27.6,41.1,27.2,41.9,26.7C42.2,27.2,42.4,27.8,42.4,28.2zM37.6,41.1C33.8,42.7,28.8,43.6,23.4,43.6C18.1,43.6,13.0,42.7,9.3,41.1C6.3,39.9,4.4,38.2,4.4,36.8C4.4,36.4,4.7,35.8,5.0,35.3C5.8,35.8,6.6,36.2,7.6,36.6C11.8,38.4,17.5,39.4,23.4,39.4C29.4,39.4,35.0,38.4,39.3,36.6C40.2,36.2,41.1,35.8,41.9,35.3C42.2,35.8,42.4,36.4,42.4,36.8C42.4,38.2,40.6,39.9,37.6,41.1z"/><g transform="translate(192.181508,1073.196850)" id="shape14"><text style="fill:#b3cc80;font-family:Microsoft YaHei,PingFang SC,Microsoft YaHei,Arial;font-size:13px" xml:space="preserve"><tspan x="48.4" y="19.0" textLength="23.3">.rlib</tspan></text></g></g></svg>