<!--Generated by EdrawMax, SVG Export error.svg 页-5-->
<svg xmlns="http://www.w3.org/2000/svg" xmlns:xlink="http://www.w3.org/1999/xlink" viewBox="0 0 971 439" xmlns:ed="urn:edrawmax" height="439" width="971"><defs><marker refY="5.8989826245861199" refX="10.79796524917224" id="edrawArrow_end_4_2.66667_#b7b6b4" orient="auto" markerUnits="userSpaceOnUse" markerHeight="13.79796524917224" ed:arrow="4" markerWidth="13.79796524917224"><path fill="#b7b6b4" stroke="#b7b6b4" stroke-width="1" d="M1.0,1.0L10.8,5.9L1.0,10.8L1.0,1.0" stroke-linecap="round"/></marker></defs><g transform="translate(-55.36,-226.41)"><g transform="translate(400.933163,227.748031)" id="shape1"><path fill="#3d1b1b" stroke="#f78181" fill-rule="nonzero" stroke-width="2.6666700839996338" d="M272.9,317.1C275.3,314.9,276.8,311.8,276.8,308.3L276.8,21.0C276.8,16.0,277.7,8.2,273.5,3.8C271.4,1.5,268.2,.0,264.8,.0L21.0,.0C16.0,.0,8.2,-0.9,3.8,3.2C1.5,5.4,.0,8.5,.0,12.0L.0,299.3C.0,304.3,-0.9,312.0,3.2,316.5C5.4,318.8,8.5,320.3,12.0,320.3L255.8,320.3C260.7,320.3,268.5,321.2,272.9,317.1z"/><circle fill="#ffffff" cx="16.6" cy="128.6" r="6.0"/><circle fill="#ffffff" cx="16.6" cy="160.6" r="6.0"/><circle fill="#ffffff" cx="16.6" cy="192.6" r="6.0"/><text style="fill:#ffffff;font-family:Microsoft YaHei,PingFang SC,Microsoft YaHei,Arial;font-size:24px" xml:space="preserve"><tspan x="28.4" y="138.1" textLength="96.0">索引越界</tspan><tspan x="28.4" y="170.1" textLength="120.0">整数除以零</tspan><tspan x="28.4" y="202.1" textLength="133.0">显式panic!()</tspan></text></g><g transform="translate(56.692913,227.748031)" id="shape2"><path fill="#3f310e" stroke="#ffcd55" fill-rule="nonzero" stroke-width="2.6666700839996338" d="M272.9,317.1C275.3,314.9,276.8,311.8,276.8,308.3L276.8,21.0C276.8,16.0,277.7,8.2,273.5,3.8C271.4,1.5,268.2,.0,264.8,.0L21.0,.0C16.0,.0,8.2,-0.9,3.8,3.2C1.5,5.4,.0,8.5,.0,12.0L.0,299.3C.0,304.3,-0.9,312.0,3.2,316.5C5.4,318.8,8.5,320.3,12.0,320.3L255.8,320.3C260.7,320.3,268.5,321.2,272.9,317.1z"/><circle fill="#ffffff" cx="16.6" cy="128.6" r="6.0"/><circle fill="#ffffff" cx="16.6" cy="160.6" r="6.0"/><circle fill="#ffffff" cx="16.6" cy="192.6" r="6.0"/><text style="fill:#ffffff;font-family:Microsoft YaHei,PingFang SC,Microsoft YaHei,Arial;font-size:24px" xml:space="preserve"><tspan x="28.4" y="138.1" textLength="199.1"> 所有权与借用违规</tspan><tspan x="28.4" y="170.1" textLength="151.1"> 生命周期问题</tspan><tspan x="28.4" y="202.1" textLength="127.1"> 类型不匹配</tspan></text></g><g transform="translate(56.692913,227.748031)" id="shape3"><path fill="#232322" stroke="#b7b6b4" fill-rule="nonzero" stroke-width="2.6666700839996338" d="M272.9,72.8C275.3,70.6,276.8,67.5,276.8,64.0L276.8,21.0C276.8,16.0,277.7,8.2,273.5,3.8C271.4,1.5,268.2,.0,264.8,.0L21.0,.0C16.0,.0,8.2,-0.9,3.8,3.2C1.5,5.4,.0,8.5,.0,12.0L.0,55.0C.0,60.0,-0.9,67.8,3.2,72.2C5.4,74.5,8.5,76.0,12.0,76.0L255.8,76.0C260.7,76.0,268.5,76.9,272.9,72.8z"/><text style="fill:#ffffff;font-family:Microsoft YaHei,PingFang SC,Microsoft YaHei,Arial;font-size:24px" xml:space="preserve"><tspan x="42.4" y="48.0" textLength="192.0">编译时拦截的错误</tspan></text></g><g transform="translate(400.933567,227.748031)" id="shape4"><path fill="#232322" stroke="#b7b6b4" fill-rule="nonzero" stroke-width="2.6666700839996338" d="M272.9,72.8C275.3,70.6,276.8,67.5,276.8,64.0L276.8,21.0C276.8,16.0,277.7,8.2,273.5,3.8C271.4,1.5,268.2,.0,264.8,.0L21.0,.0C16.0,.0,8.2,-0.9,3.8,3.2C1.5,5.4,.0,8.5,.0,12.0L.0,55.0C.0,60.0,-0.9,67.8,3.2,72.2C5.4,74.5,8.5,76.0,12.0,76.0L255.8,76.0C260.7,76.0,268.5,76.9,272.9,72.8z"/><text style="fill:#ffffff;font-family:Microsoft YaHei,PingFang SC,Microsoft YaHei,Arial;font-size:24px" xml:space="preserve"><tspan x="54.4" y="48.0" textLength="168.0">不可恢复的错误</tspan></text></g><g transform="translate(75.590551,453.133858)" id="shape5"><path fill="#232322" fill-rule="nonzero" d="M232.4,72.8C234.8,70.6,236.2,67.5,236.2,64.0L236.2,21.0C236.2,16.0,237.1,8.2,233.0,3.8C230.8,1.5,227.7,.0,224.2,.0L21.0,.0C16.0,.0,8.2,-0.9,3.8,3.2C1.5,5.4,.0,8.5,.0,12.0L.0,55.0C.0,60.0,-0.9,67.8,3.2,72.2C5.4,74.5,8.5,76.0,12.0,76.0L215.2,76.0C220.2,76.0,228.0,76.9,232.4,72.8z"/><text style="fill:#ffffff;font-family:Microsoft YaHei,PingFang SC,Microsoft YaHei,Arial;font-size:13px" xml:space="preserve"><tspan x="8.1" y="19.0" textLength="175.6">let s1 = String::from("hello");</tspan><tspan x="8.1" y="37.0" textLength="67.2">let s2 = s1;</tspan><tspan x="8.1" y="55.0" textLength="143.6">println!("{}, world!", s1);</tspan></text></g><g transform="translate(195.074413,548.031496)" id="shape6"><path fill="none" marker-end="url(#edrawArrow_end_4_2.66667_#b7b6b4)" stroke="#b7b6b4" stroke-width="2.6666700839996338" d="M.0,.0L.0,71.8"/></g><g transform="translate(113.727475,614.056225)" id="shape7"><text style="fill:#f78181;font-family:Microsoft YaHei,PingFang SC,Microsoft YaHei,Arial;font-size:32px" xml:space="preserve"><tspan x="17.3" y="39.0" textLength="128.0">编译失败</tspan></text></g><g transform="translate(419.831163,453.134031)" id="shape8"><path fill="#232322" fill-rule="nonzero" d="M232.4,72.8C234.7,70.6,236.2,67.5,236.2,64.0L236.2,21.0C236.2,16.0,237.1,8.2,233.0,3.8C230.8,1.5,227.7,.0,224.2,.0L21.0,.0C16.0,.0,8.2,-0.9,3.8,3.2C1.5,5.4,.0,8.5,.0,12.0L.0,55.0C.0,60.0,-0.9,67.8,3.2,72.2C5.4,74.5,8.5,76.0,12.0,76.0L215.2,76.0C220.2,76.0,228.0,76.9,232.4,72.8z"/><text style="fill:#ffffff;font-family:Microsoft YaHei,PingFang SC,Microsoft YaHei,Arial;font-size:13px" xml:space="preserve"><tspan x="8.1" y="19.0" textLength="116.9">let v = vec![1, 2, 3];</tspan><tspan x="8.1" y="37.0" textLength="161.5">let does_not_exist = v[99];</tspan></text></g><g transform="translate(539.314163,548.031031)" id="shape9"><path fill="none" marker-end="url(#edrawArrow_end_4_2.66667_#b7b6b4)" stroke="#b7b6b4" stroke-width="2.6666700839996338" d="M.0,.0L.0,71.8"/></g><g transform="translate(457.968163,614.056731)" id="shape10"><text style="fill:#f78181;font-family:Microsoft YaHei,PingFang SC,Microsoft YaHei,Arial;font-size:32px" xml:space="preserve"><tspan x="41.1" y="39.0" textLength="80.4">Panic</tspan></text></g><g transform="translate(748.048420,227.748031)" id="shape11"><path fill="#222c03" stroke="#98bc25" fill-rule="nonzero" stroke-width="2.6666700839996338" d="M272.9,317.1C275.3,314.9,276.8,311.8,276.8,308.3L276.8,21.0C276.8,16.0,277.7,8.2,273.5,3.8C271.4,1.5,268.2,.0,264.8,.0L21.0,.0C16.0,.0,8.2,-0.9,3.8,3.2C1.5,5.4,.0,8.5,.0,12.0L.0,299.3C.0,304.3,-0.9,312.0,3.2,316.5C5.4,318.8,8.5,320.3,12.0,320.3L255.8,320.3C260.7,320.3,268.5,321.2,272.9,317.1z"/><circle fill="#ffffff" cx="16.6" cy="128.6" r="6.0"/><circle fill="#ffffff" cx="16.6" cy="160.6" r="6.0"/><circle fill="#ffffff" cx="16.6" cy="192.6" r="6.0"/><text style="fill:#ffffff;font-family:Microsoft YaHei,PingFang SC,Microsoft YaHei,Arial;font-size:24px" xml:space="preserve"><tspan x="28.4" y="138.1" textLength="120.0">未找到文件</tspan><tspan x="28.4" y="170.1" textLength="96.0">网络故障</tspan><tspan x="28.4" y="202.1" textLength="168.0">字符串解析失败</tspan></text></g><g transform="translate(748.048420,227.748031)" id="shape12"><path fill="#232322" stroke="#b7b6b4" fill-rule="nonzero" stroke-width="2.6666700839996338" d="M272.9,72.8C275.3,70.6,276.8,67.5,276.8,64.0L276.8,21.0C276.8,16.0,277.7,8.2,273.5,3.8C271.4,1.5,268.2,.0,264.8,.0L21.0,.0C16.0,.0,8.2,-0.9,3.8,3.2C1.5,5.4,.0,8.5,.0,12.0L.0,55.0C.0,60.0,-0.9,67.8,3.2,72.2C5.4,74.5,8.5,76.0,12.0,76.0L255.8,76.0C260.7,76.0,268.5,76.9,272.9,72.8z"/><text style="fill:#ffffff;font-family:Microsoft YaHei,PingFang SC,Microsoft YaHei,Arial;font-size:24px" xml:space="preserve"><tspan x="66.4" y="48.0" textLength="144.0">可恢复的错误</tspan></text></g><g transform="translate(750.218590,453.543307)" id="shape13"><path fill="#232322" fill-rule="nonzero" d="M268.6,72.8C271.0,70.6,272.4,67.5,272.4,64.0L272.4,21.0C272.4,16.0,273.3,8.2,269.2,3.8C267.0,1.5,263.9,.0,260.4,.0L21.0,.0C16.0,.0,8.2,-0.9,3.8,3.2C1.5,5.4,.0,8.5,.0,12.0L.0,55.0C.0,60.0,-0.9,67.8,3.2,72.2C5.4,74.5,8.5,76.0,12.0,76.0L251.4,76.0C256.4,76.0,264.2,76.9,268.6,72.8z"/><text style="fill:#ffffff;font-family:Microsoft YaHei,PingFang SC,Microsoft YaHei,Arial;font-size:13px" xml:space="preserve"><tspan x="8.2" y="19.0" textLength="168.2">match File::open("file.txt") {</tspan><tspan x="8.2" y="37.0" textLength="232.3">    Ok(file) => println!("成功: {:?}", file),</tspan><tspan x="8.2" y="55.0" textLength="254.8">    Err(error) => println!("失败: {:?}", error),</tspan><tspan x="8.2" y="73.0" textLength="4.3">}</tspan></text></g><g transform="translate(886.429420,548.031031)" id="shape14"><path fill="none" marker-end="url(#edrawArrow_end_4_2.66667_#b7b6b4)" stroke="#b7b6b4" stroke-width="2.6666700839996338" d="M.0,.0L.0,71.8"/></g><g transform="translate(805.083420,614.056731)" id="shape15"><text style="fill:#f78181;font-family:Microsoft YaHei,PingFang SC,Microsoft YaHei,Arial;font-size:32px" xml:space="preserve"><tspan x="17.3" y="39.0" textLength="128.0">继续运行</tspan></text></g></g></svg>