<!--Generated by EdrawMax, SVG Export features.svg 页-4-->
<svg xmlns="http://www.w3.org/2000/svg" xmlns:xlink="http://www.w3.org/1999/xlink" viewBox="0 0 881 244" xmlns:ed="urn:edrawmax" height="244" width="881"><defs><marker refY="5.8989826245861199" refX="10.79796524917224" id="edrawArrow_end_4_2.66667_#b7b6b4" orient="auto" markerUnits="userSpaceOnUse" markerHeight="13.79796524917224" ed:arrow="4" markerWidth="13.79796524917224"><path fill="#b7b6b4" stroke="#b7b6b4" stroke-width="1" d="M1.0,1.0L10.8,5.9L1.0,10.8L1.0,1.0" stroke-linecap="round"/></marker></defs><g transform="translate(-121.50,-319.93)"><g transform="translate(528.860409,321.259750)" id="shape1"><path fill="#232322" stroke="#b7b6b4" fill-rule="nonzero" stroke-width="2.6666700839996338" d="M279.6,199.4C282.0,197.2,283.5,194.1,283.5,190.6L283.5,21.0C283.5,16.0,284.4,8.2,280.2,3.8C278.1,1.5,274.9,.0,271.5,.0L21.0,.0C16.0,.0,8.2,-0.9,3.8,3.2C1.5,5.4,.0,8.5,.0,12.0L.0,181.6C.0,186.6,-0.9,194.3,3.2,198.8C5.4,201.1,8.5,202.6,12.0,202.6L262.5,202.6C267.4,202.6,275.2,203.5,279.6,199.4z"/><text style="fill:#ffffff;font-family:Microsoft YaHei,PingFang SC,Microsoft YaHei,Arial;font-size:24px" xml:space="preserve"><tspan x="94.5" y="30.0" textLength="94.4">Package</tspan></text></g><g transform="translate(122.834646,321.259843)" id="shape2"><path fill="#232322" stroke="#b7b6b4" fill-rule="nonzero" stroke-width="2.6666700839996338" d="M279.6,199.4C282.0,197.2,283.5,194.1,283.5,190.6L283.5,21.0C283.5,16.0,284.4,8.2,280.2,3.8C278.1,1.5,274.9,.0,271.5,.0L21.0,.0C16.0,.0,8.2,-0.9,3.8,3.2C1.5,5.4,.0,8.5,.0,12.0L.0,181.6C.0,186.6,-0.9,194.3,3.2,198.8C5.4,201.1,8.5,202.6,12.0,202.6L262.5,202.6C267.4,202.6,275.2,203.5,279.6,199.4z"/><text style="fill:#ffffff;font-family:Microsoft YaHei,PingFang SC,Microsoft YaHei,Arial;font-size:24px" xml:space="preserve"><tspan x="94.5" y="30.0" textLength="94.4">Package</tspan></text></g><path transform="translate(187.426929,368.210810)" fill="#ffffff" id="shape3" fill-rule="nonzero" d="M33.1,12.7L21.7,1.1C21.4,.9,21.2,.7,20.9,.5L20.6,.4L20.6,.3C20.1,.1,19.5,.0,19.0,.0L3.9,.0C1.8,.0,.0,1.7,.0,3.9L.0,44.1C.0,46.3,1.8,48.0,3.9,48.0L30.4,48.0C31.4,48.0,32.4,47.6,33.2,46.9C33.9,46.2,34.3,45.2,34.3,44.1L34.3,15.5C34.3,14.4,33.9,13.4,33.1,12.7zM8.8,20.6L18.6,20.6C19.7,20.6,20.6,21.4,20.6,22.5C20.6,23.6,19.7,24.4,18.6,24.4L8.8,24.4C7.7,24.4,6.9,23.6,6.9,22.5C6.9,21.4,7.7,20.6,8.8,20.6zM22.1,38.1L8.8,38.1C7.7,38.1,6.9,37.3,6.9,36.2C6.9,35.2,7.7,34.3,8.8,34.3L22.1,34.3C23.1,34.3,24.0,35.2,24.0,36.2C24.0,37.3,23.1,38.1,22.1,38.1zM25.5,31.3L8.8,31.3C7.7,31.3,6.9,30.4,6.9,29.4C6.9,28.3,7.7,27.4,8.8,27.4L25.5,27.4C26.6,27.4,27.4,28.3,27.4,29.4C27.4,30.4,26.6,31.3,25.5,31.3zM20.9,13.3L20.9,5.9L28.3,13.3L20.9,13.3z"/><g transform="translate(144.566929,416.210510)" id="shape4"><text style="fill:#b3cc80;font-family:Microsoft YaHei,PingFang SC,Microsoft YaHei,Arial;font-size:13px" xml:space="preserve"><tspan x="26.6" y="19.0" textLength="66.7">cargo.toml</tspan></text></g><path transform="translate(319.205157,368.210810)" fill="#ffffff" id="shape5" fill-rule="nonzero" d="M26.2,.0C26.4,.0,26.5,.0,26.7,.1L26.7,.1C27.0,.1,27.2,.3,27.4,.5L38.6,11.7L38.6,11.7C38.6,11.7,38.7,11.7,38.7,11.8L38.6,11.7C38.8,11.9,39.0,12.3,39.1,12.6L39.1,12.8L39.1,44.1C39.1,46.3,37.3,48.0,35.2,48.0L3.9,48.0C1.8,48.0,.0,46.3,.0,44.1L.0,3.9C.0,1.7,1.7,.0,3.9,.0L26.2,.0zM24.1,22.8C23.4,22.2,22.4,22.2,21.7,22.8L21.5,23.0C21.0,23.7,21.1,24.6,21.7,25.2L26.1,29.6L21.7,34.0C21.0,34.6,21.0,35.7,21.7,36.3C22.4,37.0,23.4,37.0,24.1,36.3L29.6,30.8C30.3,30.1,30.3,29.1,29.6,28.4L24.1,22.8zM17.4,22.8C16.7,22.2,15.7,22.2,15.0,22.8L9.4,28.4C8.8,29.1,8.8,30.1,9.4,30.8L15.0,36.3C15.7,37.0,16.7,37.0,17.4,36.3L17.5,36.2C18.0,35.5,18.0,34.6,17.4,34.0L13.0,29.6L17.4,25.2C18.0,24.5,18.0,23.5,17.4,22.8L17.4,22.8zM27.9,5.7L27.9,11.2L33.4,11.2L27.9,5.7z"/><g transform="translate(278.740157,416.210510)" id="shape6"><text style="fill:#b3cc80;font-family:Microsoft YaHei,PingFang SC,Microsoft YaHei,Arial;font-size:13px" xml:space="preserve"><tspan x="37.5" y="19.0" textLength="45.0">main.rs</tspan></text></g><g transform="translate(138.202756,441.351110)" id="shape7"><text style="fill:#f78181;font-family:Microsoft YaHei,PingFang SC,Microsoft YaHei,Arial;font-size:13px" xml:space="preserve"><tspan x="5.8" y="19.0" textLength="121.1">通过[dependencies]</tspan><tspan x="33.9" y="37.0" textLength="65.0">导入依赖库</tspan></text></g><g transform="translate(278.740157,441.351122)" id="shape8"><text style="fill:#f78181;font-family:Microsoft YaHei,PingFang SC,Microsoft YaHei,Arial;font-size:13px" xml:space="preserve"><tspan x="10.3" y="19.0" textLength="99.4">通过use使用依赖</tspan><tspan x="53.5" y="37.0" textLength="13.0">库</tspan></text></g><path transform="translate(591.614997,368.210810)" fill="#ffffff" id="shape9" fill-rule="nonzero" d="M33.1,12.7L21.7,1.1C21.4,.9,21.2,.7,20.9,.5L20.6,.4L20.6,.3C20.1,.1,19.5,.0,19.0,.0L3.9,.0C1.8,.0,.0,1.7,.0,3.9L.0,44.1C.0,46.3,1.8,48.0,3.9,48.0L30.4,48.0C31.4,48.0,32.4,47.6,33.2,46.9C33.9,46.2,34.3,45.2,34.3,44.1L34.3,15.5C34.3,14.4,33.9,13.4,33.1,12.7zM8.8,20.6L18.6,20.6C19.7,20.6,20.6,21.4,20.6,22.5C20.6,23.6,19.7,24.4,18.6,24.4L8.8,24.4C7.7,24.4,6.9,23.6,6.9,22.5C6.9,21.4,7.7,20.6,8.8,20.6zM22.1,38.1L8.8,38.1C7.7,38.1,6.9,37.3,6.9,36.2C6.9,35.2,7.7,34.3,8.8,34.3L22.1,34.3C23.1,34.3,24.0,35.2,24.0,36.2C24.0,37.3,23.1,38.1,22.1,38.1zM25.5,31.3L8.8,31.3C7.7,31.3,6.9,30.4,6.9,29.4C6.9,28.3,7.7,27.4,8.8,27.4L25.5,27.4C26.6,27.4,27.4,28.3,27.4,29.4C27.4,30.4,26.6,31.3,25.5,31.3zM20.9,13.3L20.9,5.9L28.3,13.3L20.9,13.3z"/><g transform="translate(548.754997,416.210510)" id="shape10"><text style="fill:#b3cc80;font-family:Microsoft YaHei,PingFang SC,Microsoft YaHei,Arial;font-size:13px" xml:space="preserve"><tspan x="26.6" y="19.0" textLength="66.7">cargo.toml</tspan></text></g><path transform="translate(723.392997,368.210810)" fill="#ffffff" id="shape11" fill-rule="nonzero" d="M26.2,.0C26.4,.0,26.5,.0,26.7,.1L26.7,.1C27.0,.1,27.2,.3,27.4,.5L38.6,11.7L38.6,11.7C38.6,11.7,38.7,11.7,38.7,11.8L38.6,11.7C38.8,11.9,39.0,12.3,39.1,12.6L39.1,12.8L39.1,44.1C39.1,46.3,37.3,48.0,35.2,48.0L3.9,48.0C1.8,48.0,.0,46.3,.0,44.1L.0,3.9C.0,1.7,1.7,.0,3.9,.0L26.2,.0zM24.1,22.8C23.4,22.2,22.4,22.2,21.7,22.8L21.5,23.0C21.0,23.7,21.1,24.6,21.7,25.2L26.1,29.6L21.7,34.0C21.0,34.6,21.0,35.7,21.7,36.3C22.4,37.0,23.4,37.0,24.1,36.3L29.6,30.8C30.3,30.1,30.3,29.1,29.6,28.4L24.1,22.8zM17.4,22.8C16.7,22.2,15.7,22.2,15.0,22.8L9.4,28.4C8.8,29.1,8.8,30.1,9.4,30.8L15.0,36.3C15.7,37.0,16.7,37.0,17.4,36.3L17.5,36.2C18.0,35.5,18.0,34.6,17.4,34.0L13.0,29.6L17.4,25.2C18.0,24.5,18.0,23.5,17.4,22.8L17.4,22.8zM27.9,5.7L27.9,11.2L33.4,11.2L27.9,5.7z"/><g transform="translate(682.927997,416.210510)" id="shape12"><text style="fill:#b3cc80;font-family:Microsoft YaHei,PingFang SC,Microsoft YaHei,Arial;font-size:13px" xml:space="preserve"><tspan x="45.3" y="19.0" textLength="29.4">lib.rs</tspan></text></g><g transform="translate(538.257822,441.351110)" id="shape13"><text style="fill:#f78181;font-family:Microsoft YaHei,PingFang SC,Microsoft YaHei,Arial;font-size:13px" xml:space="preserve"><tspan x="11.8" y="19.0" textLength="121.1">通过[dependencies]</tspan><tspan x="20.3" y="37.0" textLength="104.0">导入本库的依赖库</tspan><tspan x="10.5" y="55.0" textLength="123.7">通过[features]定义本</tspan><tspan x="39.8" y="73.0" textLength="65.0">库可选条件</tspan></text></g><g transform="translate(682.927997,441.350510)" id="shape14"><text style="fill:#f78181;font-family:Microsoft YaHei,PingFang SC,Microsoft YaHei,Arial;font-size:13px" xml:space="preserve"><tspan x="8.0" y="19.0" textLength="104.0">通过属性或者宏控</tspan><tspan x="27.5" y="37.0" textLength="65.0">制编译范围</tspan></text></g><g transform="translate(406.299213,422.555796)" id="shape15"><path fill="none" marker-end="url(#edrawArrow_end_4_2.66667_#b7b6b4)" stroke="#b7b6b4" stroke-width="2.6666700839996338" d="M.0,.0L121.7,-0.0"/></g><g transform="translate(406.299213,391.070185)" id="shape16"><text style="fill:#b3cc80;font-family:Microsoft YaHei,PingFang SC,Microsoft YaHei,Arial;font-size:13px" xml:space="preserve"><tspan x="47.0" y="19.0" textLength="26.0">依赖</tspan></text></g><g transform="translate(908.754769,321.259843)" id="shape17"><path fill="#232322" stroke="#b7b6b4" fill-rule="nonzero" stroke-width="2.6666700839996338" d="M89.0,199.4C91.3,197.2,92.8,194.1,92.8,190.6L92.8,21.0C92.8,16.0,93.7,8.2,89.6,3.8C87.4,1.5,84.3,.0,80.8,.0L21.0,.0C16.0,.0,8.2,-0.9,3.8,3.2C1.5,5.4,.0,8.5,.0,12.0L.0,181.6C.0,186.6,-0.9,194.3,3.2,198.8C5.4,201.1,8.5,202.6,12.0,202.6L71.8,202.6C76.8,202.6,84.6,203.5,89.0,199.4z"/><text style="fill:#ffffff;font-family:Microsoft YaHei,PingFang SC,Microsoft YaHei,Arial;font-size:24px" xml:space="preserve"><tspan x="10.4" y="111.3" textLength="72.0">其他库</tspan></text></g><g transform="translate(812.325409,422.555750)" id="shape18"><path fill="none" marker-end="url(#edrawArrow_end_4_2.66667_#b7b6b4)" stroke="#b7b6b4" stroke-width="2.6666700839996338" d="M.0,.0L95.7,.0"/></g><g transform="translate(802.927997,391.070197)" id="shape19"><text style="fill:#b3cc80;font-family:Microsoft YaHei,PingFang SC,Microsoft YaHei,Arial;font-size:13px" xml:space="preserve"><tspan x="47.0" y="19.0" textLength="26.0">依赖</tspan></text></g><g transform="translate(204.566929,523.851750)" id="shape20"><text style="fill:#b3cc80;font-family:Microsoft YaHei,PingFang SC,Microsoft YaHei,Arial;font-size:24px" xml:space="preserve"><tspan x="12.0" y="30.0" textLength="96.0">库使用者</tspan></text></g><g transform="translate(610.592909,523.851763)" id="shape21"><text style="fill:#b3cc80;font-family:Microsoft YaHei,PingFang SC,Microsoft YaHei,Arial;font-size:24px" xml:space="preserve"><tspan x="12.0" y="30.0" textLength="96.0">库设计者</tspan></text></g></g></svg>