<!--Generated by EdrawMax, SVG Export Heap.svg 栈和堆-->
<svg xmlns:ed="https://www.edrawsoft.cn/xml/2017/SVGExtensions/" width="861" xmlns="http://www.w3.org/2000/svg" xmlns:xlink="http://www.w3.org/1999/xlink" height="479" viewBox="0 0 861 479"><defs><marker id="edrawArrow_4_2.66667" markerHeight="13.79796524917224" orient="auto-start-reverse" ed:arrow="4" refY="5.89898262458612" markerUnits="userSpaceOnUse" refX="1" markerWidth="13.79796524917224"><path stroke-linecap="round" stroke="context-stroke" fill="context-stroke" stroke-width="1" d="M1.0,1.0L10.8,5.9L1.0,10.8L1.0,1.0"/></marker></defs><g transform="translate(-57.33,-911.01)"><g id="shape1" transform="translate(739.839679,940.157591)"><text style="fill:#b3cc80;font-family:Microsoft YaHei,PingFang SC,Microsoft YaHei,Arial;font-size:32px" xml:space="preserve"><tspan textLength="32.0" y="39.0" x="72.6">堆</tspan><tspan textLength="148.4" y="82.0" x="14.4">（HEAP）</tspan></text></g><g id="shape2" transform="translate(58.661427,912.345891)"><ed:custProps><ed:property ed:Format="#,###0.00" ed:Value="" ed:Type="4" ed:Unit="USD" ed:Label="Cost" ed:Name="Cost" ed:Invisible="0"/><ed:property ed:Format="[h]:[mm] &quot;eh:em&quot;" ed:Value="" ed:Type="3" ed:Unit="" ed:Label="Duration" ed:Name="Duration" ed:Invisible="0"/><ed:property ed:Format="@" ed:Value="" ed:Type="0" ed:Unit="" ed:Label="Resources" ed:Name="Resources" ed:Invisible="0"/></ed:custProps><path stroke="#b7b6b4" stroke-width="2.666670083999634" fill="none" d="M7.8,.0L54.4,.0C54.4,.0,54.4,.0,54.4,.0C58.7,.0,62.2,33.5,62.2,74.9C62.2,116.2,58.7,149.8,54.4,149.8L7.8,149.8C3.5,149.8,.0,116.2,.0,74.9C.0,33.5,3.5,.0,7.8,.0zM54.4,.0C50.1,.0,46.7,33.5,46.7,74.9C46.7,116.2,50.1,149.8,54.4,149.8" stroke-dasharray="6.66668,6.66668"/><text style="fill:#ffffff;font-family:Microsoft YaHei,PingFang SC,Microsoft YaHei,Arial;font-size:13px" xml:space="preserve"><tspan textLength="13.0" y="63.0" x="20.7">未</tspan><tspan textLength="13.0" y="81.0" x="20.7">使</tspan><tspan textLength="13.0" y="99.0" x="20.7">用</tspan></text></g><g id="shape3" transform="translate(115.527581,912.345780)"><ed:custProps><ed:property ed:Format="#,###0.00" ed:Value="" ed:Type="4" ed:Unit="USD" ed:Label="Cost" ed:Name="Cost" ed:Invisible="0"/><ed:property ed:Format="[h]:[mm] &quot;eh:em&quot;" ed:Value="" ed:Type="3" ed:Unit="" ed:Label="Duration" ed:Name="Duration" ed:Invisible="0"/><ed:property ed:Format="@" ed:Value="" ed:Type="0" ed:Unit="" ed:Label="Resources" ed:Name="Resources" ed:Invisible="0"/></ed:custProps><path fill-rule="nonzero" fill="#232322" d="M13.3,.0L93.4,.0C100.7,.0,106.7,33.5,106.7,74.9C106.7,116.2,100.7,149.8,93.4,149.8L13.3,149.8C6.0,149.8,.0,116.2,.0,74.9C.0,33.5,6.0,.0,13.3,.0z"/><path stroke="#b7b6b4" stroke-width="2.666670083999634" fill="none" d="M13.3,.0L93.4,.0C100.7,.0,106.7,33.5,106.7,74.9C106.7,116.2,100.7,149.8,93.4,149.8L13.3,149.8C6.0,149.8,.0,116.2,.0,74.9C.0,33.5,6.0,.0,13.3,.0zM93.4,.0C86.0,.0,80.0,33.5,80.0,74.9C80.0,116.2,86.0,149.8,93.4,149.8"/><text style="fill:#ffffff;font-family:Microsoft YaHei,PingFang SC,Microsoft YaHei,Arial;font-size:13px" xml:space="preserve"><tspan textLength="13.0" y="63.0" x="40.2">已</tspan><tspan textLength="13.0" y="81.0" x="40.2">分</tspan><tspan textLength="13.0" y="99.0" x="40.2">配</tspan></text></g><g id="shape4" transform="translate(212.598425,912.345891)"><ed:custProps><ed:property ed:Format="#,###0.00" ed:Value="" ed:Type="4" ed:Unit="USD" ed:Label="Cost" ed:Name="Cost" ed:Invisible="0"/><ed:property ed:Format="[h]:[mm] &quot;eh:em&quot;" ed:Value="" ed:Type="3" ed:Unit="" ed:Label="Duration" ed:Name="Duration" ed:Invisible="0"/><ed:property ed:Format="@" ed:Value="" ed:Type="0" ed:Unit="" ed:Label="Resources" ed:Name="Resources" ed:Invisible="0"/></ed:custProps><path stroke="#b7b6b4" stroke-width="2.666670083999634" fill="none" d="M18.7,.0L160.8,.0C171.1,.0,179.5,33.5,179.5,74.9C179.5,116.2,171.1,149.8,160.8,149.8L18.7,149.8C8.4,149.8,.0,116.2,.0,74.9C.0,33.5,8.4,.0,18.7,.0zM160.8,.0C150.5,.0,142.1,33.5,142.1,74.9C142.1,116.2,150.5,149.8,160.8,149.8" stroke-dasharray="6.66668,6.66668"/><text style="fill:#ffffff;font-family:Microsoft YaHei,PingFang SC,Microsoft YaHei,Arial;font-size:13px" xml:space="preserve"><tspan textLength="13.0" y="63.0" x="73.9">未</tspan><tspan textLength="13.0" y="81.0" x="73.9">使</tspan><tspan textLength="13.0" y="99.0" x="73.9">用</tspan></text></g><g id="shape5" transform="translate(368.503937,912.345670)"><ed:custProps><ed:property ed:Format="#,###0.00" ed:Value="" ed:Type="4" ed:Unit="USD" ed:Label="Cost" ed:Name="Cost" ed:Invisible="0"/><ed:property ed:Format="[h]:[mm] &quot;eh:em&quot;" ed:Value="" ed:Type="3" ed:Unit="" ed:Label="Duration" ed:Name="Duration" ed:Invisible="0"/><ed:property ed:Format="@" ed:Value="" ed:Type="0" ed:Unit="" ed:Label="Resources" ed:Name="Resources" ed:Invisible="0"/></ed:custProps><path fill-rule="nonzero" fill="#232322" d="M9.0,.0L63.2,.0C63.2,.0,63.2,.0,63.2,.0C68.2,.0,72.3,33.5,72.3,74.9C72.3,116.2,68.2,149.8,63.2,149.8L9.0,149.8C4.0,149.8,.0,116.2,.0,74.9C.0,33.5,4.0,.0,9.0,.0z"/><path stroke="#b7b6b4" stroke-width="2.666670083999634" fill="none" d="M9.0,.0L63.2,.0C63.2,.0,63.2,.0,63.2,.0C68.2,.0,72.3,33.5,72.3,74.9C72.3,116.2,68.2,149.8,63.2,149.8L9.0,149.8C4.0,149.8,.0,116.2,.0,74.9C.0,33.5,4.0,.0,9.0,.0zM63.2,.0C58.2,.0,54.2,33.5,54.2,74.9C54.2,116.2,58.2,149.8,63.2,149.8"/><text style="fill:#ffffff;font-family:Microsoft YaHei,PingFang SC,Microsoft YaHei,Arial;font-size:13px" xml:space="preserve"><tspan textLength="13.0" y="63.0" x="25.1">已</tspan><tspan textLength="13.0" y="81.0" x="25.1">分</tspan><tspan textLength="13.0" y="99.0" x="25.1">配</tspan></text></g><g id="shape6" transform="translate(434.645669,912.345670)"><ed:custProps><ed:property ed:Format="#,###0.00" ed:Value="" ed:Type="4" ed:Unit="USD" ed:Label="Cost" ed:Name="Cost" ed:Invisible="0"/><ed:property ed:Format="[h]:[mm] &quot;eh:em&quot;" ed:Value="" ed:Type="3" ed:Unit="" ed:Label="Duration" ed:Name="Duration" ed:Invisible="0"/><ed:property ed:Format="@" ed:Value="" ed:Type="0" ed:Unit="" ed:Label="Resources" ed:Name="Resources" ed:Invisible="0"/></ed:custProps><path stroke="#b7b6b4" stroke-width="2.666670083999634" fill="none" d="M15.9,.0L111.1,.0C119.9,.0,127.0,33.5,127.0,74.9C127.0,116.2,119.9,149.8,111.1,149.8L15.9,149.8C7.1,149.8,.0,116.2,.0,74.9C.0,33.5,7.1,.0,15.9,.0zM111.1,.0C102.3,.0,95.2,33.5,95.2,74.9C95.2,116.2,102.3,149.8,111.1,149.8" stroke-dasharray="6.66668,6.66668"/><text style="fill:#ffffff;font-family:Microsoft YaHei,PingFang SC,Microsoft YaHei,Arial;font-size:13px" xml:space="preserve"><tspan textLength="13.0" y="63.0" x="49.0">未</tspan><tspan textLength="13.0" y="81.0" x="49.0">使</tspan><tspan textLength="13.0" y="99.0" x="49.0">用</tspan></text></g><g id="shape7" transform="translate(551.968538,912.345670)"><ed:custProps><ed:property ed:Format="#,###0.00" ed:Value="" ed:Type="4" ed:Unit="USD" ed:Label="Cost" ed:Name="Cost" ed:Invisible="0"/><ed:property ed:Format="[h]:[mm] &quot;eh:em&quot;" ed:Value="" ed:Type="3" ed:Unit="" ed:Label="Duration" ed:Name="Duration" ed:Invisible="0"/><ed:property ed:Format="@" ed:Value="" ed:Type="0" ed:Unit="" ed:Label="Resources" ed:Name="Resources" ed:Invisible="0"/></ed:custProps><path fill-rule="nonzero" fill="#232322" d="M7.8,.0L54.4,.0C54.4,.0,54.4,.0,54.4,.0C58.7,.0,62.2,33.5,62.2,74.9C62.2,116.2,58.7,149.8,54.4,149.8L7.8,149.8C7.8,149.8,7.8,149.8,7.8,149.8C3.5,149.8,.0,116.2,.0,74.9C.0,33.5,3.5,.0,7.8,.0z"/><path stroke="#b7b6b4" stroke-width="2.666670083999634" fill="none" d="M7.8,.0L54.4,.0C54.4,.0,54.4,.0,54.4,.0C58.7,.0,62.2,33.5,62.2,74.9C62.2,116.2,58.7,149.8,54.4,149.8L7.8,149.8C7.8,149.8,7.8,149.8,7.8,149.8C3.5,149.8,.0,116.2,.0,74.9C.0,33.5,3.5,.0,7.8,.0zM54.4,.0C50.1,.0,46.7,33.5,46.7,74.9C46.7,116.2,50.1,149.8,54.4,149.8"/><text style="fill:#ffffff;font-family:Microsoft YaHei,PingFang SC,Microsoft YaHei,Arial;font-size:13px" xml:space="preserve"><tspan textLength="13.0" y="63.0" x="20.7">已</tspan><tspan textLength="13.0" y="81.0" x="20.7">分</tspan><tspan textLength="13.0" y="99.0" x="20.7">配</tspan></text></g><g id="shape8" transform="translate(434.645669,1217.692842)"><text style="fill:#ffcd55;font-family:Microsoft YaHei,PingFang SC,Microsoft YaHei,Arial;font-size:19px;font-weight:bold" xml:space="preserve"><tspan textLength="19.0" y="26.0" x="50.5">任</tspan><tspan textLength="19.0" y="52.0" x="50.5">意</tspan><tspan textLength="19.0" y="78.0" x="50.5">取</tspan><tspan textLength="19.0" y="104.0" x="50.5">用</tspan></text></g><g id="shape9" transform="translate(58.661829,1158.509551)"><ed:custProps><ed:property ed:Format="#,###0.00" ed:Value="" ed:Type="4" ed:Unit="USD" ed:Label="Cost" ed:Name="Cost" ed:Invisible="0"/><ed:property ed:Format="[h]:[mm] &quot;eh:em&quot;" ed:Value="" ed:Type="3" ed:Unit="" ed:Label="Duration" ed:Name="Duration" ed:Invisible="0"/><ed:property ed:Format="@" ed:Value="" ed:Type="0" ed:Unit="" ed:Label="Resources" ed:Name="Resources" ed:Invisible="0"/></ed:custProps><path stroke="#b7b6b4" stroke-width="2.666670083999634" fill="none" d="M5.2,.0L36.2,.0C36.2,.0,36.2,.0,36.2,.0C39.1,.0,41.4,18.6,41.4,41.5C41.4,64.5,39.1,83.1,36.2,83.1L5.2,83.1C2.3,83.1,.0,64.5,.0,41.5C.0,18.6,2.3,.0,5.2,.0zM36.2,.0C33.4,.0,31.0,18.6,31.0,41.5C31.0,64.5,33.4,83.1,36.2,83.1" stroke-dasharray="6.66668,6.66668"/></g><g id="shape10" transform="translate(96.500440,1158.509451)"><ed:custProps><ed:property ed:Format="#,###0.00" ed:Value="" ed:Type="4" ed:Unit="USD" ed:Label="Cost" ed:Name="Cost" ed:Invisible="0"/><ed:property ed:Format="[h]:[mm] &quot;eh:em&quot;" ed:Value="" ed:Type="3" ed:Unit="" ed:Label="Duration" ed:Name="Duration" ed:Invisible="0"/><ed:property ed:Format="@" ed:Value="" ed:Type="0" ed:Unit="" ed:Label="Resources" ed:Name="Resources" ed:Invisible="0"/></ed:custProps><path fill-rule="nonzero" fill="#232322" d="M8.9,.0L62.1,.0C67.0,.0,71.0,18.6,71.0,41.5C71.0,64.5,67.0,83.1,62.1,83.1L8.9,83.1C4.0,83.1,.0,64.5,.0,41.5C.0,18.6,4.0,.0,8.9,.0z"/><path stroke="#b7b6b4" stroke-width="2.666670083999634" fill="none" d="M8.9,.0L62.1,.0C67.0,.0,71.0,18.6,71.0,41.5C71.0,64.5,67.0,83.1,62.1,83.1L8.9,83.1C4.0,83.1,.0,64.5,.0,41.5C.0,18.6,4.0,.0,8.9,.0zM62.1,.0C57.2,.0,53.2,18.6,53.2,41.5C53.2,64.5,57.2,83.1,62.1,83.1"/></g><g id="shape11" transform="translate(161.091166,1158.509451)"><ed:custProps><ed:property ed:Format="#,###0.00" ed:Value="" ed:Type="4" ed:Unit="USD" ed:Label="Cost" ed:Name="Cost" ed:Invisible="0"/><ed:property ed:Format="[h]:[mm] &quot;eh:em&quot;" ed:Value="" ed:Type="3" ed:Unit="" ed:Label="Duration" ed:Name="Duration" ed:Invisible="0"/><ed:property ed:Format="@" ed:Value="" ed:Type="0" ed:Unit="" ed:Label="Resources" ed:Name="Resources" ed:Invisible="0"/></ed:custProps><path stroke="#b7b6b4" stroke-width="2.666670083999634" fill="none" d="M10.4,.0L102.5,.0C108.3,.0,112.9,18.6,112.9,41.5C112.9,64.5,108.3,83.1,102.5,83.1L10.4,83.1C4.6,83.1,.0,64.5,.0,41.5C.0,18.6,4.6,.0,10.4,.0zM102.5,.0C96.8,.0,92.2,18.6,92.2,41.5C92.2,64.5,96.8,83.1,102.5,83.1" stroke-dasharray="6.66668,6.66668"/></g><g id="shape12" transform="translate(264.830670,1158.509451)"><ed:custProps><ed:property ed:Format="#,###0.00" ed:Value="" ed:Type="4" ed:Unit="USD" ed:Label="Cost" ed:Name="Cost" ed:Invisible="0"/><ed:property ed:Format="[h]:[mm] &quot;eh:em&quot;" ed:Value="" ed:Type="3" ed:Unit="" ed:Label="Duration" ed:Name="Duration" ed:Invisible="0"/><ed:property ed:Format="@" ed:Value="" ed:Type="0" ed:Unit="" ed:Label="Resources" ed:Name="Resources" ed:Invisible="0"/></ed:custProps><path fill-rule="nonzero" fill="#232322" d="M6.0,.0L42.1,.0C45.4,.0,48.1,18.6,48.1,41.5C48.1,64.5,45.4,83.1,42.1,83.1L6.0,83.1C2.7,83.1,.0,64.5,.0,41.5C.0,18.6,2.7,.0,6.0,.0z"/><path stroke="#b7b6b4" stroke-width="2.666670083999634" fill="none" d="M6.0,.0L42.1,.0C45.4,.0,48.1,18.6,48.1,41.5C48.1,64.5,45.4,83.1,42.1,83.1L6.0,83.1C2.7,83.1,.0,64.5,.0,41.5C.0,18.6,2.7,.0,6.0,.0zM42.1,.0C38.8,.0,36.1,18.6,36.1,41.5C36.1,64.5,38.8,83.1,42.1,83.1"/></g><g id="shape13" transform="translate(308.841381,1158.509451)"><ed:custProps><ed:property ed:Format="#,###0.00" ed:Value="" ed:Type="4" ed:Unit="USD" ed:Label="Cost" ed:Name="Cost" ed:Invisible="0"/><ed:property ed:Format="[h]:[mm] &quot;eh:em&quot;" ed:Value="" ed:Type="3" ed:Unit="" ed:Label="Duration" ed:Name="Duration" ed:Invisible="0"/><ed:property ed:Format="@" ed:Value="" ed:Type="0" ed:Unit="" ed:Label="Resources" ed:Name="Resources" ed:Invisible="0"/></ed:custProps><path stroke="#b7b6b4" stroke-width="2.666670083999634" fill="none" d="M10.4,.0L74.1,.0C79.8,.0,84.5,18.6,84.5,41.5C84.5,64.5,79.8,83.1,74.1,83.1L10.4,83.1C4.6,83.1,.0,64.5,.0,41.5C.0,18.6,4.6,.0,10.4,.0zM74.1,.0C68.4,.0,63.7,18.6,63.7,41.5C63.7,64.5,68.4,83.1,74.1,83.1" stroke-dasharray="6.66668,6.66668"/></g><g id="shape14" transform="translate(386.907499,1158.509551)"><ed:custProps><ed:property ed:Format="#,###0.00" ed:Value="" ed:Type="4" ed:Unit="USD" ed:Label="Cost" ed:Name="Cost" ed:Invisible="0"/><ed:property ed:Format="[h]:[mm] &quot;eh:em&quot;" ed:Value="" ed:Type="3" ed:Unit="" ed:Label="Duration" ed:Name="Duration" ed:Invisible="0"/><ed:property ed:Format="@" ed:Value="" ed:Type="0" ed:Unit="" ed:Label="Resources" ed:Name="Resources" ed:Invisible="0"/></ed:custProps><path fill-rule="nonzero" fill="#232322" d="M5.2,.0L36.2,.0C36.2,.0,36.2,.0,36.2,.0C39.1,.0,41.4,18.6,41.4,41.5C41.4,64.5,39.1,83.1,36.2,83.1L5.2,83.1C2.3,83.1,.0,64.5,.0,41.5C.0,18.6,2.3,.0,5.2,.0z"/><path stroke="#b7b6b4" stroke-width="2.666670083999634" fill="none" d="M5.2,.0L36.2,.0C36.2,.0,36.2,.0,36.2,.0C39.1,.0,41.4,18.6,41.4,41.5C41.4,64.5,39.1,83.1,36.2,83.1L5.2,83.1C2.3,83.1,.0,64.5,.0,41.5C.0,18.6,2.3,.0,5.2,.0zM36.2,.0C33.4,.0,31.0,18.6,31.0,41.5C31.0,64.5,33.4,83.1,36.2,83.1"/></g><g id="shape15" transform="translate(192.917460,1261.192854)"><text style="fill:#98bc25;font-family:Microsoft YaHei,PingFang SC,Microsoft YaHei,Arial;font-size:13px;font-weight:bold" xml:space="preserve"><tspan textLength="91.0" y="19.0" x="14.5">分配（申请堆）</tspan></text></g><g id="shape16" transform="translate(547.493679,1158.510413)"><ed:custProps><ed:property ed:Format="#,###0.00" ed:Value="" ed:Type="4" ed:Unit="USD" ed:Label="Cost" ed:Name="Cost" ed:Invisible="0"/><ed:property ed:Format="[h]:[mm] &quot;eh:em&quot;" ed:Value="" ed:Type="3" ed:Unit="" ed:Label="Duration" ed:Name="Duration" ed:Invisible="0"/><ed:property ed:Format="@" ed:Value="" ed:Type="0" ed:Unit="" ed:Label="Resources" ed:Name="Resources" ed:Invisible="0"/></ed:custProps><path stroke="#b7b6b4" stroke-width="2.666670083999634" fill="none" d="M5.2,.0L36.2,.0C39.1,.0,41.4,18.6,41.4,41.5C41.4,52.1,40.9,61.7,40.1,69.0C39.0,79.0,29.5,83.1,21.2,83.1L5.2,83.1C5.2,83.1,5.2,83.1,5.2,83.1C2.3,83.1,.0,64.5,.0,41.5C.0,18.6,2.3,.0,5.2,.0zM36.2,.0C33.4,.0,31.0,18.6,31.0,41.5C31.0,64.5,33.4,83.1,36.2,83.1" stroke-dasharray="6.66668,6.66668"/></g><g id="shape17" transform="translate(585.332479,1158.510413)"><ed:custProps><ed:property ed:Format="#,###0.00" ed:Value="" ed:Type="4" ed:Unit="USD" ed:Label="Cost" ed:Name="Cost" ed:Invisible="0"/><ed:property ed:Format="[h]:[mm] &quot;eh:em&quot;" ed:Value="" ed:Type="3" ed:Unit="" ed:Label="Duration" ed:Name="Duration" ed:Invisible="0"/><ed:property ed:Format="@" ed:Value="" ed:Type="0" ed:Unit="" ed:Label="Resources" ed:Name="Resources" ed:Invisible="0"/></ed:custProps><path fill-rule="nonzero" fill="#232322" d="M8.9,.0L62.1,.0C62.1,.0,62.1,.0,62.1,.0C67.0,.0,71.0,18.6,71.0,41.5C71.0,52.7,70.1,62.8,68.5,70.3C66.5,80.1,55.4,83.1,47.1,83.1L8.9,83.1C8.9,83.1,8.9,83.1,8.9,83.1C4.0,83.1,.0,64.5,.0,41.5C.0,18.6,4.0,.0,8.9,.0z"/><path stroke="#b7b6b4" stroke-width="2.666670083999634" fill="none" d="M8.9,.0L62.1,.0C62.1,.0,62.1,.0,62.1,.0C67.0,.0,71.0,18.6,71.0,41.5C71.0,52.7,70.1,62.8,68.5,70.3C66.5,80.1,55.4,83.1,47.1,83.1L8.9,83.1C8.9,83.1,8.9,83.1,8.9,83.1C4.0,83.1,.0,64.5,.0,41.5C.0,18.6,4.0,.0,8.9,.0zM62.1,.0C57.2,.0,53.2,18.6,53.2,41.5C53.2,64.5,57.2,83.1,62.1,83.1"/></g><g id="shape18" transform="translate(649.635479,1158.510413)"><ed:custProps><ed:property ed:Format="#,###0.00" ed:Value="" ed:Type="4" ed:Unit="USD" ed:Label="Cost" ed:Name="Cost" ed:Invisible="0"/><ed:property ed:Format="[h]:[mm] &quot;eh:em&quot;" ed:Value="" ed:Type="3" ed:Unit="" ed:Label="Duration" ed:Name="Duration" ed:Invisible="0"/><ed:property ed:Format="@" ed:Value="" ed:Type="0" ed:Unit="" ed:Label="Resources" ed:Name="Resources" ed:Invisible="0"/></ed:custProps><path fill-rule="nonzero" fill="#3d1b1b" d="M8.3,.0L57.9,.0C62.4,.0,66.1,18.6,66.1,41.5C66.1,64.5,62.4,83.1,57.9,83.1L8.3,83.1C3.7,83.1,.0,64.5,.0,41.5C.0,18.6,3.7,.0,8.3,.0z"/><path stroke="#f78181" stroke-width="2.666670083999634" fill="none" d="M8.3,.0L57.9,.0C62.4,.0,66.1,18.6,66.1,41.5C66.1,64.5,62.4,83.1,57.9,83.1L8.3,83.1C3.7,83.1,.0,64.5,.0,41.5C.0,18.6,3.7,.0,8.3,.0zM57.9,.0C53.3,.0,49.6,18.6,49.6,41.5C49.6,64.5,53.3,83.1,57.9,83.1"/></g><g id="shape19" transform="translate(681.749619,1261.192854)"><text style="fill:#f78181;font-family:Microsoft YaHei,PingFang SC,Microsoft YaHei,Arial;font-size:13px;font-weight:bold" xml:space="preserve"><tspan textLength="91.0" y="19.0" x="14.5">释放（归还堆）</tspan></text></g><g id="shape20" transform="translate(58.661427,1305.954729)"><ed:custProps><ed:property ed:Format="#,###0.00" ed:Value="" ed:Type="4" ed:Unit="USD" ed:Label="Cost" ed:Name="Cost" ed:Invisible="0"/><ed:property ed:Format="[h]:[mm] &quot;eh:em&quot;" ed:Value="" ed:Type="3" ed:Unit="" ed:Label="Duration" ed:Name="Duration" ed:Invisible="0"/><ed:property ed:Format="@" ed:Value="" ed:Type="0" ed:Unit="" ed:Label="Resources" ed:Name="Resources" ed:Invisible="0"/></ed:custProps><path stroke="#b7b6b4" stroke-width="2.666670083999634" fill="none" d="M5.2,.0L36.2,.0C39.1,.0,41.4,18.6,41.4,41.5C41.4,52.1,40.9,61.7,40.1,69.0C39.0,79.0,29.5,83.1,21.2,83.1L5.2,83.1C5.2,83.1,5.2,83.1,5.2,83.1C2.3,83.1,.0,64.5,.0,41.5C.0,18.6,2.3,.0,5.2,.0zM36.2,.0C33.4,.0,31.0,18.6,31.0,41.5C31.0,64.5,33.4,83.1,36.2,83.1" stroke-dasharray="6.66668,6.66668"/></g><g id="shape21" transform="translate(96.500227,1305.954729)"><ed:custProps><ed:property ed:Format="#,###0.00" ed:Value="" ed:Type="4" ed:Unit="USD" ed:Label="Cost" ed:Name="Cost" ed:Invisible="0"/><ed:property ed:Format="[h]:[mm] &quot;eh:em&quot;" ed:Value="" ed:Type="3" ed:Unit="" ed:Label="Duration" ed:Name="Duration" ed:Invisible="0"/><ed:property ed:Format="@" ed:Value="" ed:Type="0" ed:Unit="" ed:Label="Resources" ed:Name="Resources" ed:Invisible="0"/></ed:custProps><path fill-rule="nonzero" fill="#232322" d="M8.9,.0L62.1,.0C62.1,.0,62.1,.0,62.1,.0C67.0,.0,71.0,18.6,71.0,41.5C71.0,52.7,70.1,62.8,68.5,70.3C66.5,80.1,55.4,83.1,47.1,83.1L8.9,83.1C8.9,83.1,8.9,83.1,8.9,83.1C4.0,83.1,.0,64.5,.0,41.5C.0,18.6,4.0,.0,8.9,.0z"/><path stroke="#b7b6b4" stroke-width="2.666670083999634" fill="none" d="M8.9,.0L62.1,.0C62.1,.0,62.1,.0,62.1,.0C67.0,.0,71.0,18.6,71.0,41.5C71.0,52.7,70.1,62.8,68.5,70.3C66.5,80.1,55.4,83.1,47.1,83.1L8.9,83.1C8.9,83.1,8.9,83.1,8.9,83.1C4.0,83.1,.0,64.5,.0,41.5C.0,18.6,4.0,.0,8.9,.0zM62.1,.0C57.2,.0,53.2,18.6,53.2,41.5C53.2,64.5,57.2,83.1,62.1,83.1"/></g><g id="shape22" transform="translate(160.803227,1305.954729)"><ed:custProps><ed:property ed:Format="#,###0.00" ed:Value="" ed:Type="4" ed:Unit="USD" ed:Label="Cost" ed:Name="Cost" ed:Invisible="0"/><ed:property ed:Format="[h]:[mm] &quot;eh:em&quot;" ed:Value="" ed:Type="3" ed:Unit="" ed:Label="Duration" ed:Name="Duration" ed:Invisible="0"/><ed:property ed:Format="@" ed:Value="" ed:Type="0" ed:Unit="" ed:Label="Resources" ed:Name="Resources" ed:Invisible="0"/></ed:custProps><path fill-rule="nonzero" fill="#222c03" d="M7.7,.0L53.7,.0C58.0,.0,61.4,18.6,61.4,41.5C61.4,64.5,58.0,83.1,53.7,83.1L7.7,83.1C3.4,83.1,.0,64.5,.0,41.5C.0,18.6,3.4,.0,7.7,.0z"/><path stroke="#98bc25" stroke-width="2.666670083999634" fill="none" d="M7.7,.0L53.7,.0C58.0,.0,61.4,18.6,61.4,41.5C61.4,64.5,58.0,83.1,53.7,83.1L7.7,83.1C3.4,83.1,.0,64.5,.0,41.5C.0,18.6,3.4,.0,7.7,.0zM53.7,.0C49.5,.0,46.1,18.6,46.1,41.5C46.1,64.5,49.5,83.1,53.7,83.1"/></g><g id="shape23" transform="translate(547.493719,1305.954629)"><ed:custProps><ed:property ed:Format="#,###0.00" ed:Value="" ed:Type="4" ed:Unit="USD" ed:Label="Cost" ed:Name="Cost" ed:Invisible="0"/><ed:property ed:Format="[h]:[mm] &quot;eh:em&quot;" ed:Value="" ed:Type="3" ed:Unit="" ed:Label="Duration" ed:Name="Duration" ed:Invisible="0"/><ed:property ed:Format="@" ed:Value="" ed:Type="0" ed:Unit="" ed:Label="Resources" ed:Name="Resources" ed:Invisible="0"/></ed:custProps><path stroke="#b7b6b4" stroke-width="2.666670083999634" fill="none" d="M5.2,.0L36.2,.0C39.1,.0,41.4,18.6,41.4,41.5C41.4,52.1,40.9,61.7,40.1,69.0C39.0,79.0,29.5,83.1,21.2,83.1L5.2,83.1C5.2,83.1,5.2,83.1,5.2,83.1C2.3,83.1,.0,64.5,.0,41.5C.0,18.6,2.3,.0,5.2,.0zM36.2,.0C33.4,.0,31.0,18.6,31.0,41.5C31.0,64.5,33.4,83.1,36.2,83.1" stroke-dasharray="6.66668,6.66668"/></g><g id="shape24" transform="translate(585.332519,1305.954629)"><ed:custProps><ed:property ed:Format="#,###0.00" ed:Value="" ed:Type="4" ed:Unit="USD" ed:Label="Cost" ed:Name="Cost" ed:Invisible="0"/><ed:property ed:Format="[h]:[mm] &quot;eh:em&quot;" ed:Value="" ed:Type="3" ed:Unit="" ed:Label="Duration" ed:Name="Duration" ed:Invisible="0"/><ed:property ed:Format="@" ed:Value="" ed:Type="0" ed:Unit="" ed:Label="Resources" ed:Name="Resources" ed:Invisible="0"/></ed:custProps><path fill-rule="nonzero" fill="#232322" d="M8.9,.0L62.1,.0C62.1,.0,62.1,.0,62.1,.0C67.0,.0,71.0,18.6,71.0,41.5C71.0,52.7,70.1,62.8,68.5,70.3C66.5,80.1,55.4,83.1,47.1,83.1L8.9,83.1C8.9,83.1,8.9,83.1,8.9,83.1C4.0,83.1,.0,64.5,.0,41.5C.0,18.6,4.0,.0,8.9,.0z"/><path stroke="#b7b6b4" stroke-width="2.666670083999634" fill="none" d="M8.9,.0L62.1,.0C62.1,.0,62.1,.0,62.1,.0C67.0,.0,71.0,18.6,71.0,41.5C71.0,52.7,70.1,62.8,68.5,70.3C66.5,80.1,55.4,83.1,47.1,83.1L8.9,83.1C8.9,83.1,8.9,83.1,8.9,83.1C4.0,83.1,.0,64.5,.0,41.5C.0,18.6,4.0,.0,8.9,.0zM62.1,.0C57.2,.0,53.2,18.6,53.2,41.5C53.2,64.5,57.2,83.1,62.1,83.1"/></g><g id="shape25" transform="translate(649.923419,1305.954629)"><ed:custProps><ed:property ed:Format="#,###0.00" ed:Value="" ed:Type="4" ed:Unit="USD" ed:Label="Cost" ed:Name="Cost" ed:Invisible="0"/><ed:property ed:Format="[h]:[mm] &quot;eh:em&quot;" ed:Value="" ed:Type="3" ed:Unit="" ed:Label="Duration" ed:Name="Duration" ed:Invisible="0"/><ed:property ed:Format="@" ed:Value="" ed:Type="0" ed:Unit="" ed:Label="Resources" ed:Name="Resources" ed:Invisible="0"/></ed:custProps><path stroke="#b7b6b4" stroke-width="2.666670083999634" fill="none" d="M10.4,.0L99.9,.0C105.6,.0,110.3,18.6,110.3,41.5C110.3,64.5,105.6,83.1,99.9,83.1L10.4,83.1C4.6,83.1,.0,64.5,.0,41.5C.0,18.6,4.6,.0,10.4,.0zM99.9,.0C94.1,.0,89.5,18.6,89.5,41.5C89.5,64.5,94.1,83.1,99.9,83.1" stroke-dasharray="6.66668,6.66668"/></g><g id="shape26" transform="translate(753.662819,1305.954629)"><ed:custProps><ed:property ed:Format="#,###0.00" ed:Value="" ed:Type="4" ed:Unit="USD" ed:Label="Cost" ed:Name="Cost" ed:Invisible="0"/><ed:property ed:Format="[h]:[mm] &quot;eh:em&quot;" ed:Value="" ed:Type="3" ed:Unit="" ed:Label="Duration" ed:Name="Duration" ed:Invisible="0"/><ed:property ed:Format="@" ed:Value="" ed:Type="0" ed:Unit="" ed:Label="Resources" ed:Name="Resources" ed:Invisible="0"/></ed:custProps><path fill-rule="nonzero" fill="#232322" d="M6.0,.0L42.1,.0C45.4,.0,48.1,18.6,48.1,41.5C48.1,52.2,47.5,61.9,46.6,69.2C45.3,79.2,35.4,83.1,27.1,83.1L6.0,83.1C6.0,83.1,6.0,83.1,6.0,83.1C2.7,83.1,.0,64.5,.0,41.5C.0,18.6,2.7,.0,6.0,.0z"/><path stroke="#b7b6b4" stroke-width="2.666670083999634" fill="none" d="M6.0,.0L42.1,.0C45.4,.0,48.1,18.6,48.1,41.5C48.1,52.2,47.5,61.9,46.6,69.2C45.3,79.2,35.4,83.1,27.1,83.1L6.0,83.1C6.0,83.1,6.0,83.1,6.0,83.1C2.7,83.1,.0,64.5,.0,41.5C.0,18.6,2.7,.0,6.0,.0zM42.1,.0C38.8,.0,36.1,18.6,36.1,41.5C36.1,64.5,38.8,83.1,42.1,83.1"/></g><g id="shape27" transform="translate(797.673419,1305.954629)"><ed:custProps><ed:property ed:Format="#,###0.00" ed:Value="" ed:Type="4" ed:Unit="USD" ed:Label="Cost" ed:Name="Cost" ed:Invisible="0"/><ed:property ed:Format="[h]:[mm] &quot;eh:em&quot;" ed:Value="" ed:Type="3" ed:Unit="" ed:Label="Duration" ed:Name="Duration" ed:Invisible="0"/><ed:property ed:Format="@" ed:Value="" ed:Type="0" ed:Unit="" ed:Label="Resources" ed:Name="Resources" ed:Invisible="0"/></ed:custProps><path stroke="#b7b6b4" stroke-width="2.666670083999634" fill="none" d="M10.4,.0L74.1,.0C79.8,.0,84.5,18.6,84.5,41.5C84.5,53.0,83.3,63.3,81.5,70.8C79.0,80.6,67.4,83.1,59.1,83.1L10.4,83.1C10.4,83.1,10.4,83.1,10.4,83.1C4.6,83.1,.0,64.5,.0,41.5C.0,18.6,4.6,.0,10.4,.0zM74.1,.0C68.4,.0,63.7,18.6,63.7,41.5C63.7,64.5,68.4,83.1,74.1,83.1" stroke-dasharray="6.66668,6.66668"/></g><g id="shape28" transform="translate(875.739819,1305.954629)"><ed:custProps><ed:property ed:Format="#,###0.00" ed:Value="" ed:Type="4" ed:Unit="USD" ed:Label="Cost" ed:Name="Cost" ed:Invisible="0"/><ed:property ed:Format="[h]:[mm] &quot;eh:em&quot;" ed:Value="" ed:Type="3" ed:Unit="" ed:Label="Duration" ed:Name="Duration" ed:Invisible="0"/><ed:property ed:Format="@" ed:Value="" ed:Type="0" ed:Unit="" ed:Label="Resources" ed:Name="Resources" ed:Invisible="0"/></ed:custProps><path fill-rule="nonzero" fill="#232322" d="M5.2,.0L36.2,.0C39.1,.0,41.4,18.6,41.4,41.5C41.4,52.1,40.9,61.7,40.1,69.0C39.0,79.0,29.5,83.1,21.2,83.1L5.2,83.1C5.2,83.1,5.2,83.1,5.2,83.1C2.3,83.1,.0,64.5,.0,41.5C.0,18.6,2.3,.0,5.2,.0z"/><path stroke="#b7b6b4" stroke-width="2.666670083999634" fill="none" d="M5.2,.0L36.2,.0C39.1,.0,41.4,18.6,41.4,41.5C41.4,52.1,40.9,61.7,40.1,69.0C39.0,79.0,29.5,83.1,21.2,83.1L5.2,83.1C5.2,83.1,5.2,83.1,5.2,83.1C2.3,83.1,.0,64.5,.0,41.5C.0,18.6,2.3,.0,5.2,.0zM36.2,.0C33.4,.0,31.0,18.6,31.0,41.5C31.0,64.5,33.4,83.1,36.2,83.1"/></g><g id="shape29" transform="translate(192.302044,1241.571579)"><path stroke="#b3cc80" marker-end="url(#edrawArrow_4_2.66667)" stroke-width="2.666670083999634" fill="none" d="M.0,.0L-0.7,54.6"/></g><g id="shape30" transform="translate(212.598827,1305.954729)"><ed:custProps><ed:property ed:Format="#,###0.00" ed:Value="" ed:Type="4" ed:Unit="USD" ed:Label="Cost" ed:Name="Cost" ed:Invisible="0"/><ed:property ed:Format="[h]:[mm] &quot;eh:em&quot;" ed:Value="" ed:Type="3" ed:Unit="" ed:Label="Duration" ed:Name="Duration" ed:Invisible="0"/><ed:property ed:Format="@" ed:Value="" ed:Type="0" ed:Unit="" ed:Label="Resources" ed:Name="Resources" ed:Invisible="0"/></ed:custProps><path stroke="#b7b6b4" stroke-width="2.666670083999634" fill="none" d="M7.7,.0L53.7,.0C58.0,.0,61.4,18.6,61.4,41.5C61.4,64.5,58.0,83.1,53.7,83.1L7.7,83.1C3.4,83.1,.0,64.5,.0,41.5C.0,18.6,3.4,.0,7.7,.0zM53.7,.0C49.5,.0,46.1,18.6,46.1,41.5C46.1,64.5,49.5,83.1,53.7,83.1" stroke-dasharray="6.66668,6.66668"/></g><g id="shape31" transform="translate(264.830527,1305.954729)"><ed:custProps><ed:property ed:Format="#,###0.00" ed:Value="" ed:Type="4" ed:Unit="USD" ed:Label="Cost" ed:Name="Cost" ed:Invisible="0"/><ed:property ed:Format="[h]:[mm] &quot;eh:em&quot;" ed:Value="" ed:Type="3" ed:Unit="" ed:Label="Duration" ed:Name="Duration" ed:Invisible="0"/><ed:property ed:Format="@" ed:Value="" ed:Type="0" ed:Unit="" ed:Label="Resources" ed:Name="Resources" ed:Invisible="0"/></ed:custProps><path fill-rule="nonzero" fill="#232322" d="M6.0,.0L42.1,.0C45.4,.0,48.1,18.6,48.1,41.5C48.1,52.2,47.5,61.9,46.6,69.2C45.3,79.2,35.4,83.1,27.1,83.1L6.0,83.1C6.0,83.1,6.0,83.1,6.0,83.1C2.7,83.1,.0,64.5,.0,41.5C.0,18.6,2.7,.0,6.0,.0z"/><path stroke="#b7b6b4" stroke-width="2.666670083999634" fill="none" d="M6.0,.0L42.1,.0C45.4,.0,48.1,18.6,48.1,41.5C48.1,52.2,47.5,61.9,46.6,69.2C45.3,79.2,35.4,83.1,27.1,83.1L6.0,83.1C6.0,83.1,6.0,83.1,6.0,83.1C2.7,83.1,.0,64.5,.0,41.5C.0,18.6,2.7,.0,6.0,.0zM42.1,.0C38.8,.0,36.1,18.6,36.1,41.5C36.1,64.5,38.8,83.1,42.1,83.1"/></g><g id="shape32" transform="translate(308.841127,1305.954729)"><ed:custProps><ed:property ed:Format="#,###0.00" ed:Value="" ed:Type="4" ed:Unit="USD" ed:Label="Cost" ed:Name="Cost" ed:Invisible="0"/><ed:property ed:Format="[h]:[mm] &quot;eh:em&quot;" ed:Value="" ed:Type="3" ed:Unit="" ed:Label="Duration" ed:Name="Duration" ed:Invisible="0"/><ed:property ed:Format="@" ed:Value="" ed:Type="0" ed:Unit="" ed:Label="Resources" ed:Name="Resources" ed:Invisible="0"/></ed:custProps><path stroke="#b7b6b4" stroke-width="2.666670083999634" fill="none" d="M10.4,.0L74.1,.0C79.8,.0,84.5,18.6,84.5,41.5C84.5,53.0,83.3,63.3,81.5,70.8C79.0,80.6,67.4,83.1,59.1,83.1L10.4,83.1C10.4,83.1,10.4,83.1,10.4,83.1C4.6,83.1,.0,64.5,.0,41.5C.0,18.6,4.6,.0,10.4,.0zM74.1,.0C68.4,.0,63.7,18.6,63.7,41.5C63.7,64.5,68.4,83.1,74.1,83.1" stroke-dasharray="6.66668,6.66668"/></g><g id="shape33" transform="translate(386.907527,1305.954729)"><ed:custProps><ed:property ed:Format="#,###0.00" ed:Value="" ed:Type="4" ed:Unit="USD" ed:Label="Cost" ed:Name="Cost" ed:Invisible="0"/><ed:property ed:Format="[h]:[mm] &quot;eh:em&quot;" ed:Value="" ed:Type="3" ed:Unit="" ed:Label="Duration" ed:Name="Duration" ed:Invisible="0"/><ed:property ed:Format="@" ed:Value="" ed:Type="0" ed:Unit="" ed:Label="Resources" ed:Name="Resources" ed:Invisible="0"/></ed:custProps><path fill-rule="nonzero" fill="#232322" d="M5.2,.0L36.2,.0C39.1,.0,41.4,18.6,41.4,41.5C41.4,52.1,40.9,61.7,40.1,69.0C39.0,79.0,29.5,83.1,21.2,83.1L5.2,83.1C5.2,83.1,5.2,83.1,5.2,83.1C2.3,83.1,.0,64.5,.0,41.5C.0,18.6,2.3,.0,5.2,.0z"/><path stroke="#b7b6b4" stroke-width="2.666670083999634" fill="none" d="M5.2,.0L36.2,.0C39.1,.0,41.4,18.6,41.4,41.5C41.4,52.1,40.9,61.7,40.1,69.0C39.0,79.0,29.5,83.1,21.2,83.1L5.2,83.1C5.2,83.1,5.2,83.1,5.2,83.1C2.3,83.1,.0,64.5,.0,41.5C.0,18.6,2.3,.0,5.2,.0zM36.2,.0C33.4,.0,31.0,18.6,31.0,41.5C31.0,64.5,33.4,83.1,36.2,83.1"/></g><g id="shape34" transform="translate(706.074319,1158.509451)"><ed:custProps><ed:property ed:Format="#,###0.00" ed:Value="" ed:Type="4" ed:Unit="USD" ed:Label="Cost" ed:Name="Cost" ed:Invisible="0"/><ed:property ed:Format="[h]:[mm] &quot;eh:em&quot;" ed:Value="" ed:Type="3" ed:Unit="" ed:Label="Duration" ed:Name="Duration" ed:Invisible="0"/><ed:property ed:Format="@" ed:Value="" ed:Type="0" ed:Unit="" ed:Label="Resources" ed:Name="Resources" ed:Invisible="0"/></ed:custProps><path stroke="#b7b6b4" stroke-width="2.666670083999634" fill="none" d="M6.8,.0L47.3,.0C51.1,.0,54.1,18.6,54.1,41.5C54.1,64.5,51.1,83.1,47.3,83.1L6.8,83.1C3.0,83.1,.0,64.5,.0,41.5C.0,18.6,3.0,.0,6.8,.0zM47.3,.0C43.6,.0,40.6,18.6,40.6,41.5C40.6,64.5,43.6,83.1,47.3,83.1" stroke-dasharray="6.66668,6.66668"/></g><g id="shape35" transform="translate(753.662779,1158.510413)"><ed:custProps><ed:property ed:Format="#,###0.00" ed:Value="" ed:Type="4" ed:Unit="USD" ed:Label="Cost" ed:Name="Cost" ed:Invisible="0"/><ed:property ed:Format="[h]:[mm] &quot;eh:em&quot;" ed:Value="" ed:Type="3" ed:Unit="" ed:Label="Duration" ed:Name="Duration" ed:Invisible="0"/><ed:property ed:Format="@" ed:Value="" ed:Type="0" ed:Unit="" ed:Label="Resources" ed:Name="Resources" ed:Invisible="0"/></ed:custProps><path fill-rule="nonzero" fill="#232322" d="M6.0,.0L42.1,.0C45.4,.0,48.1,18.6,48.1,41.5C48.1,52.2,47.5,61.9,46.6,69.2C45.3,79.2,35.4,83.1,27.1,83.1L6.0,83.1C6.0,83.1,6.0,83.1,6.0,83.1C2.7,83.1,.0,64.5,.0,41.5C.0,18.6,2.7,.0,6.0,.0z"/><path stroke="#b7b6b4" stroke-width="2.666670083999634" fill="none" d="M6.0,.0L42.1,.0C45.4,.0,48.1,18.6,48.1,41.5C48.1,52.2,47.5,61.9,46.6,69.2C45.3,79.2,35.4,83.1,27.1,83.1L6.0,83.1C6.0,83.1,6.0,83.1,6.0,83.1C2.7,83.1,.0,64.5,.0,41.5C.0,18.6,2.7,.0,6.0,.0zM42.1,.0C38.8,.0,36.1,18.6,36.1,41.5C36.1,64.5,38.8,83.1,42.1,83.1"/></g><g id="shape36" transform="translate(797.673379,1158.510413)"><ed:custProps><ed:property ed:Format="#,###0.00" ed:Value="" ed:Type="4" ed:Unit="USD" ed:Label="Cost" ed:Name="Cost" ed:Invisible="0"/><ed:property ed:Format="[h]:[mm] &quot;eh:em&quot;" ed:Value="" ed:Type="3" ed:Unit="" ed:Label="Duration" ed:Name="Duration" ed:Invisible="0"/><ed:property ed:Format="@" ed:Value="" ed:Type="0" ed:Unit="" ed:Label="Resources" ed:Name="Resources" ed:Invisible="0"/></ed:custProps><path stroke="#b7b6b4" stroke-width="2.666670083999634" fill="none" d="M10.4,.0L74.1,.0C79.8,.0,84.5,18.6,84.5,41.5C84.5,53.0,83.3,63.3,81.5,70.8C79.0,80.6,67.4,83.1,59.1,83.1L10.4,83.1C10.4,83.1,10.4,83.1,10.4,83.1C4.6,83.1,.0,64.5,.0,41.5C.0,18.6,4.6,.0,10.4,.0zM74.1,.0C68.4,.0,63.7,18.6,63.7,41.5C63.7,64.5,68.4,83.1,74.1,83.1" stroke-dasharray="6.66668,6.66668"/></g><g id="shape37" transform="translate(875.739779,1158.510413)"><ed:custProps><ed:property ed:Format="#,###0.00" ed:Value="" ed:Type="4" ed:Unit="USD" ed:Label="Cost" ed:Name="Cost" ed:Invisible="0"/><ed:property ed:Format="[h]:[mm] &quot;eh:em&quot;" ed:Value="" ed:Type="3" ed:Unit="" ed:Label="Duration" ed:Name="Duration" ed:Invisible="0"/><ed:property ed:Format="@" ed:Value="" ed:Type="0" ed:Unit="" ed:Label="Resources" ed:Name="Resources" ed:Invisible="0"/></ed:custProps><path fill-rule="nonzero" fill="#232322" d="M5.2,.0L36.2,.0C39.1,.0,41.4,18.6,41.4,41.5C41.4,52.1,40.9,61.7,40.1,69.0C39.0,79.0,29.5,83.1,21.2,83.1L5.2,83.1C5.2,83.1,5.2,83.1,5.2,83.1C2.3,83.1,.0,64.5,.0,41.5C.0,18.6,2.3,.0,5.2,.0z"/><path stroke="#b7b6b4" stroke-width="2.666670083999634" fill="none" d="M5.2,.0L36.2,.0C39.1,.0,41.4,18.6,41.4,41.5C41.4,52.1,40.9,61.7,40.1,69.0C39.0,79.0,29.5,83.1,21.2,83.1L5.2,83.1C5.2,83.1,5.2,83.1,5.2,83.1C2.3,83.1,.0,64.5,.0,41.5C.0,18.6,2.3,.0,5.2,.0zM36.2,.0C33.4,.0,31.0,18.6,31.0,41.5C31.0,64.5,33.4,83.1,36.2,83.1"/></g><g id="shape38" transform="translate(682.707099,1241.572513)"><path stroke="#f9a5a5" marker-end="url(#edrawArrow_4_2.66667)" stroke-width="2.666670083999634" fill="none" d="M.0,.0L-0.0,54.6"/></g><g id="shape39" transform="translate(432.580687,1114.369788)"><text style="fill:#ffcd55;font-family:Microsoft YaHei,PingFang SC,Microsoft YaHei,Arial;font-size:13px" xml:space="preserve"><tspan textLength="78.0" y="19.0" x="21.0">可从任意位置</tspan><tspan textLength="65.0" y="37.0" x="27.5">申请和释放</tspan></text></g></g></svg>