<!--Generated by EdrawMax, SVG Export method.svg 页-6-->
<svg xmlns="http://www.w3.org/2000/svg" xmlns:xlink="http://www.w3.org/1999/xlink" viewBox="0 0 723 128" xmlns:ed="urn:edrawmax" height="128" width="723"><defs/><g transform="translate(-144.73,-161.36)"><g transform="translate(146.062992,162.692913)" id="shape1"><path fill="#232322" stroke="#b7b6b4" fill-rule="nonzero" stroke-width="2.6666700839996338" d="M22.0,44.0L123.7,44.0C135.9,44.0,145.7,34.2,145.7,22.0C145.7,9.8,135.9,.0,123.7,.0L22.0,.0C22.0,.0,22.0,.0,22.0,.0C9.8,.0,.0,9.8,.0,22.0C.0,34.2,9.8,44.0,22.0,44.0z"/><text style="fill:#ffffff;font-family:Microsoft YaHei,PingFang SC,Microsoft YaHei,Arial;font-size:13px" xml:space="preserve"><tspan x="46.9" y="28.0" textLength="52.0">设计阶段</tspan></text></g><g transform="translate(337.490483,162.692913)" id="shape2"><path fill="#232322" stroke="#b7b6b4" fill-rule="nonzero" stroke-width="2.6666700839996338" d="M22.0,44.0L123.7,44.0C135.9,44.0,145.7,34.2,145.7,22.0C145.7,9.8,135.9,.0,123.7,.0L22.0,.0C22.0,.0,22.0,.0,22.0,.0C9.8,.0,.0,9.8,.0,22.0C.0,34.2,9.8,44.0,22.0,44.0z"/><text style="fill:#ffffff;font-family:Microsoft YaHei,PingFang SC,Microsoft YaHei,Arial;font-size:13px" xml:space="preserve"><tspan x="46.9" y="28.0" textLength="52.0">编码阶段</tspan></text></g><g transform="translate(528.917974,162.692913)" id="shape3"><path fill="#232322" stroke="#b7b6b4" fill-rule="nonzero" stroke-width="2.6666700839996338" d="M22.0,44.0L123.7,44.0C135.9,44.0,145.7,34.2,145.7,22.0C145.7,9.8,135.9,.0,123.7,.0L22.0,.0C22.0,.0,22.0,.0,22.0,.0C9.8,.0,.0,9.8,.0,22.0C.0,34.2,9.8,44.0,22.0,44.0z"/><text style="fill:#ffffff;font-family:Microsoft YaHei,PingFang SC,Microsoft YaHei,Arial;font-size:13px" xml:space="preserve"><tspan x="40.4" y="28.0" textLength="65.0">协作与集成</tspan></text></g><g transform="translate(720.345465,162.692913)" id="shape4"><path fill="#232322" stroke="#b7b6b4" fill-rule="nonzero" stroke-width="2.6666700839996338" d="M22.0,44.0L123.7,44.0C135.9,44.0,145.7,34.2,145.7,22.0C145.7,9.8,135.9,.0,123.7,.0L22.0,.0C22.0,.0,22.0,.0,22.0,.0C9.8,.0,.0,9.8,.0,22.0C.0,34.2,9.8,44.0,22.0,44.0z"/><text style="fill:#ffffff;font-family:Microsoft YaHei,PingFang SC,Microsoft YaHei,Arial;font-size:13px" xml:space="preserve"><tspan x="40.4" y="28.0" textLength="65.0">测试与优化</tspan></text></g><g transform="translate(146.062992,243.740157)" id="shape5"><path fill="#232322" stroke="#f9a5a5" fill-rule="nonzero" stroke-width="2.6666700839996338" d="M.0,.0L95.0,.0L120.0,22.0L95.0,44.0L.0,44.0L25.0,22.0L.0,.0z"/><text style="fill:#ffffff;font-family:Microsoft YaHei,PingFang SC,Microsoft YaHei,Arial;font-size:13px" xml:space="preserve"><tspan x="34.0" y="28.0" textLength="52.0">架构设计</tspan></text></g><g transform="translate(266.062992,243.740157)" id="shape6"><path fill="#232322" stroke="#ffd88f" fill-rule="nonzero" stroke-width="2.6666700839996338" d="M.0,.0L95.0,.0L120.0,22.0L95.0,44.0L.0,44.0L25.0,22.0L.0,.0z"/><text style="fill:#ffffff;font-family:Microsoft YaHei,PingFang SC,Microsoft YaHei,Arial;font-size:13px" xml:space="preserve"><tspan x="46.4" y="28.0" textLength="27.2">TDD</tspan></text></g><g transform="translate(386.062992,243.740157)" id="shape7"><path fill="#232322" stroke="#ffd88f" fill-rule="nonzero" stroke-width="2.6666700839996338" d="M.0,.0L95.0,.0L120.0,22.0L95.0,44.0L.0,44.0L25.0,22.0L.0,.0z"/><text style="fill:#ffffff;font-family:Microsoft YaHei,PingFang SC,Microsoft YaHei,Arial;font-size:13px" xml:space="preserve"><tspan x="34.0" y="28.0" textLength="52.0">代码编写</tspan></text></g><g transform="translate(506.062992,243.740157)" id="shape8"><path fill="#232322" stroke="#93c8f4" fill-rule="nonzero" stroke-width="2.6666700839996338" d="M.0,.0L95.0,.0L120.0,22.0L95.0,44.0L.0,44.0L25.0,22.0L.0,.0z"/><text style="fill:#ffffff;font-family:Microsoft YaHei,PingFang SC,Microsoft YaHei,Arial;font-size:13px" xml:space="preserve"><tspan x="34.0" y="28.0" textLength="52.0">代码规范</tspan></text></g><g transform="translate(626.062992,243.740157)" id="shape9"><path fill="#232322" stroke="#93c8f4" fill-rule="nonzero" stroke-width="2.6666700839996338" d="M.0,.0L95.0,.0L120.0,22.0L95.0,44.0L.0,44.0L25.0,22.0L.0,.0z"/><text style="fill:#ffffff;font-family:Microsoft YaHei,PingFang SC,Microsoft YaHei,Arial;font-size:13px" xml:space="preserve"><tspan x="53.8" y="28.0" textLength="12.5">CI</tspan></text></g><g transform="translate(746.062992,243.740157)" id="shape10"><path fill="#232322" stroke="#b3cc80" fill-rule="nonzero" stroke-width="2.6666700839996338" d="M.0,.0L95.0,.0L120.0,22.0L95.0,44.0L.0,44.0L25.0,22.0L.0,.0z"/><text style="fill:#ffffff;font-family:Microsoft YaHei,PingFang SC,Microsoft YaHei,Arial;font-size:13px" xml:space="preserve"><tspan x="34.0" y="28.0" textLength="52.0">性能分析</tspan></text></g></g></svg>