<!--Generated by EdrawMax, SVG Export mod.svg 页-3-->
<svg xmlns="http://www.w3.org/2000/svg" xmlns:xlink="http://www.w3.org/1999/xlink" viewBox="0 0 1002 358" xmlns:ed="urn:edrawmax" height="358" width="1002"><defs/><g transform="translate(-66.80,-230.00)"><path transform="translate(587.343560,365.751213)" fill="#232322" id="shape1" stroke="#f78181" fill-rule="nonzero" stroke-width="2.6666700839996338" d="M223.7,27.9C226.0,25.7,227.5,22.6,227.5,19.1L227.5,15.0C227.5,13.3,227.6,11.0,227.1,9.0C225.8,3.8,221.1,.0,215.5,.0L21.0,.0C16.0,.0,8.2,-0.9,3.8,3.2C1.5,5.4,.0,8.5,.0,12.0L.0,16.1C.0,17.8,-0.1,20.1,.4,22.1C1.7,27.3,6.4,31.1,12.0,31.1L206.5,31.1C211.4,31.1,219.2,32.0,223.7,27.9z"/><path transform="translate(840.244535,365.751213)" fill="#232322" id="shape2" stroke="#f78181" fill-rule="nonzero" stroke-width="2.6666700839996338" d="M223.7,27.9C226.0,25.7,227.5,22.6,227.5,19.1L227.5,15.0C227.5,13.3,227.6,11.0,227.1,9.0C225.8,3.8,221.1,.0,215.5,.0L21.0,.0C16.0,.0,8.2,-0.9,3.8,3.2C1.5,5.4,.0,8.5,.0,12.0L.0,16.1C.0,17.8,-0.1,20.1,.4,22.1C1.7,27.3,6.4,31.1,12.0,31.1L206.5,31.1C211.4,31.1,219.2,32.0,223.7,27.9z"/><path transform="translate(326.042550,461.901119)" fill="#232322" id="shape3" stroke="#ffd88f" fill-rule="nonzero" stroke-width="2.6666700839996338" d="M95.3,26.2C97.7,24.0,99.2,20.9,99.2,17.4L99.2,14.0C99.2,12.9,99.2,11.3,99.0,10.0C98.0,4.3,93.1,.0,87.2,.0L21.0,.0C16.0,.0,8.2,-0.9,3.8,3.2C1.5,5.4,.0,8.5,.0,12.0L.0,15.4C.0,16.5,-0.1,18.1,.2,19.4C1.1,25.1,6.1,29.4,12.0,29.4L78.2,29.4C83.1,29.4,90.9,30.3,95.3,26.2z"/><g transform="matrix(0.000000,-1.000000,-1.000000,0.000000,1067.716520,282.566929)" id="shape4"><path fill="none" stroke="#98bc25" stroke-width="2.6666700839996338" d="M.0,.0L9.0,.0C14.0,.0,18.0,4.0,18.0,9.0L18.0,983.1C18.0,988.1,14.0,992.1,9.0,992.1L.0,992.1"/><text transform="matrix(0.00,-1.00,-1.00,0.00,534.1,534.1)" style="fill:#98bc25;font-family:Microsoft YaHei,PingFang SC,Microsoft YaHei,Arial;font-size:16px" xml:space="preserve"><tspan x="15.0" y="503.1" textLength="48.0">父模块</tspan></text></g><g transform="matrix(0.000000,-1.000000,-1.000000,0.000000,425.196850,383.751213)" id="shape5"><path fill="none" stroke="#f78181" stroke-width="2.6666700839996338" d="M.0,.0L9.0,.0C14.0,.0,18.0,4.0,18.0,9.0L18.0,340.6C18.0,345.6,14.0,349.6,9.0,349.6L.0,349.6"/><text transform="matrix(0.00,-1.00,-1.00,0.00,214.8,214.8)" style="fill:#f78181;font-family:Microsoft YaHei,PingFang SC,Microsoft YaHei,Arial;font-size:19px;font-weight:bold" xml:space="preserve"><tspan x="-16.0" y="183.8" textLength="114.0">自己（模块）</tspan></text></g><g transform="matrix(0.000000,-1.000000,-1.000000,0.000000,557.480096,383.751213)" id="shape6"><path fill="none" stroke="#f78181" stroke-width="2.6666700839996338" d="M.0,.0L9.0,.0C14.0,.0,18.0,4.0,18.0,9.0L18.0,93.4C18.0,98.4,14.0,102.4,9.0,102.4L.0,102.4"/><text transform="matrix(0.00,-1.00,-1.00,0.00,89.2,89.2)" style="fill:#f78181;font-family:Microsoft YaHei,PingFang SC,Microsoft YaHei,Arial;font-size:16px" xml:space="preserve"><tspan x="7.0" y="58.2" textLength="64.0">兄弟模块</tspan></text></g><g transform="matrix(0.000000,-1.000000,-1.000000,0.000000,178.010535,479.901119)" id="shape7"><path fill="none" stroke="#ffd88f" stroke-width="2.6666700839996338" d="M.0,.0L9.0,.0C14.0,.0,18.0,4.0,18.0,9.0L18.0,93.4C18.0,98.4,14.0,102.4,9.0,102.4L.0,102.4"/><text transform="matrix(0.00,-1.00,-1.00,0.00,89.2,89.2)" style="fill:#ffd88f;font-family:Microsoft YaHei,PingFang SC,Microsoft YaHei,Arial;font-size:16px" xml:space="preserve"><tspan x="10.6" y="58.2" textLength="56.8">子模块a</tspan></text></g><g transform="matrix(0.000000,-1.000000,-1.000000,0.000000,301.603693,479.901119)" id="shape8"><path fill="none" stroke="#ffd88f" stroke-width="2.6666700839996338" d="M.0,.0L9.0,.0C14.0,.0,18.0,4.0,18.0,9.0L18.0,93.4C18.0,98.4,14.0,102.4,9.0,102.4L.0,102.4"/><text transform="matrix(0.00,-1.00,-1.00,0.00,89.2,89.2)" style="fill:#ffd88f;font-family:Microsoft YaHei,PingFang SC,Microsoft YaHei,Arial;font-size:16px" xml:space="preserve"><tspan x="9.9" y="58.2" textLength="58.2">子模块b</tspan></text></g><path transform="translate(455.060096,462.992126)" fill="#232322" id="shape9" stroke="#ffd88f" fill-rule="nonzero" stroke-width="2.6666700839996338" d="M98.6,25.1C100.9,22.9,102.4,19.8,102.4,16.3L102.4,14.0C102.4,12.9,102.5,11.3,102.3,10.0C101.3,4.3,96.4,.0,90.4,.0L21.0,.0C16.0,.0,8.2,-0.9,3.8,3.2C1.5,5.4,.0,8.5,.0,12.0L.0,14.3C.0,15.5,-0.1,17.0,.2,18.3C1.1,24.0,6.1,28.3,12.0,28.3L81.4,28.3C86.4,28.3,94.2,29.3,98.6,25.1z"/><g transform="translate(641.079560,335.610588)" id="shape10"><text style="fill:#f78181;font-family:Microsoft YaHei,PingFang SC,Microsoft YaHei,Arial;font-size:16px" xml:space="preserve"><tspan x="38.4" y="22.0" textLength="43.3">函数A</tspan></text></g><g transform="translate(315.619700,431.760519)" id="shape11"><text style="fill:#ffd88f;font-family:Microsoft YaHei,PingFang SC,Microsoft YaHei,Arial;font-size:16px" xml:space="preserve"><tspan x="39.6" y="22.0" textLength="40.8">函数a</tspan></text></g><g transform="translate(893.980535,335.610600)" id="shape12"><text style="fill:#f78181;font-family:Microsoft YaHei,PingFang SC,Microsoft YaHei,Arial;font-size:16px" xml:space="preserve"><tspan x="30.4" y="22.0" textLength="59.3">结构体A</tspan></text></g><g transform="translate(446.270096,431.760519)" id="shape13"><text style="fill:#ffd88f;font-family:Microsoft YaHei,PingFang SC,Microsoft YaHei,Arial;font-size:16px" xml:space="preserve"><tspan x="30.9" y="22.0" textLength="58.2">结构体b</tspan></text></g><path transform="translate(75.590535,558.051025)" fill="#232322" id="shape14" stroke="#9fbbc7" fill-rule="nonzero" stroke-width="2.6666700839996338" d="M98.6,25.1C100.9,22.9,102.4,19.8,102.4,16.3L102.4,14.0C102.4,12.9,102.5,11.3,102.3,10.0C101.3,4.3,96.4,.0,90.4,.0L21.0,.0C16.0,.0,8.2,-0.9,3.8,3.2C1.5,5.4,.0,8.5,.0,12.0L.0,14.3C.0,15.5,-0.1,17.0,.2,18.3C1.1,24.0,6.1,28.3,12.0,28.3L81.4,28.3C86.4,28.3,94.2,29.3,98.6,25.1z"/><g transform="translate(66.800535,527.910425)" id="shape15"><text style="fill:#9fbbc7;font-family:Microsoft YaHei,PingFang SC,Microsoft YaHei,Arial;font-size:16px" xml:space="preserve"><tspan x="36.0" y="22.0" textLength="48.0">私有项</tspan></text></g><path transform="translate(204.590535,558.051025)" fill="#232322" id="shape16" stroke="#9fbbc7" fill-rule="nonzero" stroke-width="2.6666700839996338" d="M98.6,25.1C100.9,22.9,102.4,19.8,102.4,16.3L102.4,14.0C102.4,12.9,102.5,11.3,102.3,10.0C101.3,4.3,96.4,.0,90.4,.0L21.0,.0C16.0,.0,8.2,-0.9,3.8,3.2C1.5,5.4,.0,8.5,.0,12.0L.0,14.3C.0,15.5,-0.1,17.0,.2,18.3C1.1,24.0,6.1,28.3,12.0,28.3L81.4,28.3C86.4,28.3,94.2,29.3,98.6,25.1z"/><g transform="translate(195.800535,527.910925)" id="shape17"><text style="fill:#9fbbc7;font-family:Microsoft YaHei,PingFang SC,Microsoft YaHei,Arial;font-size:16px" xml:space="preserve"><tspan x="36.0" y="22.0" textLength="48.0">私有项</tspan></text></g></g></svg>