<!--Generated by EdrawMax, SVG Export move.svg String-->
<svg viewBox="0 0 959 371" xmlns:xlink="http://www.w3.org/1999/xlink" width="959" height="371" xmlns="http://www.w3.org/2000/svg" xmlns:ed="https://www.edrawsoft.cn/xml/2017/SVGExtensions/"><defs><marker markerWidth="13.79796524917224" markerUnits="userSpaceOnUse" markerHeight="13.79796524917224" refY="5.89898262458612" id="edrawArrow_4_2.66667" refX="1" orient="auto-start-reverse" ed:arrow="4"><path fill="context-stroke" d="M1.0,1.0L10.8,5.9L1.0,10.8L1.0,1.0" stroke-linecap="round" stroke="context-stroke" stroke-width="1"/></marker><marker markerWidth="17.85640666702756" markerUnits="userSpaceOnUse" markerHeight="17.85640666702756" refY="7.928203333513782" id="edrawArrow_4_5.33333" refX="1" orient="auto-start-reverse" ed:arrow="4"><path fill="context-stroke" d="M1.0,1.0L14.9,7.9L1.0,14.9L1.0,1.0" stroke-linecap="round" stroke="context-stroke" stroke-width="1"/></marker><linearGradient x1="0%" y2="0%" id="lg1" x2="100%" y1="0%"><stop stop-color="#d7e9d0" offset="0.00" stop-opacity="0.20"/><stop stop-color="#80c150" offset="1.00"/></linearGradient></defs><g transform="translate(-37.80,-869.73)"><g id="shape1" transform="translate(128.188676,1157.887795)"><path fill-rule="nonzero" fill="#232322" d="M57.3,54.0C59.7,51.8,61.2,48.7,61.2,45.2L61.2,21.0C61.2,16.0,62.1,8.2,57.9,3.8C55.8,1.5,52.6,.0,49.2,.0L21.0,.0C16.0,.0,8.2,-0.9,3.8,3.2C1.5,5.4,.0,8.5,.0,12.0L.0,36.2C.0,41.2,-0.9,49.0,3.2,53.4C5.4,55.8,8.5,57.2,12.0,57.2L40.2,57.2C45.1,57.2,52.9,58.2,57.3,54.0z" stroke="#b7b6b4" stroke-width="2.666670083999634"/><text xml:space="preserve" style="fill:#ffffff;font-family:Microsoft YaHei,PingFang SC,Microsoft YaHei,Arial;font-size:32px"><tspan x="18.2" textLength="24.8" y="42.1">H</tspan></text></g><g id="shape2" transform="translate(211.598676,1157.887795)"><path fill-rule="nonzero" fill="#232322" d="M57.3,54.0C59.7,51.8,61.2,48.7,61.2,45.2L61.2,21.0C61.2,16.0,62.1,8.2,57.9,3.8C55.8,1.5,52.6,.0,49.2,.0L21.0,.0C16.0,.0,8.2,-0.9,3.8,3.2C1.5,5.4,.0,8.5,.0,12.0L.0,36.2C.0,41.2,-0.9,49.0,3.2,53.4C5.4,55.8,8.5,57.2,12.0,57.2L40.2,57.2C45.1,57.2,52.9,58.2,57.3,54.0z" stroke="#afafaf" stroke-width="2.666670083999634"/><text xml:space="preserve" style="fill:#ffffff;font-family:Microsoft YaHei,PingFang SC,Microsoft YaHei,Arial;font-size:32px"><tspan x="21.5" textLength="18.2" y="42.1">e</tspan></text></g><g id="shape3" transform="translate(295.008676,1157.887795)"><path fill-rule="nonzero" fill="#232322" d="M57.3,54.0C59.7,51.8,61.2,48.7,61.2,45.2L61.2,21.0C61.2,16.0,62.1,8.2,57.9,3.8C55.8,1.5,52.6,.0,49.2,.0L21.0,.0C16.0,.0,8.2,-0.9,3.8,3.2C1.5,5.4,.0,8.5,.0,12.0L.0,36.2C.0,41.2,-0.9,49.0,3.2,53.4C5.4,55.8,8.5,57.2,12.0,57.2L40.2,57.2C45.1,57.2,52.9,58.2,57.3,54.0z" stroke="#afafaf" stroke-width="2.666670083999634"/><text xml:space="preserve" style="fill:#ffffff;font-family:Microsoft YaHei,PingFang SC,Microsoft YaHei,Arial;font-size:32px"><tspan x="26.3" textLength="8.5" y="42.1">l</tspan></text></g><g id="shape4" transform="translate(378.418676,1157.887795)"><path fill-rule="nonzero" fill="#232322" d="M57.3,54.0C59.7,51.8,61.2,48.7,61.2,45.2L61.2,21.0C61.2,16.0,62.1,8.2,57.9,3.8C55.8,1.5,52.6,.0,49.2,.0L21.0,.0C16.0,.0,8.2,-0.9,3.8,3.2C1.5,5.4,.0,8.5,.0,12.0L.0,36.2C.0,41.2,-0.9,49.0,3.2,53.4C5.4,55.8,8.5,57.2,12.0,57.2L40.2,57.2C45.1,57.2,52.9,58.2,57.3,54.0z" stroke="#afafaf" stroke-width="2.666670083999634"/><text xml:space="preserve" style="fill:#ffffff;font-family:Microsoft YaHei,PingFang SC,Microsoft YaHei,Arial;font-size:32px"><tspan x="26.3" textLength="8.5" y="42.1">l</tspan></text></g><g id="shape5" transform="translate(461.828676,1157.887795)"><path fill-rule="nonzero" fill="#232322" d="M57.3,54.0C59.7,51.8,61.2,48.7,61.2,45.2L61.2,21.0C61.2,16.0,62.1,8.2,57.9,3.8C55.8,1.5,52.6,.0,49.2,.0L21.0,.0C16.0,.0,8.2,-0.9,3.8,3.2C1.5,5.4,.0,8.5,.0,12.0L.0,36.2C.0,41.2,-0.9,49.0,3.2,53.4C5.4,55.8,8.5,57.2,12.0,57.2L40.2,57.2C45.1,57.2,52.9,58.2,57.3,54.0z" stroke="#b7b6b4" stroke-width="2.666670083999634"/><text xml:space="preserve" style="fill:#ffffff;font-family:Microsoft YaHei,PingFang SC,Microsoft YaHei,Arial;font-size:32px"><tspan x="20.4" textLength="20.3" y="42.1">o</tspan></text></g><g id="shape6" transform="translate(545.238676,1157.887795)"><path fill-rule="nonzero" fill="#232322" d="M57.3,54.0C59.7,51.8,61.2,48.7,61.2,45.2L61.2,21.0C61.2,16.0,62.1,8.2,57.9,3.8C55.8,1.5,52.6,.0,49.2,.0L21.0,.0C16.0,.0,8.2,-0.9,3.8,3.2C1.5,5.4,.0,8.5,.0,12.0L.0,36.2C.0,41.2,-0.9,49.0,3.2,53.4C5.4,55.8,8.5,57.2,12.0,57.2L40.2,57.2C45.1,57.2,52.9,58.2,57.3,54.0z" stroke="#b7b6b4" stroke-width="2.666670083999634"/><text xml:space="preserve" style="fill:#ffffff;font-family:Microsoft YaHei,PingFang SC,Microsoft YaHei,Arial;font-size:32px"><tspan x="14.3" textLength="32.6" y="42.1">W</tspan></text></g><g id="shape7" transform="translate(123.783458,1015.466595)"><path stroke-dasharray="29.3334,13.3334" fill-rule="nonzero" fill="#232322" d="M119.8,54.0C122.2,51.8,123.6,48.7,123.6,45.2L123.6,21.0C123.6,16.0,124.5,8.2,120.4,3.8C118.2,1.5,115.1,.0,111.6,.0L21.0,.0C16.0,.0,8.2,-0.9,3.8,3.2C1.5,5.4,.0,8.5,.0,12.0L.0,36.2C.0,41.2,-0.9,49.0,3.2,53.4C5.4,55.8,8.5,57.2,12.0,57.2L102.6,57.2C107.6,57.2,115.4,58.2,119.8,54.0z" stroke="#f9a5a5" stroke-width="2.666670083999634"/><text xml:space="preserve" style="fill:#ffffff;font-family:Microsoft YaHei,PingFang SC,Microsoft YaHei,Arial;font-size:19px"><tspan x="33.3" textLength="57.0" y="24.6">指针：</tspan><tspan x="29.1" textLength="65.3" y="50.6">0x1000</tspan></text></g><g id="shape8" transform="translate(247.422533,1015.466595)"><path stroke-dasharray="29.3334,13.3334" fill-rule="nonzero" fill="#232322" d="M124.7,54.0C127.1,51.8,128.5,48.7,128.5,45.2L128.5,21.0C128.5,16.0,129.5,8.2,125.3,3.8C123.1,1.5,120.0,.0,116.5,.0L21.0,.0C16.0,.0,8.2,-0.9,3.8,3.2C1.5,5.4,.0,8.5,.0,12.0L.0,36.2C.0,41.2,-0.9,49.0,3.2,53.4C5.4,55.8,8.5,57.2,12.0,57.2L107.5,57.2C112.5,57.2,120.3,58.2,124.7,54.0z" stroke="#f9a5a5" stroke-width="2.666670083999634"/><text xml:space="preserve" style="fill:#ffffff;font-family:Microsoft YaHei,PingFang SC,Microsoft YaHei,Arial;font-size:19px"><tspan x="24.6" textLength="79.3" y="37.6">长度：10</tspan></text></g><g id="shape9" transform="translate(185.603109,1072.716195)"><path stroke-dasharray="29.3334,13.3334" marker-end="url(#edrawArrow_4_2.66667)" fill="none" d="M.0,.0L-53.0,105.0" stroke="#f9a5a5" stroke-width="2.666670083999634"/></g><path fill="none" d="M.0,.0L4.8,.0C5.9,.0,7.5,-0.2,8.8,.0C9.9,.3,11.0,.8,11.9,1.7C12.7,2.6,13.3,3.6,13.5,4.8C13.8,6.1,13.6,7.7,13.6,8.8L13.6,399.4C13.6,400.5,13.4,402.1,13.6,403.4C13.8,404.6,14.4,405.6,15.3,406.5C16.6,407.8,18.5,408.5,20.3,408.2C18.5,407.9,16.6,408.6,15.3,409.9C14.4,410.7,13.8,411.8,13.6,413.0C13.4,414.3,13.6,415.9,13.6,417.0L13.6,807.6C13.6,808.7,13.8,810.3,13.5,811.6C13.3,812.7,12.7,813.8,11.9,814.7C11.0,815.5,9.9,816.1,8.8,816.3C7.5,816.6,5.9,816.4,4.8,816.4L.0,816.4" id="shape10" transform="matrix(0.000000,-1.000000,-1.000000,0.000000,942.500276,1152.757145)" stroke="#ffd88f" stroke-width="2.666670083999634"/><g id="shape11" transform="translate(311.696122,1072.716195)"><path stroke-dasharray="29.3334,13.3334" marker-end="url(#edrawArrow_4_2.66667)" fill="none" d="M.0,.0L213.2,57.2" stroke="#f9a5a5" stroke-width="2.666670083999634"/></g><g id="shape12" transform="translate(468.837415,869.727695)"><text xml:space="preserve" style="fill:#b3cc80;font-family:Microsoft YaHei,PingFang SC,Microsoft YaHei,Arial;font-size:32px"><tspan x="60.4" textLength="64.0" y="39.0">移动</tspan><tspan x="17.1" textLength="150.6" y="82.0">（Move）</tspan></text></g><g id="shape13" transform="translate(628.648676,1157.887795)"><path fill-rule="nonzero" fill="#232322" d="M57.3,54.0C59.7,51.8,61.2,48.7,61.2,45.2L61.2,21.0C61.2,16.0,62.1,8.2,57.9,3.8C55.8,1.5,52.6,.0,49.2,.0L21.0,.0C16.0,.0,8.2,-0.9,3.8,3.2C1.5,5.4,.0,8.5,.0,12.0L.0,36.2C.0,41.2,-0.9,49.0,3.2,53.4C5.4,55.8,8.5,57.2,12.0,57.2L40.2,57.2C45.1,57.2,52.9,58.2,57.3,54.0z" stroke="#b7b6b4" stroke-width="2.666670083999634"/><text xml:space="preserve" style="fill:#ffffff;font-family:Microsoft YaHei,PingFang SC,Microsoft YaHei,Arial;font-size:32px"><tspan x="20.4" textLength="20.3" y="42.1">o</tspan></text></g><g id="shape14" transform="translate(113.575276,1215.137585)"><text xml:space="preserve" style="fill:#5fb7f1;font-family:Microsoft YaHei,PingFang SC,Microsoft YaHei,Arial;font-size:13px"><tspan x="22.9" textLength="44.6" y="19.0">0x1000</tspan></text></g><g id="shape15" transform="translate(196.985276,1215.137595)"><text xml:space="preserve" style="fill:#5fb7f1;font-family:Microsoft YaHei,PingFang SC,Microsoft YaHei,Arial;font-size:13px"><tspan x="22.9" textLength="44.6" y="19.0">0x1004</tspan></text></g><g id="shape16" transform="translate(280.209276,1215.137595)"><text xml:space="preserve" style="fill:#5fb7f1;font-family:Microsoft YaHei,PingFang SC,Microsoft YaHei,Arial;font-size:13px"><tspan x="22.9" textLength="44.6" y="19.0">0x1008</tspan></text></g><g id="shape17" transform="translate(363.805276,1215.137595)"><text xml:space="preserve" style="fill:#5fb7f1;font-family:Microsoft YaHei,PingFang SC,Microsoft YaHei,Arial;font-size:13px"><tspan x="22.6" textLength="45.2" y="19.0">0x100B</tspan></text></g><g id="shape18" transform="translate(447.215276,1215.137595)"><text xml:space="preserve" style="fill:#5fb7f1;font-family:Microsoft YaHei,PingFang SC,Microsoft YaHei,Arial;font-size:13px"><tspan x="22.9" textLength="44.6" y="19.0">0x1010</tspan></text></g><g id="shape19" transform="translate(530.625276,1215.137595)"><text xml:space="preserve" style="fill:#5fb7f1;font-family:Microsoft YaHei,PingFang SC,Microsoft YaHei,Arial;font-size:13px"><tspan x="22.9" textLength="44.6" y="19.0">0x1014</tspan></text></g><g id="shape20" transform="translate(37.795276,1215.137585)"><text xml:space="preserve" style="fill:#5fb7f1;font-family:Microsoft YaHei,PingFang SC,Microsoft YaHei,Arial;font-size:13px"><tspan x="25.7" textLength="39.0" y="19.0">地址：</tspan></text></g><g id="shape21" transform="translate(711.948676,1157.887795)"><path fill-rule="nonzero" fill="#232322" d="M57.3,54.0C59.7,51.8,61.2,48.7,61.2,45.2L61.2,21.0C61.2,16.0,62.1,8.2,57.9,3.8C55.8,1.5,52.6,.0,49.2,.0L21.0,.0C16.0,.0,8.2,-0.9,3.8,3.2C1.5,5.4,.0,8.5,.0,12.0L.0,36.2C.0,41.2,-0.9,49.0,3.2,53.4C5.4,55.8,8.5,57.2,12.0,57.2L40.2,57.2C45.1,57.2,52.9,58.2,57.3,54.0z" stroke="#b7b6b4" stroke-width="2.666670083999634"/><text xml:space="preserve" style="fill:#ffffff;font-family:Microsoft YaHei,PingFang SC,Microsoft YaHei,Arial;font-size:32px"><tspan x="24.5" textLength="12.2" y="42.1">r</tspan></text></g><g id="shape22" transform="translate(795.358676,1157.887795)"><path fill-rule="nonzero" fill="#232322" d="M57.3,54.0C59.7,51.8,61.2,48.7,61.2,45.2L61.2,21.0C61.2,16.0,62.1,8.2,57.9,3.8C55.8,1.5,52.6,.0,49.2,.0L21.0,.0C16.0,.0,8.2,-0.9,3.8,3.2C1.5,5.4,.0,8.5,.0,12.0L.0,36.2C.0,41.2,-0.9,49.0,3.2,53.4C5.4,55.8,8.5,57.2,12.0,57.2L40.2,57.2C45.1,57.2,52.9,58.2,57.3,54.0z" stroke="#b7b6b4" stroke-width="2.666670083999634"/><text xml:space="preserve" style="fill:#ffffff;font-family:Microsoft YaHei,PingFang SC,Microsoft YaHei,Arial;font-size:32px"><tspan x="26.3" textLength="8.5" y="42.1">l</tspan></text></g><g id="shape23" transform="translate(878.768676,1157.887795)"><path fill-rule="nonzero" fill="#232322" d="M57.3,54.0C59.7,51.8,61.2,48.7,61.2,45.2L61.2,21.0C61.2,16.0,62.1,8.2,57.9,3.8C55.8,1.5,52.6,.0,49.2,.0L21.0,.0C16.0,.0,8.2,-0.9,3.8,3.2C1.5,5.4,.0,8.5,.0,12.0L.0,36.2C.0,41.2,-0.9,49.0,3.2,53.4C5.4,55.8,8.5,57.2,12.0,57.2L40.2,57.2C45.1,57.2,52.9,58.2,57.3,54.0z" stroke="#b7b6b4" stroke-width="2.666670083999634"/><text xml:space="preserve" style="fill:#ffffff;font-family:Microsoft YaHei,PingFang SC,Microsoft YaHei,Arial;font-size:32px"><tspan x="20.3" textLength="20.5" y="42.1">d</tspan></text></g><g id="shape24" transform="translate(614.220276,1215.137595)"><text xml:space="preserve" style="fill:#5fb7f1;font-family:Microsoft YaHei,PingFang SC,Microsoft YaHei,Arial;font-size:13px"><tspan x="22.9" textLength="44.6" y="19.0">0x1018</tspan></text></g><g id="shape25" transform="translate(697.630276,1215.137595)"><text xml:space="preserve" style="fill:#5fb7f1;font-family:Microsoft YaHei,PingFang SC,Microsoft YaHei,Arial;font-size:13px"><tspan x="22.6" textLength="45.2" y="19.0">0x101B</tspan></text></g><g id="shape26" transform="translate(781.040276,1215.137595)"><text xml:space="preserve" style="fill:#5fb7f1;font-family:Microsoft YaHei,PingFang SC,Microsoft YaHei,Arial;font-size:13px"><tspan x="22.9" textLength="44.6" y="19.0">0x1020</tspan></text></g><g id="shape27" transform="translate(864.155276,1215.137595)"><text xml:space="preserve" style="fill:#5fb7f1;font-family:Microsoft YaHei,PingFang SC,Microsoft YaHei,Arial;font-size:13px"><tspan x="22.9" textLength="44.6" y="19.0">0x1024</tspan></text></g><g id="shape28" transform="translate(49.418876,1015.466595)"><text xml:space="preserve" style="fill:#b3cc80;font-family:Microsoft YaHei,PingFang SC,Microsoft YaHei,Arial;font-size:24px"><tspan x="9.6" textLength="48.0" y="30.0">栈：</tspan></text></g><g id="shape29" transform="translate(49.418876,1157.887295)"><text xml:space="preserve" style="fill:#b3cc80;font-family:Microsoft YaHei,PingFang SC,Microsoft YaHei,Arial;font-size:24px"><tspan x="9.6" textLength="48.0" y="30.0">堆：</tspan></text></g><g id="shape30" transform="translate(375.969711,1015.466595)"><path stroke-dasharray="29.3334,13.3334" fill-rule="nonzero" fill="#232322" d="M124.7,54.0C127.1,51.8,128.5,48.7,128.5,45.2L128.5,21.0C128.5,16.0,129.5,8.2,125.3,3.8C123.1,1.5,120.0,.0,116.5,.0L21.0,.0C16.0,.0,8.2,-0.9,3.8,3.2C1.5,5.4,.0,8.5,.0,12.0L.0,36.2C.0,41.2,-0.9,49.0,3.2,53.4C5.4,55.8,8.5,57.2,12.0,57.2L107.5,57.2C112.5,57.2,120.3,58.2,124.7,54.0z" stroke="#f9a5a5" stroke-width="2.666670083999634"/><text xml:space="preserve" style="fill:#ffffff;font-family:Microsoft YaHei,PingFang SC,Microsoft YaHei,Arial;font-size:19px"><tspan x="24.6" textLength="79.3" y="37.6">容量：50</tspan></text></g><g id="shape31" transform="translate(125.158137,963.251508)"><text xml:space="preserve" style="fill:#f78181;font-family:Microsoft YaHei,PingFang SC,Microsoft YaHei,Arial;font-size:19px"><tspan x="20.3" textLength="231.1" y="26.0">S1：移动后栈里的内容失效</tspan></text></g><g id="shape32" transform="translate(614.845483,1015.466595)"><path fill-rule="nonzero" fill="#232322" d="M119.8,54.0C122.2,51.8,123.6,48.7,123.6,45.2L123.6,21.0C123.6,16.0,124.5,8.2,120.4,3.8C118.2,1.5,115.1,.0,111.6,.0L21.0,.0C16.0,.0,8.2,-0.9,3.8,3.2C1.5,5.4,.0,8.5,.0,12.0L.0,36.2C.0,41.2,-0.9,49.0,3.2,53.4C5.4,55.8,8.5,57.2,12.0,57.2L102.6,57.2C107.6,57.2,115.4,58.2,119.8,54.0z" stroke="#b3cc80" stroke-width="2.666670083999634"/><text xml:space="preserve" style="fill:#ffffff;font-family:Microsoft YaHei,PingFang SC,Microsoft YaHei,Arial;font-size:19px"><tspan x="33.3" textLength="57.0" y="24.6">指针：</tspan><tspan x="29.1" textLength="65.3" y="50.6">0x1000</tspan></text></g><g id="shape33" transform="translate(738.484558,1015.466595)"><path fill-rule="nonzero" fill="#232322" d="M124.7,54.0C127.1,51.8,128.5,48.7,128.5,45.2L128.5,21.0C128.5,16.0,129.5,8.2,125.3,3.8C123.1,1.5,120.0,.0,116.5,.0L21.0,.0C16.0,.0,8.2,-0.9,3.8,3.2C1.5,5.4,.0,8.5,.0,12.0L.0,36.2C.0,41.2,-0.9,49.0,3.2,53.4C5.4,55.8,8.5,57.2,12.0,57.2L107.5,57.2C112.5,57.2,120.3,58.2,124.7,54.0z" stroke="#b3cc80" stroke-width="2.666670083999634"/><text xml:space="preserve" style="fill:#ffffff;font-family:Microsoft YaHei,PingFang SC,Microsoft YaHei,Arial;font-size:19px"><tspan x="24.6" textLength="79.3" y="37.6">长度：10</tspan></text></g><g id="shape34" transform="translate(867.031736,1015.466595)"><path fill-rule="nonzero" fill="#232322" d="M124.7,54.0C127.1,51.8,128.5,48.7,128.5,45.2L128.5,21.0C128.5,16.0,129.5,8.2,125.3,3.8C123.1,1.5,120.0,.0,116.5,.0L21.0,.0C16.0,.0,8.2,-0.9,3.8,3.2C1.5,5.4,.0,8.5,.0,12.0L.0,36.2C.0,41.2,-0.9,49.0,3.2,53.4C5.4,55.8,8.5,57.2,12.0,57.2L107.5,57.2C112.5,57.2,120.3,58.2,124.7,54.0z" stroke="#b3cc80" stroke-width="2.666670083999634"/><text xml:space="preserve" style="fill:#ffffff;font-family:Microsoft YaHei,PingFang SC,Microsoft YaHei,Arial;font-size:19px"><tspan x="24.6" textLength="79.3" y="37.6">容量：50</tspan></text></g><g id="shape35" transform="translate(616.220276,963.251095)"><text xml:space="preserve" style="fill:#b3cc80;font-family:Microsoft YaHei,PingFang SC,Microsoft YaHei,Arial;font-size:19px"><tspan x="29.9" textLength="231.1" y="26.0">S2：移动后接管堆里的数据</tspan></text></g><g id="shape36" transform="translate(676.665134,1072.716195)"><path marker-end="url(#edrawArrow_4_5.33333)" fill="none" d="M.0,.0L-534.9,111.0" stroke="#b3cc80" stroke-width="5.333333492279053"/></g><g id="shape37" transform="translate(802.758147,1072.716195)"><path marker-end="url(#edrawArrow_4_5.33333)" fill="none" d="M.0,.0L-254.9,56.7" stroke="#b3cc80" stroke-width="5.333333492279053"/></g><path fill-rule="nonzero" fill="url(#lg1)" d="M.0,17.3L39.8,17.3L39.8,.0L61.2,24.0L39.8,48.0L39.8,30.7L.0,30.7L.0,17.3z" id="shape38" transform="translate(530.625276,1020.091445)"/><path fill-rule="nonzero" fill="#f78181" d="M48.0,46.1C44.2,38.3,39.4,31.0,33.8,24.4C38.4,19.8,42.6,14.8,46.3,9.4L41.0,.0C37.2,6.4,32.9,12.5,28.2,18.3C22.8,12.7,16.9,7.4,10.7,2.6L.0,6.2C8.6,10.9,16.7,16.7,23.9,23.5L22.4,25.1C16.6,31.4,10.3,37.2,3.6,42.4L3.0,48.0C12.2,42.5,20.9,36.1,29.0,29.0C33.8,34.0,38.2,39.3,42.2,45.0L48.0,46.1z" id="shape39" transform="translate(113.575276,997.392133)"/><path fill-rule="nonzero" fill="#98bc25" d="M46.8,.0C32.2,9.0,21.6,20.3,16.8,25.9L5.2,16.8L.0,20.9L20.1,41.4C23.6,32.5,34.6,15.2,48.0,2.9L46.8,.0zM46.8,.0z" id="shape40" transform="translate(601.792576,997.391695)"/></g></svg>