<!--Generated by EdrawMax, SVG Export package_and_crate.svg 页-2-->
<svg xmlns="http://www.w3.org/2000/svg" xmlns:xlink="http://www.w3.org/1999/xlink" viewBox="0 0 418 408" xmlns:ed="urn:edrawmax" height="408" width="418"><defs/><g transform="translate(-71.77,-1612.63)"><path transform="translate(114.635000,1720.876850)" fill="#ffffff" id="shape1" fill-rule="nonzero" d="M33.1,12.7L21.7,1.1C21.4,.9,21.2,.7,20.9,.5L20.6,.4L20.6,.3C20.1,.1,19.5,.0,19.0,.0L3.9,.0C1.8,.0,.0,1.7,.0,3.9L.0,44.1C.0,46.3,1.8,48.0,3.9,48.0L30.4,48.0C31.4,48.0,32.4,47.6,33.2,46.9C33.9,46.2,34.3,45.2,34.3,44.1L34.3,15.5C34.3,14.4,33.9,13.4,33.1,12.7zM8.8,20.6L18.6,20.6C19.7,20.6,20.6,21.4,20.6,22.5C20.6,23.6,19.7,24.4,18.6,24.4L8.8,24.4C7.7,24.4,6.9,23.6,6.9,22.5C6.9,21.4,7.7,20.6,8.8,20.6zM22.1,38.1L8.8,38.1C7.7,38.1,6.9,37.3,6.9,36.2C6.9,35.2,7.7,34.3,8.8,34.3L22.1,34.3C23.1,34.3,24.0,35.2,24.0,36.2C24.0,37.3,23.1,38.1,22.1,38.1zM25.5,31.3L8.8,31.3C7.7,31.3,6.9,30.4,6.9,29.4C6.9,28.3,7.7,27.4,8.8,27.4L25.5,27.4C26.6,27.4,27.4,28.3,27.4,29.4C27.4,30.4,26.6,31.3,25.5,31.3zM20.9,13.3L20.9,5.9L28.3,13.3L20.9,13.3z"/><g transform="translate(71.775000,1768.876550)" id="shape2"><text style="fill:#b3cc80;font-family:Microsoft YaHei,PingFang SC,Microsoft YaHei,Arial;font-size:13px" xml:space="preserve"><tspan x="26.6" y="19.0" textLength="66.7">cargo.toml</tspan></text></g><path transform="matrix(0.000000,-1.000000,-1.000000,0.000000,338.032000,1720.876850)" fill="none" id="shape3" stroke="#ffcd55" stroke-width="2.6666700839996338" d="M.0,.0L6.0,.0C7.7,.0,10.0,-0.3,12.0,.1C13.4,.5,14.7,1.2,15.8,2.2C16.8,3.3,17.5,4.6,17.9,6.0C18.3,8.0,18.0,10.3,18.0,12.0L18.0,107.6C18.0,109.2,17.7,111.6,18.1,113.5C18.5,114.9,19.2,116.3,20.2,117.3C22.0,119.1,24.5,119.9,27.0,119.6C24.5,119.2,22.0,120.0,20.2,121.8C19.2,122.9,18.5,124.2,18.1,125.6C17.7,127.5,18.0,129.9,18.0,131.6L18.0,227.1C18.0,228.8,18.3,231.1,17.9,233.1C17.5,234.5,16.8,235.8,15.8,236.9C14.7,237.9,13.4,238.6,12.0,239.0C10.0,239.4,7.7,239.1,6.0,239.1L.0,239.1"/><g transform="translate(245.182000,1768.876550)" id="shape4"><text style="fill:#b3cc80;font-family:Microsoft YaHei,PingFang SC,Microsoft YaHei,Arial;font-size:13px" xml:space="preserve"><tspan x="51.3" y="19.0" textLength="17.3">src</tspan></text></g><g transform="translate(197.182000,1720.876850)" id="group5"><path fill="#0078d7" id="shape7" fill-rule="nonzero" d="M47.1,22.0L26.1,.9C25.0,-0.3,23.1,-0.3,22.0,.9L17.4,5.4L22.8,10.8C23.2,10.7,23.7,10.6,24.1,10.6C26.1,10.6,27.8,12.3,27.8,14.3C27.8,14.8,27.7,15.2,27.6,15.6L32.9,20.9C33.3,20.8,33.7,20.7,34.2,20.7C36.2,20.7,37.9,22.3,37.9,24.4C37.9,26.4,36.2,28.0,34.2,28.0C32.2,28.0,30.5,26.4,30.5,24.4C30.5,23.9,30.6,23.4,30.8,23.1L25.8,18.1L25.8,31.1C27.0,31.7,27.8,33.0,27.8,34.3C27.8,36.3,26.1,38.0,24.1,38.0C22.1,38.0,20.5,36.3,20.5,34.3C20.5,32.8,21.4,31.5,22.8,30.9L22.8,17.6C21.4,17.1,20.5,15.7,20.5,14.2C20.5,13.7,20.6,13.2,20.7,12.9L15.2,7.4L.9,22.0C-0.3,23.2,-0.3,25.1,.9,26.1L21.9,47.1C23.1,48.3,25.0,48.3,26.0,47.1L47.0,26.1C48.3,24.9,48.3,23.1,47.1,22.0z"/></g><g transform="translate(161.182000,1768.876550)" id="shape8"><text style="fill:#b3cc80;font-family:Microsoft YaHei,PingFang SC,Microsoft YaHei,Arial;font-size:13px" xml:space="preserve"><tspan x="30.1" y="19.0" textLength="59.9">.gitignore</tspan></text></g><path transform="translate(194.478000,1612.626700)" fill="#ffcd55" id="shape9" fill-rule="nonzero" d="M26.3,21.4L26.3,22.9C26.3,23.1,26.1,23.2,25.9,23.2L22.1,23.2C21.9,23.2,21.8,23.1,21.8,22.9L21.8,21.4C21.8,21.2,21.9,21.0,22.1,21.0L25.9,21.0C26.1,21.0,26.3,21.2,26.3,21.4zM48.0,21.4L48.0,40.5C48.0,42.2,46.7,43.5,45.0,43.5L3.0,43.5C1.3,43.5,.0,42.2,.0,40.5L.0,21.4C.0,21.2,.2,21.0,.4,21.0L18.4,21.0C18.6,21.0,18.8,21.2,18.8,21.4L18.8,23.2C18.8,24.9,20.1,26.2,21.8,26.2L26.3,26.2C27.9,26.2,29.3,24.9,29.3,23.2L29.3,21.4C29.3,21.2,29.4,21.0,29.6,21.0L47.6,21.0C47.8,21.0,48.0,21.2,48.0,21.4zM42.0,6.0L34.9,6.0C34.7,6.0,34.5,5.9,34.5,5.7L34.5,4.5C34.5,2.0,32.5,.0,30.0,.0L18.0,.0C15.5,.0,13.5,2.0,13.5,4.5L13.5,5.7C13.5,5.9,13.3,6.0,13.1,6.0L6.0,6.0C2.7,6.0,.0,8.7,.0,12.0L.0,17.6C.0,17.8,.2,18.0,.4,18.0L47.6,18.0C47.8,18.0,48.0,17.8,48.0,17.6L48.0,12.0C48.0,8.7,45.3,6.0,42.0,6.0zM16.5,4.5C16.5,3.7,17.2,3.0,18.0,3.0L30.0,3.0C30.8,3.0,31.5,3.7,31.5,4.5L31.5,5.6C31.5,5.8,31.3,6.0,31.1,6.0L16.9,6.0C16.7,6.0,16.5,5.8,16.5,5.6L16.5,4.5z"/><g transform="translate(158.478000,1656.166400)" id="shape10"><text style="fill:#b3cc80;font-family:Microsoft YaHei,PingFang SC,Microsoft YaHei,Arial;font-size:13px" xml:space="preserve"><tspan x="14.9" y="19.0" textLength="90.1">包（Package）</tspan></text></g><g transform="translate(281.182000,1725.296850)" id="group11"><path fill="#ffa000" id="shape12" fill-rule="nonzero" d="M.0,2.2C.0,1.0,1.0,.0,2.2,.0L18.8,.0C19.8,.0,20.6,.6,21.0,1.5L22.2,4.2L45.8,4.2C47.0,4.2,48.0,5.2,48.0,6.4L48.0,32.0C48.0,33.2,47.0,34.2,45.8,34.2L2.2,34.2C1.0,34.2,.0,33.2,.0,32.0L.0,2.2z"/><path transform="translate(0.000000,8.617382)" fill="#ffca28" id="shape13" fill-rule="nonzero" d="M2.2,.0L45.8,.0C47.3,.0,48.0,.7,48.0,2.2L48.0,28.4C48.0,29.8,47.3,30.5,45.8,30.5L2.2,30.5C.7,30.5,.0,29.8,.0,28.4L.0,2.2C.0,.7,.7,.0,2.2,.0z"/></g><path transform="matrix(0.000000,-1.000000,-1.000000,0.000000,424.735500,1828.346457)" fill="none" id="shape14" stroke="#ffcd55" stroke-width="2.6666700839996338" d="M.0,.0L6.0,.0C7.7,.0,10.0,-0.3,12.0,.1C13.4,.5,14.7,1.2,15.8,2.2C16.8,3.3,17.5,4.6,17.9,6.0C18.3,8.0,18.0,10.3,18.0,12.0L18.0,107.6C18.0,109.2,17.7,111.6,18.1,113.5C18.5,114.9,19.2,116.3,20.2,117.3C22.0,119.1,24.5,119.9,27.0,119.6C24.5,119.2,22.0,120.0,20.2,121.8C19.2,122.9,18.5,124.2,18.1,125.6C17.7,127.5,18.0,129.9,18.0,131.6L18.0,227.1C18.0,228.8,18.3,231.1,17.9,233.1C17.5,234.5,16.8,235.8,15.8,236.9C14.7,237.9,13.4,238.6,12.0,239.0C10.0,239.4,7.7,239.1,6.0,239.1L.0,239.1"/><path transform="translate(185.548469,1847.244094)" fill="#ffffff" id="shape15" fill-rule="nonzero" d="M26.2,.0C26.4,.0,26.5,.0,26.7,.1L26.7,.1C27.0,.1,27.2,.3,27.4,.5L38.6,11.7L38.6,11.7C38.6,11.7,38.7,11.7,38.7,11.8L38.6,11.7C38.8,11.9,39.0,12.3,39.1,12.6L39.1,12.8L39.1,44.1C39.1,46.3,37.3,48.0,35.2,48.0L3.9,48.0C1.8,48.0,.0,46.3,.0,44.1L.0,3.9C.0,1.7,1.7,.0,3.9,.0L26.2,.0zM24.1,22.8C23.4,22.2,22.4,22.2,21.7,22.8L21.5,23.0C21.0,23.7,21.1,24.6,21.7,25.2L26.1,29.6L21.7,34.0C21.0,34.6,21.0,35.7,21.7,36.3C22.4,37.0,23.4,37.0,24.1,36.3L29.6,30.8C30.3,30.1,30.3,29.1,29.6,28.4L24.1,22.8zM17.4,22.8C16.7,22.2,15.7,22.2,15.0,22.8L9.4,28.4C8.8,29.1,8.8,30.1,9.4,30.8L15.0,36.3C15.7,37.0,16.7,37.0,17.4,36.3L17.5,36.2C18.0,35.5,18.0,34.6,17.4,34.0L13.0,29.6L17.4,25.2C18.0,24.5,18.0,23.5,17.4,22.8L17.4,22.8zM27.9,5.7L27.9,11.2L33.4,11.2L27.9,5.7z"/><g transform="translate(145.083469,1895.244094)" id="shape16"><text style="fill:#b3cc80;font-family:Microsoft YaHei,PingFang SC,Microsoft YaHei,Arial;font-size:13px" xml:space="preserve"><tspan x="37.5" y="19.0" textLength="45.0">main.rs</tspan></text></g><path transform="translate(264.548000,1847.244094)" fill="#ffffff" id="shape17" fill-rule="nonzero" d="M26.2,.0C26.4,.0,26.5,.0,26.7,.1L26.7,.1C27.0,.1,27.2,.3,27.4,.5L38.6,11.7L38.6,11.7C38.6,11.7,38.7,11.7,38.7,11.8L38.6,11.7C38.8,11.9,39.0,12.3,39.1,12.6L39.1,12.8L39.1,44.1C39.1,46.3,37.3,48.0,35.2,48.0L3.9,48.0C1.8,48.0,.0,46.3,.0,44.1L.0,3.9C.0,1.7,1.7,.0,3.9,.0L26.2,.0zM24.1,22.8C23.4,22.2,22.4,22.2,21.7,22.8L21.5,23.0C21.0,23.7,21.1,24.6,21.7,25.2L26.1,29.6L21.7,34.0C21.0,34.6,21.0,35.7,21.7,36.3C22.4,37.0,23.4,37.0,24.1,36.3L29.6,30.8C30.3,30.1,30.3,29.1,29.6,28.4L24.1,22.8zM17.4,22.8C16.7,22.2,15.7,22.2,15.0,22.8L9.4,28.4C8.8,29.1,8.8,30.1,9.4,30.8L15.0,36.3C15.7,37.0,16.7,37.0,17.4,36.3L17.5,36.2C18.0,35.5,18.0,34.6,17.4,34.0L13.0,29.6L17.4,25.2C18.0,24.5,18.0,23.5,17.4,22.8L17.4,22.8zM27.9,5.7L27.9,11.2L33.4,11.2L27.9,5.7z"/><g transform="translate(224.083000,1895.243794)" id="shape18"><text style="fill:#b3cc80;font-family:Microsoft YaHei,PingFang SC,Microsoft YaHei,Arial;font-size:13px" xml:space="preserve"><tspan x="45.3" y="19.0" textLength="29.4">lib.rs</tspan></text></g><g transform="translate(330.708661,1895.244119)" id="shape19"><text style="fill:#b3cc80;font-family:Microsoft YaHei,PingFang SC,Microsoft YaHei,Arial;font-size:13px" xml:space="preserve"><tspan x="50.1" y="19.0" textLength="19.8">bin</tspan></text></g><g transform="translate(366.708661,1851.664094)" id="group20"><path fill="#ffa000" id="shape21" fill-rule="nonzero" d="M.0,2.2C.0,1.0,1.0,.0,2.2,.0L18.8,.0C19.8,.0,20.6,.6,21.0,1.5L22.2,4.2L45.8,4.2C47.0,4.2,48.0,5.2,48.0,6.4L48.0,32.0C48.0,33.2,47.0,34.2,45.8,34.2L2.2,34.2C1.0,34.2,.0,33.2,.0,32.0L.0,2.2z"/><path transform="translate(0.000000,8.617400)" fill="#ffca28" id="shape22" fill-rule="nonzero" d="M2.2,.0L45.8,.0C47.3,.0,48.0,.7,48.0,2.2L48.0,28.4C48.0,29.8,47.3,30.5,45.8,30.5L2.2,30.5C.7,30.5,.0,29.8,.0,28.4L.0,2.2C.0,.7,.7,.0,2.2,.0z"/></g><path transform="matrix(0.000000,-1.000000,-1.000000,0.000000,455.662818,1947.384719)" fill="none" id="shape23" stroke="#ffcd55" stroke-width="2.6666700839996338" d="M.0,.0L6.0,.0C7.7,.0,10.0,-0.3,12.0,.1C13.4,.5,14.7,1.2,15.8,2.2C16.8,3.3,17.5,4.6,17.9,6.0C18.3,8.0,18.0,10.3,18.0,12.0L18.0,54.1C18.0,55.8,17.7,58.2,18.1,60.1C18.5,61.5,19.2,62.8,20.2,63.9C22.0,65.7,24.5,66.5,27.0,66.1C24.5,65.8,22.0,66.6,20.2,68.4C19.2,69.4,18.5,70.8,18.1,72.2C17.7,74.1,18.0,76.5,18.0,78.1L18.0,120.3C18.0,121.9,18.3,124.3,17.9,126.3C17.5,127.7,16.8,129.0,15.8,130.0C14.7,131.1,13.4,131.8,12.0,132.1C10.0,132.6,7.7,132.3,6.0,132.3L.0,132.3"/><path transform="translate(331.673661,1947.384719)" fill="#ffffff" id="shape24" fill-rule="nonzero" d="M26.2,.0C26.4,.0,26.5,.0,26.7,.1L26.7,.1C27.0,.1,27.2,.3,27.4,.5L38.6,11.7L38.6,11.7C38.6,11.7,38.7,11.7,38.7,11.8L38.6,11.7C38.8,11.9,39.0,12.3,39.1,12.6L39.1,12.8L39.1,44.1C39.1,46.3,37.3,48.0,35.2,48.0L3.9,48.0C1.8,48.0,.0,46.3,.0,44.1L.0,3.9C.0,1.7,1.7,.0,3.9,.0L26.2,.0zM24.1,22.8C23.4,22.2,22.4,22.2,21.7,22.8L21.5,23.0C21.0,23.7,21.1,24.6,21.7,25.2L26.1,29.6L21.7,34.0C21.0,34.6,21.0,35.7,21.7,36.3C22.4,37.0,23.4,37.0,24.1,36.3L29.6,30.8C30.3,30.1,30.3,29.1,29.6,28.4L24.1,22.8zM17.4,22.8C16.7,22.2,15.7,22.2,15.0,22.8L9.4,28.4C8.8,29.1,8.8,30.1,9.4,30.8L15.0,36.3C15.7,37.0,16.7,37.0,17.4,36.3L17.5,36.2C18.0,35.5,18.0,34.6,17.4,34.0L13.0,29.6L17.4,25.2C18.0,24.5,18.0,23.5,17.4,22.8L17.4,22.8zM27.9,5.7L27.9,11.2L33.4,11.2L27.9,5.7z"/><g transform="translate(291.208661,1995.384419)" id="shape25"><text style="fill:#b3cc80;font-family:Microsoft YaHei,PingFang SC,Microsoft YaHei,Arial;font-size:13px" xml:space="preserve"><tspan x="34.2" y="19.0" textLength="51.6">tool-a.rs</tspan></text></g><path transform="translate(410.673661,1947.384719)" fill="#ffffff" id="shape26" fill-rule="nonzero" d="M26.2,.0C26.4,.0,26.5,.0,26.7,.1L26.7,.1C27.0,.1,27.2,.3,27.4,.5L38.6,11.7L38.6,11.7C38.6,11.7,38.7,11.7,38.7,11.8L38.6,11.7C38.8,11.9,39.0,12.3,39.1,12.6L39.1,12.8L39.1,44.1C39.1,46.3,37.3,48.0,35.2,48.0L3.9,48.0C1.8,48.0,.0,46.3,.0,44.1L.0,3.9C.0,1.7,1.7,.0,3.9,.0L26.2,.0zM24.1,22.8C23.4,22.2,22.4,22.2,21.7,22.8L21.5,23.0C21.0,23.7,21.1,24.6,21.7,25.2L26.1,29.6L21.7,34.0C21.0,34.6,21.0,35.7,21.7,36.3C22.4,37.0,23.4,37.0,24.1,36.3L29.6,30.8C30.3,30.1,30.3,29.1,29.6,28.4L24.1,22.8zM17.4,22.8C16.7,22.2,15.7,22.2,15.0,22.8L9.4,28.4C8.8,29.1,8.8,30.1,9.4,30.8L15.0,36.3C15.7,37.0,16.7,37.0,17.4,36.3L17.5,36.2C18.0,35.5,18.0,34.6,17.4,34.0L13.0,29.6L17.4,25.2C18.0,24.5,18.0,23.5,17.4,22.8L17.4,22.8zM27.9,5.7L27.9,11.2L33.4,11.2L27.9,5.7z"/><g transform="translate(370.208661,1995.384419)" id="shape27"><text style="fill:#b3cc80;font-family:Microsoft YaHei,PingFang SC,Microsoft YaHei,Arial;font-size:13px" xml:space="preserve"><tspan x="33.6" y="19.0" textLength="52.8">tool-b.rs</tspan></text></g></g></svg>