<!--Generated by EdrawMax, SVG Export crate(1).svg 页-2-->
<svg xmlns="http://www.w3.org/2000/svg" xmlns:xlink="http://www.w3.org/1999/xlink" viewBox="0 0 423 268" xmlns:ed="urn:edrawmax" height="268" width="423"><defs/><g transform="translate(-169.00,-1129.66)"><path transform="translate(205.120834,1228.346457)" fill="#ffcd55" id="shape1" fill-rule="nonzero" d="M26.3,21.4L26.3,22.9C26.3,23.1,26.1,23.2,25.9,23.2L22.1,23.2C21.9,23.2,21.8,23.1,21.8,22.9L21.8,21.4C21.8,21.2,21.9,21.0,22.1,21.0L25.9,21.0C26.1,21.0,26.3,21.2,26.3,21.4zM48.0,21.4L48.0,40.5C48.0,42.2,46.7,43.5,45.0,43.5L3.0,43.5C1.3,43.5,.0,42.2,.0,40.5L.0,21.4C.0,21.2,.2,21.0,.4,21.0L18.4,21.0C18.6,21.0,18.8,21.2,18.8,21.4L18.8,23.2C18.8,24.9,20.1,26.2,21.8,26.2L26.3,26.2C27.9,26.2,29.3,24.9,29.3,23.2L29.3,21.4C29.3,21.2,29.4,21.0,29.6,21.0L47.6,21.0C47.8,21.0,48.0,21.2,48.0,21.4zM42.0,6.0L34.9,6.0C34.7,6.0,34.5,5.9,34.5,5.7L34.5,4.5C34.5,2.0,32.5,.0,30.0,.0L18.0,.0C15.5,.0,13.5,2.0,13.5,4.5L13.5,5.7C13.5,5.9,13.3,6.0,13.1,6.0L6.0,6.0C2.7,6.0,.0,8.7,.0,12.0L.0,17.6C.0,17.8,.2,18.0,.4,18.0L47.6,18.0C47.8,18.0,48.0,17.8,48.0,17.6L48.0,12.0C48.0,8.7,45.3,6.0,42.0,6.0zM16.5,4.5C16.5,3.7,17.2,3.0,18.0,3.0L30.0,3.0C30.8,3.0,31.5,3.7,31.5,4.5L31.5,5.6C31.5,5.8,31.3,6.0,31.1,6.0L16.9,6.0C16.7,6.0,16.5,5.8,16.5,5.6L16.5,4.5z"/><g transform="translate(169.120834,1271.886457)" id="shape2"><text style="fill:#b3cc80;font-family:Microsoft YaHei,PingFang SC,Microsoft YaHei,Arial;font-size:13px" xml:space="preserve"><tspan x="14.9" y="19.0" textLength="90.1">包（Package）</tspan></text></g><path transform="translate(277.901508,1324.026757)" fill="#ffffff" id="shape3" fill-rule="nonzero" d="M33.1,12.7L21.7,1.1C21.4,.9,21.2,.7,20.9,.5L20.6,.4L20.6,.3C20.1,.1,19.5,.0,19.0,.0L3.9,.0C1.8,.0,.0,1.7,.0,3.9L.0,44.1C.0,46.3,1.8,48.0,3.9,48.0L30.4,48.0C31.4,48.0,32.4,47.6,33.2,46.9C33.9,46.2,34.3,45.2,34.3,44.1L34.3,15.5C34.3,14.4,33.9,13.4,33.1,12.7zM8.8,20.6L18.6,20.6C19.7,20.6,20.6,21.4,20.6,22.5C20.6,23.6,19.7,24.4,18.6,24.4L8.8,24.4C7.7,24.4,6.9,23.6,6.9,22.5C6.9,21.4,7.7,20.6,8.8,20.6zM22.1,38.1L8.8,38.1C7.7,38.1,6.9,37.3,6.9,36.2C6.9,35.2,7.7,34.3,8.8,34.3L22.1,34.3C23.1,34.3,24.0,35.2,24.0,36.2C24.0,37.3,23.1,38.1,22.1,38.1zM25.5,31.3L8.8,31.3C7.7,31.3,6.9,30.4,6.9,29.4C6.9,28.3,7.7,27.4,8.8,27.4L25.5,27.4C26.6,27.4,27.4,28.3,27.4,29.4C27.4,30.4,26.6,31.3,25.5,31.3zM20.9,13.3L20.9,5.9L28.3,13.3L20.9,13.3z"/><g transform="translate(235.041508,1372.026757)" id="shape4"><text style="fill:#b3cc80;font-family:Microsoft YaHei,PingFang SC,Microsoft YaHei,Arial;font-size:13px" xml:space="preserve"><tspan x="26.6" y="19.0" textLength="66.7">cargo.toml</tspan></text></g><path transform="matrix(0.000000,-1.000000,-1.000000,0.000000,501.298914,1324.026757)" fill="none" id="shape5" stroke="#ffcd55" stroke-width="2.6666700839996338" d="M.0,.0L6.0,.0C7.7,.0,10.0,-0.3,12.0,.1C13.4,.5,14.7,1.2,15.8,2.2C16.8,3.3,17.5,4.6,17.9,6.0C18.3,8.0,18.0,10.3,18.0,12.0L18.0,107.6C18.0,109.2,17.7,111.6,18.1,113.5C18.5,114.9,19.2,116.3,20.2,117.3C22.0,119.1,24.5,119.9,27.0,119.6C24.5,119.2,22.0,120.0,20.2,121.8C19.2,122.9,18.5,124.2,18.1,125.6C17.7,127.5,18.0,129.9,18.0,131.6L18.0,227.1C18.0,228.8,18.3,231.1,17.9,233.1C17.5,234.5,16.8,235.8,15.8,236.9C14.7,237.9,13.4,238.6,12.0,239.0C10.0,239.4,7.7,239.1,6.0,239.1L.0,239.1"/><g transform="translate(444.449107,1324.026757)" id="group6"><path transform="translate(8.837542,15.325438)" fill="#a5a5a5" id="shape7" fill-rule="nonzero" d="M.0,.0L.0,1.2L1.2,1.2L1.2,.0L.0,.0zM.0,2.4L.0,3.6L1.2,3.6L1.2,2.4L.0,2.4zM.0,4.9L.0,6.1L1.2,6.1L1.2,4.9L.0,4.9zM.0,7.3L.0,8.5L1.2,8.5L1.2,7.3L.0,7.3zM.0,9.7L.0,10.9L1.2,10.9L1.2,9.7L.0,9.7zM.0,12.2L.0,13.4L1.2,13.4L1.2,12.2L.0,12.2zM.0,14.6L.0,15.8L1.2,15.8L1.2,14.6L.0,14.6zM.0,17.0L.0,18.2L1.2,18.2L1.2,17.0L.0,17.0zM.0,19.4L.0,20.7L1.2,20.7L1.2,19.4L.0,19.4zM.0,21.9L.0,23.1L1.2,23.1L1.2,21.9L.0,21.9zM.0,24.3L.0,25.5L1.2,25.5L1.2,24.3L.0,24.3zM2.4,4.9L2.4,6.1L3.6,6.1L3.6,4.9L2.4,4.9zM4.8,4.9L4.8,6.1L6.0,6.1L6.0,4.9L4.8,4.9zM2.4,24.3L2.4,25.5L3.6,25.5L3.6,24.3L2.4,24.3zM4.8,24.3L4.8,25.5L6.0,25.5L6.0,24.3L4.8,24.3zM7.2,24.3L7.2,25.5L8.4,25.5L8.4,24.3L7.2,24.3zM9.6,24.3L9.6,25.5L10.8,25.5L10.8,24.3L9.6,24.3zM12.0,24.3L12.0,25.5L13.2,25.5L13.2,24.3L12.0,24.3zM7.2,4.9L7.2,6.1L8.4,6.1L8.4,4.9L7.2,4.9zM9.6,4.9L9.6,6.1L10.8,6.1L10.8,4.9L9.6,4.9zM12.0,4.9L12.0,6.1L13.2,6.1L13.2,4.9L12.0,4.9zM14.4,4.9L14.4,6.1L15.6,6.1L15.6,4.9L14.4,4.9zM14.4,24.3L14.4,25.5L15.6,25.5L15.6,24.3L14.4,24.3zM16.8,24.3L16.8,25.5L17.9,25.5L17.9,24.3L16.8,24.3zM16.8,4.9L16.8,6.1L17.9,6.1L17.9,4.9L16.8,4.9zM19.1,4.9L19.1,6.1L20.3,6.1L20.3,4.9L19.1,4.9zM19.1,24.3L19.1,25.5L20.3,25.5L20.3,24.3L19.1,24.3z"/><g transform="translate(-0.000000,0.000668)" id="group8"><path fill="#ffcd55" id="shape9" stroke="#ffcd55" fill-rule="nonzero" stroke-width="1" d="M19.0,3.5L19.0,15.4L.0,15.4L.0,1.4C.0,1.4,.0,-0.0,1.6,.0C1.6,.0,6.3,.0,6.3,.0L8.1,1.7L17.4,1.7C17.4,1.7,19.0,1.6,19.0,3.5z"/><path transform="translate(0.308317,3.131671)" fill="#ffe29b" id="shape10" stroke="#ffe29b" fill-rule="nonzero" stroke-width="1" d="M.9,.0L17.4,.0C17.9,.0,18.3,.4,18.3,.9L18.3,12.0L.0,12.0L.0,.9C.0,.4,.4,.0,.9,.0z"/></g><g transform="translate(29.035567,13.096427)" id="group11"><path fill="#ffcd55" id="shape12" stroke="#ffcd55" fill-rule="nonzero" stroke-width="1" d="M19.0,3.5L19.0,15.4L.0,15.4L.0,1.4C.0,1.4,.0,-0.0,1.6,.0C1.6,.0,6.3,.0,6.3,.0L8.1,1.7L17.4,1.7C17.4,1.7,19.0,1.6,19.0,3.5z"/><path transform="translate(0.308317,3.131671)" fill="#ffe29b" id="shape13" stroke="#ffe29b" fill-rule="nonzero" stroke-width="1" d="M.9,.0L17.4,.0C17.9,.0,18.3,.4,18.3,.9L18.3,12.0L.0,12.0L.0,.9C.0,.4,.4,.0,.9,.0z"/></g><g transform="translate(29.035567,32.631630)" id="group14"><path fill="#ffcd55" id="shape15" stroke="#ffcd55" fill-rule="nonzero" stroke-width="1" d="M19.0,3.5L19.0,15.4L.0,15.4L.0,1.4C.0,1.4,.0,-0.0,1.6,.0C1.6,.0,6.3,.0,6.3,.0L8.1,1.7L17.4,1.7C17.4,1.7,19.0,1.6,19.0,3.5z"/><path transform="translate(0.308317,3.131671)" fill="#ffe29b" id="shape16" stroke="#ffe29b" fill-rule="nonzero" stroke-width="1" d="M.9,.0L17.4,.0C17.9,.0,18.3,.4,18.3,.9L18.3,12.0L.0,12.0L.0,.9C.0,.4,.4,.0,.9,.0z"/></g></g><g transform="translate(408.449107,1372.026757)" id="shape17"><text style="fill:#b3cc80;font-family:Microsoft YaHei,PingFang SC,Microsoft YaHei,Arial;font-size:13px" xml:space="preserve"><tspan x="33.7" y="19.0" textLength="52.7">src/ 源码</tspan></text></g><g transform="translate(360.449107,1324.026757)" id="group18"><path fill="#0078d7" id="shape20" fill-rule="nonzero" d="M47.1,22.0L26.1,.9C25.0,-0.3,23.1,-0.3,22.0,.9L17.4,5.4L22.8,10.8C23.2,10.7,23.7,10.6,24.1,10.6C26.1,10.6,27.8,12.3,27.8,14.3C27.8,14.8,27.7,15.2,27.6,15.6L32.9,20.9C33.3,20.8,33.7,20.7,34.2,20.7C36.2,20.7,37.9,22.3,37.9,24.4C37.9,26.4,36.2,28.0,34.2,28.0C32.2,28.0,30.5,26.4,30.5,24.4C30.5,23.9,30.6,23.4,30.8,23.1L25.8,18.1L25.8,31.1C27.0,31.7,27.8,33.0,27.8,34.3C27.8,36.3,26.1,38.0,24.1,38.0C22.1,38.0,20.5,36.3,20.5,34.3C20.5,32.8,21.4,31.5,22.8,30.9L22.8,17.6C21.4,17.1,20.5,15.7,20.5,14.2C20.5,13.7,20.6,13.2,20.7,12.9L15.2,7.4L.9,22.0C-0.3,23.2,-0.3,25.1,.9,26.1L21.9,47.1C23.1,48.3,25.0,48.3,26.0,47.1L47.0,26.1C48.3,24.9,48.3,23.1,47.1,22.0z"/></g><g transform="translate(324.449107,1372.026757)" id="shape21"><text style="fill:#b3cc80;font-family:Microsoft YaHei,PingFang SC,Microsoft YaHei,Arial;font-size:13px" xml:space="preserve"><tspan x="30.1" y="19.0" textLength="59.9">.gitignore</tspan></text></g><path transform="translate(357.745307,1228.346457)" fill="#ffcd55" id="shape22" fill-rule="nonzero" d="M26.3,21.4L26.3,22.9C26.3,23.1,26.1,23.2,25.9,23.2L22.1,23.2C21.9,23.2,21.8,23.1,21.8,22.9L21.8,21.4C21.8,21.2,21.9,21.0,22.1,21.0L25.9,21.0C26.1,21.0,26.3,21.2,26.3,21.4zM48.0,21.4L48.0,40.5C48.0,42.2,46.7,43.5,45.0,43.5L3.0,43.5C1.3,43.5,.0,42.2,.0,40.5L.0,21.4C.0,21.2,.2,21.0,.4,21.0L18.4,21.0C18.6,21.0,18.8,21.2,18.8,21.4L18.8,23.2C18.8,24.9,20.1,26.2,21.8,26.2L26.3,26.2C27.9,26.2,29.3,24.9,29.3,23.2L29.3,21.4C29.3,21.2,29.4,21.0,29.6,21.0L47.6,21.0C47.8,21.0,48.0,21.2,48.0,21.4zM42.0,6.0L34.9,6.0C34.7,6.0,34.5,5.9,34.5,5.7L34.5,4.5C34.5,2.0,32.5,.0,30.0,.0L18.0,.0C15.5,.0,13.5,2.0,13.5,4.5L13.5,5.7C13.5,5.9,13.3,6.0,13.1,6.0L6.0,6.0C2.7,6.0,.0,8.7,.0,12.0L.0,17.6C.0,17.8,.2,18.0,.4,18.0L47.6,18.0C47.8,18.0,48.0,17.8,48.0,17.6L48.0,12.0C48.0,8.7,45.3,6.0,42.0,6.0zM16.5,4.5C16.5,3.7,17.2,3.0,18.0,3.0L30.0,3.0C30.8,3.0,31.5,3.7,31.5,4.5L31.5,5.6C31.5,5.8,31.3,6.0,31.1,6.0L16.9,6.0C16.7,6.0,16.5,5.8,16.5,5.6L16.5,4.5z"/><g transform="translate(321.745307,1271.886157)" id="shape23"><text style="fill:#b3cc80;font-family:Microsoft YaHei,PingFang SC,Microsoft YaHei,Arial;font-size:13px" xml:space="preserve"><tspan x="14.9" y="19.0" textLength="90.1">包（Package）</tspan></text></g><path transform="translate(507.509087,1228.346457)" fill="#ffcd55" id="shape24" fill-rule="nonzero" d="M26.3,21.4L26.3,22.9C26.3,23.1,26.1,23.2,25.9,23.2L22.1,23.2C21.9,23.2,21.8,23.1,21.8,22.9L21.8,21.4C21.8,21.2,21.9,21.0,22.1,21.0L25.9,21.0C26.1,21.0,26.3,21.2,26.3,21.4zM48.0,21.4L48.0,40.5C48.0,42.2,46.7,43.5,45.0,43.5L3.0,43.5C1.3,43.5,.0,42.2,.0,40.5L.0,21.4C.0,21.2,.2,21.0,.4,21.0L18.4,21.0C18.6,21.0,18.8,21.2,18.8,21.4L18.8,23.2C18.8,24.9,20.1,26.2,21.8,26.2L26.3,26.2C27.9,26.2,29.3,24.9,29.3,23.2L29.3,21.4C29.3,21.2,29.4,21.0,29.6,21.0L47.6,21.0C47.8,21.0,48.0,21.2,48.0,21.4zM42.0,6.0L34.9,6.0C34.7,6.0,34.5,5.9,34.5,5.7L34.5,4.5C34.5,2.0,32.5,.0,30.0,.0L18.0,.0C15.5,.0,13.5,2.0,13.5,4.5L13.5,5.7C13.5,5.9,13.3,6.0,13.1,6.0L6.0,6.0C2.7,6.0,.0,8.7,.0,12.0L.0,17.6C.0,17.8,.2,18.0,.4,18.0L47.6,18.0C47.8,18.0,48.0,17.8,48.0,17.6L48.0,12.0C48.0,8.7,45.3,6.0,42.0,6.0zM16.5,4.5C16.5,3.7,17.2,3.0,18.0,3.0L30.0,3.0C30.8,3.0,31.5,3.7,31.5,4.5L31.5,5.6C31.5,5.8,31.3,6.0,31.1,6.0L16.9,6.0C16.7,6.0,16.5,5.8,16.5,5.6L16.5,4.5z"/><g transform="translate(471.509087,1271.886157)" id="shape25"><text style="fill:#b3cc80;font-family:Microsoft YaHei,PingFang SC,Microsoft YaHei,Arial;font-size:13px" xml:space="preserve"><tspan x="14.9" y="19.0" textLength="90.1">包（Package）</tspan></text></g><path transform="matrix(0.000000,-1.000000,-1.000000,0.000000,576.377953,1228.346457)" fill="none" id="shape26" stroke="#ffcd55" stroke-width="2.6666700839996338" d="M.0,.0L6.0,.0C7.7,.0,10.0,-0.3,12.0,.1C13.4,.5,14.7,1.2,15.8,2.2C16.8,3.3,17.5,4.6,17.9,6.0C18.3,8.0,18.0,10.3,18.0,12.0L18.0,184.1C18.0,185.7,17.7,188.1,18.1,190.0C18.5,191.5,19.2,192.8,20.2,193.8C22.0,195.6,24.5,196.4,27.0,196.1C24.5,195.7,22.0,196.5,20.2,198.3C19.2,199.4,18.5,200.7,18.1,202.1C17.7,204.0,18.0,206.4,18.0,208.1L18.0,380.1C18.0,381.8,18.3,384.1,17.9,386.1C17.5,387.5,16.8,388.8,15.8,389.9C14.7,390.9,13.4,391.6,12.0,392.0C10.0,392.5,7.7,392.1,6.0,392.1L.0,392.1"/><path transform="translate(356.656555,1129.663543)" fill="#98bc25" id="shape27" fill-rule="nonzero" d="M39.3,8.4C39.7,8.7,40.0,9.0,40.1,9.5L47.9,37.2C48.2,38.2,47.6,39.2,46.7,39.5L38.1,41.9C37.6,42.1,37.1,42.0,36.7,41.8C36.3,41.5,35.9,41.1,35.8,40.7L28.0,13.0C27.7,12.0,28.3,11.0,29.3,10.7L37.9,8.3C38.3,8.1,38.8,8.2,39.3,8.4L39.3,8.4zM10.3,9.0C11.3,9.0,12.1,9.8,12.1,10.8L12.1,39.6C12.1,40.6,11.3,41.4,10.3,41.4L1.8,41.4C1.3,41.4,.9,41.2,.5,40.9C.2,40.5,.0,40.1,.0,39.6L.0,10.8C.0,9.8,.8,9.0,1.8,9.0L10.3,9.0zM24.9,.0C26.0,.0,26.8,.8,26.8,1.8L26.8,39.6C26.8,40.6,26.0,41.4,24.9,41.4L16.2,41.4C15.8,41.4,15.3,41.2,15.0,40.9C14.6,40.5,14.4,40.1,14.4,39.6L14.4,1.8C14.4,.8,15.2,.0,16.2,.0L24.9,.0zM38.6,15.7L32.5,17.5C32.1,17.6,31.9,18.1,32.0,18.5L32.5,20.4C32.6,20.6,32.7,20.8,32.9,20.9C33.1,21.0,33.3,21.1,33.5,21.0L39.6,19.2C40.1,19.1,40.3,18.7,40.2,18.2L39.7,16.3C39.6,16.1,39.5,15.9,39.3,15.8C39.1,15.7,38.9,15.7,38.6,15.7zM9.2,16.6L2.9,16.6C2.6,16.5,2.4,16.6,2.3,16.8C2.1,16.9,2.0,17.2,2.0,17.4L2.0,19.4C2.0,19.8,2.4,20.2,2.9,20.2L9.2,20.2C9.6,20.2,10.0,19.8,10.0,19.4L10.0,17.4C10.0,17.2,9.9,17.0,9.8,16.8C9.6,16.6,9.4,16.6,9.2,16.6L9.2,16.6zM23.8,6.4L17.5,6.4C17.2,6.4,17.0,6.4,16.9,6.6C16.7,6.8,16.6,7.0,16.6,7.2L16.6,9.2C16.6,9.6,17.0,10.0,17.5,10.0L23.8,10.0C24.2,10.0,24.6,9.6,24.6,9.2L24.6,7.2C24.6,6.7,24.2,6.4,23.8,6.4L23.8,6.4z"/><g transform="translate(320.656555,1171.653543)" id="shape28"><text style="fill:#b3cc80;font-family:Microsoft YaHei,PingFang SC,Microsoft YaHei,Arial;font-size:13px" xml:space="preserve"><tspan x="47.0" y="19.0" textLength="26.0">项目</tspan></text></g></g></svg>