<!--Generated by EdrawMax, SVG Export rust-learning-curve.svg 页-1-->
<svg xmlns:ed="https://www.edrawsoft.cn/xml/2017/SVGExtensions/" width="810" xmlns="http://www.w3.org/2000/svg" xmlns:xlink="http://www.w3.org/1999/xlink" height="306" viewBox="0 0 810 306"><defs><marker id="edrawArrow_4_2.66667" markerHeight="13.79796524917224" orient="auto-start-reverse" ed:arrow="4" refY="5.89898262458612" markerUnits="userSpaceOnUse" refX="1" markerWidth="13.79796524917224"><path stroke-linecap="round" stroke="context-stroke" fill="context-stroke" stroke-width="1" d="M1.0,1.0L10.8,5.9L1.0,10.8L1.0,1.0"/></marker></defs><g transform="translate(-156.02,-314.59)"><g id="shape1" transform="translate(180.945029,594.803064)"><path stroke="#b7b6b4" marker-end="url(#edrawArrow_4_2.66667)" stroke-width="2.666670083999634" fill="none" d="M.0,.0L.0,-244.8"/></g><g id="shape2" transform="translate(180.945029,594.212286)"><path stroke="#b7b6b4" marker-end="url(#edrawArrow_4_2.66667)" stroke-width="2.666670083999634" fill="none" d="M.0,.0L726.3,-0.1"/></g><g id="shape3" transform="translate(156.378100,315.016855)"><text style="fill:#b7b6b4;font-family:Microsoft YaHei,PingFang SC,Microsoft YaHei,Arial;font-size:13px;font-weight:bold" xml:space="preserve"><tspan textLength="26.0" y="19.0" x="11.6">难度</tspan></text></g><g id="shape4" transform="translate(917.008000,581.575126)"><text style="fill:#b7b6b4;font-family:Microsoft YaHei,PingFang SC,Microsoft YaHei,Arial;font-size:13px;font-weight:bold" xml:space="preserve"><tspan textLength="26.0" y="19.0" x="11.6">时间</tspan></text></g><g id="shape5" transform="translate(183.307066,595.275591)"><text style="fill:#b7b6b4;font-family:Microsoft YaHei,PingFang SC,Microsoft YaHei,Arial;font-size:13px" xml:space="preserve"><tspan textLength="26.0" y="19.0" x="11.6">入门</tspan></text></g><g id="shape6" transform="translate(843.779486,595.275591)"><text style="fill:#b7b6b4;font-family:Microsoft YaHei,PingFang SC,Microsoft YaHei,Arial;font-size:13px" xml:space="preserve"><tspan textLength="26.0" y="19.0" x="11.6">精通</tspan></text></g><g id="shape7" transform="translate(513.543276,595.275591)"><text style="fill:#b7b6b4;font-family:Microsoft YaHei,PingFang SC,Microsoft YaHei,Arial;font-size:13px" xml:space="preserve"><tspan textLength="26.0" y="19.0" x="11.6">熟练</tspan></text></g><path stroke="#f78181" id="shape8" stroke-width="2.666670083999634" fill="none" d="M.0,.0C21.7,-116.2,43.5,-232.4,95.9,-239.3C148.4,-246.2,231.5,-143.9,343.3,-91.2C455.0,-38.5,595.3,-35.6,735.6,-32.6" transform="translate(180.945029,594.803064)"/></g></svg>