<!--Generated by EdrawMax, SVG Export safety_vs_speed.svg 安全与运行速度-->
<svg viewBox="0 0 478 289" xmlns:xlink="http://www.w3.org/1999/xlink" width="478" height="289" xmlns="http://www.w3.org/2000/svg" xmlns:ed="https://www.edrawsoft.cn/xml/2017/SVGExtensions/"><defs><marker markerWidth="13.79796524917224" markerUnits="userSpaceOnUse" markerHeight="13.79796524917224" refY="5.89898262458612" id="edrawArrow_4_2.66667" refX="1" orient="auto-start-reverse" ed:arrow="4"><path fill="context-stroke" d="M1.0,1.0L10.8,5.9L1.0,10.8L1.0,1.0" stroke-linecap="round" stroke="context-stroke" stroke-width="1"/></marker><linearGradient x1="0%" y2="0%" id="lg1" x2="100%" y1="0%"><stop stop-color="#d7e9d0" offset="0.00" stop-opacity="0.20"/><stop stop-color="#80c150" offset="1.00"/></linearGradient></defs><g transform="translate(-116.00,-60.08)"><g id="shape1" transform="translate(129.527515,245.669304)"><path fill-rule="nonzero" fill="#232322" d="M132.3,53.0L132.3,7.0C132.3,3.1,129.1,.0,125.3,.0L7.0,.0C3.1,.0,.0,3.1,.0,7.0L.0,53.0C.0,56.9,3.1,60.0,7.0,60.0L125.3,60.0C129.1,60.0,132.3,56.9,132.3,53.0z" stroke="#f9a5a5" stroke-width="2.666670083999634"/><text xml:space="preserve" style="fill:#ffffff;font-family:Microsoft YaHei,PingFang SC,Microsoft YaHei,Arial;font-size:13px"><tspan x="45.0" textLength="42.2" y="36.0">C/C++</tspan></text></g><g id="shape2" transform="translate(448.173471,245.669291)"><path fill-rule="nonzero" fill="#232322" d="M132.3,53.0L132.3,7.0C132.3,3.1,129.1,.0,125.3,.0L7.0,.0C3.1,.0,.0,3.1,.0,7.0L.0,53.0C.0,56.9,3.1,60.0,7.0,60.0L125.3,60.0C129.1,60.0,132.3,56.9,132.3,53.0z" stroke="#f9a5a5" stroke-width="2.666670083999634"/><text xml:space="preserve" style="fill:#ffffff;font-family:Microsoft YaHei,PingFang SC,Microsoft YaHei,Arial;font-size:13px"><tspan x="16.5" textLength="99.2" y="36.0">Python/Java/Go</tspan></text></g><g id="shape3" transform="translate(116.007791,305.669291)"><text xml:space="preserve" style="fill:#f78181;font-family:Microsoft YaHei,PingFang SC,Microsoft YaHei,Arial;font-size:13px"><tspan x="14.7" textLength="130.0" y="19.0">运行快，但内存不安全</tspan></text></g><g id="shape4" transform="translate(434.653704,305.669304)"><text xml:space="preserve" style="fill:#f78181;font-family:Microsoft YaHei,PingFang SC,Microsoft YaHei,Arial;font-size:13px"><tspan x="21.2" textLength="117.0" y="19.0">内存安全，但运行慢</tspan></text></g><g id="shape5" transform="translate(288.850747,61.417323)"><path fill-rule="nonzero" fill="#232322" d="M132.3,53.0L132.3,7.0C132.3,3.1,129.1,.0,125.3,.0L7.0,.0C3.1,.0,.0,3.1,.0,7.0L.0,53.0C.0,56.9,3.1,60.0,7.0,60.0L125.3,60.0C129.1,60.0,132.3,56.9,132.3,53.0z" stroke="#b3cc80" stroke-width="2.666670083999634"/><text xml:space="preserve" style="fill:#ffffff;font-family:Microsoft YaHei,PingFang SC,Microsoft YaHei,Arial;font-size:13px"><tspan x="52.5" textLength="27.3" y="36.0">Rust</tspan></text></g><g id="shape6" transform="translate(275.330747,121.417323)"><text xml:space="preserve" style="fill:#98bc25;font-family:Microsoft YaHei,PingFang SC,Microsoft YaHei,Arial;font-size:13px"><tspan x="21.2" textLength="117.0" y="19.0">内存安全，且运行快</tspan></text></g><path fill-rule="nonzero" fill="#98bc25" d="M18.5,29.0L46.5,.0L51.3,5.0L18.5,39.0L.0,19.8L4.8,14.8L18.5,29.0z" id="shape7" transform="translate(396.850394,61.417323)" stroke="#98bc25" stroke-width="0.3333329856395721"/><g id="shape8" transform="translate(261.810980,275.669304)"><path marker-end="url(#edrawArrow_4_2.66667)" marker-start="url(#edrawArrow_4_2.66667)" fill="none" d="M9.8,.0L176.6,-0.0" stroke="#ffffff" stroke-width="2.666670083999634"/></g><g id="shape9" transform="translate(275.330791,288.669291)"><text xml:space="preserve" style="fill:#ffffff;font-family:Microsoft YaHei,PingFang SC,Microsoft YaHei,Arial;font-size:19px"><tspan x="13.2" textLength="133.0" y="26.0">安全与运行速度</tspan><tspan x="22.7" textLength="114.0" y="52.0">二者不可兼得</tspan></text></g><path fill-rule="nonzero" fill="url(#lg1)" d="M.0,17.3L67.8,17.3L67.8,.0L104.3,24.0L67.8,48.0L67.8,30.7L.0,30.7L.0,17.3z" id="shape10" transform="matrix(0.000000,-1.000000,1.000000,0.000000,330.992308,256.222237)"/></g></svg>