<!--Generated by EdrawMax, SVG Export slice.svg 页-3-->
<svg viewBox="0 0 933 293" xmlns:xlink="http://www.w3.org/1999/xlink" width="933" height="293" xmlns="http://www.w3.org/2000/svg" xmlns:ed="https://www.edrawsoft.cn/xml/2017/SVGExtensions/"><defs><marker markerWidth="13.79796524917224" markerUnits="userSpaceOnUse" markerHeight="13.79796524917224" refY="5.89898262458612" id="edrawArrow_4_2.66667" refX="1" orient="auto-start-reverse" ed:arrow="4"><path fill="context-stroke" d="M1.0,1.0L10.8,5.9L1.0,10.8L1.0,1.0" stroke-linecap="round" stroke="context-stroke" stroke-width="1"/></marker></defs><g transform="translate(-75.59,-168.45)"><g id="shape1" transform="translate(243.838740,358.850500)"><path fill-rule="nonzero" fill="#232322" d="M77.4,72.8C79.7,70.6,81.2,67.5,81.2,64.0L81.2,21.0C81.2,16.0,82.1,8.2,78.0,3.8C75.8,1.5,72.7,.0,69.2,.0L21.0,.0C16.0,.0,8.2,-0.9,3.8,3.2C1.5,5.4,.0,8.5,.0,12.0L.0,55.0C.0,60.0,-0.9,67.8,3.2,72.2C5.4,74.5,8.5,76.0,12.0,76.0L60.2,76.0C65.2,76.0,73.0,76.9,77.4,72.8z" stroke="#b7b6b4" stroke-width="2.666670083999634"/><text xml:space="preserve" style="fill:#ffffff;font-family:Microsoft YaHei,PingFang SC,Microsoft YaHei,Arial;font-size:32px"><tspan x="21.8" textLength="37.5" y="51.5">10</tspan></text></g><g id="shape2" transform="translate(354.567074,358.850500)"><path fill-rule="nonzero" fill="#232322" d="M77.4,72.8C79.7,70.6,81.2,67.5,81.2,64.0L81.2,21.0C81.2,16.0,82.1,8.2,78.0,3.8C75.8,1.5,72.7,.0,69.2,.0L21.0,.0C16.0,.0,8.2,-0.9,3.8,3.2C1.5,5.4,.0,8.5,.0,12.0L.0,55.0C.0,60.0,-0.9,67.8,3.2,72.2C5.4,74.5,8.5,76.0,12.0,76.0L60.2,76.0C65.2,76.0,73.0,76.9,77.4,72.8z" stroke="#f9a5a5" stroke-width="2.666670083999634"/><text xml:space="preserve" style="fill:#f78181;font-family:Microsoft YaHei,PingFang SC,Microsoft YaHei,Arial;font-size:32px"><tspan x="21.8" textLength="37.5" y="51.5">20</tspan></text></g><g id="shape3" transform="translate(465.295420,358.850500)"><path fill-rule="nonzero" fill="#232322" d="M77.4,72.8C79.7,70.6,81.2,67.5,81.2,64.0L81.2,21.0C81.2,16.0,82.1,8.2,78.0,3.8C75.8,1.5,72.7,.0,69.2,.0L21.0,.0C16.0,.0,8.2,-0.9,3.8,3.2C1.5,5.4,.0,8.5,.0,12.0L.0,55.0C.0,60.0,-0.9,67.8,3.2,72.2C5.4,74.5,8.5,76.0,12.0,76.0L60.2,76.0C65.2,76.0,73.0,76.9,77.4,72.8z" stroke="#f9a5a5" stroke-width="2.666670083999634"/><text xml:space="preserve" style="fill:#f78181;font-family:Microsoft YaHei,PingFang SC,Microsoft YaHei,Arial;font-size:32px"><tspan x="21.8" textLength="37.5" y="51.5">30</tspan></text></g><g id="shape4" transform="translate(576.023767,358.850500)"><path fill-rule="nonzero" fill="#232322" d="M77.4,72.8C79.7,70.6,81.2,67.5,81.2,64.0L81.2,21.0C81.2,16.0,82.1,8.2,78.0,3.8C75.8,1.5,72.7,.0,69.2,.0L21.0,.0C16.0,.0,8.2,-0.9,3.8,3.2C1.5,5.4,.0,8.5,.0,12.0L.0,55.0C.0,60.0,-0.9,67.8,3.2,72.2C5.4,74.5,8.5,76.0,12.0,76.0L60.2,76.0C65.2,76.0,73.0,76.9,77.4,72.8z" stroke="#f9a5a5" stroke-width="2.666670083999634"/><text xml:space="preserve" style="fill:#f78181;font-family:Microsoft YaHei,PingFang SC,Microsoft YaHei,Arial;font-size:32px"><tspan x="21.8" textLength="37.5" y="51.5">40</tspan></text></g><g id="shape5" transform="translate(686.752113,358.850500)"><path fill-rule="nonzero" fill="#232322" d="M77.4,72.8C79.7,70.6,81.2,67.5,81.2,64.0L81.2,21.0C81.2,16.0,82.1,8.2,78.0,3.8C75.8,1.5,72.7,.0,69.2,.0L21.0,.0C16.0,.0,8.2,-0.9,3.8,3.2C1.5,5.4,.0,8.5,.0,12.0L.0,55.0C.0,60.0,-0.9,67.8,3.2,72.2C5.4,74.5,8.5,76.0,12.0,76.0L60.2,76.0C65.2,76.0,73.0,76.9,77.4,72.8z" stroke="#b7b6b4" stroke-width="2.666670083999634"/><text xml:space="preserve" style="fill:#ffffff;font-family:Microsoft YaHei,PingFang SC,Microsoft YaHei,Arial;font-size:32px"><tspan x="21.8" textLength="37.5" y="51.5">50</tspan></text></g><g id="shape6" transform="translate(797.480460,358.850500)"><path fill-rule="nonzero" fill="#232322" d="M77.4,72.8C79.7,70.6,81.2,67.5,81.2,64.0L81.2,21.0C81.2,16.0,82.1,8.2,78.0,3.8C75.8,1.5,72.7,.0,69.2,.0L21.0,.0C16.0,.0,8.2,-0.9,3.8,3.2C1.5,5.4,.0,8.5,.0,12.0L.0,55.0C.0,60.0,-0.9,67.8,3.2,72.2C5.4,74.5,8.5,76.0,12.0,76.0L60.2,76.0C65.2,76.0,73.0,76.9,77.4,72.8z" stroke="#b7b6b4" stroke-width="2.666670083999634"/><text xml:space="preserve" style="fill:#ffffff;font-family:Microsoft YaHei,PingFang SC,Microsoft YaHei,Arial;font-size:32px"><tspan x="21.8" textLength="37.5" y="51.5">60</tspan></text></g><g id="shape7" transform="translate(243.838740,169.783465)"><path fill-rule="nonzero" fill="#232322" d="M188.1,72.8C190.5,70.6,191.9,67.5,191.9,64.0L191.9,21.0C191.9,16.0,192.8,8.2,188.7,3.8C186.5,1.5,183.4,.0,179.9,.0L21.0,.0C16.0,.0,8.2,-0.9,3.8,3.2C1.5,5.4,.0,8.5,.0,12.0L.0,55.0C.0,60.0,-0.9,67.8,3.2,72.2C5.4,74.5,8.5,76.0,12.0,76.0L170.9,76.0C175.9,76.0,183.7,76.9,188.1,72.8z" stroke="#93c8f4" stroke-width="2.666670083999634"/><text xml:space="preserve" style="fill:#ffffff;font-family:Microsoft YaHei,PingFang SC,Microsoft YaHei,Arial;font-size:19px"><tspan x="34.8" textLength="122.3" y="47.0">指针：0x1004</tspan></text></g><g id="shape8" transform="translate(435.767874,169.783465)"><path fill-rule="nonzero" fill="#232322" d="M195.7,72.8C198.1,70.6,199.5,67.5,199.5,64.0L199.5,21.0C199.5,16.0,200.5,8.2,196.3,3.8C194.1,1.5,191.0,.0,187.5,.0L21.0,.0C16.0,.0,8.2,-0.9,3.8,3.2C1.5,5.4,.0,8.5,.0,12.0L.0,55.0C.0,60.0,-0.9,67.8,3.2,72.2C5.4,74.5,8.5,76.0,12.0,76.0L178.5,76.0C183.5,76.0,191.3,76.9,195.7,72.8z" stroke="#ffd88f" stroke-width="2.666670083999634"/><text xml:space="preserve" style="fill:#ffffff;font-family:Microsoft YaHei,PingFang SC,Microsoft YaHei,Arial;font-size:19px"><tspan x="65.7" textLength="68.1" y="47.0">长度：3</tspan></text></g><g id="shape9" transform="translate(339.803307,245.783465)"><path marker-end="url(#edrawArrow_4_2.66667)" fill="none" d="M.0,.0L13.8,141.3" stroke="#93c8f4" stroke-width="2.666670083999634"/></g><path fill="none" d="M.0,.0L6.0,.0C7.7,.0,10.0,-0.3,12.0,.1C13.4,.5,14.7,1.2,15.8,2.2C16.8,3.3,17.5,4.6,17.9,6.0C18.3,8.0,18.0,10.3,18.0,12.0L18.0,139.5C18.0,141.2,17.7,143.5,18.1,145.5C18.5,146.9,19.2,148.2,20.2,149.2C22.0,151.0,24.5,151.8,27.0,151.5C24.5,151.1,22.0,152.0,20.2,153.7C19.2,154.8,18.5,156.1,18.1,157.5C17.7,159.5,18.0,161.8,18.0,163.5L18.0,291.0C18.0,292.6,18.3,295.0,17.9,297.0C17.5,298.4,16.8,299.7,15.8,300.7C14.7,301.8,13.4,302.5,12.0,302.9C10.0,303.3,7.7,303.0,6.0,303.0L.0,303.0" id="shape10" transform="matrix(0.000000,-1.000000,-1.000000,0.000000,657.144536,352.039370)" stroke="#ffd88f" stroke-width="2.666670083999634"/><g id="shape11" transform="translate(535.541575,245.783465)"><path marker-end="url(#edrawArrow_4_2.66667)" fill="none" d="M.0,.0L-25.7,62.6" stroke="#ffd88f" stroke-width="2.666670083999634"/></g><g id="shape12" transform="translate(103.937008,182.213152)"><text xml:space="preserve" style="fill:#b3cc80;font-family:Microsoft YaHei,PingFang SC,Microsoft YaHei,Arial;font-size:32px"><tspan x="12.0" textLength="96.0" y="39.0">切片：</tspan></text></g><g id="shape13" transform="translate(75.590551,371.280200)"><text xml:space="preserve" style="fill:#b3cc80;font-family:Microsoft YaHei,PingFang SC,Microsoft YaHei,Arial;font-size:32px"><tspan x="10.2" textLength="128.0" y="39.0">原数组：</tspan></text></g><g id="shape14" transform="translate(908.208806,358.850500)"><path fill-rule="nonzero" fill="#232322" d="M77.4,72.8C79.7,70.6,81.2,67.5,81.2,64.0L81.2,21.0C81.2,16.0,82.1,8.2,78.0,3.8C75.8,1.5,72.7,.0,69.2,.0L21.0,.0C16.0,.0,8.2,-0.9,3.8,3.2C1.5,5.4,.0,8.5,.0,12.0L.0,55.0C.0,60.0,-0.9,67.8,3.2,72.2C5.4,74.5,8.5,76.0,12.0,76.0L60.2,76.0C65.2,76.0,73.0,76.9,77.4,72.8z" stroke="#b7b6b4" stroke-width="2.666670083999634"/><text xml:space="preserve" style="fill:#ffffff;font-family:Microsoft YaHei,PingFang SC,Microsoft YaHei,Arial;font-size:32px"><tspan x="29.0" textLength="23.1" y="51.5">...</tspan></text></g><g id="shape15" transform="translate(224.439134,434.850500)"><text xml:space="preserve" style="fill:#5fb7f1;font-family:Microsoft YaHei,PingFang SC,Microsoft YaHei,Arial;font-size:13px"><tspan x="37.7" textLength="44.6" y="19.0">0x1000</tspan></text></g><g id="shape16" transform="translate(335.167474,434.850513)"><text xml:space="preserve" style="fill:#5fb7f1;font-family:Microsoft YaHei,PingFang SC,Microsoft YaHei,Arial;font-size:13px"><tspan x="37.7" textLength="44.6" y="19.0">0x1004</tspan></text></g><g id="shape17" transform="translate(445.649191,434.850500)"><text xml:space="preserve" style="fill:#5fb7f1;font-family:Microsoft YaHei,PingFang SC,Microsoft YaHei,Arial;font-size:13px"><tspan x="37.7" textLength="44.6" y="19.0">0x1008</tspan></text></g><g id="shape18" transform="translate(556.624167,434.850513)"><text xml:space="preserve" style="fill:#5fb7f1;font-family:Microsoft YaHei,PingFang SC,Microsoft YaHei,Arial;font-size:13px"><tspan x="37.4" textLength="45.2" y="19.0">0x100B</tspan></text></g><g id="shape19" transform="translate(667.352513,434.850500)"><text xml:space="preserve" style="fill:#5fb7f1;font-family:Microsoft YaHei,PingFang SC,Microsoft YaHei,Arial;font-size:13px"><tspan x="37.7" textLength="44.6" y="19.0">0x1010</tspan></text></g><g id="shape20" transform="translate(778.080860,434.850513)"><text xml:space="preserve" style="fill:#5fb7f1;font-family:Microsoft YaHei,PingFang SC,Microsoft YaHei,Arial;font-size:13px"><tspan x="37.7" textLength="44.6" y="19.0">0x1014</tspan></text></g><g id="shape21" transform="translate(888.809206,434.850500)"><text xml:space="preserve" style="fill:#5fb7f1;font-family:Microsoft YaHei,PingFang SC,Microsoft YaHei,Arial;font-size:13px"><tspan x="42.2" textLength="35.7" y="19.0">0x10..</tspan></text></g><g id="shape22" transform="translate(123.838740,434.850487)"><text xml:space="preserve" style="fill:#5fb7f1;font-family:Microsoft YaHei,PingFang SC,Microsoft YaHei,Arial;font-size:13px"><tspan x="40.5" textLength="39.0" y="19.0">地址：</tspan></text></g></g></svg>