<!--Generated by EdrawMax, SVG Export slice(1).svg 页-5-->
<svg viewBox="0 0 1062 318" xmlns:xlink="http://www.w3.org/1999/xlink" width="1062" height="318" xmlns="http://www.w3.org/2000/svg" xmlns:ed="https://www.edrawsoft.cn/xml/2017/SVGExtensions/"><defs><marker markerWidth="13.79796524917224" markerUnits="userSpaceOnUse" markerHeight="13.79796524917224" refY="5.89898262458612" id="edrawArrow_4_2.66667" refX="1" orient="auto-start-reverse" ed:arrow="4"><path fill="context-stroke" d="M1.0,1.0L10.8,5.9L1.0,10.8L1.0,1.0" stroke-linecap="round" stroke="context-stroke" stroke-width="1"/></marker></defs><g transform="translate(-26.53,-109.16)"><g id="shape1" transform="translate(178.976077,344.123733)"><path fill-rule="nonzero" fill="#232322" d="M57.3,54.0C59.7,51.8,61.2,48.7,61.2,45.2L61.2,21.0C61.2,16.0,62.1,8.2,57.9,3.8C55.8,1.5,52.6,.0,49.2,.0L21.0,.0C16.0,.0,8.2,-0.9,3.8,3.2C1.5,5.4,.0,8.5,.0,12.0L.0,36.2C.0,41.2,-0.9,49.0,3.2,53.4C5.4,55.8,8.5,57.2,12.0,57.2L40.2,57.2C45.1,57.2,52.9,58.2,57.3,54.0z" stroke="#b7b6b4" stroke-width="2.666670083999634"/><text xml:space="preserve" style="fill:#ffffff;font-family:Microsoft YaHei,PingFang SC,Microsoft YaHei,Arial;font-size:32px"><tspan x="20.7" textLength="19.7" y="42.1">h</tspan></text></g><g id="shape2" transform="translate(262.386077,344.123733)"><path fill-rule="nonzero" fill="#232322" d="M57.3,54.0C59.7,51.8,61.2,48.7,61.2,45.2L61.2,21.0C61.2,16.0,62.1,8.2,57.9,3.8C55.8,1.5,52.6,.0,49.2,.0L21.0,.0C16.0,.0,8.2,-0.9,3.8,3.2C1.5,5.4,.0,8.5,.0,12.0L.0,36.2C.0,41.2,-0.9,49.0,3.2,53.4C5.4,55.8,8.5,57.2,12.0,57.2L40.2,57.2C45.1,57.2,52.9,58.2,57.3,54.0z" stroke="#afafaf" stroke-width="2.666670083999634"/><text xml:space="preserve" style="fill:#ffffff;font-family:Microsoft YaHei,PingFang SC,Microsoft YaHei,Arial;font-size:32px"><tspan x="21.5" textLength="18.2" y="42.1">e</tspan></text></g><g id="shape3" transform="translate(345.796077,344.123733)"><path fill-rule="nonzero" fill="#232322" d="M57.3,54.0C59.7,51.8,61.2,48.7,61.2,45.2L61.2,21.0C61.2,16.0,62.1,8.2,57.9,3.8C55.8,1.5,52.6,.0,49.2,.0L21.0,.0C16.0,.0,8.2,-0.9,3.8,3.2C1.5,5.4,.0,8.5,.0,12.0L.0,36.2C.0,41.2,-0.9,49.0,3.2,53.4C5.4,55.8,8.5,57.2,12.0,57.2L40.2,57.2C45.1,57.2,52.9,58.2,57.3,54.0z" stroke="#afafaf" stroke-width="2.666670083999634"/><text xml:space="preserve" style="fill:#ffffff;font-family:Microsoft YaHei,PingFang SC,Microsoft YaHei,Arial;font-size:32px"><tspan x="26.3" textLength="8.5" y="42.1">l</tspan></text></g><g id="shape4" transform="translate(429.206077,344.123733)"><path fill-rule="nonzero" fill="#232322" d="M57.3,54.0C59.7,51.8,61.2,48.7,61.2,45.2L61.2,21.0C61.2,16.0,62.1,8.2,57.9,3.8C55.8,1.5,52.6,.0,49.2,.0L21.0,.0C16.0,.0,8.2,-0.9,3.8,3.2C1.5,5.4,.0,8.5,.0,12.0L.0,36.2C.0,41.2,-0.9,49.0,3.2,53.4C5.4,55.8,8.5,57.2,12.0,57.2L40.2,57.2C45.1,57.2,52.9,58.2,57.3,54.0z" stroke="#afafaf" stroke-width="2.666670083999634"/><text xml:space="preserve" style="fill:#ffffff;font-family:Microsoft YaHei,PingFang SC,Microsoft YaHei,Arial;font-size:32px"><tspan x="26.3" textLength="8.5" y="42.1">l</tspan></text></g><g id="shape5" transform="translate(512.616077,344.123733)"><path fill-rule="nonzero" fill="#232322" d="M57.3,54.0C59.7,51.8,61.2,48.7,61.2,45.2L61.2,21.0C61.2,16.0,62.1,8.2,57.9,3.8C55.8,1.5,52.6,.0,49.2,.0L21.0,.0C16.0,.0,8.2,-0.9,3.8,3.2C1.5,5.4,.0,8.5,.0,12.0L.0,36.2C.0,41.2,-0.9,49.0,3.2,53.4C5.4,55.8,8.5,57.2,12.0,57.2L40.2,57.2C45.1,57.2,52.9,58.2,57.3,54.0z" stroke="#b7b6b4" stroke-width="2.666670083999634"/><text xml:space="preserve" style="fill:#ffffff;font-family:Microsoft YaHei,PingFang SC,Microsoft YaHei,Arial;font-size:32px"><tspan x="20.4" textLength="20.3" y="42.1">o</tspan></text></g><g id="shape6" transform="translate(679.676077,344.123733)"><path fill-rule="nonzero" fill="#232322" d="M57.3,54.0C59.7,51.8,61.2,48.7,61.2,45.2L61.2,21.0C61.2,16.0,62.1,8.2,57.9,3.8C55.8,1.5,52.6,.0,49.2,.0L21.0,.0C16.0,.0,8.2,-0.9,3.8,3.2C1.5,5.4,.0,8.5,.0,12.0L.0,36.2C.0,41.2,-0.9,49.0,3.2,53.4C5.4,55.8,8.5,57.2,12.0,57.2L40.2,57.2C45.1,57.2,52.9,58.2,57.3,54.0z" stroke="#b7b6b4" stroke-width="2.666670083999634"/><text xml:space="preserve" style="fill:#ffffff;font-family:Microsoft YaHei,PingFang SC,Microsoft YaHei,Arial;font-size:32px"><tspan x="17.9" textLength="25.3" y="42.1">w</tspan></text></g><g id="shape7" transform="translate(176.849077,110.493650)"><path fill-rule="nonzero" fill="#232322" d="M140.8,54.0C143.1,51.8,144.6,48.7,144.6,45.2L144.6,21.0C144.6,16.0,145.5,8.2,141.4,3.8C139.2,1.5,136.0,.0,132.6,.0L21.0,.0C16.0,.0,8.2,-0.9,3.8,3.2C1.5,5.4,.0,8.5,.0,12.0L.0,36.2C.0,41.2,-0.9,49.0,3.2,53.4C5.4,55.8,8.5,57.2,12.0,57.2L123.6,57.2C128.5,57.2,136.3,58.2,140.8,54.0z" stroke="#93c8f4" stroke-width="2.666670083999634"/><text xml:space="preserve" style="fill:#ffffff;font-family:Microsoft YaHei,PingFang SC,Microsoft YaHei,Arial;font-size:19px"><tspan x="11.1" textLength="122.3" y="37.6">指针：0x1000</tspan></text></g><g id="shape8" transform="translate(321.425777,110.493650)"><path fill-rule="nonzero" fill="#232322" d="M146.5,54.0C148.8,51.8,150.3,48.7,150.3,45.2L150.3,21.0C150.3,16.0,151.2,8.2,147.1,3.8C144.9,1.5,141.8,.0,138.3,.0L21.0,.0C16.0,.0,8.2,-0.9,3.8,3.2C1.5,5.4,.0,8.5,.0,12.0L.0,36.2C.0,41.2,-0.9,49.0,3.2,53.4C5.4,55.8,8.5,57.2,12.0,57.2L129.3,57.2C134.3,57.2,142.1,58.2,146.5,54.0z" stroke="#ffd88f" stroke-width="2.666670083999634"/><text xml:space="preserve" style="fill:#ffffff;font-family:Microsoft YaHei,PingFang SC,Microsoft YaHei,Arial;font-size:19px"><tspan x="35.5" textLength="79.3" y="37.6">长度：11</tspan></text></g><g id="shape9" transform="translate(249.137677,167.743250)"><path marker-end="url(#edrawArrow_4_2.66667)" fill="none" d="M.0,.0L-67.0,195.7" stroke="#93c8f4" stroke-width="2.666670083999634"/></g><path fill="none" d="M.0,.0L4.8,.0C5.9,.0,7.5,-0.2,8.8,.0C9.9,.3,11.0,.8,11.9,1.7C12.7,2.6,13.3,3.6,13.5,4.8C13.8,6.1,13.6,7.7,13.6,8.8L13.6,439.0C13.6,440.1,13.4,441.7,13.6,443.0C13.8,444.1,14.4,445.2,15.3,446.1C16.6,447.4,18.5,448.0,20.3,447.8C18.5,447.5,16.6,448.1,15.3,449.5C14.4,450.3,13.8,451.4,13.6,452.6C13.4,453.9,13.6,455.4,13.6,456.5L13.6,886.8C13.6,887.9,13.8,889.4,13.5,890.7C13.3,891.9,12.7,893.0,11.9,893.8C11.0,894.7,9.9,895.3,8.8,895.5C7.5,895.7,5.9,895.5,4.8,895.5L.0,895.5" id="shape10" transform="matrix(0.000000,-1.000000,-1.000000,0.000000,1072.440945,338.993083)" stroke="#ffd88f" stroke-width="2.666670083999634"/><g id="shape11" transform="translate(396.583677,167.743250)"><path marker-end="url(#edrawArrow_4_2.66667)" fill="none" d="M.0,.0L219.9,145.5" stroke="#ffd88f" stroke-width="2.666670083999634"/></g><g id="shape12" transform="translate(26.533077,110.493650)"><text xml:space="preserve" style="fill:#93c8f4;font-family:Microsoft YaHei,PingFang SC,Microsoft YaHei,Arial;font-size:32px"><tspan x="13.5" textLength="123.3" y="39.0">String：</tspan></text></g><g id="shape13" transform="translate(763.086077,344.123733)"><path fill-rule="nonzero" fill="#232322" d="M57.3,54.0C59.7,51.8,61.2,48.7,61.2,45.2L61.2,21.0C61.2,16.0,62.1,8.2,57.9,3.8C55.8,1.5,52.6,.0,49.2,.0L21.0,.0C16.0,.0,8.2,-0.9,3.8,3.2C1.5,5.4,.0,8.5,.0,12.0L.0,36.2C.0,41.2,-0.9,49.0,3.2,53.4C5.4,55.8,8.5,57.2,12.0,57.2L40.2,57.2C45.1,57.2,52.9,58.2,57.3,54.0z" stroke="#b7b6b4" stroke-width="2.666670083999634"/><text xml:space="preserve" style="fill:#ffffff;font-family:Microsoft YaHei,PingFang SC,Microsoft YaHei,Arial;font-size:32px"><tspan x="20.4" textLength="20.3" y="42.1">o</tspan></text></g><g id="shape14" transform="translate(164.362677,401.373523)"><text xml:space="preserve" style="fill:#5fb7f1;font-family:Microsoft YaHei,PingFang SC,Microsoft YaHei,Arial;font-size:13px"><tspan x="22.9" textLength="44.6" y="19.0">0x1000</tspan></text></g><g id="shape15" transform="translate(247.772677,401.373533)"><text xml:space="preserve" style="fill:#5fb7f1;font-family:Microsoft YaHei,PingFang SC,Microsoft YaHei,Arial;font-size:13px"><tspan x="22.9" textLength="44.6" y="19.0">0x1004</tspan></text></g><g id="shape16" transform="translate(330.996677,401.373533)"><text xml:space="preserve" style="fill:#5fb7f1;font-family:Microsoft YaHei,PingFang SC,Microsoft YaHei,Arial;font-size:13px"><tspan x="22.9" textLength="44.6" y="19.0">0x1008</tspan></text></g><g id="shape17" transform="translate(414.592677,401.373533)"><text xml:space="preserve" style="fill:#5fb7f1;font-family:Microsoft YaHei,PingFang SC,Microsoft YaHei,Arial;font-size:13px"><tspan x="22.6" textLength="45.2" y="19.0">0x100B</tspan></text></g><g id="shape18" transform="translate(498.002677,401.373533)"><text xml:space="preserve" style="fill:#5fb7f1;font-family:Microsoft YaHei,PingFang SC,Microsoft YaHei,Arial;font-size:13px"><tspan x="22.9" textLength="44.6" y="19.0">0x1010</tspan></text></g><g id="shape19" transform="translate(581.412677,401.373533)"><text xml:space="preserve" style="fill:#5fb7f1;font-family:Microsoft YaHei,PingFang SC,Microsoft YaHei,Arial;font-size:13px"><tspan x="22.9" textLength="44.6" y="19.0">0x1014</tspan></text></g><g id="shape20" transform="translate(88.582677,401.373523)"><text xml:space="preserve" style="fill:#5fb7f1;font-family:Microsoft YaHei,PingFang SC,Microsoft YaHei,Arial;font-size:13px"><tspan x="25.7" textLength="39.0" y="19.0">地址：</tspan></text></g><g id="shape21" transform="translate(846.386077,344.123733)"><path fill-rule="nonzero" fill="#232322" d="M57.3,54.0C59.7,51.8,61.2,48.7,61.2,45.2L61.2,21.0C61.2,16.0,62.1,8.2,57.9,3.8C55.8,1.5,52.6,.0,49.2,.0L21.0,.0C16.0,.0,8.2,-0.9,3.8,3.2C1.5,5.4,.0,8.5,.0,12.0L.0,36.2C.0,41.2,-0.9,49.0,3.2,53.4C5.4,55.8,8.5,57.2,12.0,57.2L40.2,57.2C45.1,57.2,52.9,58.2,57.3,54.0z" stroke="#b7b6b4" stroke-width="2.666670083999634"/><text xml:space="preserve" style="fill:#ffffff;font-family:Microsoft YaHei,PingFang SC,Microsoft YaHei,Arial;font-size:32px"><tspan x="24.5" textLength="12.2" y="42.1">r</tspan></text></g><g id="shape22" transform="translate(100.206277,167.733416)"><text xml:space="preserve" style="fill:#b3cc80;font-family:Microsoft YaHei,PingFang SC,Microsoft YaHei,Arial;font-size:24px"><tspan x="9.6" textLength="48.0" y="30.0">栈：</tspan></text></g><g id="shape23" transform="translate(929.796077,344.123733)"><path fill-rule="nonzero" fill="#232322" d="M57.3,54.0C59.7,51.8,61.2,48.7,61.2,45.2L61.2,21.0C61.2,16.0,62.1,8.2,57.9,3.8C55.8,1.5,52.6,.0,49.2,.0L21.0,.0C16.0,.0,8.2,-0.9,3.8,3.2C1.5,5.4,.0,8.5,.0,12.0L.0,36.2C.0,41.2,-0.9,49.0,3.2,53.4C5.4,55.8,8.5,57.2,12.0,57.2L40.2,57.2C45.1,57.2,52.9,58.2,57.3,54.0z" stroke="#b7b6b4" stroke-width="2.666670083999634"/><text xml:space="preserve" style="fill:#ffffff;font-family:Microsoft YaHei,PingFang SC,Microsoft YaHei,Arial;font-size:32px"><tspan x="26.3" textLength="8.5" y="42.1">l</tspan></text></g><g id="shape24" transform="translate(100.206277,344.123233)"><text xml:space="preserve" style="fill:#b3cc80;font-family:Microsoft YaHei,PingFang SC,Microsoft YaHei,Arial;font-size:24px"><tspan x="9.6" textLength="48.0" y="30.0">堆：</tspan></text></g><g id="shape25" transform="translate(1013.206077,344.123733)"><path fill-rule="nonzero" fill="#232322" d="M57.3,54.0C59.7,51.8,61.2,48.7,61.2,45.2L61.2,21.0C61.2,16.0,62.1,8.2,57.9,3.8C55.8,1.5,52.6,.0,49.2,.0L21.0,.0C16.0,.0,8.2,-0.9,3.8,3.2C1.5,5.4,.0,8.5,.0,12.0L.0,36.2C.0,41.2,-0.9,49.0,3.2,53.4C5.4,55.8,8.5,57.2,12.0,57.2L40.2,57.2C45.1,57.2,52.9,58.2,57.3,54.0z" stroke="#b7b6b4" stroke-width="2.666670083999634"/><text xml:space="preserve" style="fill:#ffffff;font-family:Microsoft YaHei,PingFang SC,Microsoft YaHei,Arial;font-size:32px"><tspan x="20.3" textLength="20.5" y="42.1">d</tspan></text></g><g id="shape26" transform="translate(471.741777,110.493650)"><path fill-rule="nonzero" fill="#232322" d="M146.5,54.0C148.8,51.8,150.3,48.7,150.3,45.2L150.3,21.0C150.3,16.0,151.2,8.2,147.1,3.8C144.9,1.5,141.8,.0,138.3,.0L21.0,.0C16.0,.0,8.2,-0.9,3.8,3.2C1.5,5.4,.0,8.5,.0,12.0L.0,36.2C.0,41.2,-0.9,49.0,3.2,53.4C5.4,55.8,8.5,57.2,12.0,57.2L129.3,57.2C134.3,57.2,142.1,58.2,146.5,54.0z" stroke="#ffd88f" stroke-width="2.666670083999634"/><text xml:space="preserve" style="fill:#ffffff;font-family:Microsoft YaHei,PingFang SC,Microsoft YaHei,Arial;font-size:19px"><tspan x="35.5" textLength="79.3" y="37.6">容量：50</tspan></text></g><g id="shape27" transform="translate(665.007677,401.373533)"><text xml:space="preserve" style="fill:#5fb7f1;font-family:Microsoft YaHei,PingFang SC,Microsoft YaHei,Arial;font-size:13px"><tspan x="22.9" textLength="44.6" y="19.0">0x1018</tspan></text></g><g id="shape28" transform="translate(748.417677,401.373533)"><text xml:space="preserve" style="fill:#5fb7f1;font-family:Microsoft YaHei,PingFang SC,Microsoft YaHei,Arial;font-size:13px"><tspan x="22.6" textLength="45.2" y="19.0">0x101B</tspan></text></g><g id="shape29" transform="translate(831.827677,401.373533)"><text xml:space="preserve" style="fill:#5fb7f1;font-family:Microsoft YaHei,PingFang SC,Microsoft YaHei,Arial;font-size:13px"><tspan x="22.9" textLength="44.6" y="19.0">0x1020</tspan></text></g><g id="shape30" transform="translate(914.942677,401.373533)"><text xml:space="preserve" style="fill:#5fb7f1;font-family:Microsoft YaHei,PingFang SC,Microsoft YaHei,Arial;font-size:13px"><tspan x="22.9" textLength="44.6" y="19.0">0x1024</tspan></text></g><path fill-rule="nonzero" fill="#232322" d="M57.3,54.0C59.7,51.8,61.2,48.7,61.2,45.2L61.2,21.0C61.2,16.0,62.1,8.2,57.9,3.8C55.8,1.5,52.6,.0,49.2,.0L21.0,.0C16.0,.0,8.2,-0.9,3.8,3.2C1.5,5.4,.0,8.5,.0,12.0L.0,36.2C.0,41.2,-0.9,49.0,3.2,53.4C5.4,55.8,8.5,57.2,12.0,57.2L40.2,57.2C45.1,57.2,52.9,58.2,57.3,54.0z" id="shape31" transform="translate(596.026077,344.123933)" stroke="#b7b6b4" stroke-width="2.666670083999634"/><g id="shape32" transform="translate(998.592677,401.373533)"><text xml:space="preserve" style="fill:#5fb7f1;font-family:Microsoft YaHei,PingFang SC,Microsoft YaHei,Arial;font-size:13px"><tspan x="22.9" textLength="44.6" y="19.0">0x1028</tspan></text></g><g id="shape33" transform="translate(176.849077,201.702533)"><path fill-rule="nonzero" fill="#232322" d="M140.8,54.0C143.1,51.8,144.6,48.7,144.6,45.2L144.6,21.0C144.6,16.0,145.5,8.2,141.4,3.8C139.2,1.5,136.0,.0,132.6,.0L21.0,.0C16.0,.0,8.2,-0.9,3.8,3.2C1.5,5.4,.0,8.5,.0,12.0L.0,36.2C.0,41.2,-0.9,49.0,3.2,53.4C5.4,55.8,8.5,57.2,12.0,57.2L123.6,57.2C128.5,57.2,136.3,58.2,140.8,54.0z" stroke="#f78181" stroke-width="2.666670083999634"/><text xml:space="preserve" style="fill:#ffffff;font-family:Microsoft YaHei,PingFang SC,Microsoft YaHei,Arial;font-size:19px"><tspan x="11.1" textLength="122.3" y="37.6">指针：0x1000</tspan></text></g><g id="shape34" transform="translate(321.425777,201.702533)"><path fill-rule="nonzero" fill="#232322" d="M146.5,54.0C148.8,51.8,150.3,48.7,150.3,45.2L150.3,21.0C150.3,16.0,151.2,8.2,147.1,3.8C144.9,1.5,141.8,.0,138.3,.0L21.0,.0C16.0,.0,8.2,-0.9,3.8,3.2C1.5,5.4,.0,8.5,.0,12.0L.0,36.2C.0,41.2,-0.9,49.0,3.2,53.4C5.4,55.8,8.5,57.2,12.0,57.2L129.3,57.2C134.3,57.2,142.1,58.2,146.5,54.0z" stroke="#f78181" stroke-width="2.666670083999634"/><text xml:space="preserve" style="fill:#ffffff;font-family:Microsoft YaHei,PingFang SC,Microsoft YaHei,Arial;font-size:19px"><tspan x="41.1" textLength="68.1" y="37.6">长度：5</tspan></text></g><g id="shape35" transform="translate(249.137677,258.952133)"><path marker-end="url(#edrawArrow_4_2.66667)" fill="none" d="M.0,.0L-65.0,105.5" stroke="#f78181" stroke-width="2.666670083999634"/></g><g id="shape36" transform="translate(396.583677,258.952133)"><path marker-end="url(#edrawArrow_4_2.66667)" fill="none" d="M.0,.0L-19.0,31.0" stroke="#f78181" stroke-width="2.666670083999634"/></g><g id="shape37" transform="translate(38.660378,205.065633)"><text xml:space="preserve" style="fill:#f78181;font-family:Microsoft YaHei,PingFang SC,Microsoft YaHei,Arial;font-size:32px"><tspan x="24.3" textLength="101.7" y="39.0">Slice：</tspan></text></g><path fill="none" d="M.0,.0L4.8,.0C5.9,.0,7.5,-0.2,8.8,.0C9.9,.3,11.0,.8,11.9,1.7C12.7,2.6,13.3,3.6,13.5,4.8C13.8,6.1,13.6,7.7,13.6,8.8L13.6,185.7C13.6,186.8,13.4,188.4,13.6,189.7C13.8,190.9,14.4,192.0,15.3,192.8C16.6,194.1,18.5,194.8,20.3,194.5C18.5,194.2,16.6,194.9,15.3,196.2C14.4,197.1,13.8,198.1,13.6,199.3C13.4,200.6,13.6,202.2,13.6,203.3L13.6,380.2C13.6,381.3,13.8,382.9,13.5,384.2C13.3,385.4,12.7,386.5,11.9,387.3C11.0,388.2,9.9,388.7,8.8,389.0C7.5,389.2,5.9,389.0,4.8,389.0L.0,389.0" id="shape38" transform="matrix(0.000000,-1.000000,-1.000000,0.000000,566.929134,318.654433)" stroke="#f78181" stroke-width="2.666670083999634"/></g></svg>