<!--Generated by EdrawMax, SVG Export Stack.svg 栈和堆-->
<svg xmlns:ed="https://www.edrawsoft.cn/xml/2017/SVGExtensions/" width="867" xmlns="http://www.w3.org/2000/svg" xmlns:xlink="http://www.w3.org/1999/xlink" height="520" viewBox="0 0 867 520"><defs><marker id="edrawArrow_4_2.66667" markerHeight="13.79796524917224" orient="auto-start-reverse" ed:arrow="4" refY="5.89898262458612" markerUnits="userSpaceOnUse" refX="1" markerWidth="13.79796524917224"><path stroke-linecap="round" stroke="context-stroke" fill="context-stroke" stroke-width="1" d="M1.0,1.0L10.8,5.9L1.0,10.8L1.0,1.0"/></marker></defs><g transform="translate(-173.47,-167.72)"><g id="shape1" transform="translate(174.802750,596.722694)"><ed:custProps><ed:property ed:Format="#,###0.00" ed:Value="" ed:Type="4" ed:Unit="USD" ed:Label="Cost" ed:Name="Cost" ed:Invisible="0"/><ed:property ed:Format="[h]:[mm] &quot;eh:em&quot;" ed:Value="" ed:Type="3" ed:Unit="" ed:Label="Duration" ed:Name="Duration" ed:Invisible="0"/><ed:property ed:Format="@" ed:Value="" ed:Type="0" ed:Unit="" ed:Label="Resources" ed:Name="Resources" ed:Invisible="0"/></ed:custProps><path fill-rule="nonzero" fill="#232322" d="M.0,18.9L.0,70.3C.0,70.3,.0,70.3,.0,70.3C.0,80.8,42.3,89.2,94.5,89.2C146.7,89.2,189.0,80.8,189.0,70.3L189.0,18.9C189.0,18.9,189.0,18.9,189.0,18.9C189.0,8.5,146.7,.0,94.5,.0C42.3,.0,.0,8.5,.0,18.9z"/><path stroke="#b7b6b4" stroke-width="2.666670083999634" fill="none" d="M.0,18.9L.0,70.3C.0,70.3,.0,70.3,.0,70.3C.0,80.8,42.3,89.2,94.5,89.2C146.7,89.2,189.0,80.8,189.0,70.3L189.0,18.9C189.0,18.9,189.0,18.9,189.0,18.9C189.0,8.5,146.7,.0,94.5,.0C42.3,.0,.0,8.5,.0,18.9zM189.0,18.9C189.0,29.3,146.7,37.8,94.5,37.8C42.3,37.8,.0,29.3,.0,18.9"/><text style="fill:#ffffff;font-family:Microsoft YaHei,PingFang SC,Microsoft YaHei,Arial;font-size:13px" xml:space="preserve"><tspan textLength="91.0" y="64.8" x="49.0">栈底（高地址）</tspan></text></g><g id="shape2" transform="translate(174.803128,548.982489)"><ed:custProps><ed:property ed:Format="#,###0.00" ed:Value="" ed:Type="4" ed:Unit="USD" ed:Label="Cost" ed:Name="Cost" ed:Invisible="0"/><ed:property ed:Format="[h]:[mm] &quot;eh:em&quot;" ed:Value="" ed:Type="3" ed:Unit="" ed:Label="Duration" ed:Name="Duration" ed:Invisible="0"/><ed:property ed:Format="@" ed:Value="" ed:Type="0" ed:Unit="" ed:Label="Resources" ed:Name="Resources" ed:Invisible="0"/></ed:custProps><path fill-rule="nonzero" fill="#232322" d="M.0,15.0L.0,45.0C.0,45.0,.0,45.0,.0,45.0C.0,53.3,42.3,60.0,94.5,60.0C146.7,60.0,189.0,53.3,189.0,45.0L189.0,15.0C189.0,15.0,189.0,15.0,189.0,15.0C189.0,6.7,146.7,.0,94.5,.0C42.3,.0,.0,6.7,.0,15.0z"/><path stroke="#b7b6b4" stroke-width="2.666670083999634" fill="none" d="M.0,15.0L.0,45.0C.0,45.0,.0,45.0,.0,45.0C.0,53.3,42.3,60.0,94.5,60.0C146.7,60.0,189.0,53.3,189.0,45.0L189.0,15.0C189.0,15.0,189.0,15.0,189.0,15.0C189.0,6.7,146.7,.0,94.5,.0C42.3,.0,.0,6.7,.0,15.0zM189.0,15.0L189.0,15.0C189.0,15.0,189.0,15.0,189.0,15.0C189.0,23.3,146.7,30.0,94.5,30.0C42.3,30.0,.0,23.3,.0,15.0"/></g><g id="shape3" transform="translate(174.802750,501.502127)"><ed:custProps><ed:property ed:Format="#,###0.00" ed:Value="" ed:Type="4" ed:Unit="USD" ed:Label="Cost" ed:Name="Cost" ed:Invisible="0"/><ed:property ed:Format="[h]:[mm] &quot;eh:em&quot;" ed:Value="" ed:Type="3" ed:Unit="" ed:Label="Duration" ed:Name="Duration" ed:Invisible="0"/><ed:property ed:Format="@" ed:Value="" ed:Type="0" ed:Unit="" ed:Label="Resources" ed:Name="Resources" ed:Invisible="0"/></ed:custProps><path fill-rule="nonzero" fill="#232322" d="M.0,15.0L.0,45.0C.0,45.0,.0,45.0,.0,45.0C.0,53.3,42.3,60.0,94.5,60.0C146.7,60.0,189.0,53.3,189.0,45.0L189.0,15.0C189.0,15.0,189.0,15.0,189.0,15.0C189.0,6.7,146.7,.0,94.5,.0C42.3,.0,.0,6.7,.0,15.0z"/><path stroke="#b7b6b4" stroke-width="2.666670083999634" fill="none" d="M.0,15.0L.0,45.0C.0,45.0,.0,45.0,.0,45.0C.0,53.3,42.3,60.0,94.5,60.0C146.7,60.0,189.0,53.3,189.0,45.0L189.0,15.0C189.0,15.0,189.0,15.0,189.0,15.0C189.0,6.7,146.7,.0,94.5,.0C42.3,.0,.0,6.7,.0,15.0zM189.0,15.0L189.0,15.0C189.0,15.0,189.0,15.0,189.0,15.0C189.0,23.3,146.7,30.0,94.5,30.0C42.3,30.0,.0,23.3,.0,15.0"/></g><g id="shape4" transform="translate(174.802750,389.655671)"><ed:custProps><ed:property ed:Format="#,###0.00" ed:Value="" ed:Type="4" ed:Unit="USD" ed:Label="Cost" ed:Name="Cost" ed:Invisible="0"/><ed:property ed:Format="[h]:[mm] &quot;eh:em&quot;" ed:Value="" ed:Type="3" ed:Unit="" ed:Label="Duration" ed:Name="Duration" ed:Invisible="0"/><ed:property ed:Format="@" ed:Value="" ed:Type="0" ed:Unit="" ed:Label="Resources" ed:Name="Resources" ed:Invisible="0"/></ed:custProps><path fill-rule="nonzero" fill="#232322" d="M.0,18.9L.0,105.3C.0,105.3,.0,105.3,.0,105.3C.0,115.8,42.3,124.2,94.5,124.2C146.7,124.2,189.0,115.8,189.0,105.3L189.0,18.9C189.0,18.9,189.0,18.9,189.0,18.9C189.0,8.5,146.7,.0,94.5,.0C42.3,.0,.0,8.5,.0,18.9z"/><path stroke="#b7b6b4" stroke-width="2.666670083999634" fill="none" d="M.0,18.9L.0,105.3C.0,105.3,.0,105.3,.0,105.3C.0,115.8,42.3,124.2,94.5,124.2C146.7,124.2,189.0,115.8,189.0,105.3L189.0,18.9C189.0,18.9,189.0,18.9,189.0,18.9C189.0,8.5,146.7,.0,94.5,.0C42.3,.0,.0,8.5,.0,18.9zM189.0,18.9C189.0,29.3,146.7,37.8,94.5,37.8C42.3,37.8,.0,29.3,.0,18.9"/><text style="fill:#ffffff;font-family:Microsoft YaHei,PingFang SC,Microsoft YaHei,Arial;font-size:13px" xml:space="preserve"><tspan textLength="91.0" y="82.3" x="49.0">栈顶（低地址）</tspan></text></g><g id="shape5" transform="translate(579.036957,621.888274)"><ed:custProps><ed:property ed:Format="#,###0.00" ed:Value="" ed:Type="4" ed:Unit="USD" ed:Label="Cost" ed:Name="Cost" ed:Invisible="0"/><ed:property ed:Format="[h]:[mm] &quot;eh:em&quot;" ed:Value="" ed:Type="3" ed:Unit="" ed:Label="Duration" ed:Name="Duration" ed:Invisible="0"/><ed:property ed:Format="@" ed:Value="" ed:Type="0" ed:Unit="" ed:Label="Resources" ed:Name="Resources" ed:Invisible="0"/></ed:custProps><path fill-rule="nonzero" fill="#232322" d="M.0,12.2L.0,45.8C.0,45.8,.0,45.8,.0,45.8C.0,52.6,27.4,58.1,61.1,58.1C94.9,58.1,122.2,52.6,122.2,45.8L122.2,12.2C122.2,12.2,122.2,12.2,122.2,12.2C122.2,5.5,94.9,.0,61.1,.0C27.4,.0,.0,5.5,.0,12.2z"/><path stroke="#b7b6b4" stroke-width="2.666670083999634" fill="none" d="M.0,12.2L.0,45.8C.0,45.8,.0,45.8,.0,45.8C.0,52.6,27.4,58.1,61.1,58.1C94.9,58.1,122.2,52.6,122.2,45.8L122.2,12.2C122.2,12.2,122.2,12.2,122.2,12.2C122.2,5.5,94.9,.0,61.1,.0C27.4,.0,.0,5.5,.0,12.2zM122.2,12.2C122.2,19.0,94.9,24.4,61.1,24.4C27.4,24.4,.0,19.0,.0,12.2"/></g><g id="shape6" transform="translate(579.036957,591.175696)"><ed:custProps><ed:property ed:Format="#,###0.00" ed:Value="" ed:Type="4" ed:Unit="USD" ed:Label="Cost" ed:Name="Cost" ed:Invisible="0"/><ed:property ed:Format="[h]:[mm] &quot;eh:em&quot;" ed:Value="" ed:Type="3" ed:Unit="" ed:Label="Duration" ed:Name="Duration" ed:Invisible="0"/><ed:property ed:Format="@" ed:Value="" ed:Type="0" ed:Unit="" ed:Label="Resources" ed:Name="Resources" ed:Invisible="0"/></ed:custProps><path fill-rule="nonzero" fill="#232322" d="M.0,9.7L.0,29.1C.0,29.1,.0,29.1,.0,29.1C.0,34.5,27.4,38.8,61.1,38.8C94.9,38.8,122.2,34.5,122.2,29.1L122.2,9.7C122.2,9.7,122.2,9.7,122.2,9.7C122.2,4.3,94.9,.0,61.1,.0C27.4,.0,.0,4.3,.0,9.7z"/><path stroke="#b7b6b4" stroke-width="2.666670083999634" fill="none" d="M.0,9.7L.0,29.1C.0,29.1,.0,29.1,.0,29.1C.0,34.5,27.4,38.8,61.1,38.8C94.9,38.8,122.2,34.5,122.2,29.1L122.2,9.7C122.2,9.7,122.2,9.7,122.2,9.7C122.2,4.3,94.9,.0,61.1,.0C27.4,.0,.0,4.3,.0,9.7zM122.2,9.7C122.2,15.1,94.9,19.4,61.1,19.4C27.4,19.4,.0,15.1,.0,9.7"/></g><g id="shape7" transform="translate(579.036957,560.463183)"><ed:custProps><ed:property ed:Format="#,###0.00" ed:Value="" ed:Type="4" ed:Unit="USD" ed:Label="Cost" ed:Name="Cost" ed:Invisible="0"/><ed:property ed:Format="[h]:[mm] &quot;eh:em&quot;" ed:Value="" ed:Type="3" ed:Unit="" ed:Label="Duration" ed:Name="Duration" ed:Invisible="0"/><ed:property ed:Format="@" ed:Value="" ed:Type="0" ed:Unit="" ed:Label="Resources" ed:Name="Resources" ed:Invisible="0"/></ed:custProps><path fill-rule="nonzero" fill="#232322" d="M.0,9.7L.0,29.1C.0,29.1,.0,29.1,.0,29.1C.0,34.5,27.4,38.8,61.1,38.8C94.9,38.8,122.2,34.5,122.2,29.1L122.2,9.7C122.2,9.7,122.2,9.7,122.2,9.7C122.2,4.3,94.9,.0,61.1,.0C27.4,.0,.0,4.3,.0,9.7z"/><path stroke="#b7b6b4" stroke-width="2.666670083999634" fill="none" d="M.0,9.7L.0,29.1C.0,29.1,.0,29.1,.0,29.1C.0,34.5,27.4,38.8,61.1,38.8C94.9,38.8,122.2,34.5,122.2,29.1L122.2,9.7C122.2,9.7,122.2,9.7,122.2,9.7C122.2,4.3,94.9,.0,61.1,.0C27.4,.0,.0,4.3,.0,9.7zM122.2,9.7C122.2,15.1,94.9,19.4,61.1,19.4C27.4,19.4,.0,15.1,.0,9.7"/></g><g id="shape8" transform="translate(579.036510,488.035759)"><ed:custProps><ed:property ed:Format="#,###0.00" ed:Value="" ed:Type="4" ed:Unit="USD" ed:Label="Cost" ed:Name="Cost" ed:Invisible="0"/><ed:property ed:Format="[h]:[mm] &quot;eh:em&quot;" ed:Value="" ed:Type="3" ed:Unit="" ed:Label="Duration" ed:Name="Duration" ed:Invisible="0"/><ed:property ed:Format="@" ed:Value="" ed:Type="0" ed:Unit="" ed:Label="Resources" ed:Name="Resources" ed:Invisible="0"/></ed:custProps><path fill-rule="nonzero" fill="#232322" d="M.0,12.2L.0,68.3C.0,68.3,.0,68.3,.0,68.3C.0,75.1,27.4,80.5,61.1,80.5C94.9,80.5,122.2,75.1,122.2,68.3L122.2,12.2C122.2,12.2,122.2,12.2,122.2,12.2C122.2,5.5,94.9,.0,61.1,.0C27.4,.0,.0,5.5,.0,12.2z"/><path stroke="#b7b6b4" stroke-width="2.666670083999634" fill="none" d="M.0,12.2L.0,68.3C.0,68.3,.0,68.3,.0,68.3C.0,75.1,27.4,80.5,61.1,80.5C94.9,80.5,122.2,75.1,122.2,68.3L122.2,12.2C122.2,12.2,122.2,12.2,122.2,12.2C122.2,5.5,94.9,.0,61.1,.0C27.4,.0,.0,5.5,.0,12.2zM122.2,12.2C122.2,19.0,94.9,24.4,61.1,24.4C27.4,24.4,.0,19.0,.0,12.2"/></g><g id="shape9" transform="translate(579.036510,445.531179)"><ed:custProps><ed:property ed:Format="#,###0.00" ed:Value="" ed:Type="4" ed:Unit="USD" ed:Label="Cost" ed:Name="Cost" ed:Invisible="0"/><ed:property ed:Format="[h]:[mm] &quot;eh:em&quot;" ed:Value="" ed:Type="3" ed:Unit="" ed:Label="Duration" ed:Name="Duration" ed:Invisible="0"/><ed:property ed:Format="@" ed:Value="" ed:Type="0" ed:Unit="" ed:Label="Resources" ed:Name="Resources" ed:Invisible="0"/></ed:custProps><path fill-rule="nonzero" fill="#222c03" d="M.0,12.2L.0,40.8C.0,40.8,.0,40.8,.0,40.8C.0,47.5,27.4,53.0,61.1,53.0C94.9,53.0,122.2,47.5,122.2,40.8L122.2,12.2C122.2,12.2,122.2,12.2,122.2,12.2C122.2,5.5,94.9,.0,61.1,.0C27.4,.0,.0,5.5,.0,12.2z"/><path stroke="#98bc25" stroke-width="2.666670083999634" fill="none" d="M.0,12.2L.0,40.8C.0,40.8,.0,40.8,.0,40.8C.0,47.5,27.4,53.0,61.1,53.0C94.9,53.0,122.2,47.5,122.2,40.8L122.2,12.2C122.2,12.2,122.2,12.2,122.2,12.2C122.2,5.5,94.9,.0,61.1,.0C27.4,.0,.0,5.5,.0,12.2zM122.2,12.2C122.2,19.0,94.9,24.4,61.1,24.4C27.4,24.4,.0,19.0,.0,12.2" stroke-dasharray="6.66668,6.66668"/></g><g id="shape10" transform="translate(432.580687,364.615684)"><ed:custProps><ed:property ed:Format="#,###0.00" ed:Value="" ed:Type="4" ed:Unit="USD" ed:Label="Cost" ed:Name="Cost" ed:Invisible="0"/><ed:property ed:Format="[h]:[mm] &quot;eh:em&quot;" ed:Value="" ed:Type="3" ed:Unit="" ed:Label="Duration" ed:Name="Duration" ed:Invisible="0"/><ed:property ed:Format="@" ed:Value="" ed:Type="0" ed:Unit="" ed:Label="Resources" ed:Name="Resources" ed:Invisible="0"/></ed:custProps><path fill-rule="nonzero" fill="#222c03" d="M.0,12.2L.0,40.8C.0,40.8,.0,40.8,.0,40.8C.0,47.5,27.4,53.0,61.1,53.0C94.9,53.0,122.2,47.5,122.2,40.8L122.2,12.2C122.2,12.2,122.2,12.2,122.2,12.2C122.2,5.5,94.9,.0,61.1,.0C27.4,.0,.0,5.5,.0,12.2z"/><path stroke="#98bc25" stroke-width="2.666670083999634" fill="none" d="M.0,12.2L.0,40.8C.0,40.8,.0,40.8,.0,40.8C.0,47.5,27.4,53.0,61.1,53.0C94.9,53.0,122.2,47.5,122.2,40.8L122.2,12.2C122.2,12.2,122.2,12.2,122.2,12.2C122.2,5.5,94.9,.0,61.1,.0C27.4,.0,.0,5.5,.0,12.2zM122.2,12.2L122.2,12.2C122.2,12.2,122.2,12.2,122.2,12.2C122.2,19.0,94.9,24.4,61.1,24.4C27.4,24.4,.0,19.0,.0,12.2"/></g><g id="shape11" transform="translate(554.819687,391.126384)"><path stroke="#b3cc80" marker-end="url(#edrawArrow_4_2.66667)" stroke-width="2.666670083999634" fill="none" d="M.0,.0L69.5,.0C77.8,.0,84.5,6.7,84.5,15.0L84.5,44.6"/></g><g id="shape12" transform="translate(554.819687,364.615684)"><text style="fill:#98bc25;font-family:Microsoft YaHei,PingFang SC,Microsoft YaHei,Arial;font-size:13px;font-weight:bold" xml:space="preserve"><tspan textLength="78.0" y="19.0" x="21.0">分配（入栈）</tspan></text></g><g id="shape13" transform="translate(772.737775,627.902989)"><ed:custProps><ed:property ed:Format="#,###0.00" ed:Value="" ed:Type="4" ed:Unit="USD" ed:Label="Cost" ed:Name="Cost" ed:Invisible="0"/><ed:property ed:Format="[h]:[mm] &quot;eh:em&quot;" ed:Value="" ed:Type="3" ed:Unit="" ed:Label="Duration" ed:Name="Duration" ed:Invisible="0"/><ed:property ed:Format="@" ed:Value="" ed:Type="0" ed:Unit="" ed:Label="Resources" ed:Name="Resources" ed:Invisible="0"/></ed:custProps><path fill-rule="nonzero" fill="#232322" d="M.0,12.2L.0,45.8C.0,45.8,.0,45.8,.0,45.8C.0,52.6,27.4,58.1,61.1,58.1C94.9,58.1,122.2,52.6,122.2,45.8L122.2,12.2C122.2,12.2,122.2,12.2,122.2,12.2C122.2,5.5,94.9,.0,61.1,.0C27.4,.0,.0,5.5,.0,12.2z"/><path stroke="#b7b6b4" stroke-width="2.666670083999634" fill="none" d="M.0,12.2L.0,45.8C.0,45.8,.0,45.8,.0,45.8C.0,52.6,27.4,58.1,61.1,58.1C94.9,58.1,122.2,52.6,122.2,45.8L122.2,12.2C122.2,12.2,122.2,12.2,122.2,12.2C122.2,5.5,94.9,.0,61.1,.0C27.4,.0,.0,5.5,.0,12.2zM122.2,12.2L122.2,12.2C122.2,12.2,122.2,12.2,122.2,12.2C122.2,19.0,94.9,24.4,61.1,24.4C27.4,24.4,.0,19.0,.0,12.2"/></g><g id="shape14" transform="translate(772.737775,597.190389)"><ed:custProps><ed:property ed:Format="#,###0.00" ed:Value="" ed:Type="4" ed:Unit="USD" ed:Label="Cost" ed:Name="Cost" ed:Invisible="0"/><ed:property ed:Format="[h]:[mm] &quot;eh:em&quot;" ed:Value="" ed:Type="3" ed:Unit="" ed:Label="Duration" ed:Name="Duration" ed:Invisible="0"/><ed:property ed:Format="@" ed:Value="" ed:Type="0" ed:Unit="" ed:Label="Resources" ed:Name="Resources" ed:Invisible="0"/></ed:custProps><path fill-rule="nonzero" fill="#232322" d="M.0,9.7L.0,29.1C.0,29.1,.0,29.1,.0,29.1C.0,34.5,27.4,38.8,61.1,38.8C94.9,38.8,122.2,34.5,122.2,29.1L122.2,9.7C122.2,9.7,122.2,9.7,122.2,9.7C122.2,4.3,94.9,.0,61.1,.0C27.4,.0,.0,4.3,.0,9.7z"/><path stroke="#b7b6b4" stroke-width="2.666670083999634" fill="none" d="M.0,9.7L.0,29.1C.0,29.1,.0,29.1,.0,29.1C.0,34.5,27.4,38.8,61.1,38.8C94.9,38.8,122.2,34.5,122.2,29.1L122.2,9.7C122.2,9.7,122.2,9.7,122.2,9.7C122.2,4.3,94.9,.0,61.1,.0C27.4,.0,.0,4.3,.0,9.7zM122.2,9.7L122.2,9.7C122.2,9.7,122.2,9.7,122.2,9.7C122.2,15.1,94.9,19.4,61.1,19.4C27.4,19.4,.0,15.1,.0,9.7"/></g><g id="shape15" transform="translate(772.737775,566.478389)"><ed:custProps><ed:property ed:Format="#,###0.00" ed:Value="" ed:Type="4" ed:Unit="USD" ed:Label="Cost" ed:Name="Cost" ed:Invisible="0"/><ed:property ed:Format="[h]:[mm] &quot;eh:em&quot;" ed:Value="" ed:Type="3" ed:Unit="" ed:Label="Duration" ed:Name="Duration" ed:Invisible="0"/><ed:property ed:Format="@" ed:Value="" ed:Type="0" ed:Unit="" ed:Label="Resources" ed:Name="Resources" ed:Invisible="0"/></ed:custProps><path fill-rule="nonzero" fill="#232322" d="M.0,9.7L.0,29.1C.0,29.1,.0,29.1,.0,29.1C.0,34.5,27.4,38.8,61.1,38.8C94.9,38.8,122.2,34.5,122.2,29.1L122.2,9.7C122.2,9.7,122.2,9.7,122.2,9.7C122.2,4.3,94.9,.0,61.1,.0C27.4,.0,.0,4.3,.0,9.7z"/><path stroke="#b7b6b4" stroke-width="2.666670083999634" fill="none" d="M.0,9.7L.0,29.1C.0,29.1,.0,29.1,.0,29.1C.0,34.5,27.4,38.8,61.1,38.8C94.9,38.8,122.2,34.5,122.2,29.1L122.2,9.7C122.2,9.7,122.2,9.7,122.2,9.7C122.2,4.3,94.9,.0,61.1,.0C27.4,.0,.0,4.3,.0,9.7zM122.2,9.7L122.2,9.7C122.2,9.7,122.2,9.7,122.2,9.7C122.2,15.1,94.9,19.4,61.1,19.4C27.4,19.4,.0,15.1,.0,9.7"/></g><g id="shape16" transform="translate(772.736775,494.050289)"><ed:custProps><ed:property ed:Format="#,###0.00" ed:Value="" ed:Type="4" ed:Unit="USD" ed:Label="Cost" ed:Name="Cost" ed:Invisible="0"/><ed:property ed:Format="[h]:[mm] &quot;eh:em&quot;" ed:Value="" ed:Type="3" ed:Unit="" ed:Label="Duration" ed:Name="Duration" ed:Invisible="0"/><ed:property ed:Format="@" ed:Value="" ed:Type="0" ed:Unit="" ed:Label="Resources" ed:Name="Resources" ed:Invisible="0"/></ed:custProps><path fill-rule="nonzero" fill="#232322" d="M.0,12.2L.0,68.3C.0,68.3,.0,68.3,.0,68.3C.0,75.1,27.4,80.5,61.1,80.5C94.9,80.5,122.2,75.1,122.2,68.3L122.2,12.2C122.2,12.2,122.2,12.2,122.2,12.2C122.2,5.5,94.9,.0,61.1,.0C27.4,.0,.0,5.5,.0,12.2z"/><path stroke="#b7b6b4" stroke-width="2.666670083999634" fill="none" d="M.0,12.2L.0,68.3C.0,68.3,.0,68.3,.0,68.3C.0,75.1,27.4,80.5,61.1,80.5C94.9,80.5,122.2,75.1,122.2,68.3L122.2,12.2C122.2,12.2,122.2,12.2,122.2,12.2C122.2,5.5,94.9,.0,61.1,.0C27.4,.0,.0,5.5,.0,12.2zM122.2,12.2L122.2,12.2C122.2,12.2,122.2,12.2,122.2,12.2C122.2,19.0,94.9,24.4,61.1,24.4C27.4,24.4,.0,19.0,.0,12.2"/></g><g id="shape17" transform="translate(917.130679,370.630589)"><ed:custProps><ed:property ed:Format="#,###0.00" ed:Value="" ed:Type="4" ed:Unit="USD" ed:Label="Cost" ed:Name="Cost" ed:Invisible="0"/><ed:property ed:Format="[h]:[mm] &quot;eh:em&quot;" ed:Value="" ed:Type="3" ed:Unit="" ed:Label="Duration" ed:Name="Duration" ed:Invisible="0"/><ed:property ed:Format="@" ed:Value="" ed:Type="0" ed:Unit="" ed:Label="Resources" ed:Name="Resources" ed:Invisible="0"/></ed:custProps><path fill-rule="nonzero" fill="#3d1b1b" d="M.0,12.2L.0,40.8C.0,40.8,.0,40.8,.0,40.8C.0,47.5,27.4,53.0,61.1,53.0C94.9,53.0,122.2,47.5,122.2,40.8L122.2,12.2C122.2,12.2,122.2,12.2,122.2,12.2C122.2,5.5,94.9,.0,61.1,.0C27.4,.0,.0,5.5,.0,12.2z"/><path stroke="#f78181" stroke-width="2.666670083999634" fill="none" d="M.0,12.2L.0,40.8C.0,40.8,.0,40.8,.0,40.8C.0,47.5,27.4,53.0,61.1,53.0C94.9,53.0,122.2,47.5,122.2,40.8L122.2,12.2C122.2,12.2,122.2,12.2,122.2,12.2C122.2,5.5,94.9,.0,61.1,.0C27.4,.0,.0,5.5,.0,12.2zM122.2,12.2L122.2,12.2C122.2,12.2,122.2,12.2,122.2,12.2C122.2,19.0,94.9,24.4,61.1,24.4C27.4,24.4,.0,19.0,.0,12.2" stroke-dasharray="6.66668,6.66668"/></g><g id="shape18" transform="translate(772.736775,445.531303)"><ed:custProps><ed:property ed:Format="#,###0.00" ed:Value="" ed:Type="4" ed:Unit="USD" ed:Label="Cost" ed:Name="Cost" ed:Invisible="0"/><ed:property ed:Format="[h]:[mm] &quot;eh:em&quot;" ed:Value="" ed:Type="3" ed:Unit="" ed:Label="Duration" ed:Name="Duration" ed:Invisible="0"/><ed:property ed:Format="@" ed:Value="" ed:Type="0" ed:Unit="" ed:Label="Resources" ed:Name="Resources" ed:Invisible="0"/></ed:custProps><path fill-rule="nonzero" fill="#3d1b1b" d="M.0,12.2L.0,40.8C.0,40.8,.0,40.8,.0,40.8C.0,47.5,27.4,53.0,61.1,53.0C94.9,53.0,122.2,47.5,122.2,40.8L122.2,12.2C122.2,12.2,122.2,12.2,122.2,12.2C122.2,5.5,94.9,.0,61.1,.0C27.4,.0,.0,5.5,.0,12.2z"/><path stroke="#f78181" stroke-width="2.666670083999634" fill="none" d="M.0,12.2L.0,40.8C.0,40.8,.0,40.8,.0,40.8C.0,47.5,27.4,53.0,61.1,53.0C94.9,53.0,122.2,47.5,122.2,40.8L122.2,12.2C122.2,12.2,122.2,12.2,122.2,12.2C122.2,5.5,94.9,.0,61.1,.0C27.4,.0,.0,5.5,.0,12.2zM122.2,12.2L122.2,12.2C122.2,12.2,122.2,12.2,122.2,12.2C122.2,19.0,94.9,24.4,61.1,24.4C27.4,24.4,.0,19.0,.0,12.2"/></g><g id="shape19" transform="translate(833.856475,445.531303)"><path stroke="#f9a5a5" marker-end="url(#edrawArrow_4_2.66667)" stroke-width="2.666670083999634" fill="none" d="M.0,.0L.0,-33.4C.0,-41.7,6.7,-48.4,15.0,-48.4L73.5,-48.4"/></g><g id="shape20" transform="translate(797.130679,370.630589)"><text style="fill:#f78181;font-family:Microsoft YaHei,PingFang SC,Microsoft YaHei,Arial;font-size:13px;font-weight:bold" xml:space="preserve"><tspan textLength="78.0" y="19.0" x="21.0">释放（出栈）</tspan></text></g><g id="shape21" transform="translate(712.917323,494.050289)"><text style="fill:#ffcd55;font-family:Microsoft YaHei,PingFang SC,Microsoft YaHei,Arial;font-size:19px;font-weight:bold" xml:space="preserve"><tspan textLength="19.0" y="26.0" x="16.0">后</tspan><tspan textLength="19.0" y="52.0" x="16.0">入</tspan><tspan textLength="19.0" y="78.0" x="16.0">先</tspan><tspan textLength="19.0" y="104.0" x="16.0">出</tspan></text></g><g id="shape22" transform="translate(174.802750,169.055213)"><ed:custProps><ed:property ed:Format="#,###0.00" ed:Value="" ed:Type="4" ed:Unit="USD" ed:Label="Cost" ed:Name="Cost" ed:Invisible="0"/><ed:property ed:Format="[h]:[mm] &quot;eh:em&quot;" ed:Value="" ed:Type="3" ed:Unit="" ed:Label="Duration" ed:Name="Duration" ed:Invisible="0"/><ed:property ed:Format="@" ed:Value="" ed:Type="0" ed:Unit="" ed:Label="Resources" ed:Name="Resources" ed:Invisible="0"/></ed:custProps><path stroke="#9e9c9a" stroke-width="2.666670083999634" fill="none" d="M.0,18.9L.0,218.3C.0,218.3,.0,218.3,.0,218.3C.0,228.8,42.3,237.2,94.5,237.2C146.7,237.2,189.0,228.8,189.0,218.3L189.0,18.9C189.0,18.9,189.0,18.9,189.0,18.9C189.0,8.5,146.7,.0,94.5,.0C42.3,.0,.0,8.5,.0,18.9zM189.0,18.9C189.0,29.3,146.7,37.8,94.5,37.8C42.3,37.8,.0,29.3,.0,18.9" stroke-dasharray="6.66668,6.66668"/><text style="fill:#ffffff;font-family:Microsoft YaHei,PingFang SC,Microsoft YaHei,Arial;font-size:13px" xml:space="preserve"><tspan textLength="78.0" y="138.8" x="55.5">未使用栈空间</tspan></text></g><g id="shape23" transform="translate(649.755906,169.055213)"><text style="fill:#b3cc80;font-family:Microsoft YaHei,PingFang SC,Microsoft YaHei,Arial;font-size:32px" xml:space="preserve"><tspan textLength="32.0" y="39.0" x="72.6">栈</tspan><tspan textLength="145.5" y="82.0" x="15.9">（Stack）</tspan></text></g><g id="shape24" transform="translate(678.401575,398.511264)"><text style="fill:#ffcd55;font-family:Microsoft YaHei,PingFang SC,Microsoft YaHei,Arial;font-size:13px" xml:space="preserve"><tspan textLength="65.0" y="19.0" x="27.5">必须从栈顶</tspan><tspan textLength="65.0" y="37.0" x="27.5">分配和释放</tspan></text></g></g></svg>