<!--Generated by EdrawMax, SVG Export string.svg String-->
<svg viewBox="0 0 917 227" xmlns:xlink="http://www.w3.org/1999/xlink" width="917" height="227" xmlns="http://www.w3.org/2000/svg" xmlns:ed="https://www.edrawsoft.cn/xml/2017/SVGExtensions/"><defs><marker markerWidth="13.79796524917224" markerUnits="userSpaceOnUse" markerHeight="13.79796524917224" refY="5.89898262458612" id="edrawArrow_4_2.66667" refX="1" orient="auto-start-reverse" ed:arrow="4"><path fill="context-stroke" d="M1.0,1.0L10.8,5.9L1.0,10.8L1.0,1.0" stroke-linecap="round" stroke="context-stroke" stroke-width="1"/></marker></defs><g transform="translate(-96.87,-164.75)"><g id="shape1" transform="translate(187.263974,308.503872)"><path fill-rule="nonzero" fill="#232322" d="M57.3,54.0C59.7,51.8,61.2,48.7,61.2,45.2L61.2,21.0C61.2,16.0,62.1,8.2,57.9,3.8C55.8,1.5,52.6,.0,49.2,.0L21.0,.0C16.0,.0,8.2,-0.9,3.8,3.2C1.5,5.4,.0,8.5,.0,12.0L.0,36.2C.0,41.2,-0.9,49.0,3.2,53.4C5.4,55.8,8.5,57.2,12.0,57.2L40.2,57.2C45.1,57.2,52.9,58.2,57.3,54.0z" stroke="#b7b6b4" stroke-width="2.666670083999634"/><text xml:space="preserve" style="fill:#ffffff;font-family:Microsoft YaHei,PingFang SC,Microsoft YaHei,Arial;font-size:32px"><tspan x="18.2" textLength="24.8" y="42.1">H</tspan></text></g><g id="shape2" transform="translate(270.673843,308.503872)"><path fill-rule="nonzero" fill="#232322" d="M57.3,54.0C59.7,51.8,61.2,48.7,61.2,45.2L61.2,21.0C61.2,16.0,62.1,8.2,57.9,3.8C55.8,1.5,52.6,.0,49.2,.0L21.0,.0C16.0,.0,8.2,-0.9,3.8,3.2C1.5,5.4,.0,8.5,.0,12.0L.0,36.2C.0,41.2,-0.9,49.0,3.2,53.4C5.4,55.8,8.5,57.2,12.0,57.2L40.2,57.2C45.1,57.2,52.9,58.2,57.3,54.0z" stroke="#afafaf" stroke-width="2.666670083999634"/><text xml:space="preserve" style="fill:#ffffff;font-family:Microsoft YaHei,PingFang SC,Microsoft YaHei,Arial;font-size:32px"><tspan x="21.5" textLength="18.2" y="42.1">e</tspan></text></g><g id="shape3" transform="translate(354.083721,308.503872)"><path fill-rule="nonzero" fill="#232322" d="M57.3,54.0C59.7,51.8,61.2,48.7,61.2,45.2L61.2,21.0C61.2,16.0,62.1,8.2,57.9,3.8C55.8,1.5,52.6,.0,49.2,.0L21.0,.0C16.0,.0,8.2,-0.9,3.8,3.2C1.5,5.4,.0,8.5,.0,12.0L.0,36.2C.0,41.2,-0.9,49.0,3.2,53.4C5.4,55.8,8.5,57.2,12.0,57.2L40.2,57.2C45.1,57.2,52.9,58.2,57.3,54.0z" stroke="#afafaf" stroke-width="2.666670083999634"/><text xml:space="preserve" style="fill:#ffffff;font-family:Microsoft YaHei,PingFang SC,Microsoft YaHei,Arial;font-size:32px"><tspan x="26.3" textLength="8.5" y="42.1">l</tspan></text></g><g id="shape4" transform="translate(437.493599,308.503872)"><path fill-rule="nonzero" fill="#232322" d="M57.3,54.0C59.7,51.8,61.2,48.7,61.2,45.2L61.2,21.0C61.2,16.0,62.1,8.2,57.9,3.8C55.8,1.5,52.6,.0,49.2,.0L21.0,.0C16.0,.0,8.2,-0.9,3.8,3.2C1.5,5.4,.0,8.5,.0,12.0L.0,36.2C.0,41.2,-0.9,49.0,3.2,53.4C5.4,55.8,8.5,57.2,12.0,57.2L40.2,57.2C45.1,57.2,52.9,58.2,57.3,54.0z" stroke="#afafaf" stroke-width="2.666670083999634"/><text xml:space="preserve" style="fill:#ffffff;font-family:Microsoft YaHei,PingFang SC,Microsoft YaHei,Arial;font-size:32px"><tspan x="26.3" textLength="8.5" y="42.1">l</tspan></text></g><g id="shape5" transform="translate(520.903476,308.503872)"><path fill-rule="nonzero" fill="#232322" d="M57.3,54.0C59.7,51.8,61.2,48.7,61.2,45.2L61.2,21.0C61.2,16.0,62.1,8.2,57.9,3.8C55.8,1.5,52.6,.0,49.2,.0L21.0,.0C16.0,.0,8.2,-0.9,3.8,3.2C1.5,5.4,.0,8.5,.0,12.0L.0,36.2C.0,41.2,-0.9,49.0,3.2,53.4C5.4,55.8,8.5,57.2,12.0,57.2L40.2,57.2C45.1,57.2,52.9,58.2,57.3,54.0z" stroke="#b7b6b4" stroke-width="2.666670083999634"/><text xml:space="preserve" style="fill:#ffffff;font-family:Microsoft YaHei,PingFang SC,Microsoft YaHei,Arial;font-size:32px"><tspan x="20.4" textLength="20.3" y="42.1">o</tspan></text></g><g id="shape6" transform="translate(604.313354,308.503872)"><path fill-rule="nonzero" fill="#232322" d="M57.3,54.0C59.7,51.8,61.2,48.7,61.2,45.2L61.2,21.0C61.2,16.0,62.1,8.2,57.9,3.8C55.8,1.5,52.6,.0,49.2,.0L21.0,.0C16.0,.0,8.2,-0.9,3.8,3.2C1.5,5.4,.0,8.5,.0,12.0L.0,36.2C.0,41.2,-0.9,49.0,3.2,53.4C5.4,55.8,8.5,57.2,12.0,57.2L40.2,57.2C45.1,57.2,52.9,58.2,57.3,54.0z" stroke="#b7b6b4" stroke-width="2.666670083999634"/><text xml:space="preserve" style="fill:#ffffff;font-family:Microsoft YaHei,PingFang SC,Microsoft YaHei,Arial;font-size:32px"><tspan x="14.3" textLength="32.6" y="42.1">W</tspan></text></g><g id="shape7" transform="translate(185.136565,166.082723)"><path fill-rule="nonzero" fill="#232322" d="M140.8,54.0C143.1,51.8,144.6,48.7,144.6,45.2L144.6,21.0C144.6,16.0,145.5,8.2,141.4,3.8C139.2,1.5,136.0,.0,132.6,.0L21.0,.0C16.0,.0,8.2,-0.9,3.8,3.2C1.5,5.4,.0,8.5,.0,12.0L.0,36.2C.0,41.2,-0.9,49.0,3.2,53.4C5.4,55.8,8.5,57.2,12.0,57.2L123.6,57.2C128.5,57.2,136.3,58.2,140.8,54.0z" stroke="#93c8f4" stroke-width="2.666670083999634"/><text xml:space="preserve" style="fill:#ffffff;font-family:Microsoft YaHei,PingFang SC,Microsoft YaHei,Arial;font-size:19px"><tspan x="11.1" textLength="122.3" y="37.6">指针：0x1000</tspan></text></g><g id="shape8" transform="translate(329.713686,166.082723)"><path fill-rule="nonzero" fill="#232322" d="M146.5,54.0C148.8,51.8,150.3,48.7,150.3,45.2L150.3,21.0C150.3,16.0,151.2,8.2,147.1,3.8C144.9,1.5,141.8,.0,138.3,.0L21.0,.0C16.0,.0,8.2,-0.9,3.8,3.2C1.5,5.4,.0,8.5,.0,12.0L.0,36.2C.0,41.2,-0.9,49.0,3.2,53.4C5.4,55.8,8.5,57.2,12.0,57.2L129.3,57.2C134.3,57.2,142.1,58.2,146.5,54.0z" stroke="#ffd88f" stroke-width="2.666670083999634"/><text xml:space="preserve" style="fill:#ffffff;font-family:Microsoft YaHei,PingFang SC,Microsoft YaHei,Arial;font-size:19px"><tspan x="35.5" textLength="79.3" y="37.6">长度：10</tspan></text></g><g id="shape9" transform="translate(257.425126,223.332297)"><path marker-end="url(#edrawArrow_4_2.66667)" fill="none" d="M.0,.0L-65.0,105.5" stroke="#93c8f4" stroke-width="2.666670083999634"/></g><path fill="none" d="M.0,.0L4.8,.0C5.9,.0,7.5,-0.2,8.8,.0C9.9,.3,11.0,.8,11.9,1.7C12.7,2.6,13.3,3.6,13.5,4.8C13.8,6.1,13.6,7.7,13.6,8.8L13.6,399.4C13.6,400.5,13.4,402.1,13.6,403.4C13.8,404.6,14.4,405.6,15.3,406.5C16.6,407.8,18.5,408.5,20.3,408.2C18.5,407.9,16.6,408.6,15.3,409.9C14.4,410.7,13.8,411.8,13.6,413.0C13.4,414.3,13.6,415.9,13.6,417.0L13.6,807.6C13.6,808.7,13.8,810.3,13.5,811.6C13.3,812.7,12.7,813.8,11.9,814.7C11.0,815.5,9.9,816.1,8.8,816.3C7.5,816.6,5.9,816.4,4.8,816.4L.0,816.4" id="shape10" transform="matrix(0.000000,-1.000000,-1.000000,0.000000,1001.574803,303.373158)" stroke="#ffd88f" stroke-width="2.666670083999634"/><g id="shape11" transform="translate(404.871606,223.332297)"><path marker-end="url(#edrawArrow_4_2.66667)" fill="none" d="M.0,.0L179.2,56.7" stroke="#ffd88f" stroke-width="2.666670083999634"/></g><g id="shape12" transform="translate(771.023622,166.082697)"><text xml:space="preserve" style="fill:#b3cc80;font-family:Microsoft YaHei,PingFang SC,Microsoft YaHei,Arial;font-size:32px"><tspan x="20.7" textLength="91.3" y="39.0">String</tspan></text></g><g id="shape13" transform="translate(687.723232,308.503872)"><path fill-rule="nonzero" fill="#232322" d="M57.3,54.0C59.7,51.8,61.2,48.7,61.2,45.2L61.2,21.0C61.2,16.0,62.1,8.2,57.9,3.8C55.8,1.5,52.6,.0,49.2,.0L21.0,.0C16.0,.0,8.2,-0.9,3.8,3.2C1.5,5.4,.0,8.5,.0,12.0L.0,36.2C.0,41.2,-0.9,49.0,3.2,53.4C5.4,55.8,8.5,57.2,12.0,57.2L40.2,57.2C45.1,57.2,52.9,58.2,57.3,54.0z" stroke="#b7b6b4" stroke-width="2.666670083999634"/><text xml:space="preserve" style="fill:#ffffff;font-family:Microsoft YaHei,PingFang SC,Microsoft YaHei,Arial;font-size:32px"><tspan x="20.4" textLength="20.3" y="42.1">o</tspan></text></g><g id="shape14" transform="translate(172.650564,365.753446)"><text xml:space="preserve" style="fill:#5fb7f1;font-family:Microsoft YaHei,PingFang SC,Microsoft YaHei,Arial;font-size:13px"><tspan x="22.9" textLength="44.6" y="19.0">0x1000</tspan></text></g><g id="shape15" transform="translate(256.060437,365.753456)"><text xml:space="preserve" style="fill:#5fb7f1;font-family:Microsoft YaHei,PingFang SC,Microsoft YaHei,Arial;font-size:13px"><tspan x="22.9" textLength="44.6" y="19.0">0x1004</tspan></text></g><g id="shape16" transform="translate(339.284533,365.753446)"><text xml:space="preserve" style="fill:#5fb7f1;font-family:Microsoft YaHei,PingFang SC,Microsoft YaHei,Arial;font-size:13px"><tspan x="22.9" textLength="44.6" y="19.0">0x1008</tspan></text></g><g id="shape17" transform="translate(422.880193,365.753456)"><text xml:space="preserve" style="fill:#5fb7f1;font-family:Microsoft YaHei,PingFang SC,Microsoft YaHei,Arial;font-size:13px"><tspan x="22.6" textLength="45.2" y="19.0">0x100B</tspan></text></g><g id="shape18" transform="translate(506.290071,365.753446)"><text xml:space="preserve" style="fill:#5fb7f1;font-family:Microsoft YaHei,PingFang SC,Microsoft YaHei,Arial;font-size:13px"><tspan x="22.9" textLength="44.6" y="19.0">0x1010</tspan></text></g><g id="shape19" transform="translate(589.699949,365.753456)"><text xml:space="preserve" style="fill:#5fb7f1;font-family:Microsoft YaHei,PingFang SC,Microsoft YaHei,Arial;font-size:13px"><tspan x="22.9" textLength="44.6" y="19.0">0x1014</tspan></text></g><g id="shape20" transform="translate(96.869909,365.753437)"><text xml:space="preserve" style="fill:#5fb7f1;font-family:Microsoft YaHei,PingFang SC,Microsoft YaHei,Arial;font-size:13px"><tspan x="25.7" textLength="39.0" y="19.0">地址：</tspan></text></g><g id="shape21" transform="translate(771.023622,308.503872)"><path fill-rule="nonzero" fill="#232322" d="M57.3,54.0C59.7,51.8,61.2,48.7,61.2,45.2L61.2,21.0C61.2,16.0,62.1,8.2,57.9,3.8C55.8,1.5,52.6,.0,49.2,.0L21.0,.0C16.0,.0,8.2,-0.9,3.8,3.2C1.5,5.4,.0,8.5,.0,12.0L.0,36.2C.0,41.2,-0.9,49.0,3.2,53.4C5.4,55.8,8.5,57.2,12.0,57.2L40.2,57.2C45.1,57.2,52.9,58.2,57.3,54.0z" stroke="#b7b6b4" stroke-width="2.666670083999634"/><text xml:space="preserve" style="fill:#ffffff;font-family:Microsoft YaHei,PingFang SC,Microsoft YaHei,Arial;font-size:32px"><tspan x="24.5" textLength="12.2" y="42.1">r</tspan></text></g><g id="shape22" transform="translate(854.433622,308.503872)"><path fill-rule="nonzero" fill="#232322" d="M57.3,54.0C59.7,51.8,61.2,48.7,61.2,45.2L61.2,21.0C61.2,16.0,62.1,8.2,57.9,3.8C55.8,1.5,52.6,.0,49.2,.0L21.0,.0C16.0,.0,8.2,-0.9,3.8,3.2C1.5,5.4,.0,8.5,.0,12.0L.0,36.2C.0,41.2,-0.9,49.0,3.2,53.4C5.4,55.8,8.5,57.2,12.0,57.2L40.2,57.2C45.1,57.2,52.9,58.2,57.3,54.0z" stroke="#b7b6b4" stroke-width="2.666670083999634"/><text xml:space="preserve" style="fill:#ffffff;font-family:Microsoft YaHei,PingFang SC,Microsoft YaHei,Arial;font-size:32px"><tspan x="26.3" textLength="8.5" y="42.1">l</tspan></text></g><g id="shape23" transform="translate(937.843622,308.503872)"><path fill-rule="nonzero" fill="#232322" d="M57.3,54.0C59.7,51.8,61.2,48.7,61.2,45.2L61.2,21.0C61.2,16.0,62.1,8.2,57.9,3.8C55.8,1.5,52.6,.0,49.2,.0L21.0,.0C16.0,.0,8.2,-0.9,3.8,3.2C1.5,5.4,.0,8.5,.0,12.0L.0,36.2C.0,41.2,-0.9,49.0,3.2,53.4C5.4,55.8,8.5,57.2,12.0,57.2L40.2,57.2C45.1,57.2,52.9,58.2,57.3,54.0z" stroke="#b7b6b4" stroke-width="2.666670083999634"/><text xml:space="preserve" style="fill:#ffffff;font-family:Microsoft YaHei,PingFang SC,Microsoft YaHei,Arial;font-size:32px"><tspan x="20.3" textLength="20.5" y="42.1">d</tspan></text></g><g id="shape24" transform="translate(673.294914,365.753446)"><text xml:space="preserve" style="fill:#5fb7f1;font-family:Microsoft YaHei,PingFang SC,Microsoft YaHei,Arial;font-size:13px"><tspan x="22.9" textLength="44.6" y="19.0">0x1018</tspan></text></g><g id="shape25" transform="translate(756.704914,365.753446)"><text xml:space="preserve" style="fill:#5fb7f1;font-family:Microsoft YaHei,PingFang SC,Microsoft YaHei,Arial;font-size:13px"><tspan x="22.6" textLength="45.2" y="19.0">0x101B</tspan></text></g><g id="shape26" transform="translate(840.114914,365.753446)"><text xml:space="preserve" style="fill:#5fb7f1;font-family:Microsoft YaHei,PingFang SC,Microsoft YaHei,Arial;font-size:13px"><tspan x="22.9" textLength="44.6" y="19.0">0x1020</tspan></text></g><g id="shape27" transform="translate(923.230222,365.753472)"><text xml:space="preserve" style="fill:#5fb7f1;font-family:Microsoft YaHei,PingFang SC,Microsoft YaHei,Arial;font-size:13px"><tspan x="22.9" textLength="44.6" y="19.0">0x1024</tspan></text></g><g id="shape28" transform="translate(108.493492,166.082723)"><text xml:space="preserve" style="fill:#b3cc80;font-family:Microsoft YaHei,PingFang SC,Microsoft YaHei,Arial;font-size:24px"><tspan x="9.6" textLength="48.0" y="30.0">栈：</tspan></text></g><g id="shape29" transform="translate(108.493492,308.503872)"><text xml:space="preserve" style="fill:#b3cc80;font-family:Microsoft YaHei,PingFang SC,Microsoft YaHei,Arial;font-size:24px"><tspan x="9.6" textLength="48.0" y="30.0">堆：</tspan></text></g><g id="shape30" transform="translate(480.029526,166.082697)"><path fill-rule="nonzero" fill="#232322" d="M146.5,54.0C148.8,51.8,150.3,48.7,150.3,45.2L150.3,21.0C150.3,16.0,151.2,8.2,147.1,3.8C144.9,1.5,141.8,.0,138.3,.0L21.0,.0C16.0,.0,8.2,-0.9,3.8,3.2C1.5,5.4,.0,8.5,.0,12.0L.0,36.2C.0,41.2,-0.9,49.0,3.2,53.4C5.4,55.8,8.5,57.2,12.0,57.2L129.3,57.2C134.3,57.2,142.1,58.2,146.5,54.0z" stroke="#ffd88f" stroke-width="2.666670083999634"/><text xml:space="preserve" style="fill:#ffffff;font-family:Microsoft YaHei,PingFang SC,Microsoft YaHei,Arial;font-size:19px"><tspan x="35.5" textLength="79.3" y="37.6">容量：50</tspan></text></g></g></svg>