<!--Generated by EdrawMax, SVG Export string_opration.svg String-->
<svg viewBox="0 0 1084 645" xmlns:xlink="http://www.w3.org/1999/xlink" width="1084" height="645" xmlns="http://www.w3.org/2000/svg" xmlns:ed="https://www.edrawsoft.cn/xml/2017/SVGExtensions/"><defs><marker markerWidth="13.79796524917224" markerUnits="userSpaceOnUse" markerHeight="13.79796524917224" refY="5.89898262458612" id="edrawArrow_4_2.66667" refX="1" orient="auto-start-reverse" ed:arrow="4"><path fill="context-stroke" d="M1.0,1.0L10.8,5.9L1.0,10.8L1.0,1.0" stroke-linecap="round" stroke="context-stroke" stroke-width="1"/></marker></defs><g transform="translate(0.20,-3230.16)"><g id="shape1" transform="translate(255.680692,3373.917263)"><path fill-rule="nonzero" fill="#232322" d="M57.3,54.0C59.7,51.8,61.2,48.7,61.2,45.2L61.2,21.0C61.2,16.0,62.1,8.2,57.9,3.8C55.8,1.5,52.6,.0,49.2,.0L21.0,.0C16.0,.0,8.2,-0.9,3.8,3.2C1.5,5.4,.0,8.5,.0,12.0L.0,36.2C.0,41.2,-0.9,49.0,3.2,53.4C5.4,55.8,8.5,57.2,12.0,57.2L40.2,57.2C45.1,57.2,52.9,58.2,57.3,54.0z" stroke="#b7b6b4" stroke-width="2.666670083999634"/><text xml:space="preserve" style="fill:#ffffff;font-family:Microsoft YaHei,PingFang SC,Microsoft YaHei,Arial;font-size:32px"><tspan x="18.2" textLength="24.8" y="42.1">H</tspan></text></g><g id="shape2" transform="translate(339.090692,3373.917263)"><path fill-rule="nonzero" fill="#232322" d="M57.3,54.0C59.7,51.8,61.2,48.7,61.2,45.2L61.2,21.0C61.2,16.0,62.1,8.2,57.9,3.8C55.8,1.5,52.6,.0,49.2,.0L21.0,.0C16.0,.0,8.2,-0.9,3.8,3.2C1.5,5.4,.0,8.5,.0,12.0L.0,36.2C.0,41.2,-0.9,49.0,3.2,53.4C5.4,55.8,8.5,57.2,12.0,57.2L40.2,57.2C45.1,57.2,52.9,58.2,57.3,54.0z" stroke="#afafaf" stroke-width="2.666670083999634"/><text xml:space="preserve" style="fill:#ffffff;font-family:Microsoft YaHei,PingFang SC,Microsoft YaHei,Arial;font-size:32px"><tspan x="21.5" textLength="18.2" y="42.1">e</tspan></text></g><g id="shape3" transform="translate(422.500692,3373.917263)"><path fill-rule="nonzero" fill="#232322" d="M57.3,54.0C59.7,51.8,61.2,48.7,61.2,45.2L61.2,21.0C61.2,16.0,62.1,8.2,57.9,3.8C55.8,1.5,52.6,.0,49.2,.0L21.0,.0C16.0,.0,8.2,-0.9,3.8,3.2C1.5,5.4,.0,8.5,.0,12.0L.0,36.2C.0,41.2,-0.9,49.0,3.2,53.4C5.4,55.8,8.5,57.2,12.0,57.2L40.2,57.2C45.1,57.2,52.9,58.2,57.3,54.0z" stroke="#afafaf" stroke-width="2.666670083999634"/><text xml:space="preserve" style="fill:#ffffff;font-family:Microsoft YaHei,PingFang SC,Microsoft YaHei,Arial;font-size:32px"><tspan x="26.3" textLength="8.5" y="42.1">l</tspan></text></g><g id="shape4" transform="translate(505.910692,3373.917263)"><path fill-rule="nonzero" fill="#232322" d="M57.3,54.0C59.7,51.8,61.2,48.7,61.2,45.2L61.2,21.0C61.2,16.0,62.1,8.2,57.9,3.8C55.8,1.5,52.6,.0,49.2,.0L21.0,.0C16.0,.0,8.2,-0.9,3.8,3.2C1.5,5.4,.0,8.5,.0,12.0L.0,36.2C.0,41.2,-0.9,49.0,3.2,53.4C5.4,55.8,8.5,57.2,12.0,57.2L40.2,57.2C45.1,57.2,52.9,58.2,57.3,54.0z" stroke="#afafaf" stroke-width="2.666670083999634"/><text xml:space="preserve" style="fill:#ffffff;font-family:Microsoft YaHei,PingFang SC,Microsoft YaHei,Arial;font-size:32px"><tspan x="26.3" textLength="8.5" y="42.1">l</tspan></text></g><g id="shape5" transform="translate(589.320692,3373.917263)"><path fill-rule="nonzero" fill="#232322" d="M57.3,54.0C59.7,51.8,61.2,48.7,61.2,45.2L61.2,21.0C61.2,16.0,62.1,8.2,57.9,3.8C55.8,1.5,52.6,.0,49.2,.0L21.0,.0C16.0,.0,8.2,-0.9,3.8,3.2C1.5,5.4,.0,8.5,.0,12.0L.0,36.2C.0,41.2,-0.9,49.0,3.2,53.4C5.4,55.8,8.5,57.2,12.0,57.2L40.2,57.2C45.1,57.2,52.9,58.2,57.3,54.0z" stroke="#b7b6b4" stroke-width="2.666670083999634"/><text xml:space="preserve" style="fill:#ffffff;font-family:Microsoft YaHei,PingFang SC,Microsoft YaHei,Arial;font-size:32px"><tspan x="20.4" textLength="20.3" y="42.1">o</tspan></text></g><g id="shape6" transform="translate(253.553692,3231.496063)"><path fill-rule="nonzero" fill="#232322" d="M140.8,54.0C143.1,51.8,144.6,48.7,144.6,45.2L144.6,21.0C144.6,16.0,145.5,8.2,141.4,3.8C139.2,1.5,136.0,.0,132.6,.0L21.0,.0C16.0,.0,8.2,-0.9,3.8,3.2C1.5,5.4,.0,8.5,.0,12.0L.0,36.2C.0,41.2,-0.9,49.0,3.2,53.4C5.4,55.8,8.5,57.2,12.0,57.2L123.6,57.2C128.5,57.2,136.3,58.2,140.8,54.0z" stroke="#93c8f4" stroke-width="2.666670083999634"/><text xml:space="preserve" style="fill:#ffffff;font-family:Microsoft YaHei,PingFang SC,Microsoft YaHei,Arial;font-size:19px"><tspan x="11.1" textLength="122.3" y="37.6">指针：0x1000</tspan></text></g><g id="shape7" transform="translate(398.130392,3231.496063)"><path fill-rule="nonzero" fill="#232322" d="M146.5,54.0C148.8,51.8,150.3,48.7,150.3,45.2L150.3,21.0C150.3,16.0,151.2,8.2,147.1,3.8C144.9,1.5,141.8,.0,138.3,.0L21.0,.0C16.0,.0,8.2,-0.9,3.8,3.2C1.5,5.4,.0,8.5,.0,12.0L.0,36.2C.0,41.2,-0.9,49.0,3.2,53.4C5.4,55.8,8.5,57.2,12.0,57.2L129.3,57.2C134.3,57.2,142.1,58.2,146.5,54.0z" stroke="#ffd88f" stroke-width="2.666670083999634"/><text xml:space="preserve" style="fill:#ffffff;font-family:Microsoft YaHei,PingFang SC,Microsoft YaHei,Arial;font-size:19px"><tspan x="41.1" textLength="68.1" y="37.6">长度：5</tspan></text></g><g id="shape8" transform="translate(325.842292,3288.745663)"><path marker-end="url(#edrawArrow_4_2.66667)" fill="none" d="M.0,.0L-65.0,105.5" stroke="#93c8f4" stroke-width="2.666670083999634"/></g><path fill="none" d="M.0,.0L4.8,.0C5.9,.0,7.5,-0.2,8.8,.0C9.9,.3,11.0,.8,11.9,1.7C12.7,2.6,13.3,3.6,13.5,4.8C13.8,6.1,13.6,7.7,13.6,8.8L13.6,188.5C13.6,189.6,13.4,191.2,13.6,192.5C13.8,193.7,14.4,194.8,15.3,195.6C16.6,196.9,18.5,197.6,20.3,197.3C18.5,197.0,16.6,197.7,15.3,199.0C14.4,199.9,13.8,200.9,13.6,202.1C13.4,203.4,13.6,205.0,13.6,206.1L13.6,385.8C13.6,386.9,13.8,388.5,13.5,389.8C13.3,391.0,12.7,392.1,11.9,392.9C11.0,393.8,9.9,394.3,8.8,394.6C7.5,394.8,5.9,394.6,4.8,394.6L.0,394.6" id="shape9" transform="matrix(0.000000,-1.000000,-1.000000,0.000000,648.231292,3368.786613)" stroke="#ffd88f" stroke-width="2.666670083999634"/><g id="shape10" transform="translate(473.288292,3288.745663)"><path marker-end="url(#edrawArrow_4_2.66667)" fill="none" d="M.0,.0L-19.2,57.2" stroke="#ffd88f" stroke-width="2.666670083999634"/></g><g id="shape11" transform="translate(32.340688,3237.284803)"><text xml:space="preserve" style="fill:#f78181;font-family:Microsoft YaHei,PingFang SC,Microsoft YaHei,Arial;font-size:19px"><tspan x="4.2" textLength="119.7" y="26.0">String::from()</tspan></text></g><g id="shape12" transform="translate(241.067292,3431.167053)"><text xml:space="preserve" style="fill:#5fb7f1;font-family:Microsoft YaHei,PingFang SC,Microsoft YaHei,Arial;font-size:13px"><tspan x="22.9" textLength="44.6" y="19.0">0x1000</tspan></text></g><g id="shape13" transform="translate(324.477292,3431.167063)"><text xml:space="preserve" style="fill:#5fb7f1;font-family:Microsoft YaHei,PingFang SC,Microsoft YaHei,Arial;font-size:13px"><tspan x="22.9" textLength="44.6" y="19.0">0x1004</tspan></text></g><g id="shape14" transform="translate(407.701292,3431.167063)"><text xml:space="preserve" style="fill:#5fb7f1;font-family:Microsoft YaHei,PingFang SC,Microsoft YaHei,Arial;font-size:13px"><tspan x="22.9" textLength="44.6" y="19.0">0x1008</tspan></text></g><g id="shape15" transform="translate(491.297292,3431.167063)"><text xml:space="preserve" style="fill:#5fb7f1;font-family:Microsoft YaHei,PingFang SC,Microsoft YaHei,Arial;font-size:13px"><tspan x="22.6" textLength="45.2" y="19.0">0x100B</tspan></text></g><g id="shape16" transform="translate(574.707292,3431.167063)"><text xml:space="preserve" style="fill:#5fb7f1;font-family:Microsoft YaHei,PingFang SC,Microsoft YaHei,Arial;font-size:13px"><tspan x="22.9" textLength="44.6" y="19.0">0x1010</tspan></text></g><g id="shape17" transform="translate(171.708692,3431.167053)"><text xml:space="preserve" style="fill:#5fb7f1;font-family:Microsoft YaHei,PingFang SC,Microsoft YaHei,Arial;font-size:13px"><tspan x="19.3" textLength="39.0" y="19.0">地址：</tspan></text></g><g id="shape18" transform="translate(176.910892,3231.496063)"><text xml:space="preserve" style="fill:#b3cc80;font-family:Microsoft YaHei,PingFang SC,Microsoft YaHei,Arial;font-size:24px"><tspan x="9.6" textLength="48.0" y="30.0">栈：</tspan></text></g><g id="shape19" transform="translate(176.910892,3373.916763)"><text xml:space="preserve" style="fill:#b3cc80;font-family:Microsoft YaHei,PingFang SC,Microsoft YaHei,Arial;font-size:24px"><tspan x="9.6" textLength="48.0" y="30.0">堆：</tspan></text></g><g id="shape20" transform="translate(548.446392,3231.496063)"><path fill-rule="nonzero" fill="#232322" d="M146.5,54.0C148.8,51.8,150.3,48.7,150.3,45.2L150.3,21.0C150.3,16.0,151.2,8.2,147.1,3.8C144.9,1.5,141.8,.0,138.3,.0L21.0,.0C16.0,.0,8.2,-0.9,3.8,3.2C1.5,5.4,.0,8.5,.0,12.0L.0,36.2C.0,41.2,-0.9,49.0,3.2,53.4C5.4,55.8,8.5,57.2,12.0,57.2L129.3,57.2C134.3,57.2,142.1,58.2,146.5,54.0z" stroke="#ffd88f" stroke-width="2.666670083999634"/><text xml:space="preserve" style="fill:#ffffff;font-family:Microsoft YaHei,PingFang SC,Microsoft YaHei,Arial;font-size:19px"><tspan x="35.5" textLength="79.3" y="37.6">容量：50</tspan></text></g><g id="shape21" transform="translate(255.680692,3505.585144)"><path fill-rule="nonzero" fill="#232322" d="M57.3,54.0C59.7,51.8,61.2,48.7,61.2,45.2L61.2,21.0C61.2,16.0,62.1,8.2,57.9,3.8C55.8,1.5,52.6,.0,49.2,.0L21.0,.0C16.0,.0,8.2,-0.9,3.8,3.2C1.5,5.4,.0,8.5,.0,12.0L.0,36.2C.0,41.2,-0.9,49.0,3.2,53.4C5.4,55.8,8.5,57.2,12.0,57.2L40.2,57.2C45.1,57.2,52.9,58.2,57.3,54.0z" stroke="#b7b6b4" stroke-width="2.666670083999634"/><text xml:space="preserve" style="fill:#ffffff;font-family:Microsoft YaHei,PingFang SC,Microsoft YaHei,Arial;font-size:32px"><tspan x="18.2" textLength="24.8" y="42.1">H</tspan></text></g><g id="shape22" transform="translate(339.090692,3505.585144)"><path fill-rule="nonzero" fill="#232322" d="M57.3,54.0C59.7,51.8,61.2,48.7,61.2,45.2L61.2,21.0C61.2,16.0,62.1,8.2,57.9,3.8C55.8,1.5,52.6,.0,49.2,.0L21.0,.0C16.0,.0,8.2,-0.9,3.8,3.2C1.5,5.4,.0,8.5,.0,12.0L.0,36.2C.0,41.2,-0.9,49.0,3.2,53.4C5.4,55.8,8.5,57.2,12.0,57.2L40.2,57.2C45.1,57.2,52.9,58.2,57.3,54.0z" stroke="#afafaf" stroke-width="2.666670083999634"/><text xml:space="preserve" style="fill:#ffffff;font-family:Microsoft YaHei,PingFang SC,Microsoft YaHei,Arial;font-size:32px"><tspan x="21.5" textLength="18.2" y="42.1">e</tspan></text></g><g id="shape23" transform="translate(422.500692,3505.585144)"><path fill-rule="nonzero" fill="#232322" d="M57.3,54.0C59.7,51.8,61.2,48.7,61.2,45.2L61.2,21.0C61.2,16.0,62.1,8.2,57.9,3.8C55.8,1.5,52.6,.0,49.2,.0L21.0,.0C16.0,.0,8.2,-0.9,3.8,3.2C1.5,5.4,.0,8.5,.0,12.0L.0,36.2C.0,41.2,-0.9,49.0,3.2,53.4C5.4,55.8,8.5,57.2,12.0,57.2L40.2,57.2C45.1,57.2,52.9,58.2,57.3,54.0z" stroke="#afafaf" stroke-width="2.666670083999634"/><text xml:space="preserve" style="fill:#ffffff;font-family:Microsoft YaHei,PingFang SC,Microsoft YaHei,Arial;font-size:32px"><tspan x="26.3" textLength="8.5" y="42.1">l</tspan></text></g><g id="shape24" transform="translate(505.910692,3505.585144)"><path fill-rule="nonzero" fill="#232322" d="M57.3,54.0C59.7,51.8,61.2,48.7,61.2,45.2L61.2,21.0C61.2,16.0,62.1,8.2,57.9,3.8C55.8,1.5,52.6,.0,49.2,.0L21.0,.0C16.0,.0,8.2,-0.9,3.8,3.2C1.5,5.4,.0,8.5,.0,12.0L.0,36.2C.0,41.2,-0.9,49.0,3.2,53.4C5.4,55.8,8.5,57.2,12.0,57.2L40.2,57.2C45.1,57.2,52.9,58.2,57.3,54.0z" stroke="#afafaf" stroke-width="2.666670083999634"/><text xml:space="preserve" style="fill:#ffffff;font-family:Microsoft YaHei,PingFang SC,Microsoft YaHei,Arial;font-size:32px"><tspan x="26.3" textLength="8.5" y="42.1">l</tspan></text></g><g id="shape25" transform="translate(589.320692,3505.585144)"><path fill-rule="nonzero" fill="#232322" d="M57.3,54.0C59.7,51.8,61.2,48.7,61.2,45.2L61.2,21.0C61.2,16.0,62.1,8.2,57.9,3.8C55.8,1.5,52.6,.0,49.2,.0L21.0,.0C16.0,.0,8.2,-0.9,3.8,3.2C1.5,5.4,.0,8.5,.0,12.0L.0,36.2C.0,41.2,-0.9,49.0,3.2,53.4C5.4,55.8,8.5,57.2,12.0,57.2L40.2,57.2C45.1,57.2,52.9,58.2,57.3,54.0z" stroke="#b7b6b4" stroke-width="2.666670083999634"/><text xml:space="preserve" style="fill:#ffffff;font-family:Microsoft YaHei,PingFang SC,Microsoft YaHei,Arial;font-size:32px"><tspan x="20.4" textLength="20.3" y="42.1">o</tspan></text></g><g id="shape26" transform="translate(241.067292,3562.840934)"><text xml:space="preserve" style="fill:#5fb7f1;font-family:Microsoft YaHei,PingFang SC,Microsoft YaHei,Arial;font-size:13px"><tspan x="22.1" textLength="46.2" y="19.0">0xA000</tspan></text></g><g id="shape27" transform="translate(324.477292,3562.840944)"><text xml:space="preserve" style="fill:#5fb7f1;font-family:Microsoft YaHei,PingFang SC,Microsoft YaHei,Arial;font-size:13px"><tspan x="22.1" textLength="46.2" y="19.0">0xA004</tspan></text></g><g id="shape28" transform="translate(407.701292,3562.840944)"><text xml:space="preserve" style="fill:#5fb7f1;font-family:Microsoft YaHei,PingFang SC,Microsoft YaHei,Arial;font-size:13px"><tspan x="22.1" textLength="46.2" y="19.0">0xA008</tspan></text></g><g id="shape29" transform="translate(491.297292,3562.840944)"><text xml:space="preserve" style="fill:#5fb7f1;font-family:Microsoft YaHei,PingFang SC,Microsoft YaHei,Arial;font-size:13px"><tspan x="21.8" textLength="46.7" y="19.0">0xA00B</tspan></text></g><g id="shape30" transform="translate(574.707292,3562.840944)"><text xml:space="preserve" style="fill:#5fb7f1;font-family:Microsoft YaHei,PingFang SC,Microsoft YaHei,Arial;font-size:13px"><tspan x="22.1" textLength="46.2" y="19.0">0xA010</tspan></text></g><g id="shape31" transform="translate(176.910892,3562.840934)"><text xml:space="preserve" style="fill:#5fb7f1;font-family:Microsoft YaHei,PingFang SC,Microsoft YaHei,Arial;font-size:13px"><tspan x="19.3" textLength="39.0" y="19.0">地址：</tspan></text></g><g id="shape32" transform="translate(125.868174,3505.585144)"><text xml:space="preserve" style="fill:#b3cc80;font-family:Microsoft YaHei,PingFang SC,Microsoft YaHei,Arial;font-size:24px"><tspan x="4.0" textLength="0.0" y="30.0">.rodata：</tspan><tspan x="4.0" textLength="80.0" style="font-size:16px" y="54.0">只读数据段</tspan></text></g><g id="shape33" transform="translate(286.264292,3505.585144)"><path marker-end="url(#edrawArrow_4_2.66667)" fill="none" d="M.0,.0L.0,-45.6" stroke="#f78181" stroke-width="2.666670083999634"/></g><g id="shape34" transform="translate(369.674342,3505.585144)"><path marker-end="url(#edrawArrow_4_2.66667)" fill="none" d="M.0,.0L-0.0,-45.6" stroke="#f78181" stroke-width="2.666670083999634"/></g><g id="shape35" transform="translate(453.084342,3505.585144)"><path marker-end="url(#edrawArrow_4_2.66667)" fill="none" d="M.0,.0L-0.2,-45.6" stroke="#f78181" stroke-width="2.666670083999634"/></g><g id="shape36" transform="translate(536.494342,3505.585144)"><path marker-end="url(#edrawArrow_4_2.66667)" fill="none" d="M.0,.0L-0.0,-45.6" stroke="#f78181" stroke-width="2.666670083999634"/></g><g id="shape37" transform="translate(619.904342,3505.585144)"><path marker-end="url(#edrawArrow_4_2.66667)" fill="none" d="M.0,.0L.0,-45.6" stroke="#f78181" stroke-width="2.666670083999634"/></g><path fill-rule="nonzero" fill="#f78181" d="M16.3,32.6C7.3,32.6,.0,25.3,.0,16.3C.0,7.3,7.3,.0,16.3,.0C25.3,.0,32.5,7.3,32.5,16.3C32.5,25.3,25.3,32.6,16.3,32.6zM18.5,8.3L16.0,8.3C15.6,9.3,15.0,10.1,14.0,10.9C13.1,11.6,12.2,12.1,11.4,12.4L11.4,15.2C12.9,14.7,14.3,13.9,15.4,12.8L15.4,24.5L18.5,24.5L18.5,8.3z" id="shape38" transform="translate(-0.200285,3239.000512)"/><path fill-rule="nonzero" fill="#f78181" d="M16.3,32.6C7.3,32.6,.0,25.3,.0,16.3C.0,7.3,7.3,.0,16.3,.0C25.3,.0,32.5,7.3,32.5,16.3C32.5,25.3,25.3,32.6,16.3,32.6zM21.7,21.9L15.6,21.9C15.7,21.6,15.9,21.3,16.2,21.0C16.4,20.7,17.1,20.1,18.0,19.2C19.0,18.3,19.7,17.6,20.1,17.2C20.6,16.4,21.1,15.8,21.3,15.1C21.6,14.4,21.7,13.7,21.7,13.0C21.7,11.7,21.2,10.7,20.3,9.8C19.4,8.9,18.2,8.5,16.6,8.5C15.1,8.5,13.9,8.9,13.0,9.6C12.0,10.4,11.4,11.6,11.2,13.3L14.3,13.6C14.4,12.7,14.6,12.1,15.0,11.7C15.4,11.3,15.9,11.1,16.5,11.1C17.2,11.1,17.7,11.3,18.0,11.6C18.4,12.0,18.6,12.5,18.6,13.2C18.6,13.9,18.4,14.5,18.0,15.1C17.6,15.6,16.8,16.5,15.4,17.8C13.7,19.4,12.5,20.7,11.9,21.7C11.3,22.6,11.0,23.7,10.9,24.8L21.7,24.8L21.7,21.9z" id="shape39" transform="translate(-0.200285,3649.636387)"/><g id="shape40" transform="translate(17.637984,3647.920676)"><text xml:space="preserve" style="fill:#f78181;font-family:Microsoft YaHei,PingFang SC,Microsoft YaHei,Arial;font-size:19px"><tspan x="19.7" textLength="88.6" y="26.0">push_str()</tspan></text></g><g id="shape41" transform="translate(255.680692,3792.056387)"><path fill-rule="nonzero" fill="#232322" d="M57.3,54.0C59.7,51.8,61.2,48.7,61.2,45.2L61.2,21.0C61.2,16.0,62.1,8.2,57.9,3.8C55.8,1.5,52.6,.0,49.2,.0L21.0,.0C16.0,.0,8.2,-0.9,3.8,3.2C1.5,5.4,.0,8.5,.0,12.0L.0,36.2C.0,41.2,-0.9,49.0,3.2,53.4C5.4,55.8,8.5,57.2,12.0,57.2L40.2,57.2C45.1,57.2,52.9,58.2,57.3,54.0z" stroke="#b7b6b4" stroke-width="2.666670083999634"/><text xml:space="preserve" style="fill:#ffffff;font-family:Microsoft YaHei,PingFang SC,Microsoft YaHei,Arial;font-size:32px"><tspan x="18.2" textLength="24.8" y="42.1">H</tspan></text></g><g id="shape42" transform="translate(339.090692,3792.056387)"><path fill-rule="nonzero" fill="#232322" d="M57.3,54.0C59.7,51.8,61.2,48.7,61.2,45.2L61.2,21.0C61.2,16.0,62.1,8.2,57.9,3.8C55.8,1.5,52.6,.0,49.2,.0L21.0,.0C16.0,.0,8.2,-0.9,3.8,3.2C1.5,5.4,.0,8.5,.0,12.0L.0,36.2C.0,41.2,-0.9,49.0,3.2,53.4C5.4,55.8,8.5,57.2,12.0,57.2L40.2,57.2C45.1,57.2,52.9,58.2,57.3,54.0z" stroke="#afafaf" stroke-width="2.666670083999634"/><text xml:space="preserve" style="fill:#ffffff;font-family:Microsoft YaHei,PingFang SC,Microsoft YaHei,Arial;font-size:32px"><tspan x="21.5" textLength="18.2" y="42.1">e</tspan></text></g><g id="shape43" transform="translate(422.500692,3792.056387)"><path fill-rule="nonzero" fill="#232322" d="M57.3,54.0C59.7,51.8,61.2,48.7,61.2,45.2L61.2,21.0C61.2,16.0,62.1,8.2,57.9,3.8C55.8,1.5,52.6,.0,49.2,.0L21.0,.0C16.0,.0,8.2,-0.9,3.8,3.2C1.5,5.4,.0,8.5,.0,12.0L.0,36.2C.0,41.2,-0.9,49.0,3.2,53.4C5.4,55.8,8.5,57.2,12.0,57.2L40.2,57.2C45.1,57.2,52.9,58.2,57.3,54.0z" stroke="#afafaf" stroke-width="2.666670083999634"/><text xml:space="preserve" style="fill:#ffffff;font-family:Microsoft YaHei,PingFang SC,Microsoft YaHei,Arial;font-size:32px"><tspan x="26.3" textLength="8.5" y="42.1">l</tspan></text></g><g id="shape44" transform="translate(505.910692,3792.056387)"><path fill-rule="nonzero" fill="#232322" d="M57.3,54.0C59.7,51.8,61.2,48.7,61.2,45.2L61.2,21.0C61.2,16.0,62.1,8.2,57.9,3.8C55.8,1.5,52.6,.0,49.2,.0L21.0,.0C16.0,.0,8.2,-0.9,3.8,3.2C1.5,5.4,.0,8.5,.0,12.0L.0,36.2C.0,41.2,-0.9,49.0,3.2,53.4C5.4,55.8,8.5,57.2,12.0,57.2L40.2,57.2C45.1,57.2,52.9,58.2,57.3,54.0z" stroke="#afafaf" stroke-width="2.666670083999634"/><text xml:space="preserve" style="fill:#ffffff;font-family:Microsoft YaHei,PingFang SC,Microsoft YaHei,Arial;font-size:32px"><tspan x="26.3" textLength="8.5" y="42.1">l</tspan></text></g><g id="shape45" transform="translate(589.320692,3792.056387)"><path fill-rule="nonzero" fill="#232322" d="M57.3,54.0C59.7,51.8,61.2,48.7,61.2,45.2L61.2,21.0C61.2,16.0,62.1,8.2,57.9,3.8C55.8,1.5,52.6,.0,49.2,.0L21.0,.0C16.0,.0,8.2,-0.9,3.8,3.2C1.5,5.4,.0,8.5,.0,12.0L.0,36.2C.0,41.2,-0.9,49.0,3.2,53.4C5.4,55.8,8.5,57.2,12.0,57.2L40.2,57.2C45.1,57.2,52.9,58.2,57.3,54.0z" stroke="#b7b6b4" stroke-width="2.666670083999634"/><text xml:space="preserve" style="fill:#ffffff;font-family:Microsoft YaHei,PingFang SC,Microsoft YaHei,Arial;font-size:32px"><tspan x="20.4" textLength="20.3" y="42.1">o</tspan></text></g><g id="shape46" transform="translate(253.553692,3649.636387)"><path fill-rule="nonzero" fill="#232322" d="M140.8,54.0C143.1,51.8,144.6,48.7,144.6,45.2L144.6,21.0C144.6,16.0,145.5,8.2,141.4,3.8C139.2,1.5,136.0,.0,132.6,.0L21.0,.0C16.0,.0,8.2,-0.9,3.8,3.2C1.5,5.4,.0,8.5,.0,12.0L.0,36.2C.0,41.2,-0.9,49.0,3.2,53.4C5.4,55.8,8.5,57.2,12.0,57.2L123.6,57.2C128.5,57.2,136.3,58.2,140.8,54.0z" stroke="#93c8f4" stroke-width="2.666670083999634"/><text xml:space="preserve" style="fill:#ffffff;font-family:Microsoft YaHei,PingFang SC,Microsoft YaHei,Arial;font-size:19px"><tspan x="11.1" textLength="122.3" y="37.6">指针：0x1000</tspan></text></g><g id="shape47" transform="translate(398.130392,3649.636387)"><path fill-rule="nonzero" fill="#232322" d="M146.5,54.0C148.8,51.8,150.3,48.7,150.3,45.2L150.3,21.0C150.3,16.0,151.2,8.2,147.1,3.8C144.9,1.5,141.8,.0,138.3,.0L21.0,.0C16.0,.0,8.2,-0.9,3.8,3.2C1.5,5.4,.0,8.5,.0,12.0L.0,36.2C.0,41.2,-0.9,49.0,3.2,53.4C5.4,55.8,8.5,57.2,12.0,57.2L129.3,57.2C134.3,57.2,142.1,58.2,146.5,54.0z" stroke="#f78181" stroke-width="2.666670083999634"/><text xml:space="preserve" style="fill:#ffffff;font-family:Microsoft YaHei,PingFang SC,Microsoft YaHei,Arial;font-size:19px"><tspan x="18.8" textLength="112.7" y="37.6">长度：5->10</tspan></text></g><g id="shape48" transform="translate(325.842292,3706.885987)"><path marker-end="url(#edrawArrow_4_2.66667)" fill="none" d="M.0,.0L-65.0,105.5" stroke="#93c8f4" stroke-width="2.666670083999634"/></g><path fill="none" d="M.0,.0L4.8,.0C5.9,.0,7.5,-0.2,8.8,.0C9.9,.3,11.0,.8,11.9,1.7C12.7,2.6,13.3,3.6,13.5,4.8C13.8,6.1,13.6,7.7,13.6,8.8L13.6,399.9C13.6,401.0,13.4,402.5,13.6,403.9C13.8,405.0,14.4,406.1,15.3,407.0C16.6,408.3,18.5,408.9,20.3,408.7C18.5,408.4,16.6,409.0,15.3,410.4C14.4,411.2,13.8,412.3,13.6,413.4C13.4,414.8,13.6,416.3,13.6,417.4L13.6,808.5C13.6,809.6,13.8,811.2,13.5,812.5C13.3,813.7,12.7,814.8,11.9,815.6C11.0,816.5,9.9,817.0,8.8,817.3C7.5,817.5,5.9,817.3,4.8,817.3L.0,817.3" id="shape49" transform="matrix(0.000000,-1.000000,-1.000000,0.000000,1070.926910,3786.930737)" stroke="#f78181" stroke-width="2.666670083999634"/><g id="shape50" transform="translate(473.288292,3706.885987)"><path marker-end="url(#edrawArrow_4_2.66667)" fill="none" d="M.0,.0L186.5,63.3" stroke="#f78181" stroke-width="2.666670083999634"/></g><g id="shape51" transform="translate(241.067292,3849.312177)"><text xml:space="preserve" style="fill:#5fb7f1;font-family:Microsoft YaHei,PingFang SC,Microsoft YaHei,Arial;font-size:13px"><tspan x="22.9" textLength="44.6" y="19.0">0x1000</tspan></text></g><g id="shape52" transform="translate(324.477292,3849.312187)"><text xml:space="preserve" style="fill:#5fb7f1;font-family:Microsoft YaHei,PingFang SC,Microsoft YaHei,Arial;font-size:13px"><tspan x="22.9" textLength="44.6" y="19.0">0x1004</tspan></text></g><g id="shape53" transform="translate(407.701292,3849.312187)"><text xml:space="preserve" style="fill:#5fb7f1;font-family:Microsoft YaHei,PingFang SC,Microsoft YaHei,Arial;font-size:13px"><tspan x="22.9" textLength="44.6" y="19.0">0x1008</tspan></text></g><g id="shape54" transform="translate(491.297292,3849.312187)"><text xml:space="preserve" style="fill:#5fb7f1;font-family:Microsoft YaHei,PingFang SC,Microsoft YaHei,Arial;font-size:13px"><tspan x="22.6" textLength="45.2" y="19.0">0x100B</tspan></text></g><g id="shape55" transform="translate(574.707292,3849.312187)"><text xml:space="preserve" style="fill:#5fb7f1;font-family:Microsoft YaHei,PingFang SC,Microsoft YaHei,Arial;font-size:13px"><tspan x="22.9" textLength="44.6" y="19.0">0x1010</tspan></text></g><g id="shape56" transform="translate(171.708692,3849.312177)"><text xml:space="preserve" style="fill:#5fb7f1;font-family:Microsoft YaHei,PingFang SC,Microsoft YaHei,Arial;font-size:13px"><tspan x="19.3" textLength="39.0" y="19.0">地址：</tspan></text></g><g id="shape57" transform="translate(176.910892,3649.640887)"><text xml:space="preserve" style="fill:#b3cc80;font-family:Microsoft YaHei,PingFang SC,Microsoft YaHei,Arial;font-size:24px"><tspan x="9.6" textLength="48.0" y="30.0">栈：</tspan></text></g><g id="shape58" transform="translate(176.910892,3792.060887)"><text xml:space="preserve" style="fill:#b3cc80;font-family:Microsoft YaHei,PingFang SC,Microsoft YaHei,Arial;font-size:24px"><tspan x="9.6" textLength="48.0" y="30.0">堆：</tspan></text></g><g id="shape59" transform="translate(548.446392,3649.636387)"><path fill-rule="nonzero" fill="#232322" d="M146.5,54.0C148.8,51.8,150.3,48.7,150.3,45.2L150.3,21.0C150.3,16.0,151.2,8.2,147.1,3.8C144.9,1.5,141.8,.0,138.3,.0L21.0,.0C16.0,.0,8.2,-0.9,3.8,3.2C1.5,5.4,.0,8.5,.0,12.0L.0,36.2C.0,41.2,-0.9,49.0,3.2,53.4C5.4,55.8,8.5,57.2,12.0,57.2L129.3,57.2C134.3,57.2,142.1,58.2,146.5,54.0z" stroke="#ffd88f" stroke-width="2.666670083999634"/><text xml:space="preserve" style="fill:#ffffff;font-family:Microsoft YaHei,PingFang SC,Microsoft YaHei,Arial;font-size:19px"><tspan x="35.5" textLength="79.3" y="37.6">容量：50</tspan></text></g><g id="shape60" transform="translate(674.714792,3792.056387)"><path fill-rule="nonzero" fill="#232322" d="M57.3,54.0C59.7,51.8,61.2,48.7,61.2,45.2L61.2,21.0C61.2,16.0,62.1,8.2,57.9,3.8C55.8,1.5,52.6,.0,49.2,.0L21.0,.0C16.0,.0,8.2,-0.9,3.8,3.2C1.5,5.4,.0,8.5,.0,12.0L.0,36.2C.0,41.2,-0.9,49.0,3.2,53.4C5.4,55.8,8.5,57.2,12.0,57.2L40.2,57.2C45.1,57.2,52.9,58.2,57.3,54.0z" stroke="#f78181" stroke-width="2.666670083999634"/><text xml:space="preserve" style="fill:#ffffff;font-family:Microsoft YaHei,PingFang SC,Microsoft YaHei,Arial;font-size:32px"><tspan x="14.3" textLength="32.6" y="42.1">W</tspan></text></g><g id="shape61" transform="translate(758.124792,3792.056387)"><path fill-rule="nonzero" fill="#232322" d="M57.3,54.0C59.7,51.8,61.2,48.7,61.2,45.2L61.2,21.0C61.2,16.0,62.1,8.2,57.9,3.8C55.8,1.5,52.6,.0,49.2,.0L21.0,.0C16.0,.0,8.2,-0.9,3.8,3.2C1.5,5.4,.0,8.5,.0,12.0L.0,36.2C.0,41.2,-0.9,49.0,3.2,53.4C5.4,55.8,8.5,57.2,12.0,57.2L40.2,57.2C45.1,57.2,52.9,58.2,57.3,54.0z" stroke="#f78181" stroke-width="2.666670083999634"/><text xml:space="preserve" style="fill:#ffffff;font-family:Microsoft YaHei,PingFang SC,Microsoft YaHei,Arial;font-size:32px"><tspan x="20.4" textLength="20.3" y="42.1">o</tspan></text></g><g id="shape62" transform="translate(660.101392,3849.312187)"><text xml:space="preserve" style="fill:#5fb7f1;font-family:Microsoft YaHei,PingFang SC,Microsoft YaHei,Arial;font-size:13px"><tspan x="22.9" textLength="44.6" y="19.0">0x1014</tspan></text></g><g id="shape63" transform="translate(841.424792,3792.056387)"><path fill-rule="nonzero" fill="#232322" d="M57.3,54.0C59.7,51.8,61.2,48.7,61.2,45.2L61.2,21.0C61.2,16.0,62.1,8.2,57.9,3.8C55.8,1.5,52.6,.0,49.2,.0L21.0,.0C16.0,.0,8.2,-0.9,3.8,3.2C1.5,5.4,.0,8.5,.0,12.0L.0,36.2C.0,41.2,-0.9,49.0,3.2,53.4C5.4,55.8,8.5,57.2,12.0,57.2L40.2,57.2C45.1,57.2,52.9,58.2,57.3,54.0z" stroke="#f78181" stroke-width="2.666670083999634"/><text xml:space="preserve" style="fill:#ffffff;font-family:Microsoft YaHei,PingFang SC,Microsoft YaHei,Arial;font-size:32px"><tspan x="24.5" textLength="12.2" y="42.1">r</tspan></text></g><g id="shape64" transform="translate(924.834792,3792.056387)"><path fill-rule="nonzero" fill="#232322" d="M57.3,54.0C59.7,51.8,61.2,48.7,61.2,45.2L61.2,21.0C61.2,16.0,62.1,8.2,57.9,3.8C55.8,1.5,52.6,.0,49.2,.0L21.0,.0C16.0,.0,8.2,-0.9,3.8,3.2C1.5,5.4,.0,8.5,.0,12.0L.0,36.2C.0,41.2,-0.9,49.0,3.2,53.4C5.4,55.8,8.5,57.2,12.0,57.2L40.2,57.2C45.1,57.2,52.9,58.2,57.3,54.0z" stroke="#f78181" stroke-width="2.666670083999634"/><text xml:space="preserve" style="fill:#ffffff;font-family:Microsoft YaHei,PingFang SC,Microsoft YaHei,Arial;font-size:32px"><tspan x="26.3" textLength="8.5" y="42.1">l</tspan></text></g><g id="shape65" transform="translate(1008.244792,3792.056387)"><path fill-rule="nonzero" fill="#232322" d="M57.3,54.0C59.7,51.8,61.2,48.7,61.2,45.2L61.2,21.0C61.2,16.0,62.1,8.2,57.9,3.8C55.8,1.5,52.6,.0,49.2,.0L21.0,.0C16.0,.0,8.2,-0.9,3.8,3.2C1.5,5.4,.0,8.5,.0,12.0L.0,36.2C.0,41.2,-0.9,49.0,3.2,53.4C5.4,55.8,8.5,57.2,12.0,57.2L40.2,57.2C45.1,57.2,52.9,58.2,57.3,54.0z" stroke="#f78181" stroke-width="2.666670083999634"/><text xml:space="preserve" style="fill:#ffffff;font-family:Microsoft YaHei,PingFang SC,Microsoft YaHei,Arial;font-size:32px"><tspan x="20.3" textLength="20.5" y="42.1">d</tspan></text></g><g id="shape66" transform="translate(743.696392,3849.312187)"><text xml:space="preserve" style="fill:#5fb7f1;font-family:Microsoft YaHei,PingFang SC,Microsoft YaHei,Arial;font-size:13px"><tspan x="22.9" textLength="44.6" y="19.0">0x1018</tspan></text></g><g id="shape67" transform="translate(827.106392,3849.312187)"><text xml:space="preserve" style="fill:#5fb7f1;font-family:Microsoft YaHei,PingFang SC,Microsoft YaHei,Arial;font-size:13px"><tspan x="22.6" textLength="45.2" y="19.0">0x101B</tspan></text></g><g id="shape68" transform="translate(910.516392,3849.312187)"><text xml:space="preserve" style="fill:#5fb7f1;font-family:Microsoft YaHei,PingFang SC,Microsoft YaHei,Arial;font-size:13px"><tspan x="22.9" textLength="44.6" y="19.0">0x1020</tspan></text></g><g id="shape69" transform="translate(993.631392,3849.312187)"><text xml:space="preserve" style="fill:#5fb7f1;font-family:Microsoft YaHei,PingFang SC,Microsoft YaHei,Arial;font-size:13px"><tspan x="22.9" textLength="44.6" y="19.0">0x1024</tspan></text></g><g id="shape70" transform="translate(629.885791,3464.774791)"><text xml:space="preserve" style="fill:#f78181;font-family:Microsoft YaHei,PingFang SC,Microsoft YaHei,Arial;font-size:19px"><tspan x="9.2" textLength="171.0" y="26.0">将数据复制到内存里</tspan></text></g><g id="shape71" transform="translate(695.005442,3732.451487)"><text xml:space="preserve" style="fill:#f78181;font-family:Microsoft YaHei,PingFang SC,Microsoft YaHei,Arial;font-size:19px"><tspan x="22.0" textLength="247.0" y="26.0">在堆里添加数据，并修改长度</tspan></text></g></g></svg>