<!--Generated by EdrawMax, SVG Export sue.svg 页-3-->
<svg xmlns="http://www.w3.org/2000/svg" xmlns:xlink="http://www.w3.org/1999/xlink" viewBox="0 0 735 467" xmlns:ed="urn:edrawmax" height="467" width="735"><defs><marker refY="5.8989826245861199" refX="10.79796524917224" id="edrawArrow_end_4_2.66667_#f78181" orient="auto" markerUnits="userSpaceOnUse" markerHeight="13.79796524917224" ed:arrow="4" markerWidth="13.79796524917224"><path fill="#f78181" stroke="#f78181" stroke-width="1" d="M1.0,1.0L10.8,5.9L1.0,10.8L1.0,1.0" stroke-linecap="round"/></marker><marker refY="5.8989826245861199" refX="10.79796524917224" id="edrawArrow_end_4_2.66667_#5fb7f1" orient="auto" markerUnits="userSpaceOnUse" markerHeight="13.79796524917224" ed:arrow="4" markerWidth="13.79796524917224"><path fill="#5fb7f1" stroke="#5fb7f1" stroke-width="1" d="M1.0,1.0L10.8,5.9L1.0,10.8L1.0,1.0" stroke-linecap="round"/></marker></defs><g transform="translate(-138.91,-896.30)"><g transform="translate(434.270096,897.637795)" id="shape1"><path fill="#232322" stroke="#b7b6b4" fill-rule="nonzero" stroke-width="2.6666700839996338" d="M128.2,72.8C130.5,70.6,132.0,67.5,132.0,64.0L132.0,21.0C132.0,16.0,132.9,8.2,128.8,3.8C126.6,1.5,123.5,.0,120.0,.0L21.0,.0C16.0,.0,8.2,-0.9,3.8,3.2C1.5,5.4,.0,8.5,.0,12.0L.0,55.0C.0,60.0,-0.9,67.8,3.2,72.2C5.4,74.5,8.5,76.0,12.0,76.0L111.0,76.0C116.0,76.0,123.8,76.9,128.2,72.8z"/><text style="fill:#ffffff;font-family:Microsoft YaHei,PingFang SC,Microsoft YaHei,Arial;font-size:24px" xml:space="preserve"><tspan x="37.6" y="48.0" textLength="56.8">crate</tspan></text></g><g transform="translate(274.299213,1039.370079)" id="shape2"><path fill="#232322" stroke="#b7b6b4" fill-rule="nonzero" stroke-width="2.6666700839996338" d="M128.2,72.8C130.5,70.6,132.0,67.5,132.0,64.0L132.0,21.0C132.0,16.0,132.9,8.2,128.8,3.8C126.6,1.5,123.5,.0,120.0,.0L21.0,.0C16.0,.0,8.2,-0.9,3.8,3.2C1.5,5.4,.0,8.5,.0,12.0L.0,55.0C.0,60.0,-0.9,67.8,3.2,72.2C5.4,74.5,8.5,76.0,12.0,76.0L111.0,76.0C116.0,76.0,123.8,76.9,128.2,72.8z"/><text style="fill:#ffffff;font-family:Microsoft YaHei,PingFang SC,Microsoft YaHei,Arial;font-size:24px" xml:space="preserve"><tspan x="39.5" y="48.0" textLength="53.1">mod</tspan></text></g><g transform="translate(604.724409,1039.370079)" id="shape3"><path fill="#232322" stroke="#b7b6b4" fill-rule="nonzero" stroke-width="2.6666700839996338" d="M128.2,72.8C130.5,70.6,132.0,67.5,132.0,64.0L132.0,21.0C132.0,16.0,132.9,8.2,128.8,3.8C126.6,1.5,123.5,.0,120.0,.0L21.0,.0C16.0,.0,8.2,-0.9,3.8,3.2C1.5,5.4,.0,8.5,.0,12.0L.0,55.0C.0,60.0,-0.9,67.8,3.2,72.2C5.4,74.5,8.5,76.0,12.0,76.0L111.0,76.0C116.0,76.0,123.8,76.9,128.2,72.8z"/><text style="fill:#ffffff;font-family:Microsoft YaHei,PingFang SC,Microsoft YaHei,Arial;font-size:24px" xml:space="preserve"><tspan x="39.5" y="48.0" textLength="53.1">mod</tspan></text></g><g transform="translate(140.240946,1181.102362)" id="shape4"><path fill="#232322" stroke="#b7b6b4" fill-rule="nonzero" stroke-width="2.6666700839996338" d="M128.2,72.8C130.5,70.6,132.0,67.5,132.0,64.0L132.0,21.0C132.0,16.0,132.9,8.2,128.8,3.8C126.6,1.5,123.5,.0,120.0,.0L21.0,.0C16.0,.0,8.2,-0.9,3.8,3.2C1.5,5.4,.0,8.5,.0,12.0L.0,55.0C.0,60.0,-0.9,67.8,3.2,72.2C5.4,74.5,8.5,76.0,12.0,76.0L111.0,76.0C116.0,76.0,123.8,76.9,128.2,72.8z"/><text style="fill:#ffffff;font-family:Microsoft YaHei,PingFang SC,Microsoft YaHei,Arial;font-size:24px" xml:space="preserve"><tspan x="39.5" y="48.0" textLength="53.1">mod</tspan></text></g><g transform="translate(340.260379,1181.102362)" id="shape5"><path fill="#232322" stroke="#b7b6b4" fill-rule="nonzero" stroke-width="2.6666700839996338" d="M128.2,72.8C130.5,70.6,132.0,67.5,132.0,64.0L132.0,21.0C132.0,16.0,132.9,8.2,128.8,3.8C126.6,1.5,123.5,.0,120.0,.0L21.0,.0C16.0,.0,8.2,-0.9,3.8,3.2C1.5,5.4,.0,8.5,.0,12.0L.0,55.0C.0,60.0,-0.9,67.8,3.2,72.2C5.4,74.5,8.5,76.0,12.0,76.0L111.0,76.0C116.0,76.0,123.8,76.9,128.2,72.8z"/><text style="fill:#ffffff;font-family:Microsoft YaHei,PingFang SC,Microsoft YaHei,Arial;font-size:24px" xml:space="preserve"><tspan x="39.5" y="48.0" textLength="53.1">mod</tspan></text></g><g transform="translate(540.279812,1181.102362)" id="shape6"><path fill="#232322" stroke="#b7b6b4" fill-rule="nonzero" stroke-width="2.6666700839996338" d="M128.2,72.8C130.5,70.6,132.0,67.5,132.0,64.0L132.0,21.0C132.0,16.0,132.9,8.2,128.8,3.8C126.6,1.5,123.5,.0,120.0,.0L21.0,.0C16.0,.0,8.2,-0.9,3.8,3.2C1.5,5.4,.0,8.5,.0,12.0L.0,55.0C.0,60.0,-0.9,67.8,3.2,72.2C5.4,74.5,8.5,76.0,12.0,76.0L111.0,76.0C116.0,76.0,123.8,76.9,128.2,72.8z"/><text style="fill:#ffffff;font-family:Microsoft YaHei,PingFang SC,Microsoft YaHei,Arial;font-size:24px" xml:space="preserve"><tspan x="39.5" y="48.0" textLength="53.1">mod</tspan></text></g><g transform="translate(740.299245,1181.102362)" id="shape7"><path fill="#232322" stroke="#b7b6b4" fill-rule="nonzero" stroke-width="2.6666700839996338" d="M128.2,72.8C130.5,70.6,132.0,67.5,132.0,64.0L132.0,21.0C132.0,16.0,132.9,8.2,128.8,3.8C126.6,1.5,123.5,.0,120.0,.0L21.0,.0C16.0,.0,8.2,-0.9,3.8,3.2C1.5,5.4,.0,8.5,.0,12.0L.0,55.0C.0,60.0,-0.9,67.8,3.2,72.2C5.4,74.5,8.5,76.0,12.0,76.0L111.0,76.0C116.0,76.0,123.8,76.9,128.2,72.8z"/><text style="fill:#ffffff;font-family:Microsoft YaHei,PingFang SC,Microsoft YaHei,Arial;font-size:24px" xml:space="preserve"><tspan x="39.5" y="48.0" textLength="53.1">mod</tspan></text></g><g transform="translate(500.270096,973.637795)" id="shape8"><path fill="none" marker-end="url(#edrawArrow_end_4_2.66667_#f78181)" stroke="#f78181" stroke-width="2.6666700839996338" d="M.0,.0L.0,22.4C.0,30.6,-6.7,37.4,-15.0,37.4L-146.0,37.4C-153.7,37.4,-160.0,43.6,-160.0,51.4L-160.0,65.7"/></g><g transform="translate(500.270096,973.637795)" id="shape9"><path fill="none" marker-end="url(#edrawArrow_end_4_2.66667_#f78181)" stroke="#f78181" stroke-width="2.6666700839996338" d="M.0,.0L.0,22.4C.0,30.6,6.7,37.4,15.0,37.4L156.5,37.4C164.2,37.4,170.5,43.6,170.5,51.4L170.5,65.7"/></g><g transform="translate(340.299213,1115.370079)" id="shape10"><path fill="none" marker-end="url(#edrawArrow_end_4_2.66667_#f78181)" stroke="#f78181" stroke-width="2.6666700839996338" d="M.0,.0L.0,22.6C.0,30.9,-6.7,37.6,-15.0,37.6L-120.1,37.6C-127.8,37.6,-134.1,43.9,-134.1,51.6L-134.1,65.7"/></g><g transform="translate(340.299213,1115.370079)" id="shape11"><path fill="none" marker-end="url(#edrawArrow_end_4_2.66667_#f78181)" stroke="#f78181" stroke-width="2.6666700839996338" d="M.0,.0L.0,22.6C.0,30.9,6.7,37.6,15.0,37.6L52.0,37.6C59.7,37.6,66.0,43.9,66.0,51.6L66.0,65.7"/></g><g transform="translate(670.724409,1115.370079)" id="shape12"><path fill="none" marker-end="url(#edrawArrow_end_4_2.66667_#f78181)" stroke="#f78181" stroke-width="2.6666700839996338" d="M.0,.0L.0,22.6C.0,30.9,-6.7,37.6,-15.0,37.6L-50.4,37.6C-58.2,37.6,-64.4,43.9,-64.4,51.6L-64.4,65.7"/></g><g transform="translate(670.724409,1115.370079)" id="shape13"><path fill="none" marker-end="url(#edrawArrow_end_4_2.66667_#f78181)" stroke="#f78181" stroke-width="2.6666700839996338" d="M.0,.0L.0,22.6C.0,30.9,6.7,37.6,15.0,37.6L121.6,37.6C129.3,37.6,135.6,43.9,135.6,51.6L135.6,65.7"/></g><g transform="translate(568.270096,963.779528)" id="shape14"><text style="fill:#f78181;font-family:Microsoft YaHei,PingFang SC,Microsoft YaHei,Arial;font-size:24px" xml:space="preserve"><tspan x="9.4" y="30.0" textLength="197.1">mod：构建模块树</tspan></text></g><g transform="translate(206.240946,1257.102362)" id="shape15"><path fill="none" marker-end="url(#edrawArrow_end_4_2.66667_#5fb7f1)" stroke="#5fb7f1" stroke-width="2.6666700839996338" d="M.0,.0L.0,50.7C.0,59.0,6.7,65.7,15.0,65.7L385.0,65.7C393.3,65.7,400.0,59.0,400.0,50.7L400.0,.0"/></g><g transform="translate(293.381193,1322.834646)" id="shape16"><text style="fill:#5fb7f1;font-family:Microsoft YaHei,PingFang SC,Microsoft YaHei,Arial;font-size:24px" xml:space="preserve"><tspan x="33.1" y="30.0" textLength="159.5">use：使用模块</tspan></text></g></g></svg>