<!--Generated by EdrawMax, SVG Export w_mut.svg 结构体内引用的可变性-->
<svg viewBox="0 0 918 267" xmlns:xlink="http://www.w3.org/1999/xlink" width="918" height="267" xmlns="http://www.w3.org/2000/svg" xmlns:ed="https://www.edrawsoft.cn/xml/2017/SVGExtensions/"><defs><marker markerWidth="13.79796524917224" markerUnits="userSpaceOnUse" markerHeight="13.79796524917224" refY="5.89898262458612" id="edrawArrow_4_2.66667" refX="1" orient="auto-start-reverse" ed:arrow="4"><path fill="context-stroke" d="M1.0,1.0L10.8,5.9L1.0,10.8L1.0,1.0" stroke-linecap="round" stroke="context-stroke" stroke-width="1"/></marker></defs><g transform="translate(-18.00,-433.52)"><g id="shape1" transform="translate(39.370079,447.850500)"><path fill-rule="nonzero" fill="#232322" d="M252.1,72.8C254.4,70.6,255.9,67.5,255.9,64.0L255.9,21.0C255.9,16.0,256.8,8.2,252.7,3.8C250.5,1.5,247.4,.0,243.9,.0L21.0,.0C16.0,.0,8.2,-0.9,3.8,3.2C1.5,5.4,.0,8.5,.0,12.0L.0,55.0C.0,60.0,-0.9,67.8,3.2,72.2C5.4,74.5,8.5,76.0,12.0,76.0L234.9,76.0C239.9,76.0,247.7,76.9,252.1,72.8z" stroke="#b7b6b4" stroke-width="2.666670083999634"/><text xml:space="preserve" style="fill:#ffffff;font-family:Microsoft YaHei,PingFang SC,Microsoft YaHei,Arial;font-size:32px"><tspan x="48.1" textLength="159.7" y="51.5">w.data_ptr</tspan></text></g><g id="shape2" transform="translate(644.685079,485.850500)"><path marker-end="url(#edrawArrow_4_2.66667)" fill="none" d="M.0,.0L83.7,.0" stroke="#b7b6b4" stroke-width="2.666670083999634"/></g><g id="shape3" transform="translate(738.189079,434.850500)"><ed:custProps><ed:property ed:Invisible="0" ed:Format="#,###0.00" ed:Type="4" ed:Unit="USD" ed:Name="Cost" ed:Value="" ed:Label="Cost"/><ed:property ed:Invisible="0" ed:Format="[h]:[mm] &quot;eh:em&quot;" ed:Type="3" ed:Unit="" ed:Name="Duration" ed:Value="" ed:Label="Duration"/><ed:property ed:Invisible="0" ed:Format="@" ed:Type="0" ed:Unit="" ed:Name="Resources" ed:Value="" ed:Label="Resources"/></ed:custProps><path fill-rule="nonzero" fill="#232322" d="M12.8,.0L184.1,.0C191.1,.0,196.9,22.8,196.9,51.0C196.9,79.2,191.1,102.0,184.1,102.0L12.8,102.0C5.7,102.0,.0,79.2,.0,51.0C.0,22.8,5.7,.0,12.8,.0z"/><path fill="none" d="M12.8,.0L184.1,.0C191.1,.0,196.9,22.8,196.9,51.0C196.9,79.2,191.1,102.0,184.1,102.0L12.8,102.0C5.7,102.0,.0,79.2,.0,51.0C.0,22.8,5.7,.0,12.8,.0zM184.1,.0C177.1,.0,171.4,22.8,171.4,51.0C171.4,79.2,177.1,102.0,184.1,102.0" stroke="#b7b6b4" stroke-width="2.666670083999634"/><text xml:space="preserve" style="fill:#ffffff;font-family:Microsoft YaHei,PingFang SC,Microsoft YaHei,Arial;font-size:32px"><tspan x="60.1" textLength="64.0" y="43.0">数据</tspan><tspan x="50.7" textLength="82.8" y="86.0">（5）</tspan></text></g><g id="shape4" transform="translate(388.779079,447.850500)"><path fill-rule="nonzero" fill="#232322" d="M252.1,72.8C254.4,70.6,255.9,67.5,255.9,64.0L255.9,21.0C255.9,16.0,256.8,8.2,252.7,3.8C250.5,1.5,247.4,.0,243.9,.0L21.0,.0C16.0,.0,8.2,-0.9,3.8,3.2C1.5,5.4,.0,8.5,.0,12.0L.0,55.0C.0,60.0,-0.9,67.8,3.2,72.2C5.4,74.5,8.5,76.0,12.0,76.0L234.9,76.0C239.9,76.0,247.7,76.9,252.1,72.8z" stroke="#b7b6b4" stroke-width="2.666670083999634"/><text xml:space="preserve" style="fill:#ffffff;font-family:Microsoft YaHei,PingFang SC,Microsoft YaHei,Arial;font-size:32px"><tspan x="71.8" textLength="112.2" y="51.5">x的指针</tspan></text></g><g id="shape5" transform="translate(295.276079,485.850500)"><path marker-end="url(#edrawArrow_4_2.66667)" fill="none" d="M.0,.0L83.7,.0" stroke="#b7b6b4" stroke-width="2.666670083999634"/></g><g id="shape6" transform="translate(644.685470,648.236220)"><path marker-end="url(#edrawArrow_4_2.66667)" fill="none" d="M.0,.0L83.7,.0" stroke="#b7b6b4" stroke-width="2.666670083999634"/></g><g id="shape7" transform="translate(738.189370,597.236220)"><ed:custProps><ed:property ed:Invisible="0" ed:Format="#,###0.00" ed:Type="4" ed:Unit="USD" ed:Name="Cost" ed:Value="" ed:Label="Cost"/><ed:property ed:Invisible="0" ed:Format="[h]:[mm] &quot;eh:em&quot;" ed:Type="3" ed:Unit="" ed:Name="Duration" ed:Value="" ed:Label="Duration"/><ed:property ed:Invisible="0" ed:Format="@" ed:Type="0" ed:Unit="" ed:Name="Resources" ed:Value="" ed:Label="Resources"/></ed:custProps><path fill-rule="nonzero" fill="#232322" d="M12.8,.0L184.1,.0C191.1,.0,196.8,22.8,196.8,51.0C196.8,79.2,191.1,102.0,184.1,102.0L12.8,102.0C5.7,102.0,.0,79.2,.0,51.0C.0,22.8,5.7,.0,12.8,.0z"/><path fill="none" d="M12.8,.0L184.1,.0C191.1,.0,196.8,22.8,196.8,51.0C196.8,79.2,191.1,102.0,184.1,102.0L12.8,102.0C5.7,102.0,.0,79.2,.0,51.0C.0,22.8,5.7,.0,12.8,.0zM184.1,.0C177.1,.0,171.3,22.8,171.3,51.0C171.3,79.2,177.1,102.0,184.1,102.0" stroke="#b7b6b4" stroke-width="2.666670083999634"/><text xml:space="preserve" style="fill:#ffffff;font-family:Microsoft YaHei,PingFang SC,Microsoft YaHei,Arial;font-size:32px"><tspan x="60.0" textLength="64.0" y="43.0">数据</tspan><tspan x="41.3" textLength="101.5" y="86.0">（99）</tspan></text></g><g id="shape8" transform="translate(388.779470,610.236220)"><path fill-rule="nonzero" fill="#232322" d="M252.1,72.8C254.4,70.6,255.9,67.5,255.9,64.0L255.9,21.0C255.9,16.0,256.8,8.2,252.7,3.8C250.5,1.5,247.4,.0,243.9,.0L21.0,.0C16.0,.0,8.2,-0.9,3.8,3.2C1.5,5.4,.0,8.5,.0,12.0L.0,55.0C.0,60.0,-0.9,67.8,3.2,72.2C5.4,74.5,8.5,76.0,12.0,76.0L234.9,76.0C239.9,76.0,247.7,76.9,252.1,72.8z" stroke="#b7b6b4" stroke-width="2.666670083999634"/><text xml:space="preserve" style="fill:#ffffff;font-family:Microsoft YaHei,PingFang SC,Microsoft YaHei,Arial;font-size:32px"><tspan x="71.5" textLength="112.9" y="51.5">y的指针</tspan></text></g><g id="shape9" transform="translate(295.276079,485.850500)"><path marker-end="url(#edrawArrow_4_2.66667)" fill="none" d="M.0,.0L88.6,153.9" stroke="#b7b6b4" stroke-width="2.666670083999634"/></g><g id="shape10" transform="translate(18.256579,523.850500)"><text xml:space="preserve" style="fill:#b3cc80;font-family:Microsoft YaHei,PingFang SC,Microsoft YaHei,Arial;font-size:32px"><tspan x="8.4" textLength="281.3" y="39.0">需要的是w的可变性</tspan></text></g></g></svg>