<!--Generated by EdrawMax, SVG Export 绘图1.svg 页-1-->
<svg xmlns:ed="https://www.edrawsoft.cn/xml/2017/SVGExtensions/" width="621" xmlns="http://www.w3.org/2000/svg" xmlns:xlink="http://www.w3.org/1999/xlink" height="458" viewBox="0 0 621 458"><defs><marker id="edrawArrow_4_1" markerHeight="10" orient="auto-start-reverse" ed:arrow="4" refY="4" markerUnits="userSpaceOnUse" refX="1" markerWidth="10"><path stroke-linecap="round" stroke="context-stroke" fill="context-stroke" stroke-width="1" d="M1.0,1.0L7.0,4.0L1.0,7.0L1.0,1.0"/></marker><linearGradient id="lg1" y1="0%" y2="100%" x2="0%" x1="0%"><stop offset="0.00" stop-color="#878fd3"/><stop offset="0.65" stop-color="#4155c6"/><stop offset="1.00" stop-color="#3a4cb3"/></linearGradient></defs><g transform="translate(-148.01,-148.01)"><g id="shape1" transform="translate(151.181102,151.181102)"><path stroke="#101843" fill-rule="nonzero" fill="#ffffff" stroke-width="6.333333492279053" d="M252.0,144.2L252.0,7.0C252.0,3.1,248.8,.0,245.0,.0L7.0,.0C3.1,.0,.0,3.1,.0,7.0L.0,144.2C.0,148.0,3.1,151.2,7.0,151.2L245.0,151.2C248.8,151.2,252.0,148.0,252.0,144.2z"/><text style="fill:#191919;font-family:Microsoft YaHei,PingFang SC,Microsoft YaHei,Arial;font-size:13px" xml:space="preserve"><tspan textLength="26.0" y="82.0" x="113.0">编写</tspan></text></g><g id="shape2" transform="translate(403.149606,226.771654)"><path stroke="#191919" marker-end="url(#edrawArrow_4_1)" stroke-width="1" fill="none" d="M.0,.0L106.5,.0"/></g><g id="shape3" transform="translate(516.535433,151.181102)"><path stroke="#101843" fill-rule="nonzero" fill="#b0b4df" stroke-width="1" d="M252.0,144.2L252.0,7.0C252.0,3.1,248.8,.0,245.0,.0L7.0,.0C3.1,.0,.0,3.1,.0,7.0L.0,144.2C.0,148.0,3.1,151.2,7.0,151.2L245.0,151.2C248.8,151.2,252.0,148.0,252.0,144.2z"/><text style="fill:#191919;font-family:Microsoft YaHei,PingFang SC,Microsoft YaHei,Arial;font-size:13px" xml:space="preserve"><tspan textLength="26.0" y="82.0" x="113.0">编译</tspan></text></g><g id="shape4" transform="translate(642.519685,302.362205)"><path stroke="#191919" marker-end="url(#edrawArrow_4_1)" stroke-width="1" fill="none" d="M.0,.0L-0.0,145.2"/></g><g id="shape5" transform="translate(516.535433,453.543409)"><path stroke="#101843" fill-rule="nonzero" fill="url(#lg1)" stroke-width="1" d="M252.0,144.2L252.0,7.0C252.0,3.1,248.8,.0,245.0,.0L7.0,.0C3.1,.0,.0,3.1,.0,7.0L.0,144.2C.0,148.0,3.1,151.2,7.0,151.2L245.0,151.2C248.8,151.2,252.0,148.0,252.0,144.2z"/><text style="fill:#191919;font-family:Microsoft YaHei,PingFang SC,Microsoft YaHei,Arial;font-size:13px" xml:space="preserve"><tspan textLength="26.0" y="82.0" x="113.0">链接</tspan></text></g><path stroke="#101843" id="shape6" fill-rule="nonzero" fill="#ffffff" stroke-width="1" d="M22.0,44.0L78.0,44.0L78.0,44.0C90.2,44.0,100.0,34.2,100.0,22.0C100.0,9.8,90.2,.0,78.0,.0L22.0,.0L22.0,.0C9.8,.0,.0,9.8,.0,22.0C.0,34.2,9.8,44.0,22.0,44.0z" transform="translate(334.645669,359.055118)"/><path stroke="#101843" id="shape7" fill-rule="nonzero" fill="#ffffff" stroke-width="1" d="M22.0,44.0L78.0,44.0L78.0,44.0C90.2,44.0,100.0,34.2,100.0,22.0C100.0,9.8,90.2,.0,78.0,.0L22.0,.0L22.0,.0C9.8,.0,.0,9.8,.0,22.0C.0,34.2,9.8,44.0,22.0,44.0z" transform="translate(227.165354,491.338583)"/></g></svg>